#VRML V2.0 utf8

Shape {
  appearance Appearance {
    material Material {
      diffuseColor 0.7529 0.7529 0.7529
      specularColor 0.3765 0.3765 0.3765
      ambientIntensity 0.2
      transparency 0.0000
      shininess 0.5
    }
  }
  geometry IndexedFaceSet {
    ccw TRUE
    solid FALSE
    coord DEF co Coordinate {
      point [
        -0.428504 -0.114817 0.137795,
        -0.409852 -0.169766 0.137795,
        -0.048934 -0.053163 0.137795,
        -0.313687 -0.313687 0.137795,
        -0.278055 -0.345665 0.137795,
        0.003470 -0.128633 0.137795,
        0.048934 -0.053163 0.137795,
        0.179507 -0.128633 0.137795,
        0.048934 0.053163 0.137795,
        0.179507 0.128633 0.137795,
        -0.048934 0.053163 0.137795,
        0.003470 0.128633 0.137795,
        -0.384186 -0.221810 0.137795,
        -0.351948 -0.270059 0.137795,
        -0.351948 0.270059 0.137795,
        -0.313687 0.313687 0.137795,
        -0.278055 0.345665 0.137795,
        -0.384186 0.221810 0.137795,
        -0.409852 0.169766 0.137795,
        -0.428504 0.114817 0.137795,
        -0.439825 0.057904 0.137795,
        -0.443620 0.000000 0.137795,
        -0.439825 -0.057904 0.137795,
      ]
    }
    coordIndex [
      0, 1, 2, -1,
      3, 4, 2, -1,
      2, 4, 5, -1,
      2, 5, 6, -1,
      6, 5, 7, -1,
      6, 7, 8, -1,
      8, 7, 9, -1,
      8, 9, 10, -1,
      10, 9, 11, -1,
      1, 12, 2, -1,
      2, 12, 13, -1,
      2, 13, 3, -1,
      14, 10, 15, -1,
      15, 10, 11, -1,
      15, 11, 16, -1,
      14, 17, 10, -1,
      10, 17, 18, -1,
      10, 18, 19, -1,
      19, 20, 10, -1,
      10, 20, 21, -1,
      10, 21, 2, -1,
      2, 21, 22, -1,
      2, 22, 0, -1,
    ]
  }
}

Shape {
  appearance Appearance {
    material Material {
      diffuseColor 1.0000 1.0000 1.0000
      specularColor 0.5020 0.5020 0.5020
      ambientIntensity 0.2
      transparency 0.0000
      shininess 0.5
    }
  }
  geometry IndexedFaceSet {
    ccw TRUE
    solid FALSE
    coord DEF co Coordinate {
      point [
        -0.428504 -0.114817 0.137795,
        -0.409852 -0.169766 0.137795,
        -0.313687 -0.313687 0.137795,
        -0.278055 -0.345665 0.137795,
        -0.384186 -0.221810 0.137795,
        -0.351948 -0.270059 0.137795,
        -0.351948 0.270059 0.137795,
        -0.313687 0.313687 0.137795,
        -0.278055 0.345665 0.137795,
        -0.384186 0.221810 0.137795,
        -0.409852 0.169766 0.137795,
        -0.428504 0.114817 0.137795,
        -0.439825 0.057904 0.137795,
        -0.443620 0.000000 0.137795,
        -0.439825 -0.057904 0.137795,
        -0.279907 -0.347092 0.141732,
        -0.210554 0.393049 0.141732,
        -0.208580 0.391527 0.137795,
        -0.169766 0.409852 0.137795,
        -0.361905 0.361905 0.255906,
        -0.279907 0.347092 0.141732,
        -0.311571 0.406047 0.255906,
        -0.271443 0.353751 0.141732,
        -0.255906 0.443241 0.255906,
        -0.222946 0.386155 0.141732,
        -0.195861 0.472852 0.255906,
        -0.361905 -0.361905 0.255906,
        -0.311571 -0.406047 0.255906,
        -0.271443 -0.353751 0.141732,
        -0.222946 -0.386155 0.141732,
        -0.255906 -0.443241 0.255906,
        -0.210554 -0.393049 0.141732,
        -0.195861 -0.472852 0.255906,
        -0.208580 -0.391527 0.137795,
        -0.406047 0.311571 0.255906,
        -0.443241 0.255906 0.255906,
        -0.472852 0.195861 0.255906,
        -0.494372 0.132467 0.255906,
        -0.507432 0.066805 0.255906,
        -0.511811 0.000000 0.255906,
        -0.507432 -0.066805 0.255906,
        -0.494372 -0.132467 0.255906,
        -0.472852 -0.195861 0.255906,
        -0.443241 -0.255906 0.255906,
        -0.406047 -0.311571 0.255906,
        -0.132467 0.494372 0.255906,
        -0.114817 0.428504 0.137795,
        -0.066805 0.507432 0.255906,
        -0.057904 0.439825 0.137795,
        0.000000 0.511811 0.255906,
        0.000000 0.443620 0.137795,
        0.066805 0.507432 0.255906,
        0.057904 0.439825 0.137795,
        0.132467 0.494372 0.255906,
        0.114817 0.428504 0.137795,
        0.195861 0.472852 0.255906,
        0.169766 0.409852 0.137795,
        0.255906 0.443241 0.255906,
        0.221810 0.384186 0.137795,
        0.311571 0.406047 0.255906,
        0.270059 0.351948 0.137795,
        0.361905 0.361905 0.255906,
        0.313687 0.313687 0.137795,
        0.406047 0.311571 0.255906,
        0.351948 0.270059 0.137795,
        0.443241 0.255906 0.255906,
        0.384186 0.221810 0.137795,
        0.472852 0.195861 0.255906,
        0.409852 0.169766 0.137795,
        0.494372 0.132467 0.255906,
        0.428504 0.114817 0.137795,
        0.507432 0.066805 0.255906,
        0.439825 0.057904 0.137795,
        0.511811 0.000000 0.255906,
        0.443620 0.000000 0.137795,
        0.507432 -0.066805 0.255906,
        0.439825 -0.057904 0.137795,
        0.494372 -0.132467 0.255906,
        0.428504 -0.114817 0.137795,
        0.472852 -0.195861 0.255906,
        0.409852 -0.169766 0.137795,
        0.443241 -0.255906 0.255906,
        0.384186 -0.221810 0.137795,
        0.406047 -0.311571 0.255906,
        0.351948 -0.270059 0.137795,
        0.361905 -0.361905 0.255906,
        0.313687 -0.313687 0.137795,
        0.311571 -0.406047 0.255906,
        0.270059 -0.351948 0.137795,
        0.255906 -0.443241 0.255906,
        0.221810 -0.384186 0.137795,
        0.195861 -0.472852 0.255906,
        0.169766 -0.409852 0.137795,
        0.132467 -0.494372 0.255906,
        0.114817 -0.428504 0.137795,
        0.066805 -0.507432 0.255906,
        0.057904 -0.439825 0.137795,
        -0.000000 -0.511811 0.255906,
        -0.000000 -0.443620 0.137795,
        -0.066805 -0.507432 0.255906,
        -0.057904 -0.439825 0.137795,
        -0.132467 -0.494372 0.255906,
        -0.114817 -0.428504 0.137795,
        -0.169766 -0.409852 0.137795,
        -0.043422 -0.528792 -0.255906,
        -0.275591 -0.528792 -0.255906,
        -0.275591 -0.032994 -0.255906,
        -0.043422 0.528792 -0.255906,
        -0.035739 -0.023871 -0.255906,
        -0.043422 -0.032994 -0.255906,
        -0.035739 -0.032514 -0.255906,
        0.006511 -0.032514 -0.255906,
        -0.033819 0.037584 -0.255906,
        -0.004052 0.037584 -0.255906,
        -0.004052 0.011658 -0.255906,
        0.021875 -0.028433 -0.255906,
        0.021875 -0.019790 -0.255906,
        0.006511 0.046226 -0.255906,
        0.030269 -0.031879 -0.255906,
        0.038225 -0.032994 -0.255906,
        -0.004052 0.003015 -0.255906,
        -0.004052 -0.023871 -0.255906,
        -0.031898 0.003015 -0.255906,
        -0.031898 0.011658 -0.255906,
        0.060876 -0.029841 -0.255906,
        0.087172 -0.032514 -0.255906,
        0.053244 -0.032468 -0.255906,
        0.048171 -0.032994 -0.255906,
        -0.033819 0.046226 -0.255906,
        0.076294 0.025487 -0.255906,
        0.071680 0.032849 -0.255906,
        0.116939 0.046226 -0.255906,
        0.048069 0.037674 -0.255906,
        0.053962 0.035547 -0.255906,
        0.023287 -0.020572 -0.255906,
        0.059412 0.031901 -0.255906,
        0.064167 0.026652 -0.255906,
        0.069887 0.006016 -0.255906,
        0.069090 -0.002508 -0.255906,
        0.066951 -0.009281 -0.255906,
        0.049430 -0.024008 -0.255906,
        0.042085 -0.024831 -0.255906,
        0.055167 -0.021896 -0.255906,
        0.060000 -0.018639 -0.255906,
        0.063694 -0.014741 -0.255906,
        0.031633 -0.023672 -0.255906,
        0.067413 0.020572 -0.255906,
        0.069512 0.012143 -0.255906,
        0.064570 0.039686 -0.255906,
        0.127502 0.046226 -0.255906,
        0.275591 0.528792 -0.255906,
        0.127502 -0.032514 -0.255906,
        0.275591 -0.032994 -0.255906,
        0.067210 -0.025796 -0.255906,
        0.073124 -0.019570 -0.255906,
        0.087172 -0.023871 -0.255906,
        0.077319 -0.012083 -0.255906,
        0.116939 -0.023871 -0.255906,
        0.079689 -0.003748 -0.255906,
        0.080450 0.005371 -0.255906,
        0.079318 0.016566 -0.255906,
        0.057092 0.043991 -0.255906,
        0.048314 0.046541 -0.255906,
        0.040405 0.047187 -0.255906,
        0.030979 0.046536 -0.255906,
        0.021875 0.044066 -0.255906,
        0.021875 0.033503 -0.255906,
        0.030744 0.037301 -0.255906,
        0.040315 0.038544 -0.255906,
        0.041388 -0.033437 -0.255906,
        0.275591 -0.528792 -0.255906,
        0.043541 -0.033474 -0.255906,
        -0.120241 -0.032514 -0.255906,
        -0.110548 -0.010933 -0.255906,
        -0.106032 -0.017976 -0.255906,
        -0.191299 -0.032514 -0.255906,
        -0.160572 0.046226 -0.255906,
        -0.275591 0.528792 -0.255906,
        -0.150009 0.046226 -0.255906,
        -0.179776 -0.032514 -0.255906,
        -0.099551 -0.024181 -0.255906,
        -0.091330 -0.028959 -0.255906,
        -0.082257 -0.031663 -0.255906,
        -0.072514 -0.032514 -0.255906,
        -0.051104 -0.032514 -0.255906,
        -0.051104 0.046226 -0.255906,
        -0.073324 0.046226 -0.255906,
        -0.102565 0.035960 -0.255906,
        -0.108133 0.029785 -0.255906,
        -0.111793 0.023014 -0.255906,
        -0.084700 0.045011 -0.255906,
        -0.093913 0.041776 -0.255906,
        -0.102483 0.036032 -0.255906,
        -0.131764 -0.032514 -0.255906,
        -0.139281 -0.010428 -0.255906,
        -0.171809 -0.010428 -0.255906,
        -0.113907 0.015256 -0.255906,
        -0.114480 0.007847 -0.255906,
        -0.113375 -0.002691 -0.255906,
        0.629921 -0.511961 0.000000,
        0.617866 -0.499906 0.137795,
        0.616532 -0.510075 0.137795,
        0.628587 -0.522131 0.000000,
        0.614886 -0.514937 0.137795,
        0.626942 -0.526992 0.000000,
        0.612621 -0.519539 0.137795,
        0.624676 -0.531594 0.000000,
        0.621830 -0.535858 0.000000,
        0.609775 -0.523802 0.137795,
        0.618452 -0.539712 0.000000,
        0.606396 -0.527656 0.137795,
        0.614598 -0.543090 0.000000,
        0.602543 -0.531035 0.137795,
        0.610334 -0.545936 0.000000,
        0.598279 -0.533881 0.137795,
        0.605732 -0.548202 0.000000,
        0.593677 -0.536146 0.137795,
        0.600871 -0.549847 0.000000,
        0.588815 -0.537792 0.137795,
        0.578645 -0.539126 0.137795,
        0.590701 -0.551181 0.000000,
        0.619588 0.423228 -0.118110,
        0.609255 0.491294 -0.236220,
        0.624755 0.423228 -0.059055,
        0.629921 0.511961 -0.000000,
        0.624755 -0.423228 -0.059055,
        0.619588 -0.423228 -0.118110,
        0.609255 -0.491294 -0.236220,
        0.609255 -0.423228 -0.236220,
        0.609255 0.423228 -0.236220,
        0.570034 0.530515 -0.236220,
        0.275591 0.530515 -0.236220,
        0.374016 0.423228 -0.236220,
        0.275591 -0.530515 -0.236220,
        0.374016 -0.423228 -0.236220,
        0.570034 -0.530515 -0.236220,
        0.580204 0.529181 -0.236220,
        0.585066 0.527535 -0.236220,
        0.607921 0.501464 -0.236220,
        0.606275 0.506326 -0.236220,
        0.607921 -0.501464 -0.236220,
        0.585066 -0.527535 -0.236220,
        0.580204 -0.529181 -0.236220,
        0.606275 -0.506326 -0.236220,
        0.604010 -0.510927 -0.236220,
        0.589667 -0.525270 -0.236220,
        0.604010 0.510927 -0.236220,
        0.589667 0.525270 -0.236220,
        0.601164 0.515191 -0.236220,
        0.593931 0.522424 -0.236220,
        0.597785 0.519045 -0.236220,
        0.593931 -0.522424 -0.236220,
        0.601164 -0.515191 -0.236220,
        0.597785 -0.519045 -0.236220,
        -0.609255 0.491294 -0.236220,
        -0.609255 0.423228 -0.236220,
        -0.619588 0.423228 -0.118110,
        -0.609255 -0.423228 -0.236220,
        -0.619588 -0.423228 -0.118110,
        -0.609255 -0.491294 -0.236220,
        -0.624755 -0.423228 -0.059055,
        -0.629921 -0.511961 -0.000000,
        -0.624755 0.423228 -0.059055,
        -0.629921 0.511961 0.000000,
        -0.570034 0.530515 -0.236220,
        -0.374016 0.423228 -0.236220,
        -0.275591 0.530515 -0.236220,
        -0.374016 -0.423228 -0.236220,
        -0.275591 -0.530515 -0.236220,
        -0.570034 -0.530515 -0.236220,
        -0.604010 -0.510927 -0.236220,
        -0.606275 -0.506326 -0.236220,
        -0.585066 -0.527535 -0.236220,
        -0.607921 0.501464 -0.236220,
        -0.585066 0.527535 -0.236220,
        -0.580204 0.529181 -0.236220,
        -0.606275 0.506326 -0.236220,
        -0.604010 0.510927 -0.236220,
        -0.589667 0.525270 -0.236220,
        -0.580204 -0.529181 -0.236220,
        -0.607921 -0.501464 -0.236220,
        -0.593931 0.522424 -0.236220,
        -0.601164 0.515191 -0.236220,
        -0.597785 0.519045 -0.236220,
        -0.589667 -0.525270 -0.236220,
        -0.593931 -0.522424 -0.236220,
        -0.601164 -0.515191 -0.236220,
        -0.597785 -0.519045 -0.236220,
        -0.590701 0.551181 0.000000,
        -0.600871 0.549847 0.000000,
        -0.605732 0.548202 0.000000,
        -0.610334 0.545936 0.000000,
        -0.614598 0.543090 0.000000,
        -0.618452 0.539712 0.000000,
        -0.621830 0.535858 0.000000,
        -0.624676 0.531594 0.000000,
        -0.626942 0.526992 0.000000,
        -0.628587 0.522131 0.000000,
        -0.628587 -0.522131 0.000000,
        -0.626942 -0.526992 0.000000,
        -0.624676 -0.531594 0.000000,
        -0.621830 -0.535858 0.000000,
        -0.618452 -0.539712 0.000000,
        -0.614598 -0.543090 0.000000,
        -0.610334 -0.545936 0.000000,
        -0.605732 -0.548202 0.000000,
        -0.600871 -0.549847 0.000000,
        -0.590701 -0.551181 0.000000,
        0.590701 0.551181 -0.000000,
        0.617866 -0.248276 0.137795,
        0.607532 -0.258609 0.255906,
        0.607532 0.489572 0.255906,
        -0.568312 0.528792 0.255906,
        0.568312 0.528792 0.255906,
        -0.607532 0.489572 0.255906,
        -0.607532 -0.489572 0.255906,
        0.327016 -0.539126 0.137795,
        0.337350 -0.528792 0.255906,
        -0.568312 -0.528792 0.255906,
        -0.587945 -0.523548 0.255906,
        -0.583344 -0.525813 0.255906,
        -0.606199 -0.499742 0.255906,
        -0.578482 -0.527459 0.255906,
        -0.604553 -0.504604 0.255906,
        -0.602287 -0.509205 0.255906,
        -0.599442 -0.513469 0.255906,
        -0.602287 0.509205 0.255906,
        -0.604553 0.504604 0.255906,
        -0.578482 0.527459 0.255906,
        -0.606199 0.499742 0.255906,
        -0.596063 -0.517323 0.255906,
        -0.592209 -0.520702 0.255906,
        0.587945 0.523548 0.255906,
        0.583344 0.525813 0.255906,
        -0.583344 0.525813 0.255906,
        -0.587945 0.523548 0.255906,
        -0.592209 0.520702 0.255906,
        0.606199 0.499742 0.255906,
        0.578482 0.527459 0.255906,
        -0.596063 0.517323 0.255906,
        -0.599442 0.513469 0.255906,
        0.604553 0.504604 0.255906,
        0.602287 0.509205 0.255906,
        0.599442 0.513469 0.255906,
        0.596063 0.517323 0.255906,
        0.592209 0.520702 0.255906,
        0.600871 0.549847 -0.000000,
        0.605732 0.548202 -0.000000,
        0.610334 0.545936 -0.000000,
        0.614598 0.543090 -0.000000,
        0.618452 0.539712 -0.000000,
        0.621830 0.535858 -0.000000,
        0.624676 0.531594 -0.000000,
        0.626942 0.526992 -0.000000,
        0.628587 0.522131 -0.000000,
      ]
    }
    coordIndex [
      15, 3, 2, -1,
      16, 17, 18, -1,
      19, 20, 21, -1,
      21, 20, 22, -1,
      21, 22, 23, -1,
      23, 22, 24, -1,
      23, 24, 25, -1,
      26, 27, 28, -1,
      28, 27, 29, -1,
      29, 27, 30, -1,
      29, 30, 31, -1,
      31, 30, 32, -1,
      31, 32, 33, -1,
      8, 20, 7, -1,
      7, 20, 19, -1,
      7, 19, 6, -1,
      6, 19, 34, -1,
      6, 34, 9, -1,
      9, 34, 35, -1,
      9, 35, 10, -1,
      10, 35, 36, -1,
      10, 36, 11, -1,
      11, 36, 37, -1,
      11, 37, 12, -1,
      12, 37, 38, -1,
      12, 38, 13, -1,
      13, 38, 39, -1,
      13, 39, 14, -1,
      14, 39, 40, -1,
      14, 40, 0, -1,
      0, 40, 41, -1,
      0, 41, 1, -1,
      1, 41, 42, -1,
      1, 42, 4, -1,
      4, 42, 43, -1,
      4, 43, 5, -1,
      5, 43, 44, -1,
      5, 44, 2, -1,
      2, 44, 26, -1,
      2, 26, 15, -1,
      15, 26, 28, -1,
      24, 16, 25, -1,
      25, 16, 18, -1,
      25, 18, 45, -1,
      45, 18, 46, -1,
      45, 46, 47, -1,
      47, 46, 48, -1,
      47, 48, 49, -1,
      49, 48, 50, -1,
      49, 50, 51, -1,
      51, 50, 52, -1,
      51, 52, 53, -1,
      53, 52, 54, -1,
      53, 54, 55, -1,
      55, 54, 56, -1,
      55, 56, 57, -1,
      57, 56, 58, -1,
      57, 58, 59, -1,
      59, 58, 60, -1,
      59, 60, 61, -1,
      61, 60, 62, -1,
      61, 62, 63, -1,
      63, 62, 64, -1,
      63, 64, 65, -1,
      65, 64, 66, -1,
      65, 66, 67, -1,
      67, 66, 68, -1,
      67, 68, 69, -1,
      69, 68, 70, -1,
      69, 70, 71, -1,
      71, 70, 72, -1,
      71, 72, 73, -1,
      73, 72, 74, -1,
      73, 74, 75, -1,
      75, 74, 76, -1,
      75, 76, 77, -1,
      77, 76, 78, -1,
      77, 78, 79, -1,
      79, 78, 80, -1,
      79, 80, 81, -1,
      81, 80, 82, -1,
      81, 82, 83, -1,
      83, 82, 84, -1,
      83, 84, 85, -1,
      85, 84, 86, -1,
      85, 86, 87, -1,
      87, 86, 88, -1,
      87, 88, 89, -1,
      89, 88, 90, -1,
      89, 90, 91, -1,
      91, 90, 92, -1,
      91, 92, 93, -1,
      93, 92, 94, -1,
      93, 94, 95, -1,
      95, 94, 96, -1,
      95, 96, 97, -1,
      97, 96, 98, -1,
      97, 98, 99, -1,
      99, 98, 100, -1,
      99, 100, 101, -1,
      101, 100, 102, -1,
      101, 102, 32, -1,
      32, 102, 103, -1,
      32, 103, 33, -1,
      104, 105, 106, -1,
      107, 108, 109, -1,
      109, 108, 110, -1,
      109, 110, 111, -1,
      112, 113, 114, -1,
      115, 111, 116, -1,
      116, 111, 117, -1,
      115, 118, 111, -1,
      111, 118, 119, -1,
      111, 119, 109, -1,
      120, 121, 122, -1,
      122, 121, 108, -1,
      122, 108, 123, -1,
      124, 125, 126, -1,
      126, 125, 127, -1,
      114, 123, 112, -1,
      112, 123, 108, -1,
      112, 108, 128, -1,
      128, 108, 107, -1,
      128, 107, 117, -1,
      129, 130, 131, -1,
      132, 133, 134, -1,
      134, 133, 135, -1,
      134, 135, 136, -1,
      137, 138, 134, -1,
      134, 138, 139, -1,
      140, 141, 142, -1,
      142, 141, 143, -1,
      139, 144, 134, -1,
      134, 144, 143, -1,
      134, 143, 145, -1,
      145, 143, 141, -1,
      136, 146, 134, -1,
      134, 146, 147, -1,
      134, 147, 137, -1,
      130, 148, 131, -1,
      131, 148, 107, -1,
      131, 107, 149, -1,
      149, 107, 150, -1,
      149, 150, 151, -1,
      151, 150, 152, -1,
      124, 153, 125, -1,
      125, 153, 154, -1,
      125, 154, 155, -1,
      155, 154, 156, -1,
      155, 156, 157, -1,
      156, 158, 157, -1,
      157, 158, 159, -1,
      157, 159, 131, -1,
      131, 159, 160, -1,
      131, 160, 129, -1,
      148, 161, 107, -1,
      107, 161, 162, -1,
      107, 162, 163, -1,
      163, 164, 107, -1,
      107, 164, 165, -1,
      107, 165, 117, -1,
      117, 165, 166, -1,
      117, 166, 116, -1,
      116, 166, 167, -1,
      116, 167, 134, -1,
      134, 167, 168, -1,
      134, 168, 132, -1,
      104, 169, 170, -1,
      170, 169, 171, -1,
      170, 171, 152, -1,
      152, 171, 127, -1,
      152, 127, 151, -1,
      151, 127, 125, -1,
      172, 173, 174, -1,
      175, 106, 176, -1,
      176, 106, 177, -1,
      176, 177, 178, -1,
      178, 177, 107, -1,
      175, 179, 106, -1,
      106, 179, 109, -1,
      106, 109, 104, -1,
      104, 109, 119, -1,
      104, 119, 169, -1,
      174, 180, 172, -1,
      172, 180, 181, -1,
      172, 181, 182, -1,
      183, 184, 109, -1,
      109, 184, 185, -1,
      109, 185, 107, -1,
      107, 185, 186, -1,
      187, 188, 178, -1,
      178, 188, 189, -1,
      186, 190, 107, -1,
      107, 190, 191, -1,
      107, 191, 178, -1,
      178, 191, 192, -1,
      178, 192, 187, -1,
      182, 183, 172, -1,
      172, 183, 109, -1,
      172, 109, 193, -1,
      193, 109, 179, -1,
      193, 179, 194, -1,
      194, 179, 195, -1,
      189, 196, 178, -1,
      178, 196, 197, -1,
      178, 197, 172, -1,
      172, 197, 198, -1,
      172, 198, 173, -1,
      199, 200, 201, -1,
      199, 201, 202, -1,
      202, 201, 203, -1,
      202, 203, 204, -1,
      204, 203, 205, -1,
      204, 205, 206, -1,
      206, 205, 207, -1,
      207, 205, 208, -1,
      207, 208, 209, -1,
      209, 208, 210, -1,
      209, 210, 211, -1,
      211, 210, 212, -1,
      211, 212, 213, -1,
      213, 212, 214, -1,
      213, 214, 215, -1,
      215, 214, 216, -1,
      215, 216, 217, -1,
      216, 218, 217, -1,
      217, 218, 219, -1,
      217, 219, 220, -1,
      221, 222, 223, -1,
      223, 222, 224, -1,
      223, 224, 225, -1,
      225, 224, 199, -1,
      225, 199, 226, -1,
      199, 227, 226, -1,
      226, 227, 228, -1,
      226, 228, 221, -1,
      221, 228, 229, -1,
      221, 229, 222, -1,
      222, 229, 230, -1,
      230, 229, 231, -1,
      231, 229, 232, -1,
      231, 232, 233, -1,
      233, 232, 234, -1,
      233, 234, 235, -1,
      235, 234, 228, -1,
      235, 228, 227, -1,
      230, 236, 222, -1,
      222, 236, 237, -1,
      222, 237, 238, -1,
      238, 237, 239, -1,
      240, 241, 227, -1,
      227, 241, 242, -1,
      227, 242, 235, -1,
      240, 243, 241, -1,
      241, 243, 244, -1,
      241, 244, 245, -1,
      239, 237, 246, -1,
      246, 237, 247, -1,
      246, 247, 248, -1,
      248, 247, 249, -1,
      248, 249, 250, -1,
      245, 244, 251, -1,
      251, 244, 252, -1,
      251, 252, 253, -1,
      254, 255, 256, -1,
      256, 255, 257, -1,
      256, 257, 258, -1,
      258, 257, 259, -1,
      258, 259, 260, -1,
      260, 259, 261, -1,
      260, 261, 262, -1,
      262, 261, 263, -1,
      262, 263, 256, -1,
      256, 263, 254, -1,
      264, 255, 254, -1,
      255, 264, 265, -1,
      265, 264, 266, -1,
      265, 266, 267, -1,
      267, 266, 268, -1,
      267, 268, 257, -1,
      257, 268, 269, -1,
      257, 269, 259, -1,
      270, 271, 272, -1,
      273, 274, 254, -1,
      254, 274, 275, -1,
      254, 275, 264, -1,
      273, 276, 274, -1,
      274, 276, 277, -1,
      274, 277, 278, -1,
      269, 279, 259, -1,
      259, 279, 272, -1,
      259, 272, 280, -1,
      280, 272, 271, -1,
      278, 277, 281, -1,
      281, 277, 282, -1,
      281, 282, 283, -1,
      272, 284, 270, -1,
      270, 284, 285, -1,
      270, 285, 286, -1,
      286, 285, 287, -1,
      288, 264, 275, -1,
      288, 275, 289, -1,
      289, 275, 274, -1,
      289, 274, 290, -1,
      290, 274, 278, -1,
      290, 278, 291, -1,
      291, 278, 281, -1,
      291, 281, 292, -1,
      292, 281, 283, -1,
      292, 283, 293, -1,
      293, 283, 294, -1,
      294, 283, 282, -1,
      294, 282, 295, -1,
      295, 282, 277, -1,
      295, 277, 296, -1,
      296, 277, 276, -1,
      296, 276, 297, -1,
      276, 273, 297, -1,
      297, 273, 254, -1,
      297, 254, 263, -1,
      261, 259, 280, -1,
      261, 280, 298, -1,
      298, 280, 271, -1,
      298, 271, 299, -1,
      299, 271, 270, -1,
      299, 270, 300, -1,
      300, 270, 286, -1,
      300, 286, 301, -1,
      301, 286, 287, -1,
      301, 287, 302, -1,
      302, 287, 303, -1,
      303, 287, 285, -1,
      303, 285, 304, -1,
      304, 285, 284, -1,
      304, 284, 305, -1,
      305, 284, 272, -1,
      305, 272, 306, -1,
      272, 279, 306, -1,
      306, 279, 269, -1,
      306, 269, 307, -1,
      235, 220, 233, -1,
      233, 220, 307, -1,
      307, 269, 268, -1,
      268, 105, 104, -1,
      307, 268, 233, -1,
      233, 268, 104, -1,
      233, 104, 170, -1,
      266, 264, 288, -1,
      107, 177, 266, -1,
      308, 230, 231, -1,
      288, 308, 266, -1,
      266, 308, 231, -1,
      266, 231, 107, -1,
      107, 231, 150, -1,
      200, 199, 309, -1,
      309, 199, 224, -1,
      309, 224, 310, -1,
      310, 224, 311, -1,
      312, 313, 288, -1,
      288, 313, 308, -1,
      263, 261, 314, -1,
      314, 261, 315, -1,
      220, 219, 316, -1,
      317, 318, 316, -1,
      316, 318, 307, -1,
      316, 307, 220, -1,
      101, 32, 318, -1,
      318, 32, 30, -1,
      310, 77, 79, -1,
      37, 36, 314, -1,
      21, 23, 312, -1,
      312, 23, 25, -1,
      312, 25, 45, -1,
      79, 81, 310, -1,
      310, 81, 83, -1,
      310, 83, 317, -1,
      317, 83, 85, -1,
      317, 85, 87, -1,
      87, 89, 317, -1,
      317, 89, 91, -1,
      317, 91, 93, -1,
      319, 320, 26, -1,
      43, 42, 315, -1,
      315, 42, 41, -1,
      41, 40, 315, -1,
      315, 40, 39, -1,
      315, 39, 314, -1,
      314, 39, 38, -1,
      314, 38, 37, -1,
      321, 26, 315, -1,
      315, 26, 44, -1,
      315, 44, 43, -1,
      30, 27, 318, -1,
      318, 27, 26, -1,
      318, 26, 322, -1,
      322, 26, 320, -1,
      53, 55, 313, -1,
      313, 55, 57, -1,
      93, 95, 317, -1,
      317, 95, 97, -1,
      317, 97, 318, -1,
      318, 97, 99, -1,
      318, 99, 101, -1,
      321, 323, 26, -1,
      26, 323, 324, -1,
      26, 324, 325, -1,
      326, 327, 34, -1,
      45, 47, 312, -1,
      312, 47, 49, -1,
      312, 49, 313, -1,
      313, 49, 51, -1,
      313, 51, 53, -1,
      328, 34, 312, -1,
      312, 34, 19, -1,
      312, 19, 21, -1,
      36, 35, 314, -1,
      314, 35, 34, -1,
      314, 34, 329, -1,
      329, 34, 327, -1,
      325, 330, 26, -1,
      26, 330, 331, -1,
      26, 331, 319, -1,
      332, 333, 61, -1,
      328, 334, 34, -1,
      34, 334, 335, -1,
      34, 335, 336, -1,
      63, 311, 61, -1,
      61, 311, 337, -1,
      57, 59, 313, -1,
      313, 59, 61, -1,
      313, 61, 338, -1,
      338, 61, 333, -1,
      63, 65, 311, -1,
      311, 65, 67, -1,
      311, 67, 69, -1,
      69, 71, 311, -1,
      311, 71, 73, -1,
      311, 73, 310, -1,
      310, 73, 75, -1,
      310, 75, 77, -1,
      336, 339, 34, -1,
      34, 339, 340, -1,
      34, 340, 326, -1,
      337, 341, 61, -1,
      61, 341, 342, -1,
      61, 342, 343, -1,
      343, 344, 61, -1,
      61, 344, 345, -1,
      61, 345, 332, -1,
      263, 314, 329, -1,
      263, 329, 297, -1,
      297, 329, 327, -1,
      297, 327, 296, -1,
      296, 327, 326, -1,
      296, 326, 295, -1,
      295, 326, 340, -1,
      295, 340, 294, -1,
      294, 340, 339, -1,
      294, 339, 293, -1,
      293, 339, 292, -1,
      292, 339, 336, -1,
      292, 336, 291, -1,
      291, 336, 335, -1,
      291, 335, 290, -1,
      290, 335, 334, -1,
      290, 334, 289, -1,
      334, 328, 289, -1,
      289, 328, 312, -1,
      289, 312, 288, -1,
      308, 313, 338, -1,
      308, 338, 346, -1,
      346, 338, 333, -1,
      346, 333, 347, -1,
      347, 333, 332, -1,
      347, 332, 348, -1,
      348, 332, 345, -1,
      348, 345, 349, -1,
      349, 345, 344, -1,
      349, 344, 350, -1,
      350, 344, 351, -1,
      351, 344, 343, -1,
      351, 343, 352, -1,
      352, 343, 342, -1,
      352, 342, 353, -1,
      353, 342, 341, -1,
      353, 341, 354, -1,
      341, 337, 354, -1,
      354, 337, 311, -1,
      354, 311, 224, -1,
      224, 222, 238, -1,
      224, 238, 354, -1,
      354, 238, 239, -1,
      354, 239, 353, -1,
      353, 239, 246, -1,
      353, 246, 352, -1,
      352, 246, 248, -1,
      352, 248, 351, -1,
      351, 248, 250, -1,
      351, 250, 350, -1,
      350, 250, 349, -1,
      349, 250, 249, -1,
      349, 249, 348, -1,
      348, 249, 247, -1,
      348, 247, 347, -1,
      347, 247, 237, -1,
      347, 237, 346, -1,
      237, 236, 346, -1,
      346, 236, 230, -1,
      346, 230, 308, -1,
      220, 235, 242, -1,
      220, 242, 217, -1,
      217, 242, 241, -1,
      217, 241, 215, -1,
      215, 241, 245, -1,
      215, 245, 213, -1,
      213, 245, 251, -1,
      213, 251, 211, -1,
      211, 251, 253, -1,
      211, 253, 209, -1,
      209, 253, 207, -1,
      207, 253, 252, -1,
      207, 252, 206, -1,
      206, 252, 244, -1,
      206, 244, 204, -1,
      204, 244, 243, -1,
      204, 243, 202, -1,
      243, 240, 202, -1,
      202, 240, 227, -1,
      202, 227, 199, -1,
      307, 318, 322, -1,
      307, 322, 306, -1,
      306, 322, 320, -1,
      306, 320, 305, -1,
      305, 320, 319, -1,
      305, 319, 304, -1,
      304, 319, 331, -1,
      304, 331, 303, -1,
      303, 331, 330, -1,
      303, 330, 302, -1,
      302, 330, 301, -1,
      301, 330, 325, -1,
      301, 325, 300, -1,
      300, 325, 324, -1,
      300, 324, 299, -1,
      299, 324, 323, -1,
      299, 323, 298, -1,
      323, 321, 298, -1,
      298, 321, 315, -1,
      298, 315, 261, -1,
      105, 268, 106, -1,
      106, 268, 266, -1,
      106, 266, 177, -1,
      150, 231, 152, -1,
      152, 231, 233, -1,
      152, 233, 170, -1,
    ]
  }
}

Shape {
  appearance Appearance {
    material Material {
      diffuseColor 0.7529 0.7529 0.7529
      specularColor 0.3765 0.3765 0.3765
      ambientIntensity 0.2
      transparency 0.0000
      shininess 0.5
    }
  }
  geometry IndexedFaceSet {
    ccw TRUE
    solid FALSE
    coord DEF co Coordinate {
      point [
        0.619588 0.423228 -0.118110,
        0.624755 0.423228 -0.059055,
        0.624755 -0.423228 -0.059055,
        0.619588 -0.423228 -0.118110,
        0.609255 -0.423228 -0.236220,
        0.609255 0.423228 -0.236220,
        0.374016 0.423228 -0.236220,
        0.374016 -0.423228 -0.236220,
        -0.609255 0.423228 -0.236220,
        -0.619588 0.423228 -0.118110,
        -0.609255 -0.423228 -0.236220,
        -0.619588 -0.423228 -0.118110,
        -0.624755 -0.423228 -0.059055,
        -0.624755 0.423228 -0.059055,
        -0.374016 0.423228 -0.236220,
        -0.374016 -0.423228 -0.236220,
        -0.625984 0.423228 -0.236220,
        -0.625984 -0.423228 -0.236220,
        -0.374016 0.423228 -0.295276,
        -0.374016 -0.423228 -0.295276,
        -0.625984 0.423228 -0.295276,
        -0.625984 -0.423228 -0.295276,
        -0.642288 -0.423228 -0.293129,
        -0.642288 0.423228 -0.293129,
        -0.657480 -0.423228 -0.286836,
        -0.657480 0.423228 -0.286836,
        -0.670526 -0.423228 -0.276826,
        -0.670526 0.423228 -0.276826,
        -0.680537 -0.423228 -0.263780,
        -0.680537 0.423228 -0.263780,
        -0.686830 -0.423228 -0.248587,
        -0.686830 0.423228 -0.248587,
        -0.688976 -0.423228 -0.232283,
        -0.688976 0.423228 -0.232283,
        -0.688976 0.423228 -0.122047,
        -0.688976 -0.423228 -0.122047,
        -0.686830 -0.423228 -0.105744,
        -0.686830 0.423228 -0.105744,
        -0.680537 -0.423228 -0.090551,
        -0.680537 0.423228 -0.090551,
        -0.670526 -0.423228 -0.077505,
        -0.670526 0.423228 -0.077505,
        -0.657480 -0.423228 -0.067494,
        -0.657480 0.423228 -0.067494,
        -0.642288 -0.423228 -0.061202,
        -0.642288 0.423228 -0.061202,
        -0.625984 -0.423228 -0.059055,
        -0.625984 0.423228 -0.059055,
        -0.625984 -0.423228 -0.118110,
        -0.625984 0.423228 -0.118110,
        -0.627003 0.423228 -0.118244,
        -0.627003 -0.423228 -0.118244,
        -0.627953 0.423228 -0.118638,
        -0.627953 -0.423228 -0.118638,
        -0.628768 0.423228 -0.119263,
        -0.628768 -0.423228 -0.119263,
        -0.629394 0.423228 -0.120079,
        -0.629394 -0.423228 -0.120079,
        -0.629787 0.423228 -0.121028,
        -0.629787 -0.423228 -0.121028,
        -0.629921 0.423228 -0.122047,
        -0.629921 -0.423228 -0.122047,
        -0.629921 0.423228 -0.232283,
        -0.629921 -0.423228 -0.232283,
        -0.629787 0.423228 -0.233302,
        -0.629787 -0.423228 -0.233302,
        -0.629394 0.423228 -0.234252,
        -0.629394 -0.423228 -0.234252,
        -0.628768 0.423228 -0.235067,
        -0.628768 -0.423228 -0.235067,
        -0.627953 0.423228 -0.235693,
        -0.627953 -0.423228 -0.235693,
        -0.627003 0.423228 -0.236086,
        -0.627003 -0.423228 -0.236086,
        0.625984 -0.423228 -0.236220,
        0.625984 0.423228 -0.236220,
        0.627003 0.423228 -0.236086,
        0.627003 -0.423228 -0.236086,
        0.627953 0.423228 -0.235693,
        0.627953 -0.423228 -0.235693,
        0.628768 0.423228 -0.235067,
        0.628768 -0.423228 -0.235067,
        0.629394 0.423228 -0.234252,
        0.629394 -0.423228 -0.234252,
        0.629787 0.423228 -0.233302,
        0.629787 -0.423228 -0.233302,
        0.629921 0.423228 -0.232283,
        0.629921 -0.423228 -0.232283,
        0.629921 0.423228 -0.122047,
        0.629921 -0.423228 -0.122047,
        0.629787 0.423228 -0.121028,
        0.629787 -0.423228 -0.121028,
        0.629394 0.423228 -0.120079,
        0.629394 -0.423228 -0.120079,
        0.628768 0.423228 -0.119263,
        0.628768 -0.423228 -0.119263,
        0.627953 0.423228 -0.118638,
        0.627953 -0.423228 -0.118638,
        0.627003 0.423228 -0.118244,
        0.627003 -0.423228 -0.118244,
        0.625984 0.423228 -0.118110,
        0.625984 -0.423228 -0.118110,
        0.625984 -0.423228 -0.059055,
        0.625984 0.423228 -0.059055,
        0.642288 -0.423228 -0.061202,
        0.642288 0.423228 -0.061202,
        0.657480 -0.423228 -0.067494,
        0.657480 0.423228 -0.067494,
        0.670526 -0.423228 -0.077505,
        0.670526 0.423228 -0.077505,
        0.680537 -0.423228 -0.090551,
        0.680537 0.423228 -0.090551,
        0.686830 -0.423228 -0.105744,
        0.686830 0.423228 -0.105744,
        0.688976 -0.423228 -0.122047,
        0.688976 0.423228 -0.122047,
        0.688976 0.423228 -0.232283,
        0.688976 -0.423228 -0.232283,
        0.686830 -0.423228 -0.248587,
        0.686830 0.423228 -0.248587,
        0.680537 -0.423228 -0.263780,
        0.680537 0.423228 -0.263780,
        0.670526 -0.423228 -0.276826,
        0.670526 0.423228 -0.276826,
        0.657480 -0.423228 -0.286836,
        0.657480 0.423228 -0.286836,
        0.642288 -0.423228 -0.293129,
        0.642288 0.423228 -0.293129,
        0.625984 -0.423228 -0.295276,
        0.625984 0.423228 -0.295276,
        0.374016 0.423228 -0.295276,
        0.374016 -0.423228 -0.295276,
      ]
    }
    coordIndex [
      16, 17, 8, -1,
      8, 17, 10, -1,
      18, 14, 19, -1,
      19, 14, 15, -1,
      20, 18, 21, -1,
      21, 18, 19, -1,
      20, 21, 22, -1,
      20, 22, 23, -1,
      23, 22, 24, -1,
      23, 24, 25, -1,
      25, 24, 26, -1,
      25, 26, 27, -1,
      27, 26, 28, -1,
      27, 28, 29, -1,
      29, 28, 30, -1,
      29, 30, 31, -1,
      31, 30, 32, -1,
      31, 32, 33, -1,
      34, 33, 35, -1,
      35, 33, 32, -1,
      34, 35, 36, -1,
      34, 36, 37, -1,
      37, 36, 38, -1,
      37, 38, 39, -1,
      39, 38, 40, -1,
      39, 40, 41, -1,
      41, 40, 42, -1,
      41, 42, 43, -1,
      43, 42, 44, -1,
      43, 44, 45, -1,
      45, 44, 46, -1,
      45, 46, 47, -1,
      13, 47, 12, -1,
      12, 47, 46, -1,
      48, 49, 11, -1,
      11, 49, 9, -1,
      49, 48, 50, -1,
      50, 48, 51, -1,
      50, 51, 52, -1,
      52, 51, 53, -1,
      52, 53, 54, -1,
      54, 53, 55, -1,
      54, 55, 56, -1,
      56, 55, 57, -1,
      56, 57, 58, -1,
      58, 57, 59, -1,
      58, 59, 60, -1,
      60, 59, 61, -1,
      62, 60, 63, -1,
      63, 60, 61, -1,
      62, 63, 64, -1,
      64, 63, 65, -1,
      64, 65, 66, -1,
      66, 65, 67, -1,
      66, 67, 68, -1,
      68, 67, 69, -1,
      68, 69, 70, -1,
      70, 69, 71, -1,
      70, 71, 72, -1,
      72, 71, 73, -1,
      72, 73, 16, -1,
      16, 73, 17, -1,
      14, 18, 8, -1,
      8, 18, 20, -1,
      13, 9, 47, -1,
      47, 9, 49, -1,
      47, 49, 45, -1,
      45, 49, 50, -1,
      45, 50, 43, -1,
      43, 50, 52, -1,
      43, 52, 41, -1,
      41, 52, 54, -1,
      41, 54, 39, -1,
      39, 54, 56, -1,
      39, 56, 37, -1,
      37, 56, 58, -1,
      37, 58, 34, -1,
      34, 58, 60, -1,
      34, 60, 33, -1,
      33, 60, 62, -1,
      33, 62, 31, -1,
      31, 62, 64, -1,
      31, 64, 29, -1,
      29, 64, 66, -1,
      29, 66, 27, -1,
      27, 66, 68, -1,
      27, 68, 25, -1,
      25, 68, 70, -1,
      25, 70, 23, -1,
      23, 70, 72, -1,
      23, 72, 20, -1,
      20, 72, 16, -1,
      20, 16, 8, -1,
      11, 12, 48, -1,
      48, 12, 46, -1,
      48, 46, 51, -1,
      51, 46, 44, -1,
      51, 44, 53, -1,
      53, 44, 42, -1,
      53, 42, 55, -1,
      55, 42, 40, -1,
      55, 40, 57, -1,
      57, 40, 38, -1,
      57, 38, 59, -1,
      59, 38, 36, -1,
      59, 36, 61, -1,
      61, 36, 35, -1,
      61, 35, 63, -1,
      63, 35, 32, -1,
      63, 32, 65, -1,
      65, 32, 30, -1,
      65, 30, 67, -1,
      67, 30, 28, -1,
      67, 28, 69, -1,
      69, 28, 26, -1,
      69, 26, 71, -1,
      71, 26, 24, -1,
      71, 24, 73, -1,
      73, 24, 22, -1,
      73, 22, 17, -1,
      17, 22, 21, -1,
      17, 21, 10, -1,
      10, 21, 19, -1,
      10, 19, 15, -1,
      4, 74, 5, -1,
      5, 74, 75, -1,
      75, 74, 76, -1,
      76, 74, 77, -1,
      76, 77, 78, -1,
      78, 77, 79, -1,
      78, 79, 80, -1,
      80, 79, 81, -1,
      80, 81, 82, -1,
      82, 81, 83, -1,
      82, 83, 84, -1,
      84, 83, 85, -1,
      84, 85, 86, -1,
      86, 85, 87, -1,
      88, 86, 89, -1,
      89, 86, 87, -1,
      88, 89, 90, -1,
      90, 89, 91, -1,
      90, 91, 92, -1,
      92, 91, 93, -1,
      92, 93, 94, -1,
      94, 93, 95, -1,
      94, 95, 96, -1,
      96, 95, 97, -1,
      96, 97, 98, -1,
      98, 97, 99, -1,
      98, 99, 100, -1,
      100, 99, 101, -1,
      0, 100, 3, -1,
      3, 100, 101, -1,
      102, 103, 2, -1,
      2, 103, 1, -1,
      103, 102, 104, -1,
      103, 104, 105, -1,
      105, 104, 106, -1,
      105, 106, 107, -1,
      107, 106, 108, -1,
      107, 108, 109, -1,
      109, 108, 110, -1,
      109, 110, 111, -1,
      111, 110, 112, -1,
      111, 112, 113, -1,
      113, 112, 114, -1,
      113, 114, 115, -1,
      116, 115, 117, -1,
      117, 115, 114, -1,
      116, 117, 118, -1,
      116, 118, 119, -1,
      119, 118, 120, -1,
      119, 120, 121, -1,
      121, 120, 122, -1,
      121, 122, 123, -1,
      123, 122, 124, -1,
      123, 124, 125, -1,
      125, 124, 126, -1,
      125, 126, 127, -1,
      127, 126, 128, -1,
      127, 128, 129, -1,
      130, 129, 131, -1,
      131, 129, 128, -1,
      6, 130, 7, -1,
      7, 130, 131, -1,
      0, 1, 100, -1,
      100, 1, 103, -1,
      100, 103, 98, -1,
      98, 103, 105, -1,
      98, 105, 96, -1,
      96, 105, 107, -1,
      96, 107, 94, -1,
      94, 107, 109, -1,
      94, 109, 92, -1,
      92, 109, 111, -1,
      92, 111, 90, -1,
      90, 111, 113, -1,
      90, 113, 88, -1,
      88, 113, 115, -1,
      88, 115, 86, -1,
      86, 115, 116, -1,
      86, 116, 84, -1,
      84, 116, 119, -1,
      84, 119, 82, -1,
      82, 119, 121, -1,
      82, 121, 80, -1,
      80, 121, 123, -1,
      80, 123, 78, -1,
      78, 123, 125, -1,
      78, 125, 76, -1,
      76, 125, 127, -1,
      76, 127, 75, -1,
      75, 127, 129, -1,
      75, 129, 5, -1,
      5, 129, 130, -1,
      5, 130, 6, -1,
      7, 131, 4, -1,
      4, 131, 128, -1,
      2, 3, 102, -1,
      102, 3, 101, -1,
      102, 101, 104, -1,
      104, 101, 99, -1,
      104, 99, 106, -1,
      106, 99, 97, -1,
      106, 97, 108, -1,
      108, 97, 95, -1,
      108, 95, 110, -1,
      110, 95, 93, -1,
      110, 93, 112, -1,
      112, 93, 91, -1,
      112, 91, 114, -1,
      114, 91, 89, -1,
      114, 89, 117, -1,
      117, 89, 87, -1,
      117, 87, 118, -1,
      118, 87, 85, -1,
      118, 85, 120, -1,
      120, 85, 83, -1,
      120, 83, 122, -1,
      122, 83, 81, -1,
      122, 81, 124, -1,
      124, 81, 79, -1,
      124, 79, 126, -1,
      126, 79, 77, -1,
      126, 77, 128, -1,
      128, 77, 74, -1,
      128, 74, 4, -1,
    ]
  }
}

Shape {
  appearance Appearance {
    material Material {
      diffuseColor 1.0000 1.0000 1.0000
      specularColor 0.5020 0.5020 0.5020
      ambientIntensity 0.2
      transparency 0.0000
      shininess 0.5
    }
  }
  geometry IndexedFaceSet {
    ccw TRUE
    solid FALSE
    coord DEF co Coordinate {
      point [
        0.617866 -0.499906 0.137795,
        0.616532 -0.510075 0.137795,
        0.614886 -0.514937 0.137795,
        0.612621 -0.519539 0.137795,
        0.609775 -0.523802 0.137795,
        0.606396 -0.527656 0.137795,
        0.602543 -0.531035 0.137795,
        0.598279 -0.533881 0.137795,
        0.593677 -0.536146 0.137795,
        0.588815 -0.537792 0.137795,
        0.578645 -0.539126 0.137795,
        0.617866 -0.248276 0.137795,
        0.607532 -0.258609 0.255906,
        0.327016 -0.539126 0.137795,
        0.337350 -0.528792 0.255906,
      ]
    }
    coordIndex [
      13, 11, 14, -1,
      14, 11, 12, -1,
      0, 11, 10, -1,
      10, 11, 13, -1,
      3, 2, 8, -1,
      10, 9, 0, -1,
      0, 9, 8, -1,
      0, 8, 1, -1,
      1, 8, 2, -1,
      8, 7, 3, -1,
      3, 7, 6, -1,
      3, 6, 4, -1,
      4, 6, 5, -1,
    ]
  }
}

Shape {
  appearance Appearance {
    material Material {
      diffuseColor 0.0000 0.0000 0.0000
      specularColor 0.0000 0.0000 0.0000
      ambientIntensity 0.2
      transparency 0.0000
      shininess 0.5
    }
  }
  geometry IndexedFaceSet {
    ccw TRUE
    solid FALSE
    coord DEF co Coordinate {
      point [
        -0.035739 -0.023871 -0.255906,
        -0.035739 -0.032514 -0.255906,
        0.006511 -0.032514 -0.255906,
        -0.033819 0.037584 -0.255906,
        -0.004052 0.037584 -0.255906,
        -0.004052 0.011658 -0.255906,
        0.021875 -0.028433 -0.255906,
        0.021875 -0.019790 -0.255906,
        0.006511 0.046226 -0.255906,
        0.030269 -0.031879 -0.255906,
        0.038225 -0.032994 -0.255906,
        -0.004052 0.003015 -0.255906,
        -0.004052 -0.023871 -0.255906,
        -0.031898 0.003015 -0.255906,
        -0.031898 0.011658 -0.255906,
        0.060876 -0.029841 -0.255906,
        0.087172 -0.032514 -0.255906,
        0.053244 -0.032468 -0.255906,
        0.048171 -0.032994 -0.255906,
        -0.033819 0.046226 -0.255906,
        0.076294 0.025487 -0.255906,
        0.071680 0.032849 -0.255906,
        0.116939 0.046226 -0.255906,
        0.048069 0.037674 -0.255906,
        0.053962 0.035547 -0.255906,
        0.023287 -0.020572 -0.255906,
        0.059412 0.031901 -0.255906,
        0.064167 0.026652 -0.255906,
        0.069887 0.006016 -0.255906,
        0.069090 -0.002508 -0.255906,
        0.066951 -0.009281 -0.255906,
        0.049430 -0.024008 -0.255906,
        0.042085 -0.024831 -0.255906,
        0.055167 -0.021896 -0.255906,
        0.060000 -0.018639 -0.255906,
        0.063694 -0.014741 -0.255906,
        0.031633 -0.023672 -0.255906,
        0.067413 0.020572 -0.255906,
        0.069512 0.012143 -0.255906,
        0.064570 0.039686 -0.255906,
        0.127502 0.046226 -0.255906,
        0.127502 -0.032514 -0.255906,
        0.067210 -0.025796 -0.255906,
        0.073124 -0.019570 -0.255906,
        0.087172 -0.023871 -0.255906,
        0.077319 -0.012083 -0.255906,
        0.116939 -0.023871 -0.255906,
        0.079689 -0.003748 -0.255906,
        0.080450 0.005371 -0.255906,
        0.079318 0.016566 -0.255906,
        0.057092 0.043991 -0.255906,
        0.048314 0.046541 -0.255906,
        0.040405 0.047187 -0.255906,
        0.030979 0.046536 -0.255906,
        0.021875 0.044066 -0.255906,
        0.021875 0.033503 -0.255906,
        0.030744 0.037301 -0.255906,
        0.040315 0.038544 -0.255906,
        0.041388 -0.033437 -0.255906,
        0.043541 -0.033474 -0.255906,
        -0.120241 -0.032514 -0.255906,
        -0.110548 -0.010933 -0.255906,
        -0.106032 -0.017976 -0.255906,
        -0.191299 -0.032514 -0.255906,
        -0.160572 0.046226 -0.255906,
        -0.150009 0.046226 -0.255906,
        -0.179776 -0.032514 -0.255906,
        -0.099551 -0.024181 -0.255906,
        -0.091330 -0.028959 -0.255906,
        -0.082257 -0.031663 -0.255906,
        -0.072514 -0.032514 -0.255906,
        -0.051104 -0.032514 -0.255906,
        -0.051104 0.046226 -0.255906,
        -0.073324 0.046226 -0.255906,
        -0.102565 0.035960 -0.255906,
        -0.108133 0.029785 -0.255906,
        -0.111793 0.023014 -0.255906,
        -0.084700 0.045011 -0.255906,
        -0.093913 0.041776 -0.255906,
        -0.102483 0.036032 -0.255906,
        -0.131764 -0.032514 -0.255906,
        -0.139281 -0.010428 -0.255906,
        -0.171809 -0.010428 -0.255906,
        -0.113907 0.015256 -0.255906,
        -0.114480 0.007847 -0.255906,
        -0.113375 -0.002691 -0.255906,
        -0.160572 0.046226 -0.255512,
        -0.191299 -0.032514 -0.255512,
        -0.179776 -0.032514 -0.255512,
        -0.171809 -0.010428 -0.255512,
        -0.139281 -0.010428 -0.255512,
        -0.131764 -0.032514 -0.255512,
        -0.120241 -0.032514 -0.255512,
        -0.150009 0.046226 -0.255512,
        -0.141937 -0.001786 -0.255512,
        -0.168269 -0.001786 -0.255512,
        -0.153685 0.031103 -0.255512,
        -0.154443 0.033833 -0.255512,
        -0.154945 0.036624 -0.255512,
        -0.155200 0.036624 -0.255512,
        -0.155714 0.033842 -0.255512,
        -0.156415 0.031103 -0.255512,
        -0.141937 -0.001786 -0.255906,
        -0.168269 -0.001786 -0.255906,
        -0.153685 0.031103 -0.255906,
        -0.154443 0.033833 -0.255906,
        -0.154945 0.036624 -0.255906,
        -0.155200 0.036624 -0.255906,
        -0.155714 0.033842 -0.255906,
        -0.156415 0.031103 -0.255906,
        -0.072514 -0.032514 -0.255512,
        -0.051104 -0.032514 -0.255512,
        -0.051104 0.046226 -0.255512,
        -0.073324 0.046226 -0.255512,
        -0.114480 0.007847 -0.255512,
        -0.113907 0.015256 -0.255512,
        -0.111793 0.023014 -0.255512,
        -0.108133 0.029785 -0.255512,
        -0.102565 0.035960 -0.255512,
        -0.102483 0.036032 -0.255512,
        -0.093913 0.041776 -0.255512,
        -0.084700 0.045011 -0.255512,
        -0.082257 -0.031663 -0.255512,
        -0.091330 -0.028959 -0.255512,
        -0.099551 -0.024181 -0.255512,
        -0.106032 -0.017976 -0.255512,
        -0.110548 -0.010933 -0.255512,
        -0.113375 -0.002691 -0.255512,
        -0.098674 0.026543 -0.255512,
        -0.094850 0.030604 -0.255512,
        -0.089098 0.034319 -0.255512,
        -0.082599 0.036594 -0.255512,
        -0.073279 0.037584 -0.255512,
        -0.061666 0.037584 -0.255512,
        -0.061666 -0.023871 -0.255512,
        -0.072844 -0.023871 -0.255512,
        -0.081151 -0.023098 -0.255512,
        -0.087777 -0.021030 -0.255512,
        -0.093147 -0.017841 -0.255512,
        -0.097563 -0.013479 -0.255512,
        -0.100885 -0.008050 -0.255512,
        -0.103194 -0.000648 -0.255512,
        -0.103917 0.007622 -0.255512,
        -0.103248 0.015458 -0.255512,
        -0.101410 0.021686 -0.255512,
        -0.073279 0.037584 -0.255906,
        -0.061666 0.037584 -0.255906,
        -0.082599 0.036594 -0.255906,
        -0.089098 0.034319 -0.255906,
        -0.094850 0.030604 -0.255906,
        -0.098674 0.026543 -0.255906,
        -0.101410 0.021686 -0.255906,
        -0.103248 0.015458 -0.255906,
        -0.103917 0.007622 -0.255906,
        -0.103194 -0.000648 -0.255906,
        -0.100885 -0.008050 -0.255906,
        -0.097563 -0.013479 -0.255906,
        -0.093147 -0.017841 -0.255906,
        -0.087777 -0.021030 -0.255906,
        -0.081151 -0.023098 -0.255906,
        -0.072844 -0.023871 -0.255906,
        -0.061666 -0.023871 -0.255906,
        -0.035739 -0.023871 -0.255512,
        -0.035739 -0.032514 -0.255512,
        0.006511 -0.032514 -0.255512,
        0.006511 0.046226 -0.255512,
        -0.033819 0.046226 -0.255512,
        -0.033819 0.037584 -0.255512,
        -0.004052 0.037584 -0.255512,
        -0.004052 0.011658 -0.255512,
        -0.031898 0.011658 -0.255512,
        -0.031898 0.003015 -0.255512,
        -0.004052 0.003015 -0.255512,
        -0.004052 -0.023871 -0.255512,
        0.021875 -0.019790 -0.255512,
        0.021875 -0.028433 -0.255512,
        0.030269 -0.031879 -0.255512,
        0.043541 -0.033474 -0.255512,
        0.041388 -0.033437 -0.255512,
        0.053244 -0.032468 -0.255512,
        0.060876 -0.029841 -0.255512,
        0.067210 -0.025796 -0.255512,
        0.073124 -0.019570 -0.255512,
        0.077319 -0.012083 -0.255512,
        0.079689 -0.003748 -0.255512,
        0.080450 0.005371 -0.255512,
        0.040405 0.047187 -0.255512,
        0.048314 0.046541 -0.255512,
        0.057092 0.043991 -0.255512,
        0.064570 0.039686 -0.255512,
        0.071680 0.032849 -0.255512,
        0.076294 0.025487 -0.255512,
        0.079318 0.016566 -0.255512,
        0.021875 0.044066 -0.255512,
        0.030979 0.046536 -0.255512,
        0.021875 0.033503 -0.255512,
        0.040315 0.038544 -0.255512,
        0.030744 0.037301 -0.255512,
        0.069887 0.006016 -0.255512,
        0.069512 0.012143 -0.255512,
        0.067413 0.020572 -0.255512,
        0.064167 0.026652 -0.255512,
        0.059412 0.031901 -0.255512,
        0.053962 0.035547 -0.255512,
        0.048069 0.037674 -0.255512,
        0.042085 -0.024831 -0.255512,
        0.049430 -0.024008 -0.255512,
        0.055167 -0.021896 -0.255512,
        0.060000 -0.018639 -0.255512,
        0.063694 -0.014741 -0.255512,
        0.066951 -0.009281 -0.255512,
        0.069090 -0.002508 -0.255512,
        0.023287 -0.020572 -0.255512,
        0.031633 -0.023672 -0.255512,
        0.087172 -0.023871 -0.255512,
        0.087172 -0.032514 -0.255512,
        0.127502 -0.032514 -0.255512,
        0.127502 0.046226 -0.255512,
        0.116939 0.046226 -0.255512,
        0.116939 -0.023871 -0.255512,
      ]
    }
    coordIndex [
      86, 87, 64, -1,
      64, 87, 63, -1,
      87, 88, 63, -1,
      63, 88, 66, -1,
      88, 89, 66, -1,
      66, 89, 82, -1,
      89, 90, 82, -1,
      82, 90, 81, -1,
      90, 91, 81, -1,
      81, 91, 80, -1,
      91, 92, 80, -1,
      80, 92, 60, -1,
      92, 93, 60, -1,
      60, 93, 65, -1,
      93, 86, 65, -1,
      65, 86, 64, -1,
      94, 90, 95, -1,
      95, 90, 89, -1,
      96, 93, 94, -1,
      94, 93, 92, -1,
      94, 92, 90, -1,
      90, 92, 91, -1,
      96, 97, 93, -1,
      93, 97, 98, -1,
      93, 98, 86, -1,
      86, 98, 99, -1,
      86, 99, 100, -1,
      100, 101, 86, -1,
      86, 101, 95, -1,
      86, 95, 87, -1,
      87, 95, 89, -1,
      87, 89, 88, -1,
      94, 95, 102, -1,
      102, 95, 103, -1,
      96, 94, 104, -1,
      104, 94, 102, -1,
      96, 104, 105, -1,
      96, 105, 97, -1,
      97, 105, 106, -1,
      97, 106, 98, -1,
      99, 98, 107, -1,
      107, 98, 106, -1,
      99, 107, 108, -1,
      99, 108, 100, -1,
      100, 108, 109, -1,
      100, 109, 101, -1,
      95, 101, 103, -1,
      103, 101, 109, -1,
      110, 111, 70, -1,
      70, 111, 71, -1,
      111, 112, 71, -1,
      71, 112, 72, -1,
      112, 113, 72, -1,
      72, 113, 73, -1,
      114, 84, 83, -1,
      114, 83, 115, -1,
      115, 83, 76, -1,
      115, 76, 116, -1,
      116, 76, 75, -1,
      116, 75, 117, -1,
      117, 75, 74, -1,
      117, 74, 118, -1,
      118, 74, 79, -1,
      118, 79, 119, -1,
      119, 79, 78, -1,
      119, 78, 120, -1,
      120, 78, 77, -1,
      120, 77, 121, -1,
      121, 77, 73, -1,
      121, 73, 113, -1,
      110, 70, 69, -1,
      110, 69, 122, -1,
      122, 69, 68, -1,
      122, 68, 123, -1,
      123, 68, 67, -1,
      123, 67, 124, -1,
      124, 67, 62, -1,
      124, 62, 125, -1,
      125, 62, 61, -1,
      125, 61, 126, -1,
      126, 61, 85, -1,
      126, 85, 127, -1,
      127, 85, 84, -1,
      127, 84, 114, -1,
      116, 117, 128, -1,
      128, 117, 118, -1,
      128, 118, 129, -1,
      129, 118, 119, -1,
      129, 119, 130, -1,
      130, 119, 120, -1,
      130, 120, 131, -1,
      131, 120, 121, -1,
      131, 121, 132, -1,
      132, 121, 113, -1,
      132, 113, 133, -1,
      133, 113, 112, -1,
      133, 112, 134, -1,
      134, 112, 111, -1,
      134, 111, 135, -1,
      135, 111, 110, -1,
      135, 110, 136, -1,
      136, 110, 122, -1,
      136, 122, 137, -1,
      137, 122, 123, -1,
      137, 123, 138, -1,
      138, 123, 124, -1,
      138, 124, 139, -1,
      139, 124, 125, -1,
      139, 125, 140, -1,
      140, 125, 126, -1,
      140, 126, 141, -1,
      141, 126, 127, -1,
      141, 127, 142, -1,
      142, 127, 114, -1,
      142, 114, 143, -1,
      143, 114, 115, -1,
      143, 115, 144, -1,
      144, 115, 116, -1,
      144, 116, 128, -1,
      132, 133, 145, -1,
      145, 133, 146, -1,
      132, 145, 147, -1,
      132, 147, 131, -1,
      131, 147, 148, -1,
      131, 148, 130, -1,
      130, 148, 149, -1,
      130, 149, 129, -1,
      129, 149, 150, -1,
      129, 150, 128, -1,
      128, 150, 151, -1,
      128, 151, 144, -1,
      144, 151, 152, -1,
      144, 152, 143, -1,
      143, 152, 153, -1,
      143, 153, 142, -1,
      142, 153, 154, -1,
      142, 154, 141, -1,
      141, 154, 155, -1,
      141, 155, 140, -1,
      140, 155, 156, -1,
      140, 156, 139, -1,
      139, 156, 157, -1,
      139, 157, 138, -1,
      138, 157, 158, -1,
      138, 158, 137, -1,
      137, 158, 159, -1,
      137, 159, 136, -1,
      136, 159, 160, -1,
      136, 160, 135, -1,
      134, 135, 161, -1,
      161, 135, 160, -1,
      133, 134, 146, -1,
      146, 134, 161, -1,
      162, 163, 0, -1,
      0, 163, 1, -1,
      163, 164, 1, -1,
      1, 164, 2, -1,
      164, 165, 2, -1,
      2, 165, 8, -1,
      165, 166, 8, -1,
      8, 166, 19, -1,
      166, 167, 19, -1,
      19, 167, 3, -1,
      167, 168, 3, -1,
      3, 168, 4, -1,
      168, 169, 4, -1,
      4, 169, 5, -1,
      169, 170, 5, -1,
      5, 170, 14, -1,
      170, 171, 14, -1,
      14, 171, 13, -1,
      171, 172, 13, -1,
      13, 172, 11, -1,
      172, 173, 11, -1,
      11, 173, 12, -1,
      173, 162, 12, -1,
      12, 162, 0, -1,
      164, 163, 162, -1,
      162, 173, 164, -1,
      164, 173, 172, -1,
      164, 172, 165, -1,
      167, 166, 168, -1,
      168, 166, 165, -1,
      168, 165, 169, -1,
      169, 165, 172, -1,
      169, 172, 170, -1,
      170, 172, 171, -1,
      174, 175, 7, -1,
      7, 175, 6, -1,
      6, 175, 176, -1,
      177, 59, 58, -1,
      177, 58, 178, -1,
      178, 58, 10, -1,
      178, 10, 176, -1,
      176, 10, 9, -1,
      176, 9, 6, -1,
      59, 177, 18, -1,
      18, 177, 179, -1,
      18, 179, 17, -1,
      17, 179, 180, -1,
      17, 180, 15, -1,
      15, 180, 181, -1,
      15, 181, 42, -1,
      42, 181, 182, -1,
      42, 182, 43, -1,
      43, 182, 183, -1,
      43, 183, 45, -1,
      45, 183, 184, -1,
      45, 184, 47, -1,
      47, 184, 185, -1,
      47, 185, 48, -1,
      186, 52, 51, -1,
      186, 51, 187, -1,
      187, 51, 50, -1,
      187, 50, 188, -1,
      188, 50, 39, -1,
      188, 39, 189, -1,
      189, 39, 21, -1,
      189, 21, 190, -1,
      190, 21, 20, -1,
      190, 20, 191, -1,
      191, 20, 49, -1,
      191, 49, 192, -1,
      192, 49, 48, -1,
      192, 48, 185, -1,
      193, 54, 53, -1,
      193, 53, 194, -1,
      194, 53, 52, -1,
      194, 52, 186, -1,
      193, 195, 54, -1,
      54, 195, 55, -1,
      196, 57, 56, -1,
      196, 56, 197, -1,
      197, 56, 55, -1,
      197, 55, 195, -1,
      198, 28, 38, -1,
      198, 38, 199, -1,
      199, 38, 37, -1,
      199, 37, 200, -1,
      200, 37, 27, -1,
      200, 27, 201, -1,
      201, 27, 26, -1,
      201, 26, 202, -1,
      202, 26, 24, -1,
      202, 24, 203, -1,
      203, 24, 23, -1,
      203, 23, 204, -1,
      204, 23, 57, -1,
      204, 57, 196, -1,
      205, 32, 31, -1,
      205, 31, 206, -1,
      206, 31, 33, -1,
      206, 33, 207, -1,
      207, 33, 34, -1,
      207, 34, 208, -1,
      208, 34, 35, -1,
      208, 35, 209, -1,
      209, 35, 30, -1,
      209, 30, 210, -1,
      210, 30, 29, -1,
      210, 29, 211, -1,
      211, 29, 28, -1,
      211, 28, 198, -1,
      174, 7, 25, -1,
      174, 25, 212, -1,
      212, 25, 36, -1,
      212, 36, 213, -1,
      213, 36, 32, -1,
      213, 32, 205, -1,
      206, 177, 205, -1,
      205, 177, 178, -1,
      205, 178, 213, -1,
      213, 178, 176, -1,
      213, 176, 212, -1,
      212, 176, 175, -1,
      212, 175, 174, -1,
      195, 193, 197, -1,
      197, 193, 194, -1,
      197, 194, 196, -1,
      196, 194, 186, -1,
      196, 186, 204, -1,
      204, 186, 187, -1,
      204, 187, 203, -1,
      203, 187, 188, -1,
      203, 188, 202, -1,
      202, 188, 189, -1,
      202, 189, 201, -1,
      201, 189, 190, -1,
      201, 190, 200, -1,
      200, 190, 191, -1,
      200, 191, 199, -1,
      199, 191, 192, -1,
      199, 192, 198, -1,
      198, 192, 185, -1,
      198, 185, 211, -1,
      211, 185, 184, -1,
      211, 184, 210, -1,
      210, 184, 183, -1,
      210, 183, 209, -1,
      209, 183, 182, -1,
      209, 182, 208, -1,
      208, 182, 181, -1,
      208, 181, 207, -1,
      207, 181, 180, -1,
      207, 180, 206, -1,
      206, 180, 179, -1,
      206, 179, 177, -1,
      214, 215, 44, -1,
      44, 215, 16, -1,
      215, 216, 16, -1,
      16, 216, 41, -1,
      216, 217, 41, -1,
      41, 217, 40, -1,
      217, 218, 40, -1,
      40, 218, 22, -1,
      218, 219, 22, -1,
      22, 219, 46, -1,
      219, 214, 46, -1,
      46, 214, 44, -1,
      218, 217, 219, -1,
      219, 217, 216, -1,
      219, 216, 214, -1,
      214, 216, 215, -1,
    ]
  }
}

Shape {
  appearance Appearance {
    material Material {
      diffuseColor 1.0000 1.0000 1.0000
      specularColor 0.5020 0.5020 0.5020
      ambientIntensity 0.2
      transparency 0.0000
      shininess 0.5
    }
  }
  geometry IndexedFaceSet {
    ccw TRUE
    solid FALSE
    coord DEF co Coordinate {
      point [
        -0.141937 -0.001786 -0.255906,
        -0.168269 -0.001786 -0.255906,
        -0.153685 0.031103 -0.255906,
        -0.154443 0.033833 -0.255906,
        -0.154945 0.036624 -0.255906,
        -0.155200 0.036624 -0.255906,
        -0.155714 0.033842 -0.255906,
        -0.156415 0.031103 -0.255906,
        -0.073279 0.037584 -0.255906,
        -0.061666 0.037584 -0.255906,
        -0.082599 0.036594 -0.255906,
        -0.089098 0.034319 -0.255906,
        -0.094850 0.030604 -0.255906,
        -0.098674 0.026543 -0.255906,
        -0.101410 0.021686 -0.255906,
        -0.103248 0.015458 -0.255906,
        -0.103917 0.007622 -0.255906,
        -0.103194 -0.000648 -0.255906,
        -0.100885 -0.008050 -0.255906,
        -0.097563 -0.013479 -0.255906,
        -0.093147 -0.017841 -0.255906,
        -0.087777 -0.021030 -0.255906,
        -0.081151 -0.023098 -0.255906,
        -0.072844 -0.023871 -0.255906,
        -0.061666 -0.023871 -0.255906,
      ]
    }
    coordIndex [
      0, 1, 2, -1,
      2, 1, 7, -1,
      2, 7, 3, -1,
      3, 7, 6, -1,
      3, 6, 4, -1,
      4, 6, 5, -1,
      9, 24, 8, -1,
      8, 24, 23, -1,
      8, 23, 22, -1,
      16, 15, 8, -1,
      8, 15, 14, -1,
      8, 14, 10, -1,
      22, 21, 8, -1,
      8, 21, 20, -1,
      8, 20, 19, -1,
      19, 18, 8, -1,
      8, 18, 17, -1,
      8, 17, 16, -1,
      13, 12, 14, -1,
      14, 12, 11, -1,
      14, 11, 10, -1,
    ]
  }
}

Shape {
  appearance Appearance {
    material Material {
      diffuseColor 0.7529 0.7529 0.7529
      specularColor 0.3765 0.3765 0.3765
      ambientIntensity 0.2
      transparency 0.0000
      shininess 0.5
    }
  }
  geometry IndexedFaceSet {
    ccw TRUE
    solid FALSE
    coord DEF co Coordinate {
      point [
        -0.208580 0.391527 0.137795,
        -0.169766 0.409852 0.137795,
        -0.208580 -0.391527 0.137795,
        -0.114817 0.428504 0.137795,
        -0.057904 0.439825 0.137795,
        0.000000 0.443620 0.137795,
        0.057904 0.439825 0.137795,
        0.114817 0.428504 0.137795,
        0.169766 0.409852 0.137795,
        0.221810 0.384186 0.137795,
        0.270059 0.351948 0.137795,
        0.313687 0.313687 0.137795,
        0.351948 0.270059 0.137795,
        0.384186 0.221810 0.137795,
        0.409852 0.169766 0.137795,
        0.428504 0.114817 0.137795,
        0.439825 0.057904 0.137795,
        0.443620 0.000000 0.137795,
        0.439825 -0.057904 0.137795,
        0.428504 -0.114817 0.137795,
        0.409852 -0.169766 0.137795,
        0.384186 -0.221810 0.137795,
        0.351948 -0.270059 0.137795,
        0.313687 -0.313687 0.137795,
        0.270059 -0.351948 0.137795,
        0.221810 -0.384186 0.137795,
        0.169766 -0.409852 0.137795,
        0.114817 -0.428504 0.137795,
        0.057904 -0.439825 0.137795,
        -0.000000 -0.443620 0.137795,
        -0.057904 -0.439825 0.137795,
        -0.114817 -0.428504 0.137795,
        -0.169766 -0.409852 0.137795,
        0.030298 -0.207373 0.137795,
        0.030298 0.207373 0.137795,
        0.258247 -0.207373 0.137795,
        0.258247 0.207373 0.137795,
      ]
    }
    coordIndex [
      33, 2, 32, -1,
      9, 8, 34, -1,
      34, 8, 7, -1,
      7, 6, 34, -1,
      34, 6, 5, -1,
      34, 5, 4, -1,
      4, 3, 34, -1,
      34, 3, 1, -1,
      34, 1, 0, -1,
      20, 35, 21, -1,
      21, 35, 22, -1,
      16, 15, 36, -1,
      36, 15, 14, -1,
      36, 14, 13, -1,
      13, 12, 36, -1,
      36, 12, 11, -1,
      36, 11, 34, -1,
      34, 11, 10, -1,
      34, 10, 9, -1,
      20, 19, 35, -1,
      35, 19, 18, -1,
      35, 18, 36, -1,
      36, 18, 17, -1,
      36, 17, 16, -1,
      32, 31, 33, -1,
      33, 31, 30, -1,
      33, 30, 29, -1,
      29, 28, 33, -1,
      33, 28, 27, -1,
      33, 27, 26, -1,
      26, 25, 33, -1,
      33, 25, 24, -1,
      33, 24, 35, -1,
      35, 24, 23, -1,
      35, 23, 22, -1,
    ]
  }
}

Shape {
  appearance Appearance {
    material Material {
      diffuseColor 1.0000 1.0000 1.0000
      specularColor 0.5020 0.5020 0.5020
      ambientIntensity 0.2
      transparency 0.0000
      shininess 0.5
    }
  }
  geometry IndexedFaceSet {
    ccw TRUE
    solid FALSE
    coord DEF co Coordinate {
      point [
        -0.278055 -0.345665 0.137795,
        0.003470 -0.128633 0.137795,
        0.179507 -0.128633 0.137795,
        0.179507 0.128633 0.137795,
        0.003470 0.128633 0.137795,
        -0.278055 0.345665 0.137795,
        -0.279907 -0.347092 0.141732,
        -0.210554 0.393049 0.141732,
        -0.208580 0.391527 0.137795,
        -0.279907 0.347092 0.141732,
        -0.271443 0.353751 0.141732,
        -0.222946 0.386155 0.141732,
        -0.271443 -0.353751 0.141732,
        -0.222946 -0.386155 0.141732,
        -0.210554 -0.393049 0.141732,
        -0.208580 -0.391527 0.137795,
        0.030298 -0.207373 0.137795,
        0.030298 0.207373 0.137795,
        0.258247 -0.207373 0.137795,
        0.258247 0.207373 0.137795,
        0.030298 -0.207373 0.141732,
        0.030298 0.207373 0.141732,
        0.003470 0.128633 0.141732,
        0.003470 -0.128633 0.141732,
        0.179507 -0.128633 0.141732,
        0.258247 -0.207373 0.141732,
        0.179507 0.128633 0.141732,
        0.258247 0.207373 0.141732,
      ]
    }
    coordIndex [
      16, 20, 15, -1,
      15, 20, 14, -1,
      21, 17, 7, -1,
      7, 17, 8, -1,
      4, 22, 5, -1,
      5, 22, 9, -1,
      23, 1, 6, -1,
      6, 1, 0, -1,
      10, 9, 22, -1,
      10, 22, 11, -1,
      13, 14, 20, -1,
      23, 6, 12, -1,
      12, 13, 23, -1,
      23, 13, 20, -1,
      23, 20, 24, -1,
      24, 20, 25, -1,
      24, 25, 26, -1,
      26, 25, 27, -1,
      26, 27, 22, -1,
      22, 27, 21, -1,
      22, 21, 11, -1,
      11, 21, 7, -1,
      25, 20, 18, -1,
      18, 20, 16, -1,
      27, 25, 19, -1,
      19, 25, 18, -1,
      21, 27, 17, -1,
      17, 27, 19, -1,
      26, 22, 3, -1,
      3, 22, 4, -1,
      24, 26, 2, -1,
      2, 26, 3, -1,
      23, 24, 1, -1,
      1, 24, 2, -1,
    ]
  }
}

Shape {
  appearance Appearance {
    material Material {
      diffuseColor 0.5020 0.5020 0.5020
      specularColor 0.2510 0.2510 0.2510
      ambientIntensity 0.2
      transparency 0.0000
      shininess 0.5
    }
  }
  geometry IndexedFaceSet {
    ccw TRUE
    solid FALSE
    coord DEF co Coordinate {
      point [
        -0.048934 -0.053163 0.137795,
        0.048934 -0.053163 0.137795,
        0.048934 0.053163 0.137795,
        -0.048934 0.053163 0.137795,
        -0.048934 -0.053163 0.149606,
        -0.048934 0.053163 0.149606,
        0.048934 -0.053163 0.149606,
        0.048934 0.053163 0.149606,
      ]
    }
    coordIndex [
      4, 5, 0, -1,
      0, 5, 3, -1,
      6, 4, 1, -1,
      1, 4, 0, -1,
      7, 6, 2, -1,
      2, 6, 1, -1,
      5, 7, 3, -1,
      3, 7, 2, -1,
      6, 7, 4, -1,
      4, 7, 5, -1,
    ]
  }
}
