#VRML V2.0 utf8

Shape {
  appearance Appearance {
    material Material {
      diffuseColor 1.0000 0.9725 0.8745
      specularColor 0.5020 0.4863 0.4392
      ambientIntensity 0.2
      transparency 0.0000
      shininess 0.5
    }
  }
  geometry IndexedFaceSet {
    ccw TRUE
    solid FALSE
    coord DEF co Coordinate {
      point [
        -0.043422 -0.522248 -0.330709,
        -0.275591 -0.522248 -0.330709,
        -0.275591 -0.032994 -0.330709,
        -0.043422 0.522248 -0.330709,
        -0.035739 -0.023871 -0.330709,
        -0.043422 -0.032994 -0.330709,
        -0.035739 -0.032514 -0.330709,
        0.006511 -0.032514 -0.330709,
        -0.033819 0.037584 -0.330709,
        -0.004052 0.037584 -0.330709,
        -0.004052 0.011658 -0.330709,
        0.021875 -0.028433 -0.330709,
        0.021875 -0.019790 -0.330709,
        0.006511 0.046226 -0.330709,
        0.030269 -0.031879 -0.330709,
        0.038225 -0.032994 -0.330709,
        -0.004052 0.003015 -0.330709,
        -0.004052 -0.023871 -0.330709,
        -0.031898 0.003015 -0.330709,
        -0.031898 0.011658 -0.330709,
        0.060876 -0.029841 -0.330709,
        0.087172 -0.032514 -0.330709,
        0.053244 -0.032468 -0.330709,
        0.048171 -0.032994 -0.330709,
        -0.033819 0.046226 -0.330709,
        0.076294 0.025487 -0.330709,
        0.071680 0.032849 -0.330709,
        0.116939 0.046226 -0.330709,
        0.048069 0.037674 -0.330709,
        0.053962 0.035547 -0.330709,
        0.023287 -0.020572 -0.330709,
        0.059412 0.031901 -0.330709,
        0.064167 0.026652 -0.330709,
        0.069887 0.006016 -0.330709,
        0.069090 -0.002508 -0.330709,
        0.066951 -0.009281 -0.330709,
        0.049430 -0.024008 -0.330709,
        0.042085 -0.024831 -0.330709,
        0.055167 -0.021896 -0.330709,
        0.060000 -0.018639 -0.330709,
        0.063694 -0.014741 -0.330709,
        0.031633 -0.023672 -0.330709,
        0.067413 0.020572 -0.330709,
        0.069512 0.012143 -0.330709,
        0.064570 0.039686 -0.330709,
        0.127502 0.046226 -0.330709,
        0.275591 0.522248 -0.330709,
        0.127502 -0.032514 -0.330709,
        0.275591 -0.032994 -0.330709,
        0.067210 -0.025796 -0.330709,
        0.073124 -0.019570 -0.330709,
        0.087172 -0.023871 -0.330709,
        0.077319 -0.012083 -0.330709,
        0.116939 -0.023871 -0.330709,
        0.079689 -0.003748 -0.330709,
        0.080450 0.005371 -0.330709,
        0.079318 0.016566 -0.330709,
        0.057092 0.043991 -0.330709,
        0.048314 0.046541 -0.330709,
        0.040405 0.047187 -0.330709,
        0.030979 0.046536 -0.330709,
        0.021875 0.044066 -0.330709,
        0.021875 0.033503 -0.330709,
        0.030744 0.037301 -0.330709,
        0.040315 0.038544 -0.330709,
        0.041388 -0.033437 -0.330709,
        0.275591 -0.522248 -0.330709,
        0.043541 -0.033474 -0.330709,
        -0.120241 -0.032514 -0.330709,
        -0.110548 -0.010933 -0.330709,
        -0.106032 -0.017976 -0.330709,
        -0.191299 -0.032514 -0.330709,
        -0.160572 0.046226 -0.330709,
        -0.275591 0.522248 -0.330709,
        -0.150009 0.046226 -0.330709,
        -0.179776 -0.032514 -0.330709,
        -0.099551 -0.024181 -0.330709,
        -0.091330 -0.028959 -0.330709,
        -0.082257 -0.031663 -0.330709,
        -0.072514 -0.032514 -0.330709,
        -0.051104 -0.032514 -0.330709,
        -0.051104 0.046226 -0.330709,
        -0.073324 0.046226 -0.330709,
        -0.102565 0.035960 -0.330709,
        -0.108133 0.029785 -0.330709,
        -0.111793 0.023014 -0.330709,
        -0.084700 0.045011 -0.330709,
        -0.093913 0.041776 -0.330709,
        -0.102483 0.036032 -0.330709,
        -0.131764 -0.032514 -0.330709,
        -0.139281 -0.010428 -0.330709,
        -0.171809 -0.010428 -0.330709,
        -0.113907 0.015256 -0.330709,
        -0.114480 0.007847 -0.330709,
        -0.113375 -0.002691 -0.330709,
        0.629921 -0.511961 0.000000,
        0.618210 -0.500250 0.133858,
        0.616876 -0.510420 0.133858,
        0.628587 -0.522131 0.000000,
        0.615230 -0.515281 0.133858,
        0.626942 -0.526992 0.000000,
        0.612965 -0.519883 0.133858,
        0.624676 -0.531594 0.000000,
        0.621830 -0.535858 0.000000,
        0.610119 -0.524147 0.133858,
        0.618452 -0.539712 0.000000,
        0.606741 -0.528001 0.133858,
        0.614598 -0.543090 0.000000,
        0.602887 -0.531379 0.133858,
        0.610334 -0.545936 0.000000,
        0.598623 -0.534225 0.133858,
        0.605732 -0.548202 0.000000,
        0.594021 -0.536490 0.133858,
        0.600871 -0.549847 0.000000,
        0.589160 -0.538136 0.133858,
        0.578990 -0.539470 0.133858,
        0.590701 -0.551181 -0.000000,
        0.626132 -0.433071 -0.043310,
        0.629921 -0.433071 0.000000,
        0.602710 0.484750 -0.311024,
        0.629921 0.511961 0.000000,
        0.626132 0.433071 -0.043310,
        0.629921 0.433071 -0.000000,
        0.602710 -0.484750 -0.311024,
        0.602710 -0.433071 -0.311024,
        0.602710 0.433071 -0.311024,
        0.628548 0.433071 0.015696,
        0.600988 0.483028 0.330709,
        0.600988 -0.265154 0.330709,
        0.618210 -0.247931 0.133858,
        0.628548 -0.433071 0.015696,
        0.563490 0.523970 -0.311024,
        0.275591 0.523970 -0.311024,
        0.374016 0.433071 -0.311024,
        0.275591 -0.523970 -0.311024,
        0.374016 -0.433071 -0.311024,
        0.563490 -0.523970 -0.311024,
        0.597465 0.504383 -0.311024,
        0.599731 0.499781 -0.311024,
        0.578521 0.520991 -0.311024,
        0.573660 0.522636 -0.311024,
        0.601376 0.494920 -0.311024,
        0.601376 -0.494920 -0.311024,
        0.578521 -0.520991 -0.311024,
        0.573660 -0.522636 -0.311024,
        0.599731 -0.499781 -0.311024,
        0.597465 -0.504383 -0.311024,
        0.583123 -0.518725 -0.311024,
        0.583123 0.518725 -0.311024,
        0.587387 0.515879 -0.311024,
        0.594619 0.508647 -0.311024,
        0.591241 0.512501 -0.311024,
        0.587387 -0.515879 -0.311024,
        0.594619 -0.508647 -0.311024,
        0.591241 -0.512501 -0.311024,
        -0.626132 0.433071 -0.043310,
        -0.629921 0.433071 0.000000,
        -0.629921 0.511961 -0.000000,
        -0.602710 -0.484750 -0.311024,
        -0.629921 -0.511961 -0.000000,
        -0.626132 -0.433071 -0.043310,
        -0.629921 -0.433071 -0.000000,
        -0.602710 0.484750 -0.311024,
        -0.602710 0.433071 -0.311024,
        -0.602710 -0.433071 -0.311024,
        -0.628548 0.433071 0.015696,
        -0.628548 -0.433071 0.015696,
        -0.600988 -0.483028 0.330709,
        -0.600988 0.483028 0.330709,
        -0.374016 -0.433071 -0.311024,
        -0.374016 0.433071 -0.311024,
        -0.563490 0.523970 -0.311024,
        -0.275591 0.523970 -0.311024,
        -0.275591 -0.523970 -0.311024,
        -0.563490 -0.523970 -0.311024,
        -0.583123 0.518725 -0.311024,
        -0.578521 0.520991 -0.311024,
        -0.597465 0.504383 -0.311024,
        -0.599731 0.499781 -0.311024,
        -0.601376 0.494920 -0.311024,
        -0.573660 0.522636 -0.311024,
        -0.573660 -0.522636 -0.311024,
        -0.599731 -0.499781 -0.311024,
        -0.601376 -0.494920 -0.311024,
        -0.587387 0.515879 -0.311024,
        -0.594619 0.508647 -0.311024,
        -0.591241 0.512501 -0.311024,
        -0.578521 -0.520991 -0.311024,
        -0.583123 -0.518725 -0.311024,
        -0.597465 -0.504383 -0.311024,
        -0.587387 -0.515879 -0.311024,
        -0.594619 -0.508647 -0.311024,
        -0.591241 -0.512501 -0.311024,
        -0.590701 0.551181 0.000000,
        -0.600871 0.549847 0.000000,
        -0.605732 0.548202 0.000000,
        -0.610334 0.545936 0.000000,
        -0.614598 0.543090 0.000000,
        -0.618452 0.539712 0.000000,
        -0.621830 0.535858 0.000000,
        -0.624676 0.531594 0.000000,
        -0.626942 0.526992 0.000000,
        -0.628587 0.522131 0.000000,
        -0.628587 -0.522131 0.000000,
        -0.626942 -0.526992 0.000000,
        -0.624676 -0.531594 0.000000,
        -0.621830 -0.535858 0.000000,
        -0.618452 -0.539712 0.000000,
        -0.614598 -0.543090 0.000000,
        -0.610334 -0.545936 0.000000,
        -0.605732 -0.548202 0.000000,
        -0.600871 -0.549847 0.000000,
        -0.590701 -0.551181 0.000000,
        0.590701 0.551181 -0.000000,
        -0.561768 0.522248 0.330709,
        0.561768 0.522248 0.330709,
        0.326672 -0.539470 0.133858,
        0.343894 -0.522248 0.330709,
        -0.561768 -0.522248 0.330709,
        0.207104 -0.424627 0.330709,
        0.145992 -0.449318 0.330709,
        0.264185 -0.391671 0.330709,
        -0.114294 -0.458407 0.330709,
        -0.176980 -0.438040 0.330709,
        -0.236220 -0.409146 0.330709,
        0.431596 -0.192159 0.330709,
        0.454139 -0.130222 0.330709,
        0.467843 -0.065751 0.330709,
        0.400653 -0.250356 0.330709,
        0.361911 -0.303679 0.330709,
        0.316125 -0.351092 0.330709,
        -0.462117 -0.098226 0.330709,
        -0.443949 -0.161584 0.330709,
        -0.417141 -0.221798 0.330709,
        -0.471290 -0.032956 0.330709,
        -0.471290 0.032956 0.330709,
        -0.462117 0.098226 0.330709,
        -0.443949 0.161584 0.330709,
        0.145992 0.449318 0.330709,
        0.207104 0.424627 0.330709,
        0.082039 -0.465263 0.330709,
        0.016488 -0.472153 0.330709,
        -0.049383 -0.469853 0.330709,
        -0.581401 -0.517003 0.330709,
        -0.576799 -0.519268 0.330709,
        -0.339846 -0.328185 0.330709,
        -0.290864 0.372289 0.330709,
        -0.236220 0.409146 0.330709,
        -0.176980 0.438040 0.330709,
        -0.114294 0.458407 0.330709,
        0.431596 0.192159 0.330709,
        0.454139 0.130222 0.330709,
        0.467843 0.065751 0.330709,
        0.472441 0.000000 0.330709,
        -0.599654 -0.493198 0.330709,
        -0.382213 -0.277694 0.330709,
        -0.290864 -0.372289 0.330709,
        -0.571938 -0.520914 0.330709,
        -0.595743 0.502661 0.330709,
        -0.598008 0.498059 0.330709,
        -0.382213 0.277694 0.330709,
        -0.049383 0.469853 0.330709,
        0.016488 0.472153 0.330709,
        0.082039 0.465263 0.330709,
        -0.598008 -0.498059 0.330709,
        -0.595743 -0.502661 0.330709,
        -0.592897 -0.506924 0.330709,
        -0.571938 0.520914 0.330709,
        -0.339846 0.328185 0.330709,
        -0.417141 0.221798 0.330709,
        -0.599654 0.493198 0.330709,
        -0.589519 -0.510778 0.330709,
        -0.585665 -0.514157 0.330709,
        -0.576799 0.519268 0.330709,
        -0.581401 0.517003 0.330709,
        -0.585665 0.514157 0.330709,
        0.264185 0.391671 0.330709,
        0.316125 0.351092 0.330709,
        0.571938 0.520914 0.330709,
        0.361911 0.303679 0.330709,
        0.576799 0.519268 0.330709,
        0.581401 0.517003 0.330709,
        0.599654 0.493198 0.330709,
        0.400653 0.250356 0.330709,
        -0.589519 0.510778 0.330709,
        -0.592897 0.506924 0.330709,
        0.598008 0.498059 0.330709,
        0.595743 0.502661 0.330709,
        0.592897 0.506924 0.330709,
        0.589519 0.510778 0.330709,
        0.585665 0.514157 0.330709,
        0.600871 0.549847 -0.000000,
        0.605732 0.548202 -0.000000,
        0.610334 0.545936 -0.000000,
        0.614598 0.543090 -0.000000,
        0.618452 0.539712 -0.000000,
        0.621830 0.535858 -0.000000,
        0.624676 0.531594 -0.000000,
        0.626942 0.526992 -0.000000,
        0.628587 0.522131 -0.000000,
      ]
    }
    coordIndex [
      0, 1, 2, -1,
      3, 4, 5, -1,
      5, 4, 6, -1,
      5, 6, 7, -1,
      8, 9, 10, -1,
      11, 7, 12, -1,
      12, 7, 13, -1,
      11, 14, 7, -1,
      7, 14, 15, -1,
      7, 15, 5, -1,
      16, 17, 18, -1,
      18, 17, 4, -1,
      18, 4, 19, -1,
      20, 21, 22, -1,
      22, 21, 23, -1,
      10, 19, 8, -1,
      8, 19, 4, -1,
      8, 4, 24, -1,
      24, 4, 3, -1,
      24, 3, 13, -1,
      25, 26, 27, -1,
      28, 29, 30, -1,
      30, 29, 31, -1,
      30, 31, 32, -1,
      33, 34, 30, -1,
      30, 34, 35, -1,
      36, 37, 38, -1,
      38, 37, 39, -1,
      35, 40, 30, -1,
      30, 40, 39, -1,
      30, 39, 41, -1,
      41, 39, 37, -1,
      32, 42, 30, -1,
      30, 42, 43, -1,
      30, 43, 33, -1,
      26, 44, 27, -1,
      27, 44, 3, -1,
      27, 3, 45, -1,
      45, 3, 46, -1,
      45, 46, 47, -1,
      47, 46, 48, -1,
      20, 49, 21, -1,
      21, 49, 50, -1,
      21, 50, 51, -1,
      51, 50, 52, -1,
      51, 52, 53, -1,
      52, 54, 53, -1,
      53, 54, 55, -1,
      53, 55, 27, -1,
      27, 55, 56, -1,
      27, 56, 25, -1,
      44, 57, 3, -1,
      3, 57, 58, -1,
      3, 58, 59, -1,
      59, 60, 3, -1,
      3, 60, 61, -1,
      3, 61, 13, -1,
      13, 61, 62, -1,
      13, 62, 12, -1,
      12, 62, 63, -1,
      12, 63, 30, -1,
      30, 63, 64, -1,
      30, 64, 28, -1,
      0, 65, 66, -1,
      66, 65, 67, -1,
      66, 67, 48, -1,
      48, 67, 23, -1,
      48, 23, 47, -1,
      47, 23, 21, -1,
      68, 69, 70, -1,
      71, 2, 72, -1,
      72, 2, 73, -1,
      72, 73, 74, -1,
      74, 73, 3, -1,
      71, 75, 2, -1,
      2, 75, 5, -1,
      2, 5, 0, -1,
      0, 5, 15, -1,
      0, 15, 65, -1,
      70, 76, 68, -1,
      68, 76, 77, -1,
      68, 77, 78, -1,
      79, 80, 5, -1,
      5, 80, 81, -1,
      5, 81, 3, -1,
      3, 81, 82, -1,
      83, 84, 74, -1,
      74, 84, 85, -1,
      82, 86, 3, -1,
      3, 86, 87, -1,
      3, 87, 74, -1,
      74, 87, 88, -1,
      74, 88, 83, -1,
      78, 79, 68, -1,
      68, 79, 5, -1,
      68, 5, 89, -1,
      89, 5, 75, -1,
      89, 75, 90, -1,
      90, 75, 91, -1,
      85, 92, 74, -1,
      74, 92, 93, -1,
      74, 93, 68, -1,
      68, 93, 94, -1,
      68, 94, 69, -1,
      95, 96, 97, -1,
      95, 97, 98, -1,
      98, 97, 99, -1,
      98, 99, 100, -1,
      100, 99, 101, -1,
      100, 101, 102, -1,
      102, 101, 103, -1,
      103, 101, 104, -1,
      103, 104, 105, -1,
      105, 104, 106, -1,
      105, 106, 107, -1,
      107, 106, 108, -1,
      107, 108, 109, -1,
      109, 108, 110, -1,
      109, 110, 111, -1,
      111, 110, 112, -1,
      111, 112, 113, -1,
      112, 114, 113, -1,
      113, 114, 115, -1,
      113, 115, 116, -1,
      117, 118, 95, -1,
      119, 120, 121, -1,
      121, 120, 122, -1,
      95, 123, 117, -1,
      117, 123, 124, -1,
      117, 124, 121, -1,
      121, 124, 125, -1,
      121, 125, 119, -1,
      126, 122, 120, -1,
      127, 128, 129, -1,
      95, 118, 96, -1,
      96, 118, 130, -1,
      96, 130, 129, -1,
      129, 130, 126, -1,
      129, 126, 127, -1,
      127, 126, 120, -1,
      119, 125, 131, -1,
      131, 125, 132, -1,
      132, 125, 133, -1,
      132, 133, 134, -1,
      134, 133, 135, -1,
      134, 135, 136, -1,
      136, 135, 124, -1,
      136, 124, 123, -1,
      137, 138, 139, -1,
      131, 140, 119, -1,
      119, 140, 139, -1,
      119, 139, 141, -1,
      141, 139, 138, -1,
      142, 143, 123, -1,
      123, 143, 144, -1,
      123, 144, 136, -1,
      142, 145, 143, -1,
      143, 145, 146, -1,
      143, 146, 147, -1,
      139, 148, 137, -1,
      137, 148, 149, -1,
      137, 149, 150, -1,
      150, 149, 151, -1,
      147, 146, 152, -1,
      152, 146, 153, -1,
      152, 153, 154, -1,
      155, 156, 157, -1,
      158, 159, 160, -1,
      160, 159, 161, -1,
      157, 162, 155, -1,
      155, 162, 163, -1,
      155, 163, 160, -1,
      160, 163, 164, -1,
      160, 164, 158, -1,
      157, 156, 165, -1,
      161, 159, 166, -1,
      166, 159, 167, -1,
      166, 167, 165, -1,
      165, 167, 168, -1,
      165, 168, 157, -1,
      158, 164, 169, -1,
      170, 163, 162, -1,
      162, 171, 170, -1,
      170, 171, 172, -1,
      170, 172, 169, -1,
      169, 172, 173, -1,
      169, 173, 158, -1,
      158, 173, 174, -1,
      175, 176, 177, -1,
      177, 176, 178, -1,
      162, 179, 171, -1,
      171, 179, 178, -1,
      171, 178, 180, -1,
      180, 178, 176, -1,
      181, 182, 174, -1,
      174, 182, 183, -1,
      174, 183, 158, -1,
      175, 177, 184, -1,
      184, 177, 185, -1,
      184, 185, 186, -1,
      181, 187, 182, -1,
      182, 187, 188, -1,
      182, 188, 189, -1,
      189, 188, 190, -1,
      189, 190, 191, -1,
      191, 190, 192, -1,
      193, 171, 180, -1,
      193, 180, 194, -1,
      194, 180, 176, -1,
      194, 176, 195, -1,
      195, 176, 175, -1,
      195, 175, 196, -1,
      196, 175, 184, -1,
      196, 184, 197, -1,
      197, 184, 186, -1,
      197, 186, 198, -1,
      198, 186, 199, -1,
      199, 186, 185, -1,
      199, 185, 200, -1,
      200, 185, 177, -1,
      200, 177, 201, -1,
      201, 177, 178, -1,
      201, 178, 202, -1,
      178, 179, 202, -1,
      202, 179, 162, -1,
      202, 162, 157, -1,
      159, 158, 183, -1,
      159, 183, 203, -1,
      203, 183, 182, -1,
      203, 182, 204, -1,
      204, 182, 189, -1,
      204, 189, 205, -1,
      205, 189, 191, -1,
      205, 191, 206, -1,
      206, 191, 192, -1,
      206, 192, 207, -1,
      207, 192, 208, -1,
      208, 192, 190, -1,
      208, 190, 209, -1,
      209, 190, 188, -1,
      209, 188, 210, -1,
      210, 188, 187, -1,
      210, 187, 211, -1,
      187, 181, 211, -1,
      211, 181, 174, -1,
      211, 174, 212, -1,
      136, 116, 134, -1,
      134, 116, 212, -1,
      212, 174, 173, -1,
      173, 1, 0, -1,
      212, 173, 134, -1,
      134, 173, 0, -1,
      134, 0, 66, -1,
      172, 171, 193, -1,
      3, 73, 172, -1,
      213, 131, 132, -1,
      193, 213, 172, -1,
      172, 213, 132, -1,
      172, 132, 3, -1,
      3, 132, 46, -1,
      214, 215, 193, -1,
      193, 215, 213, -1,
      116, 115, 216, -1,
      217, 218, 216, -1,
      216, 218, 212, -1,
      216, 212, 116, -1,
      219, 220, 217, -1,
      219, 217, 221, -1,
      222, 223, 218, -1,
      218, 223, 224, -1,
      225, 128, 226, -1,
      226, 128, 227, -1,
      225, 228, 128, -1,
      128, 228, 229, -1,
      128, 229, 217, -1,
      217, 229, 230, -1,
      217, 230, 221, -1,
      231, 167, 232, -1,
      232, 167, 233, -1,
      231, 234, 167, -1,
      167, 234, 235, -1,
      167, 235, 168, -1,
      168, 235, 236, -1,
      168, 236, 237, -1,
      238, 239, 215, -1,
      220, 240, 217, -1,
      217, 240, 241, -1,
      217, 241, 218, -1,
      218, 241, 242, -1,
      218, 242, 222, -1,
      243, 244, 245, -1,
      246, 247, 214, -1,
      214, 247, 248, -1,
      214, 248, 249, -1,
      250, 251, 127, -1,
      127, 251, 252, -1,
      127, 252, 128, -1,
      128, 252, 253, -1,
      128, 253, 227, -1,
      254, 245, 167, -1,
      167, 245, 255, -1,
      167, 255, 233, -1,
      224, 256, 218, -1,
      218, 256, 245, -1,
      218, 245, 257, -1,
      257, 245, 244, -1,
      258, 259, 260, -1,
      249, 261, 214, -1,
      214, 261, 262, -1,
      214, 262, 215, -1,
      215, 262, 263, -1,
      215, 263, 238, -1,
      254, 264, 245, -1,
      245, 264, 265, -1,
      245, 265, 266, -1,
      267, 260, 214, -1,
      214, 260, 268, -1,
      214, 268, 246, -1,
      237, 269, 168, -1,
      168, 269, 260, -1,
      168, 260, 270, -1,
      270, 260, 259, -1,
      266, 271, 245, -1,
      245, 271, 272, -1,
      245, 272, 243, -1,
      267, 273, 260, -1,
      260, 273, 274, -1,
      260, 274, 275, -1,
      239, 276, 215, -1,
      215, 276, 277, -1,
      215, 277, 278, -1,
      278, 277, 279, -1,
      278, 279, 280, -1,
      280, 279, 281, -1,
      282, 279, 127, -1,
      127, 279, 283, -1,
      127, 283, 250, -1,
      275, 284, 260, -1,
      260, 284, 285, -1,
      260, 285, 258, -1,
      282, 286, 279, -1,
      279, 286, 287, -1,
      279, 287, 288, -1,
      288, 289, 279, -1,
      279, 289, 290, -1,
      279, 290, 281, -1,
      157, 168, 270, -1,
      157, 270, 202, -1,
      202, 270, 259, -1,
      202, 259, 201, -1,
      201, 259, 258, -1,
      201, 258, 200, -1,
      200, 258, 285, -1,
      200, 285, 199, -1,
      199, 285, 284, -1,
      199, 284, 198, -1,
      198, 284, 197, -1,
      197, 284, 275, -1,
      197, 275, 196, -1,
      196, 275, 274, -1,
      196, 274, 195, -1,
      195, 274, 273, -1,
      195, 273, 194, -1,
      273, 267, 194, -1,
      194, 267, 214, -1,
      194, 214, 193, -1,
      213, 215, 278, -1,
      213, 278, 291, -1,
      291, 278, 280, -1,
      291, 280, 292, -1,
      292, 280, 281, -1,
      292, 281, 293, -1,
      293, 281, 290, -1,
      293, 290, 294, -1,
      294, 290, 289, -1,
      294, 289, 295, -1,
      295, 289, 296, -1,
      296, 289, 288, -1,
      296, 288, 297, -1,
      297, 288, 287, -1,
      297, 287, 298, -1,
      298, 287, 286, -1,
      298, 286, 299, -1,
      286, 282, 299, -1,
      299, 282, 127, -1,
      299, 127, 120, -1,
      120, 119, 141, -1,
      120, 141, 299, -1,
      299, 141, 138, -1,
      299, 138, 298, -1,
      298, 138, 137, -1,
      298, 137, 297, -1,
      297, 137, 150, -1,
      297, 150, 296, -1,
      296, 150, 151, -1,
      296, 151, 295, -1,
      295, 151, 294, -1,
      294, 151, 149, -1,
      294, 149, 293, -1,
      293, 149, 148, -1,
      293, 148, 292, -1,
      292, 148, 139, -1,
      292, 139, 291, -1,
      139, 140, 291, -1,
      291, 140, 131, -1,
      291, 131, 213, -1,
      116, 136, 144, -1,
      116, 144, 113, -1,
      113, 144, 143, -1,
      113, 143, 111, -1,
      111, 143, 147, -1,
      111, 147, 109, -1,
      109, 147, 152, -1,
      109, 152, 107, -1,
      107, 152, 154, -1,
      107, 154, 105, -1,
      105, 154, 103, -1,
      103, 154, 153, -1,
      103, 153, 102, -1,
      102, 153, 146, -1,
      102, 146, 100, -1,
      100, 146, 145, -1,
      100, 145, 98, -1,
      145, 142, 98, -1,
      98, 142, 123, -1,
      98, 123, 95, -1,
      212, 218, 257, -1,
      212, 257, 211, -1,
      211, 257, 244, -1,
      211, 244, 210, -1,
      210, 244, 243, -1,
      210, 243, 209, -1,
      209, 243, 272, -1,
      209, 272, 208, -1,
      208, 272, 271, -1,
      208, 271, 207, -1,
      207, 271, 206, -1,
      206, 271, 266, -1,
      206, 266, 205, -1,
      205, 266, 265, -1,
      205, 265, 204, -1,
      204, 265, 264, -1,
      204, 264, 203, -1,
      264, 254, 203, -1,
      203, 254, 167, -1,
      203, 167, 159, -1,
      1, 173, 2, -1,
      2, 173, 172, -1,
      2, 172, 73, -1,
      46, 132, 48, -1,
      48, 132, 134, -1,
      48, 134, 66, -1,
    ]
  }
}

Shape {
  appearance Appearance {
    material Material {
      diffuseColor 0.7529 0.7529 0.7529
      specularColor 0.3765 0.3765 0.3765
      ambientIntensity 0.2
      transparency 0.0000
      shininess 0.5
    }
  }
  geometry IndexedFaceSet {
    ccw TRUE
    solid FALSE
    coord DEF co Coordinate {
      point [
        0.626132 -0.433071 -0.043310,
        0.629921 -0.433071 0.000000,
        0.626132 0.433071 -0.043310,
        0.629921 0.433071 -0.000000,
        0.602710 -0.433071 -0.311024,
        0.602710 0.433071 -0.311024,
        0.628548 0.433071 0.015696,
        0.628548 -0.433071 0.015696,
        0.374016 0.433071 -0.311024,
        0.374016 -0.433071 -0.311024,
        -0.626132 0.433071 -0.043310,
        -0.629921 0.433071 0.000000,
        -0.626132 -0.433071 -0.043310,
        -0.629921 -0.433071 -0.000000,
        -0.602710 0.433071 -0.311024,
        -0.602710 -0.433071 -0.311024,
        -0.628548 0.433071 0.015696,
        -0.628548 -0.433071 0.015696,
        -0.374016 -0.433071 -0.311024,
        -0.374016 0.433071 -0.311024,
        -0.688976 0.433071 -0.047244,
        -0.688976 -0.433071 -0.047244,
        -0.686939 -0.433071 -0.031354,
        -0.686939 0.433071 -0.031354,
        -0.680959 -0.433071 -0.016491,
        -0.680959 0.433071 -0.016491,
        -0.671424 -0.433071 -0.003618,
        -0.671424 0.433071 -0.003618,
        -0.658949 -0.433071 0.006434,
        -0.658949 0.433071 0.006434,
        -0.644342 -0.433071 0.013014,
        -0.644342 0.433071 0.013014,
        -0.625984 0.433071 -0.311024,
        -0.625984 -0.433071 -0.311024,
        -0.374016 0.433071 -0.370079,
        -0.374016 -0.433071 -0.370079,
        -0.625984 0.433071 -0.370079,
        -0.625984 -0.433071 -0.370079,
        -0.642288 -0.433071 -0.367932,
        -0.642288 0.433071 -0.367932,
        -0.657480 -0.433071 -0.361639,
        -0.657480 0.433071 -0.361639,
        -0.670526 -0.433071 -0.351629,
        -0.670526 0.433071 -0.351629,
        -0.680537 -0.433071 -0.338583,
        -0.680537 0.433071 -0.338583,
        -0.686830 -0.433071 -0.323390,
        -0.686830 0.433071 -0.323390,
        -0.688976 -0.433071 -0.307087,
        -0.688976 0.433071 -0.307087,
        -0.627122 0.433071 -0.043475,
        -0.627122 -0.433071 -0.043475,
        -0.628037 0.433071 -0.043885,
        -0.628037 -0.433071 -0.043885,
        -0.628820 0.433071 -0.044513,
        -0.628820 -0.433071 -0.044513,
        -0.629418 0.433071 -0.045319,
        -0.629418 -0.433071 -0.045319,
        -0.629793 0.433071 -0.046249,
        -0.629793 -0.433071 -0.046249,
        -0.629921 0.433071 -0.047244,
        -0.629921 -0.433071 -0.047244,
        -0.629921 0.433071 -0.307087,
        -0.629921 -0.433071 -0.307087,
        -0.629787 0.433071 -0.308106,
        -0.629787 -0.433071 -0.308106,
        -0.629394 0.433071 -0.309055,
        -0.629394 -0.433071 -0.309055,
        -0.628768 0.433071 -0.309870,
        -0.628768 -0.433071 -0.309870,
        -0.627953 0.433071 -0.310496,
        -0.627953 -0.433071 -0.310496,
        -0.627003 0.433071 -0.310889,
        -0.627003 -0.433071 -0.310889,
        0.644342 -0.433071 0.013014,
        0.644342 0.433071 0.013014,
        0.658949 -0.433071 0.006434,
        0.658949 0.433071 0.006434,
        0.671424 -0.433071 -0.003618,
        0.671424 0.433071 -0.003618,
        0.680959 -0.433071 -0.016491,
        0.680959 0.433071 -0.016491,
        0.686939 -0.433071 -0.031354,
        0.686939 0.433071 -0.031354,
        0.688976 -0.433071 -0.047244,
        0.688976 0.433071 -0.047244,
        0.625984 -0.433071 -0.311024,
        0.625984 0.433071 -0.311024,
        0.627003 0.433071 -0.310889,
        0.627003 -0.433071 -0.310889,
        0.627953 0.433071 -0.310496,
        0.627953 -0.433071 -0.310496,
        0.628768 0.433071 -0.309870,
        0.628768 -0.433071 -0.309870,
        0.629394 0.433071 -0.309055,
        0.629394 -0.433071 -0.309055,
        0.629787 0.433071 -0.308106,
        0.629787 -0.433071 -0.308106,
        0.629921 0.433071 -0.307087,
        0.629921 -0.433071 -0.307087,
        0.629921 0.433071 -0.047244,
        0.629921 -0.433071 -0.047244,
        0.629793 0.433071 -0.046249,
        0.629793 -0.433071 -0.046249,
        0.629418 0.433071 -0.045319,
        0.629418 -0.433071 -0.045319,
        0.628820 0.433071 -0.044513,
        0.628820 -0.433071 -0.044513,
        0.628037 0.433071 -0.043885,
        0.628037 -0.433071 -0.043885,
        0.627122 0.433071 -0.043475,
        0.627122 -0.433071 -0.043475,
        0.688976 0.433071 -0.307087,
        0.688976 -0.433071 -0.307087,
        0.686830 -0.433071 -0.323390,
        0.686830 0.433071 -0.323390,
        0.680537 -0.433071 -0.338583,
        0.680537 0.433071 -0.338583,
        0.670526 -0.433071 -0.351629,
        0.670526 0.433071 -0.351629,
        0.657480 -0.433071 -0.361639,
        0.657480 0.433071 -0.361639,
        0.642288 -0.433071 -0.367932,
        0.642288 0.433071 -0.367932,
        0.625984 -0.433071 -0.370079,
        0.625984 0.433071 -0.370079,
        0.374016 0.433071 -0.370079,
        0.374016 -0.433071 -0.370079,
      ]
    }
    coordIndex [
      20, 21, 22, -1,
      20, 22, 23, -1,
      23, 22, 24, -1,
      23, 24, 25, -1,
      25, 24, 26, -1,
      25, 26, 27, -1,
      27, 26, 28, -1,
      27, 28, 29, -1,
      29, 28, 30, -1,
      29, 30, 31, -1,
      31, 30, 17, -1,
      31, 17, 16, -1,
      32, 33, 14, -1,
      14, 33, 15, -1,
      34, 19, 35, -1,
      35, 19, 18, -1,
      36, 34, 37, -1,
      37, 34, 35, -1,
      36, 37, 38, -1,
      36, 38, 39, -1,
      39, 38, 40, -1,
      39, 40, 41, -1,
      41, 40, 42, -1,
      41, 42, 43, -1,
      43, 42, 44, -1,
      43, 44, 45, -1,
      45, 44, 46, -1,
      45, 46, 47, -1,
      47, 46, 48, -1,
      47, 48, 49, -1,
      20, 49, 21, -1,
      21, 49, 48, -1,
      10, 12, 50, -1,
      50, 12, 51, -1,
      50, 51, 52, -1,
      52, 51, 53, -1,
      52, 53, 54, -1,
      54, 53, 55, -1,
      54, 55, 56, -1,
      56, 55, 57, -1,
      56, 57, 58, -1,
      58, 57, 59, -1,
      58, 59, 60, -1,
      60, 59, 61, -1,
      62, 60, 63, -1,
      63, 60, 61, -1,
      62, 63, 64, -1,
      64, 63, 65, -1,
      64, 65, 66, -1,
      66, 65, 67, -1,
      66, 67, 68, -1,
      68, 67, 69, -1,
      68, 69, 70, -1,
      70, 69, 71, -1,
      70, 71, 72, -1,
      72, 71, 73, -1,
      72, 73, 32, -1,
      32, 73, 33, -1,
      19, 34, 14, -1,
      14, 34, 36, -1,
      11, 10, 50, -1,
      16, 11, 31, -1,
      31, 11, 50, -1,
      31, 50, 29, -1,
      29, 50, 52, -1,
      29, 52, 27, -1,
      27, 52, 54, -1,
      27, 54, 25, -1,
      25, 54, 56, -1,
      25, 56, 23, -1,
      23, 56, 58, -1,
      23, 58, 20, -1,
      20, 58, 60, -1,
      20, 60, 49, -1,
      49, 60, 62, -1,
      49, 62, 47, -1,
      47, 62, 64, -1,
      47, 64, 45, -1,
      45, 64, 66, -1,
      45, 66, 43, -1,
      43, 66, 68, -1,
      43, 68, 41, -1,
      41, 68, 70, -1,
      41, 70, 39, -1,
      39, 70, 72, -1,
      39, 72, 36, -1,
      36, 72, 32, -1,
      36, 32, 14, -1,
      51, 30, 53, -1,
      53, 30, 28, -1,
      53, 28, 55, -1,
      55, 28, 26, -1,
      55, 26, 57, -1,
      57, 26, 24, -1,
      57, 24, 59, -1,
      59, 24, 22, -1,
      59, 22, 61, -1,
      61, 22, 21, -1,
      61, 21, 63, -1,
      63, 21, 48, -1,
      63, 48, 65, -1,
      65, 48, 46, -1,
      65, 46, 67, -1,
      67, 46, 44, -1,
      67, 44, 69, -1,
      69, 44, 42, -1,
      69, 42, 71, -1,
      71, 42, 40, -1,
      71, 40, 73, -1,
      73, 40, 38, -1,
      73, 38, 33, -1,
      33, 38, 37, -1,
      33, 37, 15, -1,
      15, 37, 35, -1,
      15, 35, 18, -1,
      51, 12, 30, -1,
      30, 12, 13, -1,
      30, 13, 17, -1,
      6, 7, 74, -1,
      6, 74, 75, -1,
      75, 74, 76, -1,
      75, 76, 77, -1,
      77, 76, 78, -1,
      77, 78, 79, -1,
      79, 78, 80, -1,
      79, 80, 81, -1,
      81, 80, 82, -1,
      81, 82, 83, -1,
      83, 82, 84, -1,
      83, 84, 85, -1,
      4, 86, 5, -1,
      5, 86, 87, -1,
      87, 86, 88, -1,
      88, 86, 89, -1,
      88, 89, 90, -1,
      90, 89, 91, -1,
      90, 91, 92, -1,
      92, 91, 93, -1,
      92, 93, 94, -1,
      94, 93, 95, -1,
      94, 95, 96, -1,
      96, 95, 97, -1,
      96, 97, 98, -1,
      98, 97, 99, -1,
      100, 98, 101, -1,
      101, 98, 99, -1,
      100, 101, 102, -1,
      102, 101, 103, -1,
      102, 103, 104, -1,
      104, 103, 105, -1,
      104, 105, 106, -1,
      106, 105, 107, -1,
      106, 107, 108, -1,
      108, 107, 109, -1,
      108, 109, 110, -1,
      110, 109, 111, -1,
      110, 111, 2, -1,
      2, 111, 0, -1,
      112, 85, 113, -1,
      113, 85, 84, -1,
      112, 113, 114, -1,
      112, 114, 115, -1,
      115, 114, 116, -1,
      115, 116, 117, -1,
      117, 116, 118, -1,
      117, 118, 119, -1,
      119, 118, 120, -1,
      119, 120, 121, -1,
      121, 120, 122, -1,
      121, 122, 123, -1,
      123, 122, 124, -1,
      123, 124, 125, -1,
      126, 125, 127, -1,
      127, 125, 124, -1,
      8, 126, 9, -1,
      9, 126, 127, -1,
      110, 75, 108, -1,
      108, 75, 77, -1,
      108, 77, 106, -1,
      106, 77, 79, -1,
      106, 79, 104, -1,
      104, 79, 81, -1,
      104, 81, 102, -1,
      102, 81, 83, -1,
      102, 83, 100, -1,
      100, 83, 85, -1,
      100, 85, 98, -1,
      98, 85, 112, -1,
      98, 112, 96, -1,
      96, 112, 115, -1,
      96, 115, 94, -1,
      94, 115, 117, -1,
      94, 117, 92, -1,
      92, 117, 119, -1,
      92, 119, 90, -1,
      90, 119, 121, -1,
      90, 121, 88, -1,
      88, 121, 123, -1,
      88, 123, 87, -1,
      87, 123, 125, -1,
      87, 125, 5, -1,
      5, 125, 126, -1,
      5, 126, 8, -1,
      110, 2, 75, -1,
      75, 2, 3, -1,
      75, 3, 6, -1,
      9, 127, 4, -1,
      4, 127, 124, -1,
      1, 0, 111, -1,
      7, 1, 74, -1,
      74, 1, 111, -1,
      74, 111, 76, -1,
      76, 111, 109, -1,
      76, 109, 78, -1,
      78, 109, 107, -1,
      78, 107, 80, -1,
      80, 107, 105, -1,
      80, 105, 82, -1,
      82, 105, 103, -1,
      82, 103, 84, -1,
      84, 103, 101, -1,
      84, 101, 113, -1,
      113, 101, 99, -1,
      113, 99, 114, -1,
      114, 99, 97, -1,
      114, 97, 116, -1,
      116, 97, 95, -1,
      116, 95, 118, -1,
      118, 95, 93, -1,
      118, 93, 120, -1,
      120, 93, 91, -1,
      120, 91, 122, -1,
      122, 91, 89, -1,
      122, 89, 124, -1,
      124, 89, 86, -1,
      124, 86, 4, -1,
    ]
  }
}

Shape {
  appearance Appearance {
    material Material {
      diffuseColor 1.0000 0.9725 0.8745
      specularColor 0.5020 0.4863 0.4392
      ambientIntensity 0.2
      transparency 0.0000
      shininess 0.5
    }
  }
  geometry IndexedFaceSet {
    ccw TRUE
    solid FALSE
    coord DEF co Coordinate {
      point [
        0.618210 -0.500250 0.133858,
        0.616876 -0.510420 0.133858,
        0.615230 -0.515281 0.133858,
        0.612965 -0.519883 0.133858,
        0.610119 -0.524147 0.133858,
        0.606741 -0.528001 0.133858,
        0.602887 -0.531379 0.133858,
        0.598623 -0.534225 0.133858,
        0.594021 -0.536490 0.133858,
        0.589160 -0.538136 0.133858,
        0.578990 -0.539470 0.133858,
        0.600988 -0.265154 0.330709,
        0.618210 -0.247931 0.133858,
        0.326672 -0.539470 0.133858,
        0.343894 -0.522248 0.330709,
      ]
    }
    coordIndex [
      13, 12, 14, -1,
      14, 12, 11, -1,
      0, 12, 10, -1,
      10, 12, 13, -1,
      9, 2, 10, -1,
      10, 2, 1, -1,
      10, 1, 0, -1,
      9, 8, 2, -1,
      2, 8, 7, -1,
      2, 7, 3, -1,
      3, 7, 6, -1,
      3, 6, 4, -1,
      4, 6, 5, -1,
    ]
  }
}

Shape {
  appearance Appearance {
    material Material {
      diffuseColor 0.0000 0.0000 0.0000
      specularColor 0.0000 0.0000 0.0000
      ambientIntensity 0.2
      transparency 0.0000
      shininess 0.5
    }
  }
  geometry IndexedFaceSet {
    ccw TRUE
    solid FALSE
    coord DEF co Coordinate {
      point [
        -0.035739 -0.023871 -0.330709,
        -0.035739 -0.032514 -0.330709,
        0.006511 -0.032514 -0.330709,
        -0.033819 0.037584 -0.330709,
        -0.004052 0.037584 -0.330709,
        -0.004052 0.011658 -0.330709,
        0.021875 -0.028433 -0.330709,
        0.021875 -0.019790 -0.330709,
        0.006511 0.046226 -0.330709,
        0.030269 -0.031879 -0.330709,
        0.038225 -0.032994 -0.330709,
        -0.004052 0.003015 -0.330709,
        -0.004052 -0.023871 -0.330709,
        -0.031898 0.003015 -0.330709,
        -0.031898 0.011658 -0.330709,
        0.060876 -0.029841 -0.330709,
        0.087172 -0.032514 -0.330709,
        0.053244 -0.032468 -0.330709,
        0.048171 -0.032994 -0.330709,
        -0.033819 0.046226 -0.330709,
        0.076294 0.025487 -0.330709,
        0.071680 0.032849 -0.330709,
        0.116939 0.046226 -0.330709,
        0.048069 0.037674 -0.330709,
        0.053962 0.035547 -0.330709,
        0.023287 -0.020572 -0.330709,
        0.059412 0.031901 -0.330709,
        0.064167 0.026652 -0.330709,
        0.069887 0.006016 -0.330709,
        0.069090 -0.002508 -0.330709,
        0.066951 -0.009281 -0.330709,
        0.049430 -0.024008 -0.330709,
        0.042085 -0.024831 -0.330709,
        0.055167 -0.021896 -0.330709,
        0.060000 -0.018639 -0.330709,
        0.063694 -0.014741 -0.330709,
        0.031633 -0.023672 -0.330709,
        0.067413 0.020572 -0.330709,
        0.069512 0.012143 -0.330709,
        0.064570 0.039686 -0.330709,
        0.127502 0.046226 -0.330709,
        0.127502 -0.032514 -0.330709,
        0.067210 -0.025796 -0.330709,
        0.073124 -0.019570 -0.330709,
        0.087172 -0.023871 -0.330709,
        0.077319 -0.012083 -0.330709,
        0.116939 -0.023871 -0.330709,
        0.079689 -0.003748 -0.330709,
        0.080450 0.005371 -0.330709,
        0.079318 0.016566 -0.330709,
        0.057092 0.043991 -0.330709,
        0.048314 0.046541 -0.330709,
        0.040405 0.047187 -0.330709,
        0.030979 0.046536 -0.330709,
        0.021875 0.044066 -0.330709,
        0.021875 0.033503 -0.330709,
        0.030744 0.037301 -0.330709,
        0.040315 0.038544 -0.330709,
        0.041388 -0.033437 -0.330709,
        0.043541 -0.033474 -0.330709,
        -0.120241 -0.032514 -0.330709,
        -0.110548 -0.010933 -0.330709,
        -0.106032 -0.017976 -0.330709,
        -0.191299 -0.032514 -0.330709,
        -0.160572 0.046226 -0.330709,
        -0.150009 0.046226 -0.330709,
        -0.179776 -0.032514 -0.330709,
        -0.099551 -0.024181 -0.330709,
        -0.091330 -0.028959 -0.330709,
        -0.082257 -0.031663 -0.330709,
        -0.072514 -0.032514 -0.330709,
        -0.051104 -0.032514 -0.330709,
        -0.051104 0.046226 -0.330709,
        -0.073324 0.046226 -0.330709,
        -0.102565 0.035960 -0.330709,
        -0.108133 0.029785 -0.330709,
        -0.111793 0.023014 -0.330709,
        -0.084700 0.045011 -0.330709,
        -0.093913 0.041776 -0.330709,
        -0.102483 0.036032 -0.330709,
        -0.131764 -0.032514 -0.330709,
        -0.139281 -0.010428 -0.330709,
        -0.171809 -0.010428 -0.330709,
        -0.113907 0.015256 -0.330709,
        -0.114480 0.007847 -0.330709,
        -0.113375 -0.002691 -0.330709,
        -0.160572 0.046226 -0.330315,
        -0.191299 -0.032514 -0.330315,
        -0.179776 -0.032514 -0.330315,
        -0.171809 -0.010428 -0.330315,
        -0.139281 -0.010428 -0.330315,
        -0.131764 -0.032514 -0.330315,
        -0.120241 -0.032514 -0.330315,
        -0.150009 0.046226 -0.330315,
        -0.141937 -0.001786 -0.330315,
        -0.168269 -0.001786 -0.330315,
        -0.153685 0.031103 -0.330315,
        -0.154443 0.033833 -0.330315,
        -0.154945 0.036624 -0.330315,
        -0.155200 0.036624 -0.330315,
        -0.155714 0.033842 -0.330315,
        -0.156415 0.031103 -0.330315,
        -0.141937 -0.001786 -0.330709,
        -0.168269 -0.001786 -0.330709,
        -0.153685 0.031103 -0.330709,
        -0.154443 0.033833 -0.330709,
        -0.154945 0.036624 -0.330709,
        -0.155200 0.036624 -0.330709,
        -0.155714 0.033842 -0.330709,
        -0.156415 0.031103 -0.330709,
        -0.072514 -0.032514 -0.330315,
        -0.051104 -0.032514 -0.330315,
        -0.051104 0.046226 -0.330315,
        -0.073324 0.046226 -0.330315,
        -0.114480 0.007847 -0.330315,
        -0.113907 0.015256 -0.330315,
        -0.111793 0.023014 -0.330315,
        -0.108133 0.029785 -0.330315,
        -0.102565 0.035960 -0.330315,
        -0.102483 0.036032 -0.330315,
        -0.093913 0.041776 -0.330315,
        -0.084700 0.045011 -0.330315,
        -0.082257 -0.031663 -0.330315,
        -0.091330 -0.028959 -0.330315,
        -0.099551 -0.024181 -0.330315,
        -0.106032 -0.017976 -0.330315,
        -0.110548 -0.010933 -0.330315,
        -0.113375 -0.002691 -0.330315,
        -0.098674 0.026543 -0.330315,
        -0.094850 0.030604 -0.330315,
        -0.089098 0.034319 -0.330315,
        -0.082599 0.036594 -0.330315,
        -0.073279 0.037584 -0.330315,
        -0.061666 0.037584 -0.330315,
        -0.061666 -0.023871 -0.330315,
        -0.072844 -0.023871 -0.330315,
        -0.081151 -0.023098 -0.330315,
        -0.087777 -0.021030 -0.330315,
        -0.093147 -0.017841 -0.330315,
        -0.097563 -0.013479 -0.330315,
        -0.100885 -0.008050 -0.330315,
        -0.103194 -0.000648 -0.330315,
        -0.103917 0.007622 -0.330315,
        -0.103248 0.015458 -0.330315,
        -0.101410 0.021686 -0.330315,
        -0.073279 0.037584 -0.330709,
        -0.061666 0.037584 -0.330709,
        -0.082599 0.036594 -0.330709,
        -0.089098 0.034319 -0.330709,
        -0.094850 0.030604 -0.330709,
        -0.098674 0.026543 -0.330709,
        -0.101410 0.021686 -0.330709,
        -0.103248 0.015458 -0.330709,
        -0.103917 0.007622 -0.330709,
        -0.103194 -0.000648 -0.330709,
        -0.100885 -0.008050 -0.330709,
        -0.097563 -0.013479 -0.330709,
        -0.093147 -0.017841 -0.330709,
        -0.087777 -0.021030 -0.330709,
        -0.081151 -0.023098 -0.330709,
        -0.072844 -0.023871 -0.330709,
        -0.061666 -0.023871 -0.330709,
        -0.035739 -0.023871 -0.330315,
        -0.035739 -0.032514 -0.330315,
        0.006511 -0.032514 -0.330315,
        0.006511 0.046226 -0.330315,
        -0.033819 0.046226 -0.330315,
        -0.033819 0.037584 -0.330315,
        -0.004052 0.037584 -0.330315,
        -0.004052 0.011658 -0.330315,
        -0.031898 0.011658 -0.330315,
        -0.031898 0.003015 -0.330315,
        -0.004052 0.003015 -0.330315,
        -0.004052 -0.023871 -0.330315,
        0.021875 -0.019790 -0.330315,
        0.021875 -0.028433 -0.330315,
        0.030269 -0.031879 -0.330315,
        0.043541 -0.033474 -0.330315,
        0.041388 -0.033437 -0.330315,
        0.053244 -0.032468 -0.330315,
        0.060876 -0.029841 -0.330315,
        0.067210 -0.025796 -0.330315,
        0.073124 -0.019570 -0.330315,
        0.077319 -0.012083 -0.330315,
        0.079689 -0.003748 -0.330315,
        0.080450 0.005371 -0.330315,
        0.040405 0.047187 -0.330315,
        0.048314 0.046541 -0.330315,
        0.057092 0.043991 -0.330315,
        0.064570 0.039686 -0.330315,
        0.071680 0.032849 -0.330315,
        0.076294 0.025487 -0.330315,
        0.079318 0.016566 -0.330315,
        0.021875 0.044066 -0.330315,
        0.030979 0.046536 -0.330315,
        0.021875 0.033503 -0.330315,
        0.040315 0.038544 -0.330315,
        0.030744 0.037301 -0.330315,
        0.069887 0.006016 -0.330315,
        0.069512 0.012143 -0.330315,
        0.067413 0.020572 -0.330315,
        0.064167 0.026652 -0.330315,
        0.059412 0.031901 -0.330315,
        0.053962 0.035547 -0.330315,
        0.048069 0.037674 -0.330315,
        0.042085 -0.024831 -0.330315,
        0.049430 -0.024008 -0.330315,
        0.055167 -0.021896 -0.330315,
        0.060000 -0.018639 -0.330315,
        0.063694 -0.014741 -0.330315,
        0.066951 -0.009281 -0.330315,
        0.069090 -0.002508 -0.330315,
        0.023287 -0.020572 -0.330315,
        0.031633 -0.023672 -0.330315,
        0.087172 -0.023871 -0.330315,
        0.087172 -0.032514 -0.330315,
        0.127502 -0.032514 -0.330315,
        0.127502 0.046226 -0.330315,
        0.116939 0.046226 -0.330315,
        0.116939 -0.023871 -0.330315,
      ]
    }
    coordIndex [
      86, 87, 64, -1,
      64, 87, 63, -1,
      87, 88, 63, -1,
      63, 88, 66, -1,
      88, 89, 66, -1,
      66, 89, 82, -1,
      89, 90, 82, -1,
      82, 90, 81, -1,
      90, 91, 81, -1,
      81, 91, 80, -1,
      91, 92, 80, -1,
      80, 92, 60, -1,
      92, 93, 60, -1,
      60, 93, 65, -1,
      93, 86, 65, -1,
      65, 86, 64, -1,
      94, 90, 95, -1,
      95, 90, 89, -1,
      96, 93, 94, -1,
      94, 93, 92, -1,
      94, 92, 90, -1,
      90, 92, 91, -1,
      96, 97, 93, -1,
      93, 97, 98, -1,
      93, 98, 86, -1,
      86, 98, 99, -1,
      86, 99, 100, -1,
      100, 101, 86, -1,
      86, 101, 95, -1,
      86, 95, 87, -1,
      87, 95, 89, -1,
      87, 89, 88, -1,
      94, 95, 102, -1,
      102, 95, 103, -1,
      96, 94, 104, -1,
      104, 94, 102, -1,
      96, 104, 105, -1,
      96, 105, 97, -1,
      97, 105, 106, -1,
      97, 106, 98, -1,
      99, 98, 107, -1,
      107, 98, 106, -1,
      99, 107, 108, -1,
      99, 108, 100, -1,
      100, 108, 109, -1,
      100, 109, 101, -1,
      95, 101, 103, -1,
      103, 101, 109, -1,
      110, 111, 70, -1,
      70, 111, 71, -1,
      111, 112, 71, -1,
      71, 112, 72, -1,
      112, 113, 72, -1,
      72, 113, 73, -1,
      114, 84, 83, -1,
      114, 83, 115, -1,
      115, 83, 76, -1,
      115, 76, 116, -1,
      116, 76, 75, -1,
      116, 75, 117, -1,
      117, 75, 74, -1,
      117, 74, 118, -1,
      118, 74, 79, -1,
      118, 79, 119, -1,
      119, 79, 78, -1,
      119, 78, 120, -1,
      120, 78, 77, -1,
      120, 77, 121, -1,
      121, 77, 73, -1,
      121, 73, 113, -1,
      110, 70, 69, -1,
      110, 69, 122, -1,
      122, 69, 68, -1,
      122, 68, 123, -1,
      123, 68, 67, -1,
      123, 67, 124, -1,
      124, 67, 62, -1,
      124, 62, 125, -1,
      125, 62, 61, -1,
      125, 61, 126, -1,
      126, 61, 85, -1,
      126, 85, 127, -1,
      127, 85, 84, -1,
      127, 84, 114, -1,
      116, 117, 128, -1,
      128, 117, 118, -1,
      128, 118, 129, -1,
      129, 118, 119, -1,
      129, 119, 130, -1,
      130, 119, 120, -1,
      130, 120, 131, -1,
      131, 120, 121, -1,
      131, 121, 132, -1,
      132, 121, 113, -1,
      132, 113, 133, -1,
      133, 113, 112, -1,
      133, 112, 134, -1,
      134, 112, 111, -1,
      134, 111, 135, -1,
      135, 111, 110, -1,
      135, 110, 136, -1,
      136, 110, 122, -1,
      136, 122, 137, -1,
      137, 122, 123, -1,
      137, 123, 138, -1,
      138, 123, 124, -1,
      138, 124, 139, -1,
      139, 124, 125, -1,
      139, 125, 140, -1,
      140, 125, 126, -1,
      140, 126, 141, -1,
      141, 126, 127, -1,
      141, 127, 142, -1,
      142, 127, 114, -1,
      142, 114, 143, -1,
      143, 114, 115, -1,
      143, 115, 144, -1,
      144, 115, 116, -1,
      144, 116, 128, -1,
      132, 133, 145, -1,
      145, 133, 146, -1,
      132, 145, 147, -1,
      132, 147, 131, -1,
      131, 147, 148, -1,
      131, 148, 130, -1,
      130, 148, 149, -1,
      130, 149, 129, -1,
      129, 149, 150, -1,
      129, 150, 128, -1,
      128, 150, 151, -1,
      128, 151, 144, -1,
      144, 151, 152, -1,
      144, 152, 143, -1,
      143, 152, 153, -1,
      143, 153, 142, -1,
      142, 153, 154, -1,
      142, 154, 141, -1,
      141, 154, 155, -1,
      141, 155, 140, -1,
      140, 155, 156, -1,
      140, 156, 139, -1,
      139, 156, 157, -1,
      139, 157, 138, -1,
      138, 157, 158, -1,
      138, 158, 137, -1,
      137, 158, 159, -1,
      137, 159, 136, -1,
      136, 159, 160, -1,
      136, 160, 135, -1,
      134, 135, 161, -1,
      161, 135, 160, -1,
      133, 134, 146, -1,
      146, 134, 161, -1,
      162, 163, 0, -1,
      0, 163, 1, -1,
      163, 164, 1, -1,
      1, 164, 2, -1,
      164, 165, 2, -1,
      2, 165, 8, -1,
      165, 166, 8, -1,
      8, 166, 19, -1,
      166, 167, 19, -1,
      19, 167, 3, -1,
      167, 168, 3, -1,
      3, 168, 4, -1,
      168, 169, 4, -1,
      4, 169, 5, -1,
      169, 170, 5, -1,
      5, 170, 14, -1,
      170, 171, 14, -1,
      14, 171, 13, -1,
      171, 172, 13, -1,
      13, 172, 11, -1,
      172, 173, 11, -1,
      11, 173, 12, -1,
      173, 162, 12, -1,
      12, 162, 0, -1,
      164, 163, 162, -1,
      162, 173, 164, -1,
      164, 173, 172, -1,
      164, 172, 165, -1,
      167, 166, 168, -1,
      168, 166, 165, -1,
      168, 165, 169, -1,
      169, 165, 172, -1,
      169, 172, 170, -1,
      170, 172, 171, -1,
      174, 175, 7, -1,
      7, 175, 6, -1,
      6, 175, 176, -1,
      177, 59, 58, -1,
      177, 58, 178, -1,
      178, 58, 10, -1,
      178, 10, 176, -1,
      176, 10, 9, -1,
      176, 9, 6, -1,
      59, 177, 18, -1,
      18, 177, 179, -1,
      18, 179, 17, -1,
      17, 179, 180, -1,
      17, 180, 15, -1,
      15, 180, 181, -1,
      15, 181, 42, -1,
      42, 181, 182, -1,
      42, 182, 43, -1,
      43, 182, 183, -1,
      43, 183, 45, -1,
      45, 183, 184, -1,
      45, 184, 47, -1,
      47, 184, 185, -1,
      47, 185, 48, -1,
      186, 52, 51, -1,
      186, 51, 187, -1,
      187, 51, 50, -1,
      187, 50, 188, -1,
      188, 50, 39, -1,
      188, 39, 189, -1,
      189, 39, 21, -1,
      189, 21, 190, -1,
      190, 21, 20, -1,
      190, 20, 191, -1,
      191, 20, 49, -1,
      191, 49, 192, -1,
      192, 49, 48, -1,
      192, 48, 185, -1,
      193, 54, 53, -1,
      193, 53, 194, -1,
      194, 53, 52, -1,
      194, 52, 186, -1,
      193, 195, 54, -1,
      54, 195, 55, -1,
      196, 57, 56, -1,
      196, 56, 197, -1,
      197, 56, 55, -1,
      197, 55, 195, -1,
      198, 28, 38, -1,
      198, 38, 199, -1,
      199, 38, 37, -1,
      199, 37, 200, -1,
      200, 37, 27, -1,
      200, 27, 201, -1,
      201, 27, 26, -1,
      201, 26, 202, -1,
      202, 26, 24, -1,
      202, 24, 203, -1,
      203, 24, 23, -1,
      203, 23, 204, -1,
      204, 23, 57, -1,
      204, 57, 196, -1,
      205, 32, 31, -1,
      205, 31, 206, -1,
      206, 31, 33, -1,
      206, 33, 207, -1,
      207, 33, 34, -1,
      207, 34, 208, -1,
      208, 34, 35, -1,
      208, 35, 209, -1,
      209, 35, 30, -1,
      209, 30, 210, -1,
      210, 30, 29, -1,
      210, 29, 211, -1,
      211, 29, 28, -1,
      211, 28, 198, -1,
      174, 7, 25, -1,
      174, 25, 212, -1,
      212, 25, 36, -1,
      212, 36, 213, -1,
      213, 36, 32, -1,
      213, 32, 205, -1,
      206, 177, 205, -1,
      205, 177, 178, -1,
      205, 178, 213, -1,
      213, 178, 176, -1,
      213, 176, 212, -1,
      212, 176, 175, -1,
      212, 175, 174, -1,
      195, 193, 197, -1,
      197, 193, 194, -1,
      197, 194, 196, -1,
      196, 194, 186, -1,
      196, 186, 204, -1,
      204, 186, 187, -1,
      204, 187, 203, -1,
      203, 187, 188, -1,
      203, 188, 202, -1,
      202, 188, 189, -1,
      202, 189, 201, -1,
      201, 189, 190, -1,
      201, 190, 200, -1,
      200, 190, 191, -1,
      200, 191, 199, -1,
      199, 191, 192, -1,
      199, 192, 198, -1,
      198, 192, 185, -1,
      198, 185, 211, -1,
      211, 185, 184, -1,
      211, 184, 210, -1,
      210, 184, 183, -1,
      210, 183, 209, -1,
      209, 183, 182, -1,
      209, 182, 208, -1,
      208, 182, 181, -1,
      208, 181, 207, -1,
      207, 181, 180, -1,
      207, 180, 206, -1,
      206, 180, 179, -1,
      206, 179, 177, -1,
      214, 215, 44, -1,
      44, 215, 16, -1,
      215, 216, 16, -1,
      16, 216, 41, -1,
      216, 217, 41, -1,
      41, 217, 40, -1,
      217, 218, 40, -1,
      40, 218, 22, -1,
      218, 219, 22, -1,
      22, 219, 46, -1,
      219, 214, 46, -1,
      46, 214, 44, -1,
      218, 217, 219, -1,
      219, 217, 216, -1,
      219, 216, 214, -1,
      214, 216, 215, -1,
    ]
  }
}

Shape {
  appearance Appearance {
    material Material {
      diffuseColor 1.0000 0.9725 0.8745
      specularColor 0.5020 0.4863 0.4392
      ambientIntensity 0.2
      transparency 0.0000
      shininess 0.5
    }
  }
  geometry IndexedFaceSet {
    ccw TRUE
    solid FALSE
    coord DEF co Coordinate {
      point [
        -0.141937 -0.001786 -0.330709,
        -0.168269 -0.001786 -0.330709,
        -0.153685 0.031103 -0.330709,
        -0.154443 0.033833 -0.330709,
        -0.154945 0.036624 -0.330709,
        -0.155200 0.036624 -0.330709,
        -0.155714 0.033842 -0.330709,
        -0.156415 0.031103 -0.330709,
        -0.073279 0.037584 -0.330709,
        -0.061666 0.037584 -0.330709,
        -0.082599 0.036594 -0.330709,
        -0.089098 0.034319 -0.330709,
        -0.094850 0.030604 -0.330709,
        -0.098674 0.026543 -0.330709,
        -0.101410 0.021686 -0.330709,
        -0.103248 0.015458 -0.330709,
        -0.103917 0.007622 -0.330709,
        -0.103194 -0.000648 -0.330709,
        -0.100885 -0.008050 -0.330709,
        -0.097563 -0.013479 -0.330709,
        -0.093147 -0.017841 -0.330709,
        -0.087777 -0.021030 -0.330709,
        -0.081151 -0.023098 -0.330709,
        -0.072844 -0.023871 -0.330709,
        -0.061666 -0.023871 -0.330709,
      ]
    }
    coordIndex [
      0, 1, 2, -1,
      2, 1, 7, -1,
      2, 7, 3, -1,
      3, 7, 6, -1,
      3, 6, 4, -1,
      4, 6, 5, -1,
      9, 24, 8, -1,
      8, 24, 23, -1,
      8, 23, 22, -1,
      16, 15, 8, -1,
      8, 15, 14, -1,
      8, 14, 10, -1,
      22, 21, 8, -1,
      8, 21, 20, -1,
      8, 20, 19, -1,
      19, 18, 8, -1,
      8, 18, 17, -1,
      8, 17, 16, -1,
      13, 12, 14, -1,
      14, 12, 11, -1,
      14, 11, 10, -1,
    ]
  }
}

Shape {
  appearance Appearance {
    material Material {
      diffuseColor 1.0000 1.0000 1.0000
      specularColor 0.5020 0.5020 0.5020
      ambientIntensity 0.2
      transparency 0.0000
      shininess 0.5
    }
  }
  geometry IndexedFaceSet {
    ccw TRUE
    solid FALSE
    coord DEF co Coordinate {
      point [
        0.207104 -0.424627 0.330709,
        0.145992 -0.449318 0.330709,
        0.264185 -0.391671 0.330709,
        -0.114294 -0.458407 0.330709,
        -0.176980 -0.438040 0.330709,
        -0.236220 -0.409146 0.330709,
        0.431596 -0.192159 0.330709,
        0.454139 -0.130222 0.330709,
        0.467843 -0.065751 0.330709,
        0.400653 -0.250356 0.330709,
        0.361911 -0.303679 0.330709,
        0.316125 -0.351092 0.330709,
        -0.462117 -0.098226 0.330709,
        -0.443949 -0.161584 0.330709,
        -0.417141 -0.221798 0.330709,
        -0.471290 -0.032956 0.330709,
        -0.471290 0.032956 0.330709,
        -0.462117 0.098226 0.330709,
        -0.443949 0.161584 0.330709,
        0.145992 0.449318 0.330709,
        0.207104 0.424627 0.330709,
        0.082039 -0.465263 0.330709,
        0.016488 -0.472153 0.330709,
        -0.049383 -0.469853 0.330709,
        -0.339846 -0.328185 0.330709,
        -0.290864 0.372289 0.330709,
        -0.236220 0.409146 0.330709,
        -0.176980 0.438040 0.330709,
        -0.114294 0.458407 0.330709,
        0.431596 0.192159 0.330709,
        0.454139 0.130222 0.330709,
        0.467843 0.065751 0.330709,
        0.472441 0.000000 0.330709,
        -0.382213 -0.277694 0.330709,
        -0.290864 -0.372289 0.330709,
        -0.382213 0.277694 0.330709,
        -0.049383 0.469853 0.330709,
        0.016488 0.472153 0.330709,
        0.082039 0.465263 0.330709,
        -0.339846 0.328185 0.330709,
        -0.417141 0.221798 0.330709,
        0.264185 0.391671 0.330709,
        0.316125 0.351092 0.330709,
        0.361911 0.303679 0.330709,
        0.400653 0.250356 0.330709,
        0.364726 0.051259 -0.259843,
        0.354043 0.101520 -0.259843,
        0.336469 0.149806 -0.259843,
        0.312345 0.195175 -0.259843,
        0.282143 0.236746 -0.259843,
        0.246448 0.273708 -0.259843,
        0.205957 0.305344 -0.259843,
        0.161457 0.331035 -0.259843,
        0.113814 0.350284 -0.259843,
        0.063957 0.362715 -0.259843,
        0.012854 0.368087 -0.259843,
        -0.038499 0.366293 -0.259843,
        -0.089102 0.357370 -0.259843,
        -0.137972 0.341492 -0.259843,
        -0.184156 0.318967 -0.259843,
        -0.226755 0.290233 -0.259843,
        -0.264941 0.255850 -0.259843,
        -0.297970 0.216488 -0.259843,
        -0.325199 0.172911 -0.259843,
        -0.346099 0.125970 -0.259843,
        -0.360262 0.076576 -0.259843,
        -0.367414 0.025692 -0.259843,
        -0.367414 -0.025692 -0.259843,
        -0.360262 -0.076576 -0.259843,
        -0.346099 -0.125970 -0.259843,
        -0.325199 -0.172911 -0.259843,
        -0.297970 -0.216488 -0.259843,
        -0.264941 -0.255850 -0.259843,
        -0.226755 -0.290233 -0.259843,
        -0.184156 -0.318967 -0.259843,
        -0.137972 -0.341492 -0.259843,
        -0.089102 -0.357370 -0.259843,
        -0.038499 -0.366293 -0.259843,
        0.012854 -0.368087 -0.259843,
        0.063957 -0.362715 -0.259843,
        0.113814 -0.350284 -0.259843,
        0.161457 -0.331035 -0.259843,
        0.205957 -0.305344 -0.259843,
        0.246448 -0.273708 -0.259843,
        0.282143 -0.236746 -0.259843,
        0.312345 -0.195175 -0.259843,
        0.336469 -0.149806 -0.259843,
        0.354043 -0.101520 -0.259843,
        0.364726 -0.051259 -0.259843,
        0.368311 0.000000 -0.259843,
        0.000000 0.000000 -0.259843,
      ]
    }
    coordIndex [
      45, 31, 46, -1,
      46, 31, 30, -1,
      46, 30, 47, -1,
      47, 30, 29, -1,
      47, 29, 48, -1,
      48, 29, 44, -1,
      48, 44, 49, -1,
      49, 44, 43, -1,
      49, 43, 50, -1,
      50, 43, 42, -1,
      50, 42, 51, -1,
      51, 42, 41, -1,
      51, 41, 52, -1,
      52, 41, 20, -1,
      52, 20, 53, -1,
      53, 20, 19, -1,
      53, 19, 54, -1,
      54, 19, 38, -1,
      54, 38, 55, -1,
      55, 38, 37, -1,
      55, 37, 56, -1,
      56, 37, 36, -1,
      56, 36, 57, -1,
      57, 36, 28, -1,
      57, 28, 58, -1,
      58, 28, 27, -1,
      58, 27, 59, -1,
      59, 27, 26, -1,
      59, 26, 60, -1,
      60, 26, 25, -1,
      60, 25, 61, -1,
      61, 25, 39, -1,
      61, 39, 62, -1,
      62, 39, 35, -1,
      62, 35, 63, -1,
      63, 35, 40, -1,
      63, 40, 64, -1,
      64, 40, 18, -1,
      64, 18, 65, -1,
      65, 18, 17, -1,
      65, 17, 66, -1,
      66, 17, 16, -1,
      66, 16, 67, -1,
      67, 16, 15, -1,
      67, 15, 68, -1,
      68, 15, 12, -1,
      68, 12, 69, -1,
      69, 12, 13, -1,
      69, 13, 70, -1,
      70, 13, 14, -1,
      70, 14, 71, -1,
      71, 14, 33, -1,
      71, 33, 72, -1,
      72, 33, 24, -1,
      72, 24, 73, -1,
      73, 24, 34, -1,
      73, 34, 74, -1,
      74, 34, 5, -1,
      74, 5, 75, -1,
      75, 5, 4, -1,
      75, 4, 76, -1,
      76, 4, 3, -1,
      76, 3, 77, -1,
      77, 3, 23, -1,
      77, 23, 78, -1,
      78, 23, 22, -1,
      78, 22, 79, -1,
      79, 22, 21, -1,
      79, 21, 80, -1,
      80, 21, 1, -1,
      80, 1, 81, -1,
      81, 1, 0, -1,
      81, 0, 82, -1,
      82, 0, 2, -1,
      82, 2, 83, -1,
      83, 2, 11, -1,
      83, 11, 84, -1,
      84, 11, 10, -1,
      84, 10, 85, -1,
      85, 10, 9, -1,
      85, 9, 86, -1,
      86, 9, 6, -1,
      86, 6, 87, -1,
      87, 6, 7, -1,
      87, 7, 88, -1,
      88, 7, 8, -1,
      88, 8, 89, -1,
      89, 8, 32, -1,
      89, 32, 45, -1,
      45, 32, 31, -1,
      87, 88, 90, -1,
      90, 88, 89, -1,
      90, 89, 45, -1,
      84, 85, 90, -1,
      90, 85, 86, -1,
      90, 86, 87, -1,
      81, 82, 90, -1,
      90, 82, 83, -1,
      90, 83, 84, -1,
      78, 79, 90, -1,
      90, 79, 80, -1,
      90, 80, 81, -1,
      75, 76, 90, -1,
      90, 76, 77, -1,
      90, 77, 78, -1,
      72, 73, 90, -1,
      90, 73, 74, -1,
      90, 74, 75, -1,
      69, 70, 90, -1,
      90, 70, 71, -1,
      90, 71, 72, -1,
      66, 67, 90, -1,
      90, 67, 68, -1,
      90, 68, 69, -1,
      63, 64, 90, -1,
      90, 64, 65, -1,
      90, 65, 66, -1,
      60, 61, 90, -1,
      90, 61, 62, -1,
      90, 62, 63, -1,
      57, 58, 90, -1,
      90, 58, 59, -1,
      90, 59, 60, -1,
      54, 55, 90, -1,
      90, 55, 56, -1,
      90, 56, 57, -1,
      51, 52, 90, -1,
      90, 52, 53, -1,
      90, 53, 54, -1,
      48, 49, 90, -1,
      90, 49, 50, -1,
      90, 50, 51, -1,
      45, 46, 90, -1,
      90, 46, 47, -1,
      90, 47, 48, -1,
    ]
  }
}

Shape {
  appearance Appearance {
    material Material {
      diffuseColor 0.6471 0.6196 0.6000
      specularColor 0.3216 0.3098 0.3020
      ambientIntensity 0.2
      transparency 0.0000
      shininess 0.5
    }
  }
  geometry IndexedFaceSet {
    ccw TRUE
    solid FALSE
    coord DEF co Coordinate {
      point [
        -0.236220 -0.409146 0.330709,
        0.361911 -0.303679 0.330709,
        -0.443949 -0.161584 0.330709,
        -0.443949 0.161584 0.330709,
        0.082039 -0.465263 0.330709,
        -0.236220 0.409146 0.330709,
        0.472441 0.000000 0.330709,
        0.082039 0.465263 0.330709,
        0.361911 0.303679 0.330709,
        0.462352 0.054041 0.291339,
        0.469246 0.054847 0.330709,
        0.452951 0.107352 0.291339,
        0.459706 0.108952 0.330709,
        0.437426 0.159210 0.291339,
        0.443949 0.161584 0.330709,
        0.415985 0.208915 0.291339,
        0.422189 0.212031 0.330709,
        0.388919 0.255796 0.291339,
        0.394719 0.259611 0.330709,
        0.356593 0.299217 0.291339,
        0.319445 0.338592 0.291339,
        0.324209 0.343641 0.330709,
        0.277977 0.373387 0.291339,
        0.282122 0.378956 0.330709,
        0.232750 0.403134 0.291339,
        0.236220 0.409146 0.330709,
        0.184375 0.427429 0.291339,
        0.187124 0.433803 0.330709,
        0.133507 0.445943 0.291339,
        0.135498 0.452593 0.330709,
        0.080833 0.458427 0.291339,
        0.027067 0.464711 0.291339,
        0.027470 0.471642 0.330709,
        -0.027067 0.464711 0.291339,
        -0.027470 0.471642 0.330709,
        -0.080833 0.458427 0.291339,
        -0.082039 0.465263 0.330709,
        -0.133507 0.445943 0.291339,
        -0.135498 0.452593 0.330709,
        -0.184375 0.427429 0.291339,
        -0.187124 0.433803 0.330709,
        -0.232750 0.403134 0.291339,
        -0.277977 0.373387 0.291339,
        -0.282122 0.378956 0.330709,
        -0.319445 0.338592 0.291339,
        -0.324209 0.343641 0.330709,
        -0.356593 0.299217 0.291339,
        -0.361911 0.303679 0.330709,
        -0.388919 0.255796 0.291339,
        -0.394719 0.259611 0.330709,
        -0.415985 0.208915 0.291339,
        -0.422189 0.212031 0.330709,
        -0.437426 0.159210 0.291339,
        -0.452951 0.107352 0.291339,
        -0.459706 0.108952 0.330709,
        -0.462352 0.054041 0.291339,
        -0.469246 0.054847 0.330709,
        -0.465499 0.000000 0.291339,
        -0.472441 0.000000 0.330709,
        -0.462352 -0.054041 0.291339,
        -0.469246 -0.054847 0.330709,
        -0.452951 -0.107352 0.291339,
        -0.459706 -0.108952 0.330709,
        -0.437426 -0.159210 0.291339,
        -0.415985 -0.208915 0.291339,
        -0.422189 -0.212031 0.330709,
        -0.388919 -0.255796 0.291339,
        -0.394719 -0.259611 0.330709,
        -0.356593 -0.299217 0.291339,
        -0.361911 -0.303679 0.330709,
        -0.319445 -0.338592 0.291339,
        -0.324209 -0.343641 0.330709,
        -0.277977 -0.373387 0.291339,
        -0.282122 -0.378956 0.330709,
        -0.232750 -0.403134 0.291339,
        -0.184375 -0.427429 0.291339,
        -0.187124 -0.433803 0.330709,
        -0.133507 -0.445943 0.291339,
        -0.135498 -0.452593 0.330709,
        -0.080833 -0.458427 0.291339,
        -0.082039 -0.465263 0.330709,
        -0.027067 -0.464711 0.291339,
        -0.027470 -0.471642 0.330709,
        0.027067 -0.464711 0.291339,
        0.027470 -0.471642 0.330709,
        0.080833 -0.458427 0.291339,
        0.133507 -0.445943 0.291339,
        0.135498 -0.452593 0.330709,
        0.184375 -0.427429 0.291339,
        0.187124 -0.433803 0.330709,
        0.232750 -0.403134 0.291339,
        0.236220 -0.409146 0.330709,
        0.277977 -0.373387 0.291339,
        0.282122 -0.378956 0.330709,
        0.319445 -0.338592 0.291339,
        0.324209 -0.343641 0.330709,
        0.356593 -0.299217 0.291339,
        0.388919 -0.255796 0.291339,
        0.394719 -0.259611 0.330709,
        0.415985 -0.208915 0.291339,
        0.422189 -0.212031 0.330709,
        0.437426 -0.159210 0.291339,
        0.443949 -0.161584 0.330709,
        0.452951 -0.107352 0.291339,
        0.459706 -0.108952 0.330709,
        0.462352 -0.054041 0.291339,
        0.469246 -0.054847 0.330709,
        0.465499 0.000000 0.291339,
        0.000000 0.000000 0.291339,
        0.000000 0.000000 0.330709,
      ]
    }
    coordIndex [
      6, 9, 10, -1,
      10, 9, 11, -1,
      10, 11, 12, -1,
      12, 11, 13, -1,
      12, 13, 14, -1,
      14, 13, 15, -1,
      14, 15, 16, -1,
      16, 15, 17, -1,
      16, 17, 18, -1,
      18, 17, 19, -1,
      18, 19, 8, -1,
      8, 19, 20, -1,
      8, 20, 21, -1,
      21, 20, 22, -1,
      21, 22, 23, -1,
      23, 22, 24, -1,
      23, 24, 25, -1,
      25, 24, 26, -1,
      25, 26, 27, -1,
      27, 26, 28, -1,
      27, 28, 29, -1,
      29, 28, 30, -1,
      29, 30, 7, -1,
      7, 30, 31, -1,
      7, 31, 32, -1,
      32, 31, 33, -1,
      32, 33, 34, -1,
      34, 33, 35, -1,
      34, 35, 36, -1,
      36, 35, 37, -1,
      36, 37, 38, -1,
      38, 37, 39, -1,
      38, 39, 40, -1,
      40, 39, 41, -1,
      40, 41, 5, -1,
      5, 41, 42, -1,
      5, 42, 43, -1,
      43, 42, 44, -1,
      43, 44, 45, -1,
      45, 44, 46, -1,
      45, 46, 47, -1,
      47, 46, 48, -1,
      47, 48, 49, -1,
      49, 48, 50, -1,
      49, 50, 51, -1,
      51, 50, 52, -1,
      51, 52, 3, -1,
      3, 52, 53, -1,
      3, 53, 54, -1,
      54, 53, 55, -1,
      54, 55, 56, -1,
      56, 55, 57, -1,
      56, 57, 58, -1,
      58, 57, 59, -1,
      58, 59, 60, -1,
      60, 59, 61, -1,
      60, 61, 62, -1,
      62, 61, 63, -1,
      62, 63, 2, -1,
      2, 63, 64, -1,
      2, 64, 65, -1,
      65, 64, 66, -1,
      65, 66, 67, -1,
      67, 66, 68, -1,
      67, 68, 69, -1,
      69, 68, 70, -1,
      69, 70, 71, -1,
      71, 70, 72, -1,
      71, 72, 73, -1,
      73, 72, 74, -1,
      73, 74, 0, -1,
      0, 74, 75, -1,
      0, 75, 76, -1,
      76, 75, 77, -1,
      76, 77, 78, -1,
      78, 77, 79, -1,
      78, 79, 80, -1,
      80, 79, 81, -1,
      80, 81, 82, -1,
      82, 81, 83, -1,
      82, 83, 84, -1,
      84, 83, 85, -1,
      84, 85, 4, -1,
      4, 85, 86, -1,
      4, 86, 87, -1,
      87, 86, 88, -1,
      87, 88, 89, -1,
      89, 88, 90, -1,
      89, 90, 91, -1,
      91, 90, 92, -1,
      91, 92, 93, -1,
      93, 92, 94, -1,
      93, 94, 95, -1,
      95, 94, 96, -1,
      95, 96, 1, -1,
      1, 96, 97, -1,
      1, 97, 98, -1,
      98, 97, 99, -1,
      98, 99, 100, -1,
      100, 99, 101, -1,
      100, 101, 102, -1,
      102, 101, 103, -1,
      102, 103, 104, -1,
      104, 103, 105, -1,
      104, 105, 106, -1,
      106, 105, 107, -1,
      106, 107, 6, -1,
      6, 107, 9, -1,
      11, 9, 108, -1,
      108, 9, 107, -1,
      108, 107, 105, -1,
      17, 15, 108, -1,
      108, 15, 13, -1,
      108, 13, 11, -1,
      22, 20, 108, -1,
      108, 20, 19, -1,
      108, 19, 17, -1,
      28, 26, 108, -1,
      108, 26, 24, -1,
      108, 24, 22, -1,
      33, 31, 108, -1,
      108, 31, 30, -1,
      108, 30, 28, -1,
      39, 37, 108, -1,
      108, 37, 35, -1,
      108, 35, 33, -1,
      44, 42, 108, -1,
      108, 42, 41, -1,
      108, 41, 39, -1,
      50, 48, 108, -1,
      108, 48, 46, -1,
      108, 46, 44, -1,
      55, 53, 108, -1,
      108, 53, 52, -1,
      108, 52, 50, -1,
      61, 59, 108, -1,
      108, 59, 57, -1,
      108, 57, 55, -1,
      66, 64, 108, -1,
      108, 64, 63, -1,
      108, 63, 61, -1,
      72, 70, 108, -1,
      108, 70, 68, -1,
      108, 68, 66, -1,
      77, 75, 108, -1,
      108, 75, 74, -1,
      108, 74, 72, -1,
      83, 81, 108, -1,
      108, 81, 79, -1,
      108, 79, 77, -1,
      88, 86, 108, -1,
      108, 86, 85, -1,
      108, 85, 83, -1,
      94, 92, 108, -1,
      108, 92, 90, -1,
      108, 90, 88, -1,
      99, 97, 108, -1,
      108, 97, 96, -1,
      108, 96, 94, -1,
      105, 103, 108, -1,
      108, 103, 101, -1,
      108, 101, 99, -1,
      104, 106, 109, -1,
      109, 106, 6, -1,
      109, 6, 10, -1,
      98, 100, 109, -1,
      109, 100, 102, -1,
      109, 102, 104, -1,
      93, 95, 109, -1,
      109, 95, 1, -1,
      109, 1, 98, -1,
      87, 89, 109, -1,
      109, 89, 91, -1,
      109, 91, 93, -1,
      82, 84, 109, -1,
      109, 84, 4, -1,
      109, 4, 87, -1,
      76, 78, 109, -1,
      109, 78, 80, -1,
      109, 80, 82, -1,
      71, 73, 109, -1,
      109, 73, 0, -1,
      109, 0, 76, -1,
      65, 67, 109, -1,
      109, 67, 69, -1,
      109, 69, 71, -1,
      60, 62, 109, -1,
      109, 62, 2, -1,
      109, 2, 65, -1,
      54, 56, 109, -1,
      109, 56, 58, -1,
      109, 58, 60, -1,
      49, 51, 109, -1,
      109, 51, 3, -1,
      109, 3, 54, -1,
      43, 45, 109, -1,
      109, 45, 47, -1,
      109, 47, 49, -1,
      38, 40, 109, -1,
      109, 40, 5, -1,
      109, 5, 43, -1,
      32, 34, 109, -1,
      109, 34, 36, -1,
      109, 36, 38, -1,
      27, 29, 109, -1,
      109, 29, 7, -1,
      109, 7, 32, -1,
      21, 23, 109, -1,
      109, 23, 25, -1,
      109, 25, 27, -1,
      16, 18, 109, -1,
      109, 18, 8, -1,
      109, 8, 21, -1,
      10, 12, 109, -1,
      109, 12, 14, -1,
      109, 14, 16, -1,
    ]
  }
}
