#VRML V2.0 utf8

Shape {
  appearance Appearance {
    material Material {
      diffuseColor 0.7020 0.7020 0.7020
      specularColor 0.0510 0.0510 0.0510
      ambientIntensity 0.2
      transparency 0.0000
      shininess 0.5
    }
  }
  geometry IndexedFaceSet {
    ccw TRUE
    solid FALSE
    coord DEF co Coordinate {
      point [
        0.067412 0.027655 -0.374016,
        0.075166 0.026784 -0.374016,
        0.050384 -0.031462 -0.374016,
        0.048972 -0.030680 -0.374016,
        0.048972 -0.039322 -0.374016,
        0.041291 -0.043883 -0.374016,
        0.236220 -0.043883 -0.374016,
        0.154600 -0.043403 -0.374016,
        0.154600 0.035337 -0.374016,
        0.087974 -0.040730 -0.374016,
        0.114269 -0.043403 -0.374016,
        0.080342 -0.043357 -0.374016,
        0.075269 -0.043883 -0.374016,
        0.057842 0.026411 -0.374016,
        0.048972 0.022614 -0.374016,
        0.041291 0.531580 -0.374016,
        0.048972 0.033176 -0.374016,
        0.081059 0.024657 -0.374016,
        0.086509 0.021011 -0.374016,
        0.091264 0.015762 -0.374016,
        0.096985 -0.004873 -0.374016,
        0.096187 -0.013397 -0.374016,
        0.094048 -0.020170 -0.374016,
        0.076527 -0.034897 -0.374016,
        0.069183 -0.035721 -0.374016,
        0.082264 -0.032785 -0.374016,
        0.087097 -0.029528 -0.374016,
        0.090792 -0.025630 -0.374016,
        0.058731 -0.034561 -0.374016,
        0.103392 0.014598 -0.374016,
        0.098777 0.021959 -0.374016,
        0.144037 0.035337 -0.374016,
        0.236220 0.531580 -0.374016,
        0.094510 0.009682 -0.374016,
        0.096609 0.001253 -0.374016,
        0.094307 -0.036686 -0.374016,
        0.100222 -0.030459 -0.374016,
        0.114269 -0.034761 -0.374016,
        0.104417 -0.022972 -0.374016,
        0.144037 -0.034761 -0.374016,
        0.091668 0.028796 -0.374016,
        0.084189 0.033102 -0.374016,
        0.075411 0.035652 -0.374016,
        0.106786 -0.014638 -0.374016,
        0.107548 -0.005519 -0.374016,
        0.106415 0.005676 -0.374016,
        0.067502 0.036297 -0.374016,
        0.058076 0.035647 -0.374016,
        0.057366 -0.042769 -0.374016,
        0.065322 -0.043883 -0.374016,
        0.041291 -0.531580 -0.374016,
        0.068485 -0.044326 -0.374016,
        0.236220 -0.531580 -0.374016,
        0.070638 -0.044363 -0.374016,
        -0.008642 -0.043403 -0.374016,
        0.033609 -0.043403 -0.374016,
        0.033609 0.035337 -0.374016,
        -0.006722 0.026695 -0.374016,
        0.023046 0.026695 -0.374016,
        0.023046 0.000768 -0.374016,
        -0.083450 -0.021822 -0.374016,
        -0.078935 -0.028865 -0.374016,
        -0.093144 -0.043403 -0.374016,
        -0.072454 -0.035070 -0.374016,
        -0.064232 -0.039848 -0.374016,
        -0.236220 0.531580 -0.374016,
        -0.006722 0.035337 -0.374016,
        -0.004801 -0.007874 -0.374016,
        0.023046 -0.007874 -0.374016,
        0.023046 -0.034761 -0.374016,
        -0.024006 0.035337 -0.374016,
        -0.004801 0.000768 -0.374016,
        -0.024006 -0.043403 -0.374016,
        -0.008642 -0.034761 -0.374016,
        -0.046227 0.035337 -0.374016,
        -0.057603 0.034121 -0.374016,
        -0.066815 0.030886 -0.374016,
        -0.075385 0.025143 -0.374016,
        -0.122911 0.035337 -0.374016,
        -0.081036 0.018896 -0.374016,
        -0.084695 0.012124 -0.374016,
        -0.236220 -0.043883 -0.374016,
        -0.164202 -0.043403 -0.374016,
        -0.152679 -0.043403 -0.374016,
        -0.075468 0.025070 -0.374016,
        -0.086810 0.004366 -0.374016,
        -0.087382 -0.003043 -0.374016,
        -0.086278 -0.013581 -0.374016,
        -0.144712 -0.021318 -0.374016,
        -0.112184 -0.021318 -0.374016,
        -0.104667 -0.043403 -0.374016,
        -0.133474 0.035337 -0.374016,
        -0.045417 -0.043403 -0.374016,
        -0.055159 -0.042553 -0.374016,
        -0.236220 -0.531580 -0.374016,
        0.551181 0.551181 0.000000,
        0.551181 0.511811 0.000000,
        0.547054 0.511811 -0.078740,
        0.551181 -0.511811 0.000000,
        0.551181 -0.551181 0.000000,
        0.547054 -0.511811 -0.078740,
        0.535706 -0.535706 -0.295276,
        0.535706 0.535706 -0.295276,
        0.236220 -0.535706 -0.295276,
        -0.551181 -0.551181 0.000000,
        -0.535706 -0.535706 -0.295276,
        -0.236220 -0.535706 -0.295276,
        -0.535706 0.535706 -0.295276,
        -0.551181 0.551181 0.000000,
        -0.236220 0.535706 -0.295276,
        0.236220 0.535706 -0.295276,
        -0.551181 -0.511811 0.000000,
        -0.547054 -0.511811 -0.078740,
        -0.551181 0.511811 0.000000,
        -0.547054 0.511811 -0.078740,
        0.533643 0.533643 0.334646,
        0.533643 -0.533643 0.334646,
        -0.543959 0.543959 0.137795,
        -0.322182 0.543959 0.137795,
        -0.332499 0.533643 0.334646,
        -0.533643 -0.533643 0.334646,
        -0.533643 0.332499 0.334646,
        -0.543959 0.322182 0.137795,
        0.145992 0.449318 0.334646,
        0.207104 0.424627 0.334646,
        0.082039 0.465263 0.334646,
        0.454139 -0.130222 0.334646,
        0.431596 -0.192159 0.334646,
        0.264185 0.391671 0.334646,
        0.316125 0.351092 0.334646,
        0.361911 0.303679 0.334646,
        -0.417141 0.221798 0.334646,
        -0.443949 0.161584 0.334646,
        -0.462117 0.098226 0.334646,
        0.016488 0.472153 0.334646,
        -0.049383 0.469853 0.334646,
        0.400653 0.250356 0.334646,
        0.431596 0.192159 0.334646,
        0.454139 0.130222 0.334646,
        0.467843 0.065751 0.334646,
        0.472441 0.000000 0.334646,
        0.467843 -0.065751 0.334646,
        0.400653 -0.250356 0.334646,
        0.361911 -0.303679 0.334646,
        0.316125 -0.351092 0.334646,
        -0.382213 0.277694 0.334646,
        -0.339846 0.328185 0.334646,
        -0.290864 0.372289 0.334646,
        -0.236220 0.409146 0.334646,
        -0.176980 0.438040 0.334646,
        -0.114294 0.458407 0.334646,
        0.264185 -0.391671 0.334646,
        0.207104 -0.424627 0.334646,
        0.145992 -0.449318 0.334646,
        -0.382213 -0.277694 0.334646,
        -0.417141 -0.221798 0.334646,
        -0.443949 -0.161584 0.334646,
        -0.049383 -0.469853 0.334646,
        0.016488 -0.472153 0.334646,
        0.082039 -0.465263 0.334646,
        -0.462117 -0.098226 0.334646,
        -0.471290 -0.032956 0.334646,
        -0.471290 0.032956 0.334646,
        -0.114294 -0.458407 0.334646,
        -0.176980 -0.438040 0.334646,
        -0.236220 -0.409146 0.334646,
        -0.290864 -0.372289 0.334646,
        -0.339846 -0.328185 0.334646,
      ]
    }
    coordIndex [
      0, 1, 2, -1,
      3, 4, 5, -1,
      6, 7, 8, -1,
      9, 10, 11, -1,
      11, 10, 12, -1,
      0, 2, 13, -1,
      13, 2, 3, -1,
      13, 3, 14, -1,
      14, 3, 15, -1,
      14, 15, 16, -1,
      1, 17, 2, -1,
      2, 17, 18, -1,
      2, 18, 19, -1,
      20, 21, 2, -1,
      2, 21, 22, -1,
      23, 24, 25, -1,
      25, 24, 26, -1,
      22, 27, 2, -1,
      2, 27, 26, -1,
      2, 26, 28, -1,
      28, 26, 24, -1,
      29, 30, 31, -1,
      31, 30, 15, -1,
      31, 15, 8, -1,
      8, 15, 32, -1,
      8, 32, 6, -1,
      19, 33, 2, -1,
      2, 33, 34, -1,
      2, 34, 20, -1,
      9, 35, 10, -1,
      10, 35, 36, -1,
      10, 36, 37, -1,
      37, 36, 38, -1,
      37, 38, 39, -1,
      30, 40, 15, -1,
      15, 40, 41, -1,
      15, 41, 42, -1,
      38, 43, 39, -1,
      39, 43, 44, -1,
      39, 44, 31, -1,
      31, 44, 45, -1,
      31, 45, 29, -1,
      42, 46, 15, -1,
      15, 46, 47, -1,
      15, 47, 16, -1,
      4, 48, 5, -1,
      5, 48, 49, -1,
      5, 49, 50, -1,
      50, 49, 51, -1,
      50, 51, 52, -1,
      52, 51, 53, -1,
      52, 53, 6, -1,
      6, 53, 12, -1,
      6, 12, 7, -1,
      7, 12, 10, -1,
      54, 55, 5, -1,
      5, 55, 56, -1,
      57, 58, 59, -1,
      60, 61, 62, -1,
      62, 61, 63, -1,
      62, 63, 64, -1,
      3, 5, 15, -1,
      15, 5, 56, -1,
      15, 56, 65, -1,
      65, 56, 66, -1,
      65, 66, 57, -1,
      67, 68, 69, -1,
      70, 71, 72, -1,
      72, 71, 67, -1,
      72, 67, 73, -1,
      73, 67, 69, -1,
      59, 71, 57, -1,
      57, 71, 70, -1,
      57, 70, 65, -1,
      65, 70, 74, -1,
      74, 75, 65, -1,
      65, 75, 76, -1,
      65, 76, 77, -1,
      78, 79, 80, -1,
      81, 82, 83, -1,
      79, 78, 84, -1,
      80, 85, 78, -1,
      78, 85, 86, -1,
      78, 86, 62, -1,
      62, 86, 87, -1,
      62, 87, 60, -1,
      88, 89, 83, -1,
      83, 89, 90, -1,
      83, 90, 81, -1,
      82, 81, 91, -1,
      91, 81, 65, -1,
      91, 65, 78, -1,
      78, 65, 77, -1,
      78, 77, 84, -1,
      73, 54, 72, -1,
      72, 54, 5, -1,
      72, 5, 92, -1,
      92, 5, 62, -1,
      92, 62, 93, -1,
      93, 62, 64, -1,
      90, 62, 81, -1,
      81, 62, 5, -1,
      81, 5, 94, -1,
      94, 5, 50, -1,
      95, 96, 97, -1,
      98, 99, 100, -1,
      100, 99, 101, -1,
      100, 101, 97, -1,
      97, 101, 102, -1,
      97, 102, 95, -1,
      103, 101, 99, -1,
      50, 52, 103, -1,
      104, 105, 99, -1,
      99, 105, 106, -1,
      99, 106, 103, -1,
      103, 106, 94, -1,
      103, 94, 50, -1,
      107, 108, 109, -1,
      109, 108, 95, -1,
      95, 102, 110, -1,
      110, 32, 15, -1,
      95, 110, 109, -1,
      109, 110, 15, -1,
      109, 15, 65, -1,
      104, 111, 112, -1,
      113, 108, 114, -1,
      114, 108, 107, -1,
      114, 107, 112, -1,
      112, 107, 105, -1,
      112, 105, 104, -1,
      95, 115, 96, -1,
      96, 115, 116, -1,
      96, 116, 98, -1,
      98, 116, 99, -1,
      108, 117, 118, -1,
      119, 115, 118, -1,
      118, 115, 95, -1,
      118, 95, 108, -1,
      111, 104, 120, -1,
      120, 121, 111, -1,
      111, 121, 122, -1,
      111, 122, 113, -1,
      113, 122, 117, -1,
      113, 117, 108, -1,
      116, 120, 99, -1,
      99, 120, 104, -1,
      123, 124, 115, -1,
      123, 115, 125, -1,
      126, 127, 116, -1,
      124, 128, 115, -1,
      115, 128, 129, -1,
      115, 129, 130, -1,
      131, 121, 132, -1,
      132, 121, 133, -1,
      125, 115, 134, -1,
      134, 115, 119, -1,
      134, 119, 135, -1,
      130, 136, 115, -1,
      115, 136, 137, -1,
      115, 137, 138, -1,
      138, 139, 115, -1,
      115, 139, 140, -1,
      115, 140, 116, -1,
      116, 140, 141, -1,
      116, 141, 126, -1,
      127, 142, 116, -1,
      116, 142, 143, -1,
      116, 143, 144, -1,
      131, 145, 121, -1,
      121, 145, 146, -1,
      121, 146, 119, -1,
      119, 146, 147, -1,
      119, 147, 148, -1,
      148, 149, 119, -1,
      119, 149, 150, -1,
      119, 150, 135, -1,
      144, 151, 116, -1,
      116, 151, 152, -1,
      116, 152, 153, -1,
      154, 155, 120, -1,
      120, 155, 156, -1,
      157, 120, 158, -1,
      158, 120, 116, -1,
      158, 116, 159, -1,
      159, 116, 153, -1,
      156, 160, 120, -1,
      120, 160, 161, -1,
      120, 161, 121, -1,
      121, 161, 162, -1,
      121, 162, 133, -1,
      157, 163, 120, -1,
      120, 163, 164, -1,
      120, 164, 165, -1,
      165, 166, 120, -1,
      120, 166, 167, -1,
      120, 167, 154, -1,
    ]
  }
}

Shape {
  appearance Appearance {
    material Material {
      diffuseColor 0.7020 0.6549 0.0941
      specularColor 0.0510 0.0471 0.0078
      ambientIntensity 0.2
      transparency 0.0000
      shininess 0.5
    }
  }
  geometry IndexedFaceSet {
    ccw TRUE
    solid FALSE
    coord DEF co Coordinate {
      point [
        0.145992 0.449318 0.334646,
        0.207104 0.424627 0.334646,
        0.082039 0.465263 0.334646,
        0.454139 -0.130222 0.334646,
        0.431596 -0.192159 0.334646,
        0.264185 0.391671 0.334646,
        0.316125 0.351092 0.334646,
        0.361911 0.303679 0.334646,
        -0.417141 0.221798 0.334646,
        -0.443949 0.161584 0.334646,
        -0.462117 0.098226 0.334646,
        0.016488 0.472153 0.334646,
        -0.049383 0.469853 0.334646,
        0.400653 0.250356 0.334646,
        0.431596 0.192159 0.334646,
        0.454139 0.130222 0.334646,
        0.467843 0.065751 0.334646,
        0.472441 0.000000 0.334646,
        0.467843 -0.065751 0.334646,
        0.400653 -0.250356 0.334646,
        0.361911 -0.303679 0.334646,
        0.316125 -0.351092 0.334646,
        -0.382213 0.277694 0.334646,
        -0.339846 0.328185 0.334646,
        -0.290864 0.372289 0.334646,
        -0.236220 0.409146 0.334646,
        -0.176980 0.438040 0.334646,
        -0.114294 0.458407 0.334646,
        0.264185 -0.391671 0.334646,
        0.207104 -0.424627 0.334646,
        0.145992 -0.449318 0.334646,
        -0.382213 -0.277694 0.334646,
        -0.417141 -0.221798 0.334646,
        -0.443949 -0.161584 0.334646,
        -0.049383 -0.469853 0.334646,
        0.016488 -0.472153 0.334646,
        0.082039 -0.465263 0.334646,
        -0.462117 -0.098226 0.334646,
        -0.471290 -0.032956 0.334646,
        -0.471290 0.032956 0.334646,
        -0.114294 -0.458407 0.334646,
        -0.176980 -0.438040 0.334646,
        -0.236220 -0.409146 0.334646,
        -0.290864 -0.372289 0.334646,
        -0.339846 -0.328185 0.334646,
        0.472441 -0.000000 0.326772,
        0.467843 0.065751 0.326772,
        0.454139 0.130222 0.326772,
        0.431596 0.192159 0.326772,
        0.400653 0.250356 0.326772,
        0.361911 0.303679 0.326772,
        0.316125 0.351092 0.326772,
        0.264185 0.391671 0.326772,
        0.207104 0.424627 0.326772,
        0.145992 0.449318 0.326772,
        0.082039 0.465263 0.326772,
        0.016488 0.472153 0.326772,
        -0.049383 0.469853 0.326772,
        -0.114294 0.458407 0.326772,
        -0.176980 0.438040 0.326772,
        -0.236220 0.409146 0.326772,
        -0.290864 0.372289 0.326772,
        -0.339846 0.328185 0.326772,
        -0.382213 0.277694 0.326772,
        -0.417141 0.221798 0.326772,
        -0.443949 0.161584 0.326772,
        -0.462117 0.098226 0.326772,
        -0.471290 0.032956 0.326772,
        -0.471290 -0.032956 0.326772,
        -0.462117 -0.098226 0.326772,
        -0.443949 -0.161584 0.326772,
        -0.417141 -0.221798 0.326772,
        -0.382213 -0.277694 0.326772,
        -0.339846 -0.328185 0.326772,
        -0.290864 -0.372289 0.326772,
        -0.236220 -0.409146 0.326772,
        -0.176980 -0.438040 0.326772,
        -0.114294 -0.458407 0.326772,
        -0.049383 -0.469853 0.326772,
        0.016488 -0.472153 0.326772,
        0.082039 -0.465263 0.326772,
        0.145992 -0.449318 0.326772,
        0.207104 -0.424627 0.326772,
        0.264185 -0.391671 0.326772,
        0.316125 -0.351092 0.326772,
        0.361911 -0.303679 0.326772,
        0.400653 -0.250356 0.326772,
        0.431596 -0.192159 0.326772,
        0.454139 -0.130222 0.326772,
        0.467843 -0.065751 0.326772,
        0.000000 0.000000 0.326772,
      ]
    }
    coordIndex [
      45, 17, 46, -1,
      46, 17, 16, -1,
      46, 16, 47, -1,
      47, 16, 15, -1,
      47, 15, 48, -1,
      48, 15, 14, -1,
      48, 14, 49, -1,
      49, 14, 13, -1,
      49, 13, 50, -1,
      50, 13, 7, -1,
      50, 7, 51, -1,
      51, 7, 6, -1,
      51, 6, 52, -1,
      52, 6, 5, -1,
      52, 5, 53, -1,
      53, 5, 1, -1,
      53, 1, 54, -1,
      54, 1, 0, -1,
      54, 0, 55, -1,
      55, 0, 2, -1,
      55, 2, 56, -1,
      56, 2, 11, -1,
      56, 11, 57, -1,
      57, 11, 12, -1,
      57, 12, 58, -1,
      58, 12, 27, -1,
      58, 27, 59, -1,
      59, 27, 26, -1,
      59, 26, 60, -1,
      60, 26, 25, -1,
      60, 25, 61, -1,
      61, 25, 24, -1,
      61, 24, 62, -1,
      62, 24, 23, -1,
      62, 23, 63, -1,
      63, 23, 22, -1,
      63, 22, 64, -1,
      64, 22, 8, -1,
      64, 8, 65, -1,
      65, 8, 9, -1,
      65, 9, 66, -1,
      66, 9, 10, -1,
      66, 10, 67, -1,
      67, 10, 39, -1,
      67, 39, 68, -1,
      68, 39, 38, -1,
      68, 38, 69, -1,
      69, 38, 37, -1,
      69, 37, 70, -1,
      70, 37, 33, -1,
      70, 33, 71, -1,
      71, 33, 32, -1,
      71, 32, 72, -1,
      72, 32, 31, -1,
      72, 31, 73, -1,
      73, 31, 44, -1,
      73, 44, 74, -1,
      74, 44, 43, -1,
      74, 43, 75, -1,
      75, 43, 42, -1,
      75, 42, 76, -1,
      76, 42, 41, -1,
      76, 41, 77, -1,
      77, 41, 40, -1,
      77, 40, 78, -1,
      78, 40, 34, -1,
      78, 34, 79, -1,
      79, 34, 35, -1,
      79, 35, 80, -1,
      80, 35, 36, -1,
      80, 36, 81, -1,
      81, 36, 30, -1,
      81, 30, 82, -1,
      82, 30, 29, -1,
      82, 29, 83, -1,
      83, 29, 28, -1,
      83, 28, 84, -1,
      84, 28, 21, -1,
      84, 21, 85, -1,
      85, 21, 20, -1,
      85, 20, 86, -1,
      86, 20, 19, -1,
      86, 19, 87, -1,
      87, 19, 4, -1,
      87, 4, 88, -1,
      88, 4, 3, -1,
      88, 3, 89, -1,
      89, 3, 18, -1,
      89, 18, 45, -1,
      45, 18, 17, -1,
      88, 89, 90, -1,
      90, 89, 45, -1,
      90, 45, 46, -1,
      85, 86, 90, -1,
      90, 86, 87, -1,
      90, 87, 88, -1,
      82, 83, 90, -1,
      90, 83, 84, -1,
      90, 84, 85, -1,
      79, 80, 90, -1,
      90, 80, 81, -1,
      90, 81, 82, -1,
      76, 77, 90, -1,
      90, 77, 78, -1,
      90, 78, 79, -1,
      73, 74, 90, -1,
      90, 74, 75, -1,
      90, 75, 76, -1,
      70, 71, 90, -1,
      90, 71, 72, -1,
      90, 72, 73, -1,
      67, 68, 90, -1,
      90, 68, 69, -1,
      90, 69, 70, -1,
      64, 65, 90, -1,
      90, 65, 66, -1,
      90, 66, 67, -1,
      61, 62, 90, -1,
      90, 62, 63, -1,
      90, 63, 64, -1,
      58, 59, 90, -1,
      90, 59, 60, -1,
      90, 60, 61, -1,
      55, 56, 90, -1,
      90, 56, 57, -1,
      90, 57, 58, -1,
      52, 53, 90, -1,
      90, 53, 54, -1,
      90, 54, 55, -1,
      49, 50, 90, -1,
      90, 50, 51, -1,
      90, 51, 52, -1,
      46, 47, 90, -1,
      90, 47, 48, -1,
      90, 48, 49, -1,
    ]
  }
}

Shape {
  appearance Appearance {
    material Material {
      diffuseColor 0.7020 0.7020 0.7020
      specularColor 0.0510 0.0510 0.0510
      ambientIntensity 0.2
      transparency 0.0000
      shininess 0.5
    }
  }
  geometry IndexedFaceSet {
    ccw TRUE
    solid FALSE
    coord DEF co Coordinate {
      point [
        0.236220 -0.043883 -0.374016,
        0.236220 0.531580 -0.374016,
        0.236220 -0.531580 -0.374016,
        -0.236220 0.531580 -0.374016,
        -0.236220 -0.043883 -0.374016,
        -0.236220 -0.531580 -0.374016,
        0.535706 -0.535706 -0.295276,
        0.535706 0.535706 -0.295276,
        0.236220 -0.535706 -0.295276,
        -0.535706 -0.535706 -0.295276,
        -0.236220 -0.535706 -0.295276,
        -0.535706 0.535706 -0.295276,
        -0.236220 0.535706 -0.295276,
        0.236220 0.535706 -0.295276,
        -0.543959 0.543959 0.137795,
        -0.322182 0.543959 0.137795,
        -0.332499 0.533643 0.334646,
        -0.533643 0.332499 0.334646,
        -0.543959 0.322182 0.137795,
      ]
    }
    coordIndex [
      14, 18, 15, -1,
      17, 16, 18, -1,
      18, 16, 15, -1,
      5, 10, 4, -1,
      4, 10, 12, -1,
      4, 12, 3, -1,
      11, 12, 9, -1,
      9, 12, 10, -1,
      7, 6, 13, -1,
      13, 6, 8, -1,
      1, 13, 0, -1,
      0, 13, 8, -1,
      0, 8, 2, -1,
    ]
  }
}

Shape {
  appearance Appearance {
    material Material {
      diffuseColor 0.6667 0.6667 0.6667
      specularColor 0.4667 0.4667 0.4667
      ambientIntensity 0.2
      transparency 0.0000
      shininess 0.5
    }
  }
  geometry IndexedFaceSet {
    ccw TRUE
    solid FALSE
    coord DEF co Coordinate {
      point [
        0.551181 0.511811 0.000000,
        0.547054 0.511811 -0.078740,
        0.551181 -0.511811 0.000000,
        0.547054 -0.511811 -0.078740,
        -0.551181 -0.511811 0.000000,
        -0.547054 -0.511811 -0.078740,
        -0.551181 0.511811 0.000000,
        -0.547054 0.511811 -0.078740,
        -0.570866 0.511811 0.000000,
        -0.570866 -0.511811 0.000000,
        -0.570866 -0.511811 -0.078740,
        -0.570866 0.511811 -0.078740,
        -0.579627 0.511811 -0.079727,
        -0.579627 -0.511811 -0.079727,
        -0.587948 0.511811 -0.082639,
        -0.587948 -0.511811 -0.082639,
        -0.595413 0.511811 -0.087330,
        -0.595413 -0.511811 -0.087330,
        -0.601647 0.511811 -0.093563,
        -0.601647 -0.511811 -0.093563,
        -0.606337 0.511811 -0.101028,
        -0.606337 -0.511811 -0.101028,
        -0.609249 0.511811 -0.109350,
        -0.609249 -0.511811 -0.109350,
        -0.610236 0.511811 -0.118110,
        -0.610236 -0.511811 -0.118110,
        -0.610236 0.511811 -0.295276,
        -0.610236 -0.511811 -0.295276,
        -0.609249 0.511811 -0.304036,
        -0.609249 -0.511811 -0.304036,
        -0.606337 0.511811 -0.312357,
        -0.606337 -0.511811 -0.312357,
        -0.601647 0.511811 -0.319822,
        -0.601647 -0.511811 -0.319822,
        -0.595413 0.511811 -0.326056,
        -0.595413 -0.511811 -0.326056,
        -0.587948 0.511811 -0.330747,
        -0.587948 -0.511811 -0.330747,
        -0.579627 0.511811 -0.333659,
        -0.579627 -0.511811 -0.333659,
        -0.570866 0.511811 -0.334646,
        -0.570866 -0.511811 -0.334646,
        -0.334646 0.511811 -0.334646,
        -0.334646 -0.511811 -0.334646,
        -0.334646 0.511811 -0.413386,
        -0.334646 -0.511811 -0.413386,
        -0.570866 0.511811 -0.413386,
        -0.570866 -0.511811 -0.413386,
        -0.597148 -0.511811 -0.410424,
        -0.597148 0.511811 -0.410424,
        -0.622112 -0.511811 -0.401689,
        -0.622112 0.511811 -0.401689,
        -0.644507 -0.511811 -0.387618,
        -0.644507 0.511811 -0.387618,
        -0.663208 -0.511811 -0.368916,
        -0.663208 0.511811 -0.368916,
        -0.677280 -0.511811 -0.346522,
        -0.677280 0.511811 -0.346522,
        -0.686015 -0.511811 -0.321557,
        -0.686015 0.511811 -0.321557,
        -0.688976 -0.511811 -0.295276,
        -0.688976 0.511811 -0.295276,
        -0.688976 0.511811 -0.118110,
        -0.688976 -0.511811 -0.118110,
        -0.686015 -0.511811 -0.091828,
        -0.686015 0.511811 -0.091828,
        -0.677280 -0.511811 -0.066864,
        -0.677280 0.511811 -0.066864,
        -0.663208 -0.511811 -0.044470,
        -0.663208 0.511811 -0.044470,
        -0.644507 -0.511811 -0.025768,
        -0.644507 0.511811 -0.025768,
        -0.622112 -0.511811 -0.011696,
        -0.622112 0.511811 -0.011696,
        -0.597148 -0.511811 -0.002961,
        -0.597148 0.511811 -0.002961,
        0.570866 -0.511811 0.000000,
        0.570866 0.511811 0.000000,
        0.597148 -0.511811 -0.002961,
        0.597148 0.511811 -0.002961,
        0.622112 -0.511811 -0.011696,
        0.622112 0.511811 -0.011696,
        0.644507 -0.511811 -0.025768,
        0.644507 0.511811 -0.025768,
        0.663208 -0.511811 -0.044470,
        0.663208 0.511811 -0.044470,
        0.677280 -0.511811 -0.066864,
        0.677280 0.511811 -0.066864,
        0.686015 -0.511811 -0.091828,
        0.686015 0.511811 -0.091828,
        0.688976 -0.511811 -0.118110,
        0.688976 0.511811 -0.118110,
        0.688976 0.511811 -0.295276,
        0.688976 -0.511811 -0.295276,
        0.686015 -0.511811 -0.321557,
        0.686015 0.511811 -0.321557,
        0.677280 -0.511811 -0.346522,
        0.677280 0.511811 -0.346522,
        0.663208 -0.511811 -0.368916,
        0.663208 0.511811 -0.368916,
        0.644507 -0.511811 -0.387618,
        0.644507 0.511811 -0.387618,
        0.622112 -0.511811 -0.401689,
        0.622112 0.511811 -0.401689,
        0.597148 -0.511811 -0.410424,
        0.597148 0.511811 -0.410424,
        0.570866 -0.511811 -0.413386,
        0.570866 0.511811 -0.413386,
        0.334646 0.511811 -0.413386,
        0.334646 -0.511811 -0.413386,
        0.334646 0.511811 -0.334646,
        0.334646 -0.511811 -0.334646,
        0.570866 0.511811 -0.334646,
        0.570866 -0.511811 -0.334646,
        0.579627 0.511811 -0.333659,
        0.579627 -0.511811 -0.333659,
        0.587948 0.511811 -0.330747,
        0.587948 -0.511811 -0.330747,
        0.595413 0.511811 -0.326056,
        0.595413 -0.511811 -0.326056,
        0.601647 0.511811 -0.319822,
        0.601647 -0.511811 -0.319822,
        0.606337 0.511811 -0.312357,
        0.606337 -0.511811 -0.312357,
        0.609249 0.511811 -0.304036,
        0.609249 -0.511811 -0.304036,
        0.610236 0.511811 -0.295276,
        0.610236 -0.511811 -0.295276,
        0.610236 0.511811 -0.118110,
        0.610236 -0.511811 -0.118110,
        0.609249 0.511811 -0.109350,
        0.609249 -0.511811 -0.109350,
        0.606337 0.511811 -0.101028,
        0.606337 -0.511811 -0.101028,
        0.601647 0.511811 -0.093563,
        0.601647 -0.511811 -0.093563,
        0.595413 0.511811 -0.087330,
        0.595413 -0.511811 -0.087330,
        0.587948 0.511811 -0.082639,
        0.587948 -0.511811 -0.082639,
        0.579627 0.511811 -0.079727,
        0.579627 -0.511811 -0.079727,
        0.570866 0.511811 -0.078740,
        0.570866 -0.511811 -0.078740,
      ]
    }
    coordIndex [
      6, 8, 4, -1,
      4, 8, 9, -1,
      5, 10, 7, -1,
      7, 10, 11, -1,
      11, 10, 12, -1,
      12, 10, 13, -1,
      12, 13, 14, -1,
      14, 13, 15, -1,
      14, 15, 16, -1,
      16, 15, 17, -1,
      16, 17, 18, -1,
      18, 17, 19, -1,
      18, 19, 20, -1,
      20, 19, 21, -1,
      20, 21, 22, -1,
      22, 21, 23, -1,
      22, 23, 24, -1,
      24, 23, 25, -1,
      26, 24, 27, -1,
      27, 24, 25, -1,
      26, 27, 28, -1,
      28, 27, 29, -1,
      28, 29, 30, -1,
      30, 29, 31, -1,
      30, 31, 32, -1,
      32, 31, 33, -1,
      32, 33, 34, -1,
      34, 33, 35, -1,
      34, 35, 36, -1,
      36, 35, 37, -1,
      36, 37, 38, -1,
      38, 37, 39, -1,
      38, 39, 40, -1,
      40, 39, 41, -1,
      42, 40, 43, -1,
      43, 40, 41, -1,
      44, 42, 45, -1,
      45, 42, 43, -1,
      46, 44, 47, -1,
      47, 44, 45, -1,
      46, 47, 48, -1,
      46, 48, 49, -1,
      49, 48, 50, -1,
      49, 50, 51, -1,
      51, 50, 52, -1,
      51, 52, 53, -1,
      53, 52, 54, -1,
      53, 54, 55, -1,
      55, 54, 56, -1,
      55, 56, 57, -1,
      57, 56, 58, -1,
      57, 58, 59, -1,
      59, 58, 60, -1,
      59, 60, 61, -1,
      62, 61, 63, -1,
      63, 61, 60, -1,
      62, 63, 64, -1,
      62, 64, 65, -1,
      65, 64, 66, -1,
      65, 66, 67, -1,
      67, 66, 68, -1,
      67, 68, 69, -1,
      69, 68, 70, -1,
      69, 70, 71, -1,
      71, 70, 72, -1,
      71, 72, 73, -1,
      73, 72, 74, -1,
      73, 74, 75, -1,
      75, 74, 9, -1,
      75, 9, 8, -1,
      42, 44, 40, -1,
      40, 44, 46, -1,
      40, 46, 38, -1,
      38, 46, 49, -1,
      38, 49, 36, -1,
      36, 49, 51, -1,
      36, 51, 34, -1,
      34, 51, 53, -1,
      34, 53, 32, -1,
      32, 53, 55, -1,
      32, 55, 30, -1,
      30, 55, 57, -1,
      30, 57, 28, -1,
      28, 57, 59, -1,
      28, 59, 26, -1,
      26, 59, 61, -1,
      26, 61, 24, -1,
      24, 61, 62, -1,
      24, 62, 22, -1,
      22, 62, 65, -1,
      22, 65, 20, -1,
      20, 65, 67, -1,
      20, 67, 18, -1,
      18, 67, 69, -1,
      18, 69, 16, -1,
      16, 69, 71, -1,
      16, 71, 14, -1,
      14, 71, 73, -1,
      14, 73, 12, -1,
      12, 73, 75, -1,
      12, 75, 11, -1,
      11, 75, 8, -1,
      11, 8, 7, -1,
      7, 8, 6, -1,
      5, 4, 10, -1,
      10, 4, 9, -1,
      10, 9, 13, -1,
      13, 9, 74, -1,
      13, 74, 15, -1,
      15, 74, 72, -1,
      15, 72, 17, -1,
      17, 72, 70, -1,
      17, 70, 19, -1,
      19, 70, 68, -1,
      19, 68, 21, -1,
      21, 68, 66, -1,
      21, 66, 23, -1,
      23, 66, 64, -1,
      23, 64, 25, -1,
      25, 64, 63, -1,
      25, 63, 27, -1,
      27, 63, 60, -1,
      27, 60, 29, -1,
      29, 60, 58, -1,
      29, 58, 31, -1,
      31, 58, 56, -1,
      31, 56, 33, -1,
      33, 56, 54, -1,
      33, 54, 35, -1,
      35, 54, 52, -1,
      35, 52, 37, -1,
      37, 52, 50, -1,
      37, 50, 39, -1,
      39, 50, 48, -1,
      39, 48, 41, -1,
      41, 48, 47, -1,
      41, 47, 43, -1,
      43, 47, 45, -1,
      76, 77, 2, -1,
      2, 77, 0, -1,
      77, 76, 78, -1,
      77, 78, 79, -1,
      79, 78, 80, -1,
      79, 80, 81, -1,
      81, 80, 82, -1,
      81, 82, 83, -1,
      83, 82, 84, -1,
      83, 84, 85, -1,
      85, 84, 86, -1,
      85, 86, 87, -1,
      87, 86, 88, -1,
      87, 88, 89, -1,
      89, 88, 90, -1,
      89, 90, 91, -1,
      92, 91, 93, -1,
      93, 91, 90, -1,
      92, 93, 94, -1,
      92, 94, 95, -1,
      95, 94, 96, -1,
      95, 96, 97, -1,
      97, 96, 98, -1,
      97, 98, 99, -1,
      99, 98, 100, -1,
      99, 100, 101, -1,
      101, 100, 102, -1,
      101, 102, 103, -1,
      103, 102, 104, -1,
      103, 104, 105, -1,
      105, 104, 106, -1,
      105, 106, 107, -1,
      108, 107, 109, -1,
      109, 107, 106, -1,
      110, 108, 111, -1,
      111, 108, 109, -1,
      112, 110, 113, -1,
      113, 110, 111, -1,
      112, 113, 114, -1,
      114, 113, 115, -1,
      114, 115, 116, -1,
      116, 115, 117, -1,
      116, 117, 118, -1,
      118, 117, 119, -1,
      118, 119, 120, -1,
      120, 119, 121, -1,
      120, 121, 122, -1,
      122, 121, 123, -1,
      122, 123, 124, -1,
      124, 123, 125, -1,
      124, 125, 126, -1,
      126, 125, 127, -1,
      128, 126, 129, -1,
      129, 126, 127, -1,
      128, 129, 130, -1,
      130, 129, 131, -1,
      130, 131, 132, -1,
      132, 131, 133, -1,
      132, 133, 134, -1,
      134, 133, 135, -1,
      134, 135, 136, -1,
      136, 135, 137, -1,
      136, 137, 138, -1,
      138, 137, 139, -1,
      138, 139, 140, -1,
      140, 139, 141, -1,
      140, 141, 142, -1,
      142, 141, 143, -1,
      142, 143, 1, -1,
      1, 143, 3, -1,
      1, 0, 142, -1,
      142, 0, 77, -1,
      142, 77, 140, -1,
      140, 77, 79, -1,
      140, 79, 138, -1,
      138, 79, 81, -1,
      138, 81, 136, -1,
      136, 81, 83, -1,
      136, 83, 134, -1,
      134, 83, 85, -1,
      134, 85, 132, -1,
      132, 85, 87, -1,
      132, 87, 130, -1,
      130, 87, 89, -1,
      130, 89, 128, -1,
      128, 89, 91, -1,
      128, 91, 126, -1,
      126, 91, 92, -1,
      126, 92, 124, -1,
      124, 92, 95, -1,
      124, 95, 122, -1,
      122, 95, 97, -1,
      122, 97, 120, -1,
      120, 97, 99, -1,
      120, 99, 118, -1,
      118, 99, 101, -1,
      118, 101, 116, -1,
      116, 101, 103, -1,
      116, 103, 114, -1,
      114, 103, 105, -1,
      114, 105, 112, -1,
      112, 105, 107, -1,
      112, 107, 110, -1,
      110, 107, 108, -1,
      111, 109, 113, -1,
      113, 109, 106, -1,
      113, 106, 115, -1,
      115, 106, 104, -1,
      115, 104, 117, -1,
      117, 104, 102, -1,
      117, 102, 119, -1,
      119, 102, 100, -1,
      119, 100, 121, -1,
      121, 100, 98, -1,
      121, 98, 123, -1,
      123, 98, 96, -1,
      123, 96, 125, -1,
      125, 96, 94, -1,
      125, 94, 127, -1,
      127, 94, 93, -1,
      127, 93, 129, -1,
      129, 93, 90, -1,
      129, 90, 131, -1,
      131, 90, 88, -1,
      131, 88, 133, -1,
      133, 88, 86, -1,
      133, 86, 135, -1,
      135, 86, 84, -1,
      135, 84, 137, -1,
      137, 84, 82, -1,
      137, 82, 139, -1,
      139, 82, 80, -1,
      139, 80, 141, -1,
      141, 80, 78, -1,
      141, 78, 143, -1,
      143, 78, 76, -1,
      143, 76, 3, -1,
      3, 76, 2, -1,
    ]
  }
}

Shape {
  appearance Appearance {
    material Material {
      diffuseColor 1.0000 1.0000 1.0000
      specularColor 0.8784 0.8784 0.8784
      ambientIntensity 0.2
      transparency 0.0000
      shininess 0.5
    }
  }
  geometry IndexedFaceSet {
    ccw TRUE
    solid FALSE
    coord DEF co Coordinate {
      point [
        0.067412 0.027655 -0.374016,
        0.075166 0.026784 -0.374016,
        0.050384 -0.031462 -0.374016,
        0.048972 -0.030680 -0.374016,
        0.048972 -0.039322 -0.374016,
        0.154600 -0.043403 -0.374016,
        0.154600 0.035337 -0.374016,
        0.087974 -0.040730 -0.374016,
        0.114269 -0.043403 -0.374016,
        0.080342 -0.043357 -0.374016,
        0.075269 -0.043883 -0.374016,
        0.057842 0.026411 -0.374016,
        0.048972 0.022614 -0.374016,
        0.048972 0.033176 -0.374016,
        0.081059 0.024657 -0.374016,
        0.086509 0.021011 -0.374016,
        0.091264 0.015762 -0.374016,
        0.096985 -0.004873 -0.374016,
        0.096187 -0.013397 -0.374016,
        0.094048 -0.020170 -0.374016,
        0.076527 -0.034897 -0.374016,
        0.069183 -0.035721 -0.374016,
        0.082264 -0.032785 -0.374016,
        0.087097 -0.029528 -0.374016,
        0.090792 -0.025630 -0.374016,
        0.058731 -0.034561 -0.374016,
        0.103392 0.014598 -0.374016,
        0.098777 0.021959 -0.374016,
        0.144037 0.035337 -0.374016,
        0.094510 0.009682 -0.374016,
        0.096609 0.001253 -0.374016,
        0.094307 -0.036686 -0.374016,
        0.100222 -0.030459 -0.374016,
        0.114269 -0.034761 -0.374016,
        0.104417 -0.022972 -0.374016,
        0.144037 -0.034761 -0.374016,
        0.091668 0.028796 -0.374016,
        0.084189 0.033102 -0.374016,
        0.075411 0.035652 -0.374016,
        0.106786 -0.014638 -0.374016,
        0.107548 -0.005519 -0.374016,
        0.106415 0.005676 -0.374016,
        0.067502 0.036297 -0.374016,
        0.058076 0.035647 -0.374016,
        0.057366 -0.042769 -0.374016,
        0.065322 -0.043883 -0.374016,
        0.068485 -0.044326 -0.374016,
        0.070638 -0.044363 -0.374016,
        -0.008642 -0.043403 -0.374016,
        0.033609 -0.043403 -0.374016,
        0.033609 0.035337 -0.374016,
        -0.006722 0.026695 -0.374016,
        0.023046 0.026695 -0.374016,
        0.023046 0.000768 -0.374016,
        -0.083450 -0.021822 -0.374016,
        -0.078935 -0.028865 -0.374016,
        -0.093144 -0.043403 -0.374016,
        -0.072454 -0.035070 -0.374016,
        -0.064232 -0.039848 -0.374016,
        -0.006722 0.035337 -0.374016,
        -0.004801 -0.007874 -0.374016,
        0.023046 -0.007874 -0.374016,
        0.023046 -0.034761 -0.374016,
        -0.024006 0.035337 -0.374016,
        -0.004801 0.000768 -0.374016,
        -0.024006 -0.043403 -0.374016,
        -0.008642 -0.034761 -0.374016,
        -0.046227 0.035337 -0.374016,
        -0.057603 0.034121 -0.374016,
        -0.066815 0.030886 -0.374016,
        -0.075385 0.025143 -0.374016,
        -0.122911 0.035337 -0.374016,
        -0.081036 0.018896 -0.374016,
        -0.084695 0.012124 -0.374016,
        -0.164202 -0.043403 -0.374016,
        -0.152679 -0.043403 -0.374016,
        -0.075468 0.025070 -0.374016,
        -0.086810 0.004366 -0.374016,
        -0.087382 -0.003043 -0.374016,
        -0.086278 -0.013581 -0.374016,
        -0.144712 -0.021318 -0.374016,
        -0.112184 -0.021318 -0.374016,
        -0.104667 -0.043403 -0.374016,
        -0.133474 0.035337 -0.374016,
        -0.045417 -0.043403 -0.374016,
        -0.055159 -0.042553 -0.374016,
        -0.133474 0.035337 -0.366142,
        -0.164202 -0.043403 -0.366142,
        -0.152679 -0.043403 -0.366142,
        -0.144712 -0.021318 -0.366142,
        -0.112184 -0.021318 -0.366142,
        -0.104667 -0.043403 -0.366142,
        -0.093144 -0.043403 -0.366142,
        -0.122911 0.035337 -0.366142,
        -0.114839 -0.012675 -0.366142,
        -0.141171 -0.012675 -0.366142,
        -0.126587 0.020213 -0.366142,
        -0.127345 0.022944 -0.366142,
        -0.127848 0.025735 -0.366142,
        -0.128103 0.025735 -0.366142,
        -0.128617 0.022952 -0.366142,
        -0.129318 0.020213 -0.366142,
        -0.114839 -0.012675 -0.374016,
        -0.141171 -0.012675 -0.374016,
        -0.126587 0.020213 -0.374016,
        -0.127345 0.022944 -0.374016,
        -0.127848 0.025735 -0.374016,
        -0.128103 0.025735 -0.374016,
        -0.128617 0.022952 -0.374016,
        -0.129318 0.020213 -0.374016,
        -0.045417 -0.043403 -0.366142,
        -0.024006 -0.043403 -0.366142,
        -0.024006 0.035337 -0.366142,
        -0.046227 0.035337 -0.366142,
        -0.087382 -0.003043 -0.366142,
        -0.086810 0.004366 -0.366142,
        -0.084695 0.012124 -0.366142,
        -0.081036 0.018896 -0.366142,
        -0.075468 0.025070 -0.366142,
        -0.075385 0.025143 -0.366142,
        -0.066815 0.030886 -0.366142,
        -0.057603 0.034121 -0.366142,
        -0.055159 -0.042553 -0.366142,
        -0.064232 -0.039848 -0.366142,
        -0.072454 -0.035070 -0.366142,
        -0.078935 -0.028865 -0.366142,
        -0.083450 -0.021822 -0.366142,
        -0.086278 -0.013581 -0.366142,
        -0.071577 0.015653 -0.366142,
        -0.067752 0.019714 -0.366142,
        -0.062001 0.023430 -0.366142,
        -0.055502 0.025704 -0.366142,
        -0.046182 0.026695 -0.366142,
        -0.034569 0.026695 -0.366142,
        -0.034569 -0.034761 -0.366142,
        -0.045747 -0.034761 -0.366142,
        -0.054054 -0.033988 -0.366142,
        -0.060680 -0.031920 -0.366142,
        -0.066050 -0.028731 -0.366142,
        -0.070466 -0.024369 -0.366142,
        -0.073787 -0.018940 -0.366142,
        -0.076097 -0.011538 -0.366142,
        -0.076820 -0.003268 -0.366142,
        -0.076151 0.004569 -0.366142,
        -0.074313 0.010796 -0.366142,
        -0.046182 0.026695 -0.374016,
        -0.034569 0.026695 -0.374016,
        -0.055502 0.025704 -0.374016,
        -0.062001 0.023430 -0.374016,
        -0.067752 0.019714 -0.374016,
        -0.071577 0.015653 -0.374016,
        -0.074313 0.010796 -0.374016,
        -0.076151 0.004569 -0.374016,
        -0.076820 -0.003268 -0.374016,
        -0.076097 -0.011538 -0.374016,
        -0.073787 -0.018940 -0.374016,
        -0.070466 -0.024369 -0.374016,
        -0.066050 -0.028731 -0.374016,
        -0.060680 -0.031920 -0.374016,
        -0.054054 -0.033988 -0.374016,
        -0.045747 -0.034761 -0.374016,
        -0.034569 -0.034761 -0.374016,
        -0.008642 -0.034761 -0.366142,
        -0.008642 -0.043403 -0.366142,
        0.033609 -0.043403 -0.366142,
        0.033609 0.035337 -0.366142,
        -0.006722 0.035337 -0.366142,
        -0.006722 0.026695 -0.366142,
        0.023046 0.026695 -0.366142,
        0.023046 0.000768 -0.366142,
        -0.004801 0.000768 -0.366142,
        -0.004801 -0.007874 -0.366142,
        0.023046 -0.007874 -0.366142,
        0.023046 -0.034761 -0.366142,
        0.048972 -0.030680 -0.366142,
        0.048972 -0.039322 -0.366142,
        0.057366 -0.042769 -0.366142,
        0.070638 -0.044363 -0.366142,
        0.068485 -0.044326 -0.366142,
        0.107548 -0.005519 -0.366142,
        0.106786 -0.014638 -0.366142,
        0.104417 -0.022972 -0.366142,
        0.100222 -0.030459 -0.366142,
        0.094307 -0.036686 -0.366142,
        0.087974 -0.040730 -0.366142,
        0.080342 -0.043357 -0.366142,
        0.067502 0.036297 -0.366142,
        0.075411 0.035652 -0.366142,
        0.084189 0.033102 -0.366142,
        0.091668 0.028796 -0.366142,
        0.098777 0.021959 -0.366142,
        0.103392 0.014598 -0.366142,
        0.106415 0.005676 -0.366142,
        0.048972 0.033176 -0.366142,
        0.058076 0.035647 -0.366142,
        0.048972 0.022614 -0.366142,
        0.067412 0.027655 -0.366142,
        0.057842 0.026411 -0.366142,
        0.096985 -0.004873 -0.366142,
        0.096609 0.001253 -0.366142,
        0.094510 0.009682 -0.366142,
        0.091264 0.015762 -0.366142,
        0.086509 0.021011 -0.366142,
        0.081059 0.024657 -0.366142,
        0.075166 0.026784 -0.366142,
        0.069183 -0.035721 -0.366142,
        0.076527 -0.034897 -0.366142,
        0.082264 -0.032785 -0.366142,
        0.087097 -0.029528 -0.366142,
        0.090792 -0.025630 -0.366142,
        0.094048 -0.020170 -0.366142,
        0.096187 -0.013397 -0.366142,
        0.050384 -0.031462 -0.366142,
        0.058731 -0.034561 -0.366142,
        0.114269 -0.034761 -0.366142,
        0.114269 -0.043403 -0.366142,
        0.154600 -0.043403 -0.366142,
        0.154600 0.035337 -0.366142,
        0.144037 0.035337 -0.366142,
        0.144037 -0.034761 -0.366142,
      ]
    }
    coordIndex [
      86, 87, 83, -1,
      83, 87, 74, -1,
      87, 88, 74, -1,
      74, 88, 75, -1,
      88, 89, 75, -1,
      75, 89, 80, -1,
      89, 90, 80, -1,
      80, 90, 81, -1,
      90, 91, 81, -1,
      81, 91, 82, -1,
      91, 92, 82, -1,
      82, 92, 56, -1,
      92, 93, 56, -1,
      56, 93, 71, -1,
      93, 86, 71, -1,
      71, 86, 83, -1,
      94, 90, 95, -1,
      95, 90, 89, -1,
      96, 93, 94, -1,
      94, 93, 92, -1,
      94, 92, 90, -1,
      90, 92, 91, -1,
      96, 97, 93, -1,
      93, 97, 98, -1,
      93, 98, 86, -1,
      86, 98, 99, -1,
      86, 99, 100, -1,
      100, 101, 86, -1,
      86, 101, 95, -1,
      86, 95, 87, -1,
      87, 95, 89, -1,
      87, 89, 88, -1,
      94, 95, 102, -1,
      102, 95, 103, -1,
      96, 94, 104, -1,
      104, 94, 102, -1,
      96, 104, 105, -1,
      96, 105, 97, -1,
      97, 105, 106, -1,
      97, 106, 98, -1,
      99, 98, 107, -1,
      107, 98, 106, -1,
      99, 107, 108, -1,
      99, 108, 100, -1,
      100, 108, 109, -1,
      100, 109, 101, -1,
      95, 101, 103, -1,
      103, 101, 109, -1,
      110, 111, 84, -1,
      84, 111, 65, -1,
      111, 112, 65, -1,
      65, 112, 63, -1,
      112, 113, 63, -1,
      63, 113, 67, -1,
      114, 78, 77, -1,
      114, 77, 115, -1,
      115, 77, 73, -1,
      115, 73, 116, -1,
      116, 73, 72, -1,
      116, 72, 117, -1,
      117, 72, 76, -1,
      117, 76, 118, -1,
      118, 76, 70, -1,
      118, 70, 119, -1,
      119, 70, 69, -1,
      119, 69, 120, -1,
      120, 69, 68, -1,
      120, 68, 121, -1,
      121, 68, 67, -1,
      121, 67, 113, -1,
      110, 84, 85, -1,
      110, 85, 122, -1,
      122, 85, 58, -1,
      122, 58, 123, -1,
      123, 58, 57, -1,
      123, 57, 124, -1,
      124, 57, 55, -1,
      124, 55, 125, -1,
      125, 55, 54, -1,
      125, 54, 126, -1,
      126, 54, 79, -1,
      126, 79, 127, -1,
      127, 79, 78, -1,
      127, 78, 114, -1,
      116, 117, 128, -1,
      128, 117, 118, -1,
      128, 118, 129, -1,
      129, 118, 119, -1,
      129, 119, 130, -1,
      130, 119, 120, -1,
      130, 120, 131, -1,
      131, 120, 121, -1,
      131, 121, 132, -1,
      132, 121, 113, -1,
      132, 113, 133, -1,
      133, 113, 112, -1,
      133, 112, 134, -1,
      134, 112, 111, -1,
      134, 111, 135, -1,
      135, 111, 110, -1,
      135, 110, 136, -1,
      136, 110, 122, -1,
      136, 122, 137, -1,
      137, 122, 123, -1,
      137, 123, 138, -1,
      138, 123, 124, -1,
      138, 124, 139, -1,
      139, 124, 125, -1,
      139, 125, 140, -1,
      140, 125, 126, -1,
      140, 126, 141, -1,
      141, 126, 127, -1,
      141, 127, 142, -1,
      142, 127, 114, -1,
      142, 114, 143, -1,
      143, 114, 115, -1,
      143, 115, 144, -1,
      144, 115, 116, -1,
      144, 116, 128, -1,
      132, 133, 145, -1,
      145, 133, 146, -1,
      132, 145, 147, -1,
      132, 147, 131, -1,
      131, 147, 148, -1,
      131, 148, 130, -1,
      130, 148, 149, -1,
      130, 149, 129, -1,
      129, 149, 150, -1,
      129, 150, 128, -1,
      128, 150, 151, -1,
      128, 151, 144, -1,
      144, 151, 152, -1,
      144, 152, 143, -1,
      143, 152, 153, -1,
      143, 153, 142, -1,
      142, 153, 154, -1,
      142, 154, 141, -1,
      141, 154, 155, -1,
      141, 155, 140, -1,
      140, 155, 156, -1,
      140, 156, 139, -1,
      139, 156, 157, -1,
      139, 157, 138, -1,
      138, 157, 158, -1,
      138, 158, 137, -1,
      137, 158, 159, -1,
      137, 159, 136, -1,
      136, 159, 160, -1,
      136, 160, 135, -1,
      134, 135, 161, -1,
      161, 135, 160, -1,
      133, 134, 146, -1,
      146, 134, 161, -1,
      162, 163, 66, -1,
      66, 163, 48, -1,
      163, 164, 48, -1,
      48, 164, 49, -1,
      164, 165, 49, -1,
      49, 165, 50, -1,
      165, 166, 50, -1,
      50, 166, 59, -1,
      166, 167, 59, -1,
      59, 167, 51, -1,
      167, 168, 51, -1,
      51, 168, 52, -1,
      168, 169, 52, -1,
      52, 169, 53, -1,
      169, 170, 53, -1,
      53, 170, 64, -1,
      170, 171, 64, -1,
      64, 171, 60, -1,
      171, 172, 60, -1,
      60, 172, 61, -1,
      172, 173, 61, -1,
      61, 173, 62, -1,
      173, 162, 62, -1,
      62, 162, 66, -1,
      164, 163, 162, -1,
      162, 173, 164, -1,
      164, 173, 172, -1,
      164, 172, 165, -1,
      167, 166, 168, -1,
      168, 166, 165, -1,
      168, 165, 169, -1,
      169, 165, 172, -1,
      169, 172, 170, -1,
      170, 172, 171, -1,
      174, 175, 3, -1,
      3, 175, 4, -1,
      4, 175, 176, -1,
      177, 47, 46, -1,
      177, 46, 178, -1,
      178, 46, 45, -1,
      178, 45, 176, -1,
      176, 45, 44, -1,
      176, 44, 4, -1,
      179, 40, 39, -1,
      179, 39, 180, -1,
      180, 39, 34, -1,
      180, 34, 181, -1,
      181, 34, 32, -1,
      181, 32, 182, -1,
      182, 32, 31, -1,
      182, 31, 183, -1,
      183, 31, 7, -1,
      183, 7, 184, -1,
      184, 7, 9, -1,
      184, 9, 185, -1,
      185, 9, 177, -1,
      177, 9, 10, -1,
      177, 10, 47, -1,
      186, 42, 38, -1,
      186, 38, 187, -1,
      187, 38, 37, -1,
      187, 37, 188, -1,
      188, 37, 36, -1,
      188, 36, 189, -1,
      189, 36, 27, -1,
      189, 27, 190, -1,
      190, 27, 26, -1,
      190, 26, 191, -1,
      191, 26, 41, -1,
      191, 41, 192, -1,
      192, 41, 40, -1,
      192, 40, 179, -1,
      193, 13, 43, -1,
      193, 43, 194, -1,
      194, 43, 42, -1,
      194, 42, 186, -1,
      193, 195, 13, -1,
      13, 195, 12, -1,
      196, 0, 11, -1,
      196, 11, 197, -1,
      197, 11, 12, -1,
      197, 12, 195, -1,
      198, 17, 30, -1,
      198, 30, 199, -1,
      199, 30, 29, -1,
      199, 29, 200, -1,
      200, 29, 16, -1,
      200, 16, 201, -1,
      201, 16, 15, -1,
      201, 15, 202, -1,
      202, 15, 14, -1,
      202, 14, 203, -1,
      203, 14, 1, -1,
      203, 1, 204, -1,
      204, 1, 0, -1,
      204, 0, 196, -1,
      205, 21, 20, -1,
      205, 20, 206, -1,
      206, 20, 22, -1,
      206, 22, 207, -1,
      207, 22, 23, -1,
      207, 23, 208, -1,
      208, 23, 24, -1,
      208, 24, 209, -1,
      209, 24, 19, -1,
      209, 19, 210, -1,
      210, 19, 18, -1,
      210, 18, 211, -1,
      211, 18, 17, -1,
      211, 17, 198, -1,
      174, 3, 2, -1,
      174, 2, 212, -1,
      212, 2, 25, -1,
      212, 25, 213, -1,
      213, 25, 21, -1,
      213, 21, 205, -1,
      206, 177, 205, -1,
      205, 177, 178, -1,
      205, 178, 213, -1,
      213, 178, 176, -1,
      213, 176, 212, -1,
      212, 176, 175, -1,
      212, 175, 174, -1,
      195, 193, 197, -1,
      197, 193, 194, -1,
      197, 194, 196, -1,
      196, 194, 186, -1,
      196, 186, 204, -1,
      204, 186, 187, -1,
      204, 187, 203, -1,
      203, 187, 188, -1,
      203, 188, 202, -1,
      202, 188, 189, -1,
      202, 189, 201, -1,
      201, 189, 190, -1,
      201, 190, 200, -1,
      200, 190, 191, -1,
      200, 191, 199, -1,
      199, 191, 192, -1,
      199, 192, 198, -1,
      198, 192, 179, -1,
      198, 179, 211, -1,
      211, 179, 180, -1,
      211, 180, 210, -1,
      210, 180, 181, -1,
      210, 181, 209, -1,
      209, 181, 182, -1,
      209, 182, 208, -1,
      208, 182, 183, -1,
      208, 183, 207, -1,
      207, 183, 184, -1,
      207, 184, 206, -1,
      206, 184, 185, -1,
      206, 185, 177, -1,
      214, 215, 33, -1,
      33, 215, 8, -1,
      215, 216, 8, -1,
      8, 216, 5, -1,
      216, 217, 5, -1,
      5, 217, 6, -1,
      217, 218, 6, -1,
      6, 218, 28, -1,
      218, 219, 28, -1,
      28, 219, 35, -1,
      219, 214, 35, -1,
      35, 214, 33, -1,
      218, 217, 219, -1,
      219, 217, 216, -1,
      219, 216, 214, -1,
      214, 216, 215, -1,
    ]
  }
}

Shape {
  appearance Appearance {
    material Material {
      diffuseColor 0.7020 0.7020 0.7020
      specularColor 0.0510 0.0510 0.0510
      ambientIntensity 0.2
      transparency 0.0000
      shininess 0.5
    }
  }
  geometry IndexedFaceSet {
    ccw TRUE
    solid FALSE
    coord DEF co Coordinate {
      point [
        -0.114839 -0.012675 -0.374016,
        -0.141171 -0.012675 -0.374016,
        -0.126587 0.020213 -0.374016,
        -0.127345 0.022944 -0.374016,
        -0.127848 0.025735 -0.374016,
        -0.128103 0.025735 -0.374016,
        -0.128617 0.022952 -0.374016,
        -0.129318 0.020213 -0.374016,
        -0.046182 0.026695 -0.374016,
        -0.034569 0.026695 -0.374016,
        -0.055502 0.025704 -0.374016,
        -0.062001 0.023430 -0.374016,
        -0.067752 0.019714 -0.374016,
        -0.071577 0.015653 -0.374016,
        -0.074313 0.010796 -0.374016,
        -0.076151 0.004569 -0.374016,
        -0.076820 -0.003268 -0.374016,
        -0.076097 -0.011538 -0.374016,
        -0.073787 -0.018940 -0.374016,
        -0.070466 -0.024369 -0.374016,
        -0.066050 -0.028731 -0.374016,
        -0.060680 -0.031920 -0.374016,
        -0.054054 -0.033988 -0.374016,
        -0.045747 -0.034761 -0.374016,
        -0.034569 -0.034761 -0.374016,
      ]
    }
    coordIndex [
      0, 1, 2, -1,
      2, 1, 7, -1,
      2, 7, 3, -1,
      3, 7, 6, -1,
      3, 6, 4, -1,
      4, 6, 5, -1,
      9, 24, 8, -1,
      8, 24, 23, -1,
      8, 23, 22, -1,
      16, 15, 8, -1,
      8, 15, 14, -1,
      8, 14, 10, -1,
      22, 21, 8, -1,
      8, 21, 20, -1,
      8, 20, 19, -1,
      19, 18, 8, -1,
      8, 18, 17, -1,
      8, 17, 16, -1,
      13, 12, 14, -1,
      14, 12, 11, -1,
      14, 11, 10, -1,
    ]
  }
}
