#VRML V2.0 utf8

Shape {
  appearance Appearance {
    material Material {
      diffuseColor 0.7529 0.7529 0.7529
      specularColor 0.3765 0.3765 0.3765
      ambientIntensity 0.2
      transparency 0.0000
      shininess 0.5
    }
  }
  geometry IndexedFaceSet {
    ccw TRUE
    solid FALSE
    coord DEF co Coordinate {
      point [
        0.472441 0.000000 0.374016,
        0.462352 0.054041 0.334646,
        0.469246 0.054847 0.374016,
        0.452951 0.107352 0.334646,
        0.459706 0.108952 0.374016,
        0.437426 0.159210 0.334646,
        0.443949 0.161584 0.374016,
        0.415985 0.208915 0.334646,
        0.422189 0.212031 0.374016,
        0.388919 0.255796 0.334646,
        0.394719 0.259611 0.374016,
        0.356593 0.299217 0.334646,
        0.361911 0.303679 0.374016,
        0.319445 0.338592 0.334646,
        0.324209 0.343641 0.374016,
        0.277977 0.373387 0.334646,
        0.282122 0.378956 0.374016,
        0.232750 0.403134 0.334646,
        0.236220 0.409146 0.374016,
        0.184375 0.427429 0.334646,
        0.187124 0.433803 0.374016,
        0.133507 0.445943 0.334646,
        0.135498 0.452593 0.374016,
        0.080833 0.458427 0.334646,
        0.082039 0.465263 0.374016,
        0.027067 0.464711 0.334646,
        0.027470 0.471642 0.374016,
        -0.027067 0.464711 0.334646,
        -0.027470 0.471642 0.374016,
        -0.080833 0.458427 0.334646,
        -0.082039 0.465263 0.374016,
        -0.133507 0.445943 0.334646,
        -0.135498 0.452593 0.374016,
        -0.184375 0.427429 0.334646,
        -0.187124 0.433803 0.374016,
        -0.232750 0.403134 0.334646,
        -0.236220 0.409146 0.374016,
        -0.277977 0.373387 0.334646,
        -0.282122 0.378956 0.374016,
        -0.319445 0.338592 0.334646,
        -0.324209 0.343641 0.374016,
        -0.356593 0.299217 0.334646,
        -0.361911 0.303679 0.374016,
        -0.388919 0.255796 0.334646,
        -0.394719 0.259611 0.374016,
        -0.415985 0.208915 0.334646,
        -0.422189 0.212031 0.374016,
        -0.437426 0.159210 0.334646,
        -0.443949 0.161584 0.374016,
        -0.452951 0.107352 0.334646,
        -0.459706 0.108952 0.374016,
        -0.462352 0.054041 0.334646,
        -0.469246 0.054847 0.374016,
        -0.465499 0.000000 0.334646,
        -0.472441 0.000000 0.374016,
        -0.462352 -0.054041 0.334646,
        -0.469246 -0.054847 0.374016,
        -0.452951 -0.107352 0.334646,
        -0.459706 -0.108952 0.374016,
        -0.437426 -0.159210 0.334646,
        -0.443949 -0.161584 0.374016,
        -0.415985 -0.208915 0.334646,
        -0.422189 -0.212031 0.374016,
        -0.388919 -0.255796 0.334646,
        -0.394719 -0.259611 0.374016,
        -0.356593 -0.299217 0.334646,
        -0.361911 -0.303679 0.374016,
        -0.319445 -0.338592 0.334646,
        -0.324209 -0.343641 0.374016,
        -0.277977 -0.373387 0.334646,
        -0.282122 -0.378956 0.374016,
        -0.232750 -0.403134 0.334646,
        -0.236220 -0.409146 0.374016,
        -0.184375 -0.427429 0.334646,
        -0.187124 -0.433803 0.374016,
        -0.133507 -0.445943 0.334646,
        -0.135498 -0.452593 0.374016,
        -0.080833 -0.458427 0.334646,
        -0.082039 -0.465263 0.374016,
        -0.027067 -0.464711 0.334646,
        -0.027470 -0.471642 0.374016,
        0.027067 -0.464711 0.334646,
        0.027470 -0.471642 0.374016,
        0.080833 -0.458427 0.334646,
        0.082039 -0.465263 0.374016,
        0.133507 -0.445943 0.334646,
        0.135498 -0.452593 0.374016,
        0.184375 -0.427429 0.334646,
        0.187124 -0.433803 0.374016,
        0.232750 -0.403134 0.334646,
        0.236220 -0.409146 0.374016,
        0.277977 -0.373387 0.334646,
        0.282122 -0.378956 0.374016,
        0.319445 -0.338592 0.334646,
        0.324209 -0.343641 0.374016,
        0.356593 -0.299217 0.334646,
        0.361911 -0.303679 0.374016,
        0.388919 -0.255796 0.334646,
        0.394719 -0.259611 0.374016,
        0.415985 -0.208915 0.334646,
        0.422189 -0.212031 0.374016,
        0.437426 -0.159210 0.334646,
        0.443949 -0.161584 0.374016,
        0.452951 -0.107352 0.334646,
        0.459706 -0.108952 0.374016,
        0.462352 -0.054041 0.334646,
        0.469246 -0.054847 0.374016,
        0.465499 0.000000 0.334646,
        0.000000 0.000000 0.334646,
        0.000000 0.000000 0.374016,
      ]
    }
    coordIndex [
      0, 1, 2, -1,
      2, 1, 3, -1,
      2, 3, 4, -1,
      4, 3, 5, -1,
      4, 5, 6, -1,
      6, 5, 7, -1,
      6, 7, 8, -1,
      8, 7, 9, -1,
      8, 9, 10, -1,
      10, 9, 11, -1,
      10, 11, 12, -1,
      12, 11, 13, -1,
      12, 13, 14, -1,
      14, 13, 15, -1,
      14, 15, 16, -1,
      16, 15, 17, -1,
      16, 17, 18, -1,
      18, 17, 19, -1,
      18, 19, 20, -1,
      20, 19, 21, -1,
      20, 21, 22, -1,
      22, 21, 23, -1,
      22, 23, 24, -1,
      24, 23, 25, -1,
      24, 25, 26, -1,
      26, 25, 27, -1,
      26, 27, 28, -1,
      28, 27, 29, -1,
      28, 29, 30, -1,
      30, 29, 31, -1,
      30, 31, 32, -1,
      32, 31, 33, -1,
      32, 33, 34, -1,
      34, 33, 35, -1,
      34, 35, 36, -1,
      36, 35, 37, -1,
      36, 37, 38, -1,
      38, 37, 39, -1,
      38, 39, 40, -1,
      40, 39, 41, -1,
      40, 41, 42, -1,
      42, 41, 43, -1,
      42, 43, 44, -1,
      44, 43, 45, -1,
      44, 45, 46, -1,
      46, 45, 47, -1,
      46, 47, 48, -1,
      48, 47, 49, -1,
      48, 49, 50, -1,
      50, 49, 51, -1,
      50, 51, 52, -1,
      52, 51, 53, -1,
      52, 53, 54, -1,
      54, 53, 55, -1,
      54, 55, 56, -1,
      56, 55, 57, -1,
      56, 57, 58, -1,
      58, 57, 59, -1,
      58, 59, 60, -1,
      60, 59, 61, -1,
      60, 61, 62, -1,
      62, 61, 63, -1,
      62, 63, 64, -1,
      64, 63, 65, -1,
      64, 65, 66, -1,
      66, 65, 67, -1,
      66, 67, 68, -1,
      68, 67, 69, -1,
      68, 69, 70, -1,
      70, 69, 71, -1,
      70, 71, 72, -1,
      72, 71, 73, -1,
      72, 73, 74, -1,
      74, 73, 75, -1,
      74, 75, 76, -1,
      76, 75, 77, -1,
      76, 77, 78, -1,
      78, 77, 79, -1,
      78, 79, 80, -1,
      80, 79, 81, -1,
      80, 81, 82, -1,
      82, 81, 83, -1,
      82, 83, 84, -1,
      84, 83, 85, -1,
      84, 85, 86, -1,
      86, 85, 87, -1,
      86, 87, 88, -1,
      88, 87, 89, -1,
      88, 89, 90, -1,
      90, 89, 91, -1,
      90, 91, 92, -1,
      92, 91, 93, -1,
      92, 93, 94, -1,
      94, 93, 95, -1,
      94, 95, 96, -1,
      96, 95, 97, -1,
      96, 97, 98, -1,
      98, 97, 99, -1,
      98, 99, 100, -1,
      100, 99, 101, -1,
      100, 101, 102, -1,
      102, 101, 103, -1,
      102, 103, 104, -1,
      104, 103, 105, -1,
      104, 105, 106, -1,
      106, 105, 107, -1,
      106, 107, 0, -1,
      0, 107, 1, -1,
      3, 1, 108, -1,
      108, 1, 107, -1,
      108, 107, 105, -1,
      9, 7, 108, -1,
      108, 7, 5, -1,
      108, 5, 3, -1,
      15, 13, 108, -1,
      108, 13, 11, -1,
      108, 11, 9, -1,
      21, 19, 108, -1,
      108, 19, 17, -1,
      108, 17, 15, -1,
      27, 25, 108, -1,
      108, 25, 23, -1,
      108, 23, 21, -1,
      33, 31, 108, -1,
      108, 31, 29, -1,
      108, 29, 27, -1,
      39, 37, 108, -1,
      108, 37, 35, -1,
      108, 35, 33, -1,
      45, 43, 108, -1,
      108, 43, 41, -1,
      108, 41, 39, -1,
      51, 49, 108, -1,
      108, 49, 47, -1,
      108, 47, 45, -1,
      57, 55, 108, -1,
      108, 55, 53, -1,
      108, 53, 51, -1,
      63, 61, 108, -1,
      108, 61, 59, -1,
      108, 59, 57, -1,
      69, 67, 108, -1,
      108, 67, 65, -1,
      108, 65, 63, -1,
      75, 73, 108, -1,
      108, 73, 71, -1,
      108, 71, 69, -1,
      81, 79, 108, -1,
      108, 79, 77, -1,
      108, 77, 75, -1,
      87, 85, 108, -1,
      108, 85, 83, -1,
      108, 83, 81, -1,
      93, 91, 108, -1,
      108, 91, 89, -1,
      108, 89, 87, -1,
      99, 97, 108, -1,
      108, 97, 95, -1,
      108, 95, 93, -1,
      105, 103, 108, -1,
      108, 103, 101, -1,
      108, 101, 99, -1,
      104, 106, 109, -1,
      109, 106, 0, -1,
      109, 0, 2, -1,
      98, 100, 109, -1,
      109, 100, 102, -1,
      109, 102, 104, -1,
      92, 94, 109, -1,
      109, 94, 96, -1,
      109, 96, 98, -1,
      86, 88, 109, -1,
      109, 88, 90, -1,
      109, 90, 92, -1,
      80, 82, 109, -1,
      109, 82, 84, -1,
      109, 84, 86, -1,
      74, 76, 109, -1,
      109, 76, 78, -1,
      109, 78, 80, -1,
      68, 70, 109, -1,
      109, 70, 72, -1,
      109, 72, 74, -1,
      62, 64, 109, -1,
      109, 64, 66, -1,
      109, 66, 68, -1,
      56, 58, 109, -1,
      109, 58, 60, -1,
      109, 60, 62, -1,
      50, 52, 109, -1,
      109, 52, 54, -1,
      109, 54, 56, -1,
      44, 46, 109, -1,
      109, 46, 48, -1,
      109, 48, 50, -1,
      38, 40, 109, -1,
      109, 40, 42, -1,
      109, 42, 44, -1,
      32, 34, 109, -1,
      109, 34, 36, -1,
      109, 36, 38, -1,
      26, 28, 109, -1,
      109, 28, 30, -1,
      109, 30, 32, -1,
      20, 22, 109, -1,
      109, 22, 24, -1,
      109, 24, 26, -1,
      14, 16, 109, -1,
      109, 16, 18, -1,
      109, 18, 20, -1,
      8, 10, 109, -1,
      109, 10, 12, -1,
      109, 12, 14, -1,
      2, 4, 109, -1,
      109, 4, 6, -1,
      109, 6, 8, -1,
    ]
  }
}

Shape {
  appearance Appearance {
    material Material {
      diffuseColor 1.0000 1.0000 1.0000
      specularColor 0.5020 0.5020 0.5020
      ambientIntensity 0.2
      transparency 0.0000
      shininess 0.5
    }
  }
  geometry IndexedFaceSet {
    ccw TRUE
    solid FALSE
    coord DEF co Coordinate {
      point [
        -0.226755 -0.290233 -0.216535,
        -0.184156 -0.318967 -0.216535,
        -0.059804 -0.058095 -0.216535,
        0.336469 0.149806 -0.216535,
        0.312345 0.195175 -0.216535,
        0.059804 0.058095 -0.216535,
        0.282143 -0.236746 -0.216535,
        0.312345 -0.195175 -0.216535,
        0.059804 -0.058095 -0.216535,
        0.364726 -0.051259 -0.216535,
        0.368311 -0.000000 -0.216535,
        0.364726 0.051259 -0.216535,
        0.354043 0.101520 -0.216535,
        0.113814 -0.350284 -0.216535,
        0.161457 -0.331035 -0.216535,
        0.282143 0.236746 -0.216535,
        0.246448 0.273708 -0.216535,
        0.205957 0.305344 -0.216535,
        0.336469 -0.149806 -0.216535,
        0.354043 -0.101520 -0.216535,
        -0.038499 -0.366293 -0.216535,
        0.012854 -0.368087 -0.216535,
        0.063957 -0.362715 -0.216535,
        0.205957 -0.305344 -0.216535,
        0.246448 -0.273708 -0.216535,
        -0.297970 0.216488 -0.216535,
        -0.325199 0.172911 -0.216535,
        -0.059804 0.058095 -0.216535,
        -0.346099 0.125970 -0.216535,
        -0.360262 0.076576 -0.216535,
        -0.346099 -0.125970 -0.216535,
        -0.325199 -0.172911 -0.216535,
        0.161457 0.331035 -0.216535,
        0.113814 0.350284 -0.216535,
        0.063957 0.362715 -0.216535,
        -0.137972 -0.341492 -0.216535,
        -0.089102 -0.357370 -0.216535,
        -0.297970 -0.216488 -0.216535,
        -0.264941 -0.255850 -0.216535,
        -0.137972 0.341492 -0.216535,
        -0.184156 0.318967 -0.216535,
        -0.367414 0.025692 -0.216535,
        -0.367414 -0.025692 -0.216535,
        -0.360262 -0.076576 -0.216535,
        0.012854 0.368087 -0.216535,
        -0.038499 0.366293 -0.216535,
        -0.089102 0.357370 -0.216535,
        -0.226755 0.290233 -0.216535,
        -0.264941 0.255850 -0.216535,
        -0.043422 -0.518459 -0.374016,
        -0.275591 -0.518459 -0.374016,
        -0.275591 -0.032994 -0.374016,
        -0.043422 0.518459 -0.374016,
        -0.035739 -0.023871 -0.374016,
        -0.043422 -0.032994 -0.374016,
        -0.035739 -0.032514 -0.374016,
        0.006511 -0.032514 -0.374016,
        -0.033819 0.037584 -0.374016,
        -0.004052 0.037584 -0.374016,
        -0.004052 0.011658 -0.374016,
        0.021875 -0.028433 -0.374016,
        0.021875 -0.019790 -0.374016,
        0.006511 0.046226 -0.374016,
        0.030269 -0.031879 -0.374016,
        0.038225 -0.032994 -0.374016,
        -0.004052 0.003015 -0.374016,
        -0.004052 -0.023871 -0.374016,
        -0.031898 0.003015 -0.374016,
        -0.031898 0.011658 -0.374016,
        0.060876 -0.029841 -0.374016,
        0.087172 -0.032514 -0.374016,
        0.053244 -0.032468 -0.374016,
        0.048171 -0.032994 -0.374016,
        -0.033819 0.046226 -0.374016,
        0.076294 0.025487 -0.374016,
        0.071680 0.032849 -0.374016,
        0.116939 0.046226 -0.374016,
        0.048069 0.037674 -0.374016,
        0.053962 0.035547 -0.374016,
        0.023287 -0.020572 -0.374016,
        0.059412 0.031901 -0.374016,
        0.064167 0.026652 -0.374016,
        0.069887 0.006016 -0.374016,
        0.069090 -0.002508 -0.374016,
        0.066951 -0.009281 -0.374016,
        0.049430 -0.024008 -0.374016,
        0.042085 -0.024831 -0.374016,
        0.055167 -0.021896 -0.374016,
        0.060000 -0.018639 -0.374016,
        0.063694 -0.014741 -0.374016,
        0.031633 -0.023672 -0.374016,
        0.067413 0.020572 -0.374016,
        0.069512 0.012143 -0.374016,
        0.064570 0.039686 -0.374016,
        0.127502 0.046226 -0.374016,
        0.275591 0.518459 -0.374016,
        0.127502 -0.032514 -0.374016,
        0.275591 -0.032994 -0.374016,
        0.067210 -0.025796 -0.374016,
        0.073124 -0.019570 -0.374016,
        0.087172 -0.023871 -0.374016,
        0.077319 -0.012083 -0.374016,
        0.116939 -0.023871 -0.374016,
        0.079689 -0.003748 -0.374016,
        0.080450 0.005371 -0.374016,
        0.079318 0.016566 -0.374016,
        0.057092 0.043991 -0.374016,
        0.048314 0.046541 -0.374016,
        0.040405 0.047187 -0.374016,
        0.030979 0.046536 -0.374016,
        0.021875 0.044066 -0.374016,
        0.021875 0.033503 -0.374016,
        0.030744 0.037301 -0.374016,
        0.040315 0.038544 -0.374016,
        0.041388 -0.033437 -0.374016,
        0.275591 -0.518459 -0.374016,
        0.043541 -0.033474 -0.374016,
        -0.120241 -0.032514 -0.374016,
        -0.110548 -0.010933 -0.374016,
        -0.106032 -0.017976 -0.374016,
        -0.191299 -0.032514 -0.374016,
        -0.160572 0.046226 -0.374016,
        -0.275591 0.518459 -0.374016,
        -0.150009 0.046226 -0.374016,
        -0.179776 -0.032514 -0.374016,
        -0.099551 -0.024181 -0.374016,
        -0.091330 -0.028959 -0.374016,
        -0.082257 -0.031663 -0.374016,
        -0.072514 -0.032514 -0.374016,
        -0.051104 -0.032514 -0.374016,
        -0.051104 0.046226 -0.374016,
        -0.073324 0.046226 -0.374016,
        -0.102565 0.035960 -0.374016,
        -0.108133 0.029785 -0.374016,
        -0.111793 0.023014 -0.374016,
        -0.084700 0.045011 -0.374016,
        -0.093913 0.041776 -0.374016,
        -0.102483 0.036032 -0.374016,
        -0.131764 -0.032514 -0.374016,
        -0.139281 -0.010428 -0.374016,
        -0.171809 -0.010428 -0.374016,
        -0.113907 0.015256 -0.374016,
        -0.114480 0.007847 -0.374016,
        -0.113375 -0.002691 -0.374016,
        0.629921 -0.511961 0.000000,
        0.614421 -0.496461 0.177165,
        0.613088 -0.506631 0.177165,
        0.628587 -0.522131 0.000000,
        0.611442 -0.511492 0.177165,
        0.626942 -0.526992 0.000000,
        0.609176 -0.516094 0.177165,
        0.624676 -0.531594 0.000000,
        0.606330 -0.520358 0.177165,
        0.621830 -0.535858 0.000000,
        0.602952 -0.524212 0.177165,
        0.618452 -0.539712 0.000000,
        0.614598 -0.543090 0.000000,
        0.599098 -0.527590 0.177165,
        0.610334 -0.545936 0.000000,
        0.594834 -0.530436 0.177165,
        0.605732 -0.548202 0.000000,
        0.590232 -0.532702 0.177165,
        0.600871 -0.549847 0.000000,
        0.585371 -0.534347 0.177165,
        0.575201 -0.535681 0.177165,
        0.590701 -0.551181 0.000000,
      ]
    }
    coordIndex [
      0, 1, 2, -1,
      3, 4, 5, -1,
      6, 7, 8, -1,
      9, 10, 8, -1,
      8, 10, 11, -1,
      8, 11, 5, -1,
      5, 11, 12, -1,
      5, 12, 3, -1,
      13, 14, 8, -1,
      4, 15, 5, -1,
      5, 15, 16, -1,
      5, 16, 17, -1,
      7, 18, 8, -1,
      8, 18, 19, -1,
      8, 19, 9, -1,
      2, 20, 21, -1,
      2, 21, 8, -1,
      8, 21, 22, -1,
      8, 22, 13, -1,
      14, 23, 8, -1,
      8, 23, 24, -1,
      8, 24, 6, -1,
      25, 26, 27, -1,
      27, 26, 28, -1,
      27, 28, 29, -1,
      2, 30, 31, -1,
      17, 32, 5, -1,
      5, 32, 33, -1,
      5, 33, 34, -1,
      1, 35, 2, -1,
      2, 35, 36, -1,
      2, 36, 20, -1,
      31, 37, 2, -1,
      2, 37, 38, -1,
      2, 38, 0, -1,
      27, 39, 40, -1,
      29, 41, 27, -1,
      27, 41, 42, -1,
      27, 42, 2, -1,
      2, 42, 43, -1,
      2, 43, 30, -1,
      34, 44, 5, -1,
      5, 44, 45, -1,
      5, 45, 27, -1,
      27, 45, 46, -1,
      27, 46, 39, -1,
      40, 47, 27, -1,
      27, 47, 48, -1,
      27, 48, 25, -1,
      49, 50, 51, -1,
      52, 53, 54, -1,
      54, 53, 55, -1,
      54, 55, 56, -1,
      57, 58, 59, -1,
      60, 56, 61, -1,
      61, 56, 62, -1,
      60, 63, 56, -1,
      56, 63, 64, -1,
      56, 64, 54, -1,
      65, 66, 67, -1,
      67, 66, 53, -1,
      67, 53, 68, -1,
      69, 70, 71, -1,
      71, 70, 72, -1,
      59, 68, 57, -1,
      57, 68, 53, -1,
      57, 53, 73, -1,
      73, 53, 52, -1,
      73, 52, 62, -1,
      74, 75, 76, -1,
      77, 78, 79, -1,
      79, 78, 80, -1,
      79, 80, 81, -1,
      82, 83, 79, -1,
      79, 83, 84, -1,
      85, 86, 87, -1,
      87, 86, 88, -1,
      84, 89, 79, -1,
      79, 89, 88, -1,
      79, 88, 90, -1,
      90, 88, 86, -1,
      81, 91, 79, -1,
      79, 91, 92, -1,
      79, 92, 82, -1,
      75, 93, 76, -1,
      76, 93, 52, -1,
      76, 52, 94, -1,
      94, 52, 95, -1,
      94, 95, 96, -1,
      96, 95, 97, -1,
      69, 98, 70, -1,
      70, 98, 99, -1,
      70, 99, 100, -1,
      100, 99, 101, -1,
      100, 101, 102, -1,
      101, 103, 102, -1,
      102, 103, 104, -1,
      102, 104, 76, -1,
      76, 104, 105, -1,
      76, 105, 74, -1,
      93, 106, 52, -1,
      52, 106, 107, -1,
      52, 107, 108, -1,
      108, 109, 52, -1,
      52, 109, 110, -1,
      52, 110, 62, -1,
      62, 110, 111, -1,
      62, 111, 61, -1,
      61, 111, 112, -1,
      61, 112, 79, -1,
      79, 112, 113, -1,
      79, 113, 77, -1,
      49, 114, 115, -1,
      115, 114, 116, -1,
      115, 116, 97, -1,
      97, 116, 72, -1,
      97, 72, 96, -1,
      96, 72, 70, -1,
      117, 118, 119, -1,
      120, 51, 121, -1,
      121, 51, 122, -1,
      121, 122, 123, -1,
      123, 122, 52, -1,
      120, 124, 51, -1,
      51, 124, 54, -1,
      51, 54, 49, -1,
      49, 54, 64, -1,
      49, 64, 114, -1,
      119, 125, 117, -1,
      117, 125, 126, -1,
      117, 126, 127, -1,
      128, 129, 54, -1,
      54, 129, 130, -1,
      54, 130, 52, -1,
      52, 130, 131, -1,
      132, 133, 123, -1,
      123, 133, 134, -1,
      131, 135, 52, -1,
      52, 135, 136, -1,
      52, 136, 123, -1,
      123, 136, 137, -1,
      123, 137, 132, -1,
      127, 128, 117, -1,
      117, 128, 54, -1,
      117, 54, 138, -1,
      138, 54, 124, -1,
      138, 124, 139, -1,
      139, 124, 140, -1,
      134, 141, 123, -1,
      123, 141, 142, -1,
      123, 142, 117, -1,
      117, 142, 143, -1,
      117, 143, 118, -1,
      144, 145, 146, -1,
      144, 146, 147, -1,
      147, 146, 148, -1,
      147, 148, 149, -1,
      149, 148, 150, -1,
      149, 150, 151, -1,
      151, 150, 152, -1,
      151, 152, 153, -1,
      153, 152, 154, -1,
      153, 154, 155, -1,
      155, 154, 156, -1,
      156, 154, 157, -1,
      156, 157, 158, -1,
      158, 157, 159, -1,
      158, 159, 160, -1,
      160, 159, 161, -1,
      160, 161, 162, -1,
      161, 163, 162, -1,
      162, 163, 164, -1,
      162, 164, 165, -1,
    ]
  }
}

Shape {
  appearance Appearance {
    material Material {
      diffuseColor 0.7529 0.7529 0.7529
      specularColor 0.3765 0.3765 0.3765
      ambientIntensity 0.2
      transparency 0.0000
      shininess 0.5
    }
  }
  geometry IndexedFaceSet {
    ccw TRUE
    solid FALSE
    coord DEF co Coordinate {
      point [
        0.625003 -0.196850 0.056214,
        0.625003 -0.433071 0.056214,
        0.639511 -0.433071 0.049589,
        0.639511 -0.196850 0.049589,
        0.651889 -0.433071 0.039532,
        0.651889 -0.196850 0.039532,
        0.661345 -0.433071 0.026689,
        0.661345 -0.196850 0.026689,
        0.667272 -0.433071 0.011883,
        0.667272 -0.196850 0.011883,
        0.669291 -0.433071 -0.003937,
        0.669291 -0.196850 -0.003937,
        0.629921 0.196850 -0.003937,
        0.629921 0.433071 -0.003937,
        0.629921 0.196850 -0.061896,
        0.629921 0.433071 -0.350394,
        0.629921 -0.196850 -0.061896,
        0.629921 -0.433071 -0.350394,
        0.629921 -0.196850 -0.003937,
        0.629921 -0.433071 -0.003937,
        0.629793 -0.196850 -0.001473,
        0.629793 -0.433071 -0.001473,
        0.669291 -0.196850 -0.061896,
        0.669291 -0.433071 -0.350394,
        0.669291 0.196850 -0.061896,
        0.669291 0.433071 -0.350394,
        0.669291 0.196850 -0.003937,
        0.669291 0.433071 -0.003937,
      ]
    }
    coordIndex [
      0, 1, 2, -1,
      0, 2, 3, -1,
      3, 2, 4, -1,
      3, 4, 5, -1,
      5, 4, 6, -1,
      5, 6, 7, -1,
      7, 6, 8, -1,
      7, 8, 9, -1,
      9, 8, 10, -1,
      9, 10, 11, -1,
      12, 13, 14, -1,
      14, 13, 15, -1,
      14, 15, 16, -1,
      16, 15, 17, -1,
      16, 17, 18, -1,
      18, 17, 19, -1,
      18, 19, 20, -1,
      20, 19, 21, -1,
      11, 10, 22, -1,
      22, 10, 23, -1,
      22, 23, 24, -1,
      24, 23, 25, -1,
      24, 25, 26, -1,
      26, 25, 27, -1,
    ]
  }
}

Shape {
  appearance Appearance {
    material Material {
      diffuseColor 1.0000 1.0000 1.0000
      specularColor 0.5020 0.5020 0.5020
      ambientIntensity 0.2
      transparency 0.0000
      shininess 0.5
    }
  }
  geometry IndexedFaceSet {
    ccw TRUE
    solid FALSE
    coord DEF co Coordinate {
      point [
        0.629921 -0.511961 0.000000,
        0.614421 -0.496461 0.177165,
        0.625003 -0.196850 0.056214,
        0.625003 -0.433071 0.056214,
        0.629793 -0.196850 -0.001473,
        0.629793 -0.433071 -0.001473,
        0.629921 0.511961 -0.000000,
        0.629921 0.433071 -0.000000,
        0.629793 0.433071 -0.001473,
        0.629793 0.196850 -0.001473,
        0.598921 -0.480961 -0.354331,
        0.598921 0.480961 -0.354331,
        0.629921 -0.433071 0.000000,
        0.629921 -0.196850 -0.000000,
        0.629921 0.196850 -0.000000,
        0.614421 -0.251720 0.177165,
        0.625003 0.433071 0.056214,
        0.597199 0.479239 0.374016,
        0.625003 0.196850 0.056214,
        0.597199 -0.268943 0.374016,
      ]
    }
    coordIndex [
      6, 7, 8, -1,
      9, 10, 8, -1,
      8, 10, 11, -1,
      8, 11, 6, -1,
      12, 0, 5, -1,
      5, 0, 10, -1,
      5, 10, 4, -1,
      4, 10, 9, -1,
      4, 9, 13, -1,
      13, 9, 14, -1,
      2, 13, 14, -1,
      0, 12, 1, -1,
      1, 12, 3, -1,
      1, 3, 15, -1,
      7, 6, 16, -1,
      16, 6, 17, -1,
      16, 17, 18, -1,
      18, 17, 19, -1,
      18, 19, 14, -1,
      14, 19, 15, -1,
      14, 15, 2, -1,
      2, 15, 3, -1,
    ]
  }
}

Shape {
  appearance Appearance {
    material Material {
      diffuseColor 0.7529 0.7529 0.7529
      specularColor 0.3765 0.3765 0.3765
      ambientIntensity 0.2
      transparency 0.0000
      shininess 0.5
    }
  }
  geometry IndexedFaceSet {
    ccw TRUE
    solid FALSE
    coord DEF co Coordinate {
      point [
        -0.669291 -0.196850 -0.003937,
        -0.669291 -0.433071 -0.003937,
        -0.667272 -0.433071 0.011883,
        -0.667272 -0.196850 0.011883,
        -0.661345 -0.433071 0.026689,
        -0.661345 -0.196850 0.026689,
        -0.651889 -0.433071 0.039532,
        -0.651889 -0.196850 0.039532,
        -0.639511 -0.433071 0.049589,
        -0.639511 -0.196850 0.049589,
        -0.625003 -0.433071 0.056214,
        -0.625003 -0.196850 0.056214,
        -0.669291 0.196850 -0.003937,
        -0.669291 0.433071 -0.003937,
        -0.669291 0.196850 -0.061896,
        -0.669291 0.433071 -0.350394,
        -0.669291 -0.196850 -0.061896,
        -0.669291 -0.433071 -0.350394,
        -0.629793 -0.196850 -0.001473,
        -0.629793 -0.433071 -0.001473,
        -0.629921 -0.196850 -0.003937,
        -0.629921 -0.433071 -0.003937,
        -0.629921 -0.196850 -0.061896,
        -0.629921 -0.433071 -0.350394,
        -0.629921 0.196850 -0.061896,
        -0.629921 0.433071 -0.350394,
        -0.629921 0.196850 -0.003937,
        -0.629921 0.433071 -0.003937,
      ]
    }
    coordIndex [
      0, 1, 2, -1,
      0, 2, 3, -1,
      3, 2, 4, -1,
      3, 4, 5, -1,
      5, 4, 6, -1,
      5, 6, 7, -1,
      7, 6, 8, -1,
      7, 8, 9, -1,
      9, 8, 10, -1,
      9, 10, 11, -1,
      12, 13, 14, -1,
      14, 13, 15, -1,
      14, 15, 16, -1,
      16, 15, 17, -1,
      16, 17, 0, -1,
      0, 17, 1, -1,
      18, 19, 20, -1,
      20, 19, 21, -1,
      20, 21, 22, -1,
      22, 21, 23, -1,
      22, 23, 24, -1,
      24, 23, 25, -1,
      24, 25, 26, -1,
      26, 25, 27, -1,
    ]
  }
}

Shape {
  appearance Appearance {
    material Material {
      diffuseColor 1.0000 1.0000 1.0000
      specularColor 0.5020 0.5020 0.5020
      ambientIntensity 0.2
      transparency 0.0000
      shininess 0.5
    }
  }
  geometry IndexedFaceSet {
    ccw TRUE
    solid FALSE
    coord DEF co Coordinate {
      point [
        0.472441 0.000000 0.374016,
        0.361911 0.303679 0.374016,
        0.082039 0.465263 0.374016,
        -0.236220 0.409146 0.374016,
        -0.443949 0.161584 0.374016,
        -0.443949 -0.161584 0.374016,
        -0.236220 -0.409146 0.374016,
        0.082039 -0.465263 0.374016,
        0.361911 -0.303679 0.374016,
        -0.043422 -0.518459 -0.374016,
        -0.275591 -0.518459 -0.374016,
        -0.275591 -0.032994 -0.374016,
        -0.043422 0.518459 -0.374016,
        0.275591 0.518459 -0.374016,
        0.275591 -0.032994 -0.374016,
        0.275591 -0.518459 -0.374016,
        -0.275591 0.518459 -0.374016,
        0.629921 -0.511961 0.000000,
        0.628587 -0.522131 0.000000,
        0.626942 -0.526992 0.000000,
        0.624676 -0.531594 0.000000,
        0.621830 -0.535858 0.000000,
        0.618452 -0.539712 0.000000,
        0.614598 -0.543090 0.000000,
        0.610334 -0.545936 0.000000,
        0.605732 -0.548202 0.000000,
        0.600871 -0.549847 0.000000,
        0.575201 -0.535681 0.177165,
        0.590701 -0.551181 0.000000,
        0.629921 0.511961 -0.000000,
        0.598921 -0.480961 -0.354331,
        0.598921 0.480961 -0.354331,
        0.597199 0.479239 0.374016,
        0.597199 -0.268943 0.374016,
        -0.625003 -0.433071 0.056214,
        -0.625003 -0.196850 0.056214,
        -0.629793 -0.196850 -0.001473,
        -0.629793 -0.433071 -0.001473,
        -0.629921 -0.511961 -0.000000,
        -0.629921 -0.433071 -0.000000,
        -0.598921 0.480961 -0.354331,
        -0.598921 -0.480961 -0.354331,
        -0.629921 0.433071 0.000000,
        -0.629921 0.511961 -0.000000,
        -0.629793 0.433071 -0.001473,
        -0.629793 0.196850 -0.001473,
        -0.629921 0.196850 -0.000000,
        -0.629921 -0.196850 -0.000000,
        -0.625003 0.433071 0.056214,
        -0.625003 0.196850 0.056214,
        -0.597199 -0.479239 0.374016,
        -0.597199 0.479239 0.374016,
        -0.590701 0.551181 0.000000,
        -0.559701 0.520181 -0.354331,
        -0.569871 0.518848 -0.354331,
        -0.600871 0.549847 0.000000,
        -0.574732 0.517202 -0.354331,
        -0.605732 0.548202 0.000000,
        -0.579334 0.514936 -0.354331,
        -0.610334 0.545936 0.000000,
        -0.583598 0.512091 -0.354331,
        -0.614598 0.543090 0.000000,
        -0.587452 0.508712 -0.354331,
        -0.618452 0.539712 0.000000,
        -0.621830 0.535858 0.000000,
        -0.590831 0.504858 -0.354331,
        -0.624676 0.531594 0.000000,
        -0.593676 0.500594 -0.354331,
        -0.626942 0.526992 0.000000,
        -0.595942 0.495992 -0.354331,
        -0.628587 0.522131 0.000000,
        -0.597588 0.491131 -0.354331,
        -0.597588 -0.491131 -0.354331,
        -0.628587 -0.522131 0.000000,
        -0.595942 -0.495992 -0.354331,
        -0.626942 -0.526992 0.000000,
        -0.593676 -0.500594 -0.354331,
        -0.624676 -0.531594 0.000000,
        -0.590831 -0.504858 -0.354331,
        -0.621830 -0.535858 0.000000,
        -0.587452 -0.508712 -0.354331,
        -0.618452 -0.539712 0.000000,
        -0.614598 -0.543090 0.000000,
        -0.583598 -0.512091 -0.354331,
        -0.610334 -0.545936 0.000000,
        -0.579334 -0.514936 -0.354331,
        -0.605732 -0.548202 0.000000,
        -0.574732 -0.517202 -0.354331,
        -0.600871 -0.549847 0.000000,
        -0.569871 -0.518848 -0.354331,
        -0.559701 -0.520181 -0.354331,
        -0.590701 -0.551181 0.000000,
        0.559701 -0.520181 -0.354331,
        0.275591 -0.520181 -0.354331,
        -0.275591 -0.520181 -0.354331,
        -0.275591 0.520181 -0.354331,
        0.590701 0.551181 -0.000000,
        0.559701 0.520181 -0.354331,
        0.275591 0.520181 -0.354331,
        -0.557979 0.518459 0.374016,
        0.557979 0.518459 0.374016,
        0.330461 -0.535681 0.177165,
        0.347683 -0.518459 0.374016,
        -0.557979 -0.518459 0.374016,
        0.207104 -0.424627 0.374016,
        0.145992 -0.449318 0.374016,
        -0.462117 -0.098226 0.374016,
        0.264185 -0.391671 0.374016,
        -0.114294 -0.458407 0.374016,
        -0.176980 -0.438040 0.374016,
        0.431596 -0.192159 0.374016,
        0.454139 -0.130222 0.374016,
        0.467843 -0.065751 0.374016,
        0.400653 -0.250356 0.374016,
        0.316125 -0.351092 0.374016,
        -0.471290 -0.032956 0.374016,
        -0.471290 0.032956 0.374016,
        -0.462117 0.098226 0.374016,
        0.145992 0.449318 0.374016,
        0.207104 0.424627 0.374016,
        0.016488 -0.472153 0.374016,
        -0.049383 -0.469853 0.374016,
        -0.176980 0.438040 0.374016,
        -0.114294 0.458407 0.374016,
        0.431596 0.192159 0.374016,
        0.454139 0.130222 0.374016,
        0.467843 0.065751 0.374016,
        -0.595865 -0.489409 0.374016,
        -0.382213 -0.277694 0.374016,
        -0.417141 -0.221798 0.374016,
        -0.290864 -0.372289 0.374016,
        -0.339846 -0.328185 0.374016,
        -0.568149 -0.517125 0.374016,
        -0.573010 -0.515479 0.374016,
        -0.577612 -0.513214 0.374016,
        -0.049383 0.469853 0.374016,
        0.016488 0.472153 0.374016,
        -0.594219 -0.494270 0.374016,
        -0.591954 -0.498872 0.374016,
        -0.589108 -0.503136 0.374016,
        -0.568149 0.517125 0.374016,
        -0.339846 0.328185 0.374016,
        -0.290864 0.372289 0.374016,
        -0.417141 0.221798 0.374016,
        -0.382213 0.277694 0.374016,
        -0.595865 0.489409 0.374016,
        -0.594219 0.494270 0.374016,
        -0.591954 0.498872 0.374016,
        -0.585730 -0.506990 0.374016,
        -0.581876 -0.510368 0.374016,
        -0.573010 0.515479 0.374016,
        -0.577612 0.513214 0.374016,
        -0.581876 0.510368 0.374016,
        0.264185 0.391671 0.374016,
        0.316125 0.351092 0.374016,
        0.568149 0.517125 0.374016,
        0.573010 0.515479 0.374016,
        0.577612 0.513214 0.374016,
        0.595865 0.489409 0.374016,
        0.400653 0.250356 0.374016,
        -0.585730 0.506990 0.374016,
        -0.589108 0.503136 0.374016,
        0.594219 0.494270 0.374016,
        0.591954 0.498872 0.374016,
        0.589108 0.503136 0.374016,
        0.585730 0.506990 0.374016,
        0.581876 0.510368 0.374016,
        0.600871 0.549847 -0.000000,
        0.605732 0.548202 -0.000000,
        0.610334 0.545936 -0.000000,
        0.614598 0.543090 -0.000000,
        0.618452 0.539712 -0.000000,
        0.621830 0.535858 -0.000000,
        0.624676 0.531594 -0.000000,
        0.626942 0.526992 -0.000000,
        0.628587 0.522131 -0.000000,
        0.597588 0.491131 -0.354331,
        0.595942 0.495992 -0.354331,
        0.593676 0.500594 -0.354331,
        0.590831 0.504858 -0.354331,
        0.587452 0.508712 -0.354331,
        0.583598 0.512091 -0.354331,
        0.579334 0.514936 -0.354331,
        0.574732 0.517202 -0.354331,
        0.569871 0.518848 -0.354331,
        0.569871 -0.518848 -0.354331,
        0.574732 -0.517202 -0.354331,
        0.579334 -0.514936 -0.354331,
        0.583598 -0.512091 -0.354331,
        0.587452 -0.508712 -0.354331,
        0.590831 -0.504858 -0.354331,
        0.593676 -0.500594 -0.354331,
        0.595942 -0.495992 -0.354331,
        0.597588 -0.491131 -0.354331,
      ]
    }
    coordIndex [
      38, 39, 37, -1,
      36, 40, 37, -1,
      37, 40, 41, -1,
      37, 41, 38, -1,
      42, 43, 44, -1,
      44, 43, 40, -1,
      44, 40, 45, -1,
      45, 40, 36, -1,
      45, 36, 46, -1,
      46, 36, 47, -1,
      43, 42, 48, -1,
      49, 50, 48, -1,
      48, 50, 51, -1,
      48, 51, 43, -1,
      39, 38, 34, -1,
      34, 38, 50, -1,
      34, 50, 35, -1,
      35, 50, 49, -1,
      35, 49, 47, -1,
      47, 49, 46, -1,
      52, 53, 54, -1,
      52, 54, 55, -1,
      55, 54, 56, -1,
      55, 56, 57, -1,
      57, 56, 58, -1,
      57, 58, 59, -1,
      59, 58, 60, -1,
      59, 60, 61, -1,
      61, 60, 62, -1,
      61, 62, 63, -1,
      63, 62, 64, -1,
      64, 62, 65, -1,
      64, 65, 66, -1,
      66, 65, 67, -1,
      66, 67, 68, -1,
      68, 67, 69, -1,
      68, 69, 70, -1,
      69, 71, 70, -1,
      70, 71, 40, -1,
      70, 40, 43, -1,
      38, 41, 72, -1,
      38, 72, 73, -1,
      73, 72, 74, -1,
      73, 74, 75, -1,
      75, 74, 76, -1,
      75, 76, 77, -1,
      77, 76, 78, -1,
      77, 78, 79, -1,
      79, 78, 80, -1,
      79, 80, 81, -1,
      81, 80, 82, -1,
      82, 80, 83, -1,
      82, 83, 84, -1,
      84, 83, 85, -1,
      84, 85, 86, -1,
      86, 85, 87, -1,
      86, 87, 88, -1,
      87, 89, 88, -1,
      88, 89, 90, -1,
      88, 90, 91, -1,
      92, 28, 93, -1,
      93, 28, 91, -1,
      91, 90, 94, -1,
      94, 10, 9, -1,
      91, 94, 93, -1,
      93, 94, 9, -1,
      93, 9, 15, -1,
      95, 53, 52, -1,
      12, 16, 95, -1,
      96, 97, 98, -1,
      52, 96, 95, -1,
      95, 96, 98, -1,
      95, 98, 12, -1,
      12, 98, 13, -1,
      99, 100, 52, -1,
      52, 100, 96, -1,
      28, 27, 101, -1,
      102, 103, 101, -1,
      101, 103, 91, -1,
      101, 91, 28, -1,
      104, 105, 102, -1,
      5, 106, 50, -1,
      104, 102, 107, -1,
      108, 109, 103, -1,
      103, 109, 6, -1,
      110, 33, 111, -1,
      111, 33, 112, -1,
      110, 113, 33, -1,
      33, 113, 8, -1,
      33, 8, 102, -1,
      102, 8, 114, -1,
      102, 114, 107, -1,
      106, 115, 50, -1,
      50, 115, 116, -1,
      50, 116, 51, -1,
      51, 116, 117, -1,
      51, 117, 4, -1,
      118, 119, 100, -1,
      105, 7, 102, -1,
      102, 7, 120, -1,
      102, 120, 103, -1,
      103, 120, 121, -1,
      103, 121, 108, -1,
      3, 122, 99, -1,
      99, 122, 123, -1,
      124, 125, 32, -1,
      32, 125, 126, -1,
      32, 126, 33, -1,
      33, 126, 0, -1,
      33, 0, 112, -1,
      127, 128, 50, -1,
      50, 128, 129, -1,
      50, 129, 5, -1,
      6, 130, 103, -1,
      103, 130, 131, -1,
      103, 131, 132, -1,
      132, 131, 128, -1,
      132, 128, 133, -1,
      133, 128, 134, -1,
      123, 135, 99, -1,
      99, 135, 136, -1,
      99, 136, 100, -1,
      100, 136, 2, -1,
      100, 2, 118, -1,
      127, 137, 128, -1,
      128, 137, 138, -1,
      128, 138, 139, -1,
      140, 141, 99, -1,
      99, 141, 142, -1,
      99, 142, 3, -1,
      4, 143, 51, -1,
      51, 143, 144, -1,
      51, 144, 145, -1,
      145, 144, 141, -1,
      145, 141, 146, -1,
      146, 141, 147, -1,
      139, 148, 128, -1,
      128, 148, 149, -1,
      128, 149, 134, -1,
      140, 150, 141, -1,
      141, 150, 151, -1,
      141, 151, 152, -1,
      119, 153, 100, -1,
      100, 153, 154, -1,
      100, 154, 155, -1,
      155, 154, 1, -1,
      155, 1, 156, -1,
      156, 1, 157, -1,
      158, 1, 32, -1,
      32, 1, 159, -1,
      32, 159, 124, -1,
      152, 160, 141, -1,
      141, 160, 161, -1,
      141, 161, 147, -1,
      158, 162, 1, -1,
      1, 162, 163, -1,
      1, 163, 164, -1,
      164, 165, 1, -1,
      1, 165, 166, -1,
      1, 166, 157, -1,
      43, 51, 145, -1,
      43, 145, 70, -1,
      70, 145, 146, -1,
      70, 146, 68, -1,
      68, 146, 147, -1,
      68, 147, 66, -1,
      66, 147, 161, -1,
      66, 161, 64, -1,
      64, 161, 160, -1,
      64, 160, 63, -1,
      63, 160, 61, -1,
      61, 160, 152, -1,
      61, 152, 59, -1,
      59, 152, 151, -1,
      59, 151, 57, -1,
      57, 151, 150, -1,
      57, 150, 55, -1,
      150, 140, 55, -1,
      55, 140, 99, -1,
      55, 99, 52, -1,
      96, 100, 155, -1,
      96, 155, 167, -1,
      167, 155, 156, -1,
      167, 156, 168, -1,
      168, 156, 157, -1,
      168, 157, 169, -1,
      169, 157, 166, -1,
      169, 166, 170, -1,
      170, 166, 165, -1,
      170, 165, 171, -1,
      171, 165, 172, -1,
      172, 165, 164, -1,
      172, 164, 173, -1,
      173, 164, 163, -1,
      173, 163, 174, -1,
      174, 163, 162, -1,
      174, 162, 175, -1,
      162, 158, 175, -1,
      175, 158, 32, -1,
      175, 32, 29, -1,
      29, 31, 176, -1,
      29, 176, 175, -1,
      175, 176, 177, -1,
      175, 177, 174, -1,
      174, 177, 178, -1,
      174, 178, 173, -1,
      173, 178, 179, -1,
      173, 179, 172, -1,
      172, 179, 180, -1,
      172, 180, 171, -1,
      171, 180, 170, -1,
      170, 180, 181, -1,
      170, 181, 169, -1,
      169, 181, 182, -1,
      169, 182, 168, -1,
      168, 182, 183, -1,
      168, 183, 167, -1,
      183, 184, 167, -1,
      167, 184, 97, -1,
      167, 97, 96, -1,
      28, 92, 185, -1,
      28, 185, 26, -1,
      26, 185, 186, -1,
      26, 186, 25, -1,
      25, 186, 187, -1,
      25, 187, 24, -1,
      24, 187, 188, -1,
      24, 188, 23, -1,
      23, 188, 189, -1,
      23, 189, 22, -1,
      22, 189, 21, -1,
      21, 189, 190, -1,
      21, 190, 20, -1,
      20, 190, 191, -1,
      20, 191, 19, -1,
      19, 191, 192, -1,
      19, 192, 18, -1,
      192, 193, 18, -1,
      18, 193, 30, -1,
      18, 30, 17, -1,
      91, 103, 132, -1,
      91, 132, 88, -1,
      88, 132, 133, -1,
      88, 133, 86, -1,
      86, 133, 134, -1,
      86, 134, 84, -1,
      84, 134, 149, -1,
      84, 149, 82, -1,
      82, 149, 148, -1,
      82, 148, 81, -1,
      81, 148, 79, -1,
      79, 148, 139, -1,
      79, 139, 77, -1,
      77, 139, 138, -1,
      77, 138, 75, -1,
      75, 138, 137, -1,
      75, 137, 73, -1,
      137, 127, 73, -1,
      73, 127, 50, -1,
      73, 50, 38, -1,
      10, 94, 11, -1,
      11, 94, 95, -1,
      11, 95, 16, -1,
      53, 95, 94, -1,
      94, 90, 53, -1,
      53, 90, 41, -1,
      53, 41, 40, -1,
      76, 74, 85, -1,
      85, 74, 87, -1,
      90, 89, 41, -1,
      41, 89, 87, -1,
      41, 87, 72, -1,
      72, 87, 74, -1,
      58, 56, 69, -1,
      40, 71, 53, -1,
      53, 71, 69, -1,
      53, 69, 54, -1,
      54, 69, 56, -1,
      76, 85, 78, -1,
      78, 85, 83, -1,
      78, 83, 80, -1,
      69, 67, 58, -1,
      58, 67, 65, -1,
      58, 65, 60, -1,
      60, 65, 62, -1,
      13, 98, 14, -1,
      14, 98, 93, -1,
      14, 93, 15, -1,
      92, 93, 98, -1,
      178, 177, 183, -1,
      98, 97, 92, -1,
      92, 97, 31, -1,
      92, 31, 30, -1,
      97, 184, 31, -1,
      31, 184, 183, -1,
      31, 183, 176, -1,
      176, 183, 177, -1,
      193, 186, 30, -1,
      30, 186, 185, -1,
      30, 185, 92, -1,
      193, 192, 186, -1,
      186, 192, 191, -1,
      186, 191, 187, -1,
      183, 182, 178, -1,
      178, 182, 181, -1,
      178, 181, 179, -1,
      179, 181, 180, -1,
      187, 191, 188, -1,
      188, 191, 190, -1,
      188, 190, 189, -1,
    ]
  }
}

Shape {
  appearance Appearance {
    material Material {
      diffuseColor 0.7529 0.7529 0.7529
      specularColor 0.3765 0.3765 0.3765
      ambientIntensity 0.2
      transparency 0.0000
      shininess 0.5
    }
  }
  geometry IndexedFaceSet {
    ccw TRUE
    solid FALSE
    coord DEF co Coordinate {
      point [
        0.625003 -0.196850 0.056214,
        0.625003 -0.433071 0.056214,
        0.639511 -0.433071 0.049589,
        0.639511 -0.196850 0.049589,
        0.651889 -0.433071 0.039532,
        0.651889 -0.196850 0.039532,
        0.661345 -0.433071 0.026689,
        0.661345 -0.196850 0.026689,
        0.667272 -0.433071 0.011883,
        0.667272 -0.196850 0.011883,
        0.669291 -0.433071 -0.003937,
        0.669291 -0.196850 -0.003937,
        0.629921 0.196850 -0.003937,
        0.629921 0.433071 -0.003937,
        0.629921 0.196850 -0.061896,
        0.629921 0.433071 -0.350394,
        0.629921 -0.196850 -0.061896,
        0.629921 -0.433071 -0.350394,
        0.629921 -0.196850 -0.003937,
        0.629921 -0.433071 -0.003937,
        0.629793 -0.196850 -0.001473,
        0.629793 -0.433071 -0.001473,
        0.669291 -0.196850 -0.061896,
        0.669291 -0.433071 -0.350394,
        0.669291 0.196850 -0.061896,
        0.669291 0.433071 -0.350394,
        0.669291 0.196850 -0.003937,
        0.669291 0.433071 -0.003937,
        0.629921 0.433071 -0.000000,
        0.629793 0.433071 -0.001473,
        0.629793 0.196850 -0.001473,
        0.629921 -0.433071 0.000000,
        0.629921 -0.196850 -0.000000,
        0.629921 0.196850 -0.000000,
        0.625003 0.433071 0.056214,
        0.625003 0.196850 0.056214,
        -0.669291 -0.196850 -0.003937,
        -0.669291 -0.433071 -0.003937,
        -0.667272 -0.433071 0.011883,
        -0.667272 -0.196850 0.011883,
        -0.661345 -0.433071 0.026689,
        -0.661345 -0.196850 0.026689,
        -0.651889 -0.433071 0.039532,
        -0.651889 -0.196850 0.039532,
        -0.639511 -0.433071 0.049589,
        -0.639511 -0.196850 0.049589,
        -0.625003 -0.433071 0.056214,
        -0.625003 -0.196850 0.056214,
        -0.669291 0.196850 -0.003937,
        -0.669291 0.433071 -0.003937,
        -0.669291 0.196850 -0.061896,
        -0.669291 0.433071 -0.350394,
        -0.669291 -0.196850 -0.061896,
        -0.669291 -0.433071 -0.350394,
        -0.629793 -0.196850 -0.001473,
        -0.629793 -0.433071 -0.001473,
        -0.629921 -0.196850 -0.003937,
        -0.629921 -0.433071 -0.003937,
        -0.629921 -0.196850 -0.061896,
        -0.629921 -0.433071 -0.350394,
        -0.629921 0.196850 -0.061896,
        -0.629921 0.433071 -0.350394,
        -0.629921 0.196850 -0.003937,
        -0.629921 0.433071 -0.003937,
        -0.629921 -0.433071 -0.000000,
        -0.629921 0.433071 0.000000,
        -0.629793 0.433071 -0.001473,
        -0.629793 0.196850 -0.001473,
        -0.629921 0.196850 -0.000000,
        -0.629921 -0.196850 -0.000000,
        -0.625003 0.433071 0.056214,
        -0.625003 0.196850 0.056214,
        -0.667272 0.196850 0.011883,
        -0.667272 0.433071 0.011883,
        -0.661345 0.196850 0.026689,
        -0.661345 0.433071 0.026689,
        -0.651889 0.196850 0.039532,
        -0.651889 0.433071 0.039532,
        -0.639511 0.196850 0.049589,
        -0.639511 0.433071 0.049589,
        -0.354331 0.433071 -0.374016,
        -0.606299 0.433071 -0.374016,
        -0.354331 -0.433071 -0.374016,
        -0.606299 -0.433071 -0.374016,
        -0.354331 0.433071 -0.413386,
        -0.354331 -0.433071 -0.413386,
        -0.606299 0.433071 -0.413386,
        -0.606299 -0.433071 -0.413386,
        -0.622603 -0.433071 -0.411239,
        -0.622603 0.433071 -0.411239,
        -0.637795 -0.433071 -0.404946,
        -0.637795 0.433071 -0.404946,
        -0.650841 -0.433071 -0.394936,
        -0.650841 0.433071 -0.394936,
        -0.660852 -0.433071 -0.381890,
        -0.660852 0.433071 -0.381890,
        -0.667145 -0.433071 -0.366697,
        -0.667145 0.433071 -0.366697,
        -0.629117 0.433071 -0.356507,
        -0.629117 -0.433071 -0.356507,
        -0.626757 0.433071 -0.362205,
        -0.626757 -0.433071 -0.362205,
        -0.623002 0.433071 -0.367097,
        -0.623002 -0.433071 -0.367097,
        -0.618110 0.433071 -0.370851,
        -0.618110 -0.433071 -0.370851,
        -0.612413 0.433071 -0.373211,
        -0.612413 -0.433071 -0.373211,
        0.639511 0.196850 0.049589,
        0.639511 0.433071 0.049589,
        0.651889 0.196850 0.039532,
        0.651889 0.433071 0.039532,
        0.661345 0.196850 0.026689,
        0.661345 0.433071 0.026689,
        0.667272 0.196850 0.011883,
        0.667272 0.433071 0.011883,
        0.606299 0.433071 -0.374016,
        0.354331 0.433071 -0.374016,
        0.606299 -0.433071 -0.374016,
        0.354331 -0.433071 -0.374016,
        0.612413 0.433071 -0.373211,
        0.612413 -0.433071 -0.373211,
        0.618110 0.433071 -0.370851,
        0.618110 -0.433071 -0.370851,
        0.623002 0.433071 -0.367097,
        0.623002 -0.433071 -0.367097,
        0.626757 0.433071 -0.362205,
        0.626757 -0.433071 -0.362205,
        0.629117 0.433071 -0.356507,
        0.629117 -0.433071 -0.356507,
        0.667145 -0.433071 -0.366697,
        0.667145 0.433071 -0.366697,
        0.660852 -0.433071 -0.381890,
        0.660852 0.433071 -0.381890,
        0.650841 -0.433071 -0.394936,
        0.650841 0.433071 -0.394936,
        0.637795 -0.433071 -0.404946,
        0.637795 0.433071 -0.404946,
        0.622603 -0.433071 -0.411239,
        0.622603 0.433071 -0.411239,
        0.606299 -0.433071 -0.413386,
        0.606299 0.433071 -0.413386,
        0.354331 0.433071 -0.413386,
        0.354331 -0.433071 -0.413386,
      ]
    }
    coordIndex [
      49, 48, 72, -1,
      49, 72, 73, -1,
      73, 72, 74, -1,
      73, 74, 75, -1,
      75, 74, 76, -1,
      75, 76, 77, -1,
      77, 76, 78, -1,
      77, 78, 79, -1,
      79, 78, 71, -1,
      79, 71, 70, -1,
      80, 81, 82, -1,
      82, 81, 83, -1,
      84, 80, 85, -1,
      85, 80, 82, -1,
      86, 84, 87, -1,
      87, 84, 85, -1,
      86, 87, 88, -1,
      86, 88, 89, -1,
      89, 88, 90, -1,
      89, 90, 91, -1,
      91, 90, 92, -1,
      91, 92, 93, -1,
      93, 92, 94, -1,
      93, 94, 95, -1,
      95, 94, 96, -1,
      95, 96, 97, -1,
      97, 96, 53, -1,
      97, 53, 51, -1,
      66, 67, 63, -1,
      63, 67, 62, -1,
      61, 59, 98, -1,
      98, 59, 99, -1,
      98, 99, 100, -1,
      100, 99, 101, -1,
      100, 101, 102, -1,
      102, 101, 103, -1,
      102, 103, 104, -1,
      104, 103, 105, -1,
      104, 105, 106, -1,
      106, 105, 107, -1,
      106, 107, 81, -1,
      81, 107, 83, -1,
      70, 65, 79, -1,
      79, 65, 77, -1,
      49, 73, 65, -1,
      65, 73, 75, -1,
      65, 75, 77, -1,
      80, 84, 81, -1,
      81, 84, 86, -1,
      81, 86, 106, -1,
      106, 86, 89, -1,
      106, 89, 104, -1,
      104, 89, 91, -1,
      104, 91, 102, -1,
      102, 91, 93, -1,
      102, 93, 100, -1,
      100, 93, 95, -1,
      100, 95, 98, -1,
      98, 95, 97, -1,
      98, 97, 61, -1,
      61, 97, 51, -1,
      61, 51, 63, -1,
      63, 51, 49, -1,
      63, 49, 66, -1,
      66, 49, 65, -1,
      46, 44, 64, -1,
      64, 44, 42, -1,
      64, 42, 40, -1,
      85, 82, 87, -1,
      87, 82, 83, -1,
      87, 83, 88, -1,
      88, 83, 107, -1,
      88, 107, 90, -1,
      90, 107, 105, -1,
      90, 105, 92, -1,
      92, 105, 103, -1,
      92, 103, 94, -1,
      94, 103, 101, -1,
      94, 101, 96, -1,
      96, 101, 99, -1,
      96, 99, 53, -1,
      53, 99, 59, -1,
      53, 59, 37, -1,
      37, 59, 57, -1,
      57, 55, 37, -1,
      37, 55, 64, -1,
      37, 64, 38, -1,
      38, 64, 40, -1,
      52, 58, 50, -1,
      50, 58, 60, -1,
      41, 69, 39, -1,
      39, 69, 36, -1,
      58, 52, 56, -1,
      56, 52, 36, -1,
      56, 36, 54, -1,
      54, 36, 69, -1,
      41, 43, 69, -1,
      69, 43, 45, -1,
      69, 45, 47, -1,
      50, 60, 48, -1,
      48, 60, 62, -1,
      62, 67, 48, -1,
      48, 67, 68, -1,
      48, 68, 72, -1,
      68, 71, 78, -1,
      78, 76, 68, -1,
      68, 76, 74, -1,
      68, 74, 72, -1,
      34, 35, 108, -1,
      34, 108, 109, -1,
      109, 108, 110, -1,
      109, 110, 111, -1,
      111, 110, 112, -1,
      111, 112, 113, -1,
      113, 112, 114, -1,
      113, 114, 115, -1,
      115, 114, 26, -1,
      115, 26, 27, -1,
      116, 117, 118, -1,
      118, 117, 119, -1,
      116, 118, 120, -1,
      120, 118, 121, -1,
      120, 121, 122, -1,
      122, 121, 123, -1,
      122, 123, 124, -1,
      124, 123, 125, -1,
      124, 125, 126, -1,
      126, 125, 127, -1,
      126, 127, 128, -1,
      128, 127, 129, -1,
      128, 129, 15, -1,
      15, 129, 17, -1,
      13, 12, 29, -1,
      29, 12, 30, -1,
      25, 23, 130, -1,
      25, 130, 131, -1,
      131, 130, 132, -1,
      131, 132, 133, -1,
      133, 132, 134, -1,
      133, 134, 135, -1,
      135, 134, 136, -1,
      135, 136, 137, -1,
      137, 136, 138, -1,
      137, 138, 139, -1,
      139, 138, 140, -1,
      139, 140, 141, -1,
      142, 141, 143, -1,
      143, 141, 140, -1,
      117, 142, 119, -1,
      119, 142, 143, -1,
      29, 28, 27, -1,
      111, 28, 109, -1,
      109, 28, 34, -1,
      142, 117, 141, -1,
      141, 117, 116, -1,
      141, 116, 139, -1,
      139, 116, 120, -1,
      139, 120, 137, -1,
      137, 120, 122, -1,
      137, 122, 135, -1,
      135, 122, 124, -1,
      135, 124, 133, -1,
      133, 124, 126, -1,
      133, 126, 131, -1,
      131, 126, 128, -1,
      131, 128, 25, -1,
      25, 128, 15, -1,
      25, 15, 27, -1,
      27, 15, 13, -1,
      27, 13, 29, -1,
      111, 113, 28, -1,
      28, 113, 115, -1,
      28, 115, 27, -1,
      2, 1, 31, -1,
      31, 10, 8, -1,
      8, 6, 31, -1,
      31, 6, 4, -1,
      31, 4, 2, -1,
      119, 143, 118, -1,
      118, 143, 140, -1,
      118, 140, 121, -1,
      121, 140, 138, -1,
      121, 138, 123, -1,
      123, 138, 136, -1,
      123, 136, 125, -1,
      125, 136, 134, -1,
      125, 134, 127, -1,
      127, 134, 132, -1,
      127, 132, 129, -1,
      129, 132, 130, -1,
      129, 130, 17, -1,
      17, 130, 23, -1,
      17, 23, 19, -1,
      19, 23, 10, -1,
      19, 10, 21, -1,
      21, 10, 31, -1,
      16, 22, 14, -1,
      14, 22, 24, -1,
      22, 16, 11, -1,
      11, 16, 18, -1,
      0, 3, 32, -1,
      32, 3, 5, -1,
      32, 5, 7, -1,
      18, 20, 11, -1,
      11, 20, 32, -1,
      11, 32, 9, -1,
      9, 32, 7, -1,
      14, 24, 12, -1,
      12, 24, 26, -1,
      12, 26, 30, -1,
      30, 26, 33, -1,
      33, 26, 114, -1,
      33, 114, 112, -1,
      112, 110, 33, -1,
      33, 110, 108, -1,
      33, 108, 35, -1,
    ]
  }
}

Shape {
  appearance Appearance {
    material Material {
      diffuseColor 1.0000 1.0000 1.0000
      specularColor 0.5020 0.5020 0.5020
      ambientIntensity 0.2
      transparency 0.0000
      shininess 0.5
    }
  }
  geometry IndexedFaceSet {
    ccw TRUE
    solid FALSE
    coord DEF co Coordinate {
      point [
        0.614421 -0.496461 0.177165,
        0.613088 -0.506631 0.177165,
        0.611442 -0.511492 0.177165,
        0.609176 -0.516094 0.177165,
        0.606330 -0.520358 0.177165,
        0.602952 -0.524212 0.177165,
        0.599098 -0.527590 0.177165,
        0.594834 -0.530436 0.177165,
        0.590232 -0.532702 0.177165,
        0.585371 -0.534347 0.177165,
        0.575201 -0.535681 0.177165,
        0.614421 -0.251720 0.177165,
        0.597199 -0.268943 0.374016,
        0.330461 -0.535681 0.177165,
        0.347683 -0.518459 0.374016,
      ]
    }
    coordIndex [
      13, 11, 14, -1,
      14, 11, 12, -1,
      0, 11, 10, -1,
      10, 11, 13, -1,
      3, 2, 8, -1,
      10, 9, 0, -1,
      0, 9, 8, -1,
      0, 8, 1, -1,
      1, 8, 2, -1,
      8, 7, 3, -1,
      3, 7, 6, -1,
      3, 6, 4, -1,
      4, 6, 5, -1,
    ]
  }
}

Shape {
  appearance Appearance {
    material Material {
      diffuseColor 0.0000 0.0000 0.0000
      specularColor 0.0000 0.0000 0.0000
      ambientIntensity 0.2
      transparency 0.0000
      shininess 0.5
    }
  }
  geometry IndexedFaceSet {
    ccw TRUE
    solid FALSE
    coord DEF co Coordinate {
      point [
        -0.035739 -0.023871 -0.374016,
        -0.035739 -0.032514 -0.374016,
        0.006511 -0.032514 -0.374016,
        -0.033819 0.037584 -0.374016,
        -0.004052 0.037584 -0.374016,
        -0.004052 0.011658 -0.374016,
        0.021875 -0.028433 -0.374016,
        0.021875 -0.019790 -0.374016,
        0.006511 0.046226 -0.374016,
        0.030269 -0.031879 -0.374016,
        0.038225 -0.032994 -0.374016,
        -0.004052 0.003015 -0.374016,
        -0.004052 -0.023871 -0.374016,
        -0.031898 0.003015 -0.374016,
        -0.031898 0.011658 -0.374016,
        0.060876 -0.029841 -0.374016,
        0.087172 -0.032514 -0.374016,
        0.053244 -0.032468 -0.374016,
        0.048171 -0.032994 -0.374016,
        -0.033819 0.046226 -0.374016,
        0.076294 0.025487 -0.374016,
        0.071680 0.032849 -0.374016,
        0.116939 0.046226 -0.374016,
        0.048069 0.037674 -0.374016,
        0.053962 0.035547 -0.374016,
        0.023287 -0.020572 -0.374016,
        0.059412 0.031901 -0.374016,
        0.064167 0.026652 -0.374016,
        0.069887 0.006016 -0.374016,
        0.069090 -0.002508 -0.374016,
        0.066951 -0.009281 -0.374016,
        0.049430 -0.024008 -0.374016,
        0.042085 -0.024831 -0.374016,
        0.055167 -0.021896 -0.374016,
        0.060000 -0.018639 -0.374016,
        0.063694 -0.014741 -0.374016,
        0.031633 -0.023672 -0.374016,
        0.067413 0.020572 -0.374016,
        0.069512 0.012143 -0.374016,
        0.064570 0.039686 -0.374016,
        0.127502 0.046226 -0.374016,
        0.127502 -0.032514 -0.374016,
        0.067210 -0.025796 -0.374016,
        0.073124 -0.019570 -0.374016,
        0.087172 -0.023871 -0.374016,
        0.077319 -0.012083 -0.374016,
        0.116939 -0.023871 -0.374016,
        0.079689 -0.003748 -0.374016,
        0.080450 0.005371 -0.374016,
        0.079318 0.016566 -0.374016,
        0.057092 0.043991 -0.374016,
        0.048314 0.046541 -0.374016,
        0.040405 0.047187 -0.374016,
        0.030979 0.046536 -0.374016,
        0.021875 0.044066 -0.374016,
        0.021875 0.033503 -0.374016,
        0.030744 0.037301 -0.374016,
        0.040315 0.038544 -0.374016,
        0.041388 -0.033437 -0.374016,
        0.043541 -0.033474 -0.374016,
        -0.120241 -0.032514 -0.374016,
        -0.110548 -0.010933 -0.374016,
        -0.106032 -0.017976 -0.374016,
        -0.191299 -0.032514 -0.374016,
        -0.160572 0.046226 -0.374016,
        -0.150009 0.046226 -0.374016,
        -0.179776 -0.032514 -0.374016,
        -0.099551 -0.024181 -0.374016,
        -0.091330 -0.028959 -0.374016,
        -0.082257 -0.031663 -0.374016,
        -0.072514 -0.032514 -0.374016,
        -0.051104 -0.032514 -0.374016,
        -0.051104 0.046226 -0.374016,
        -0.073324 0.046226 -0.374016,
        -0.102565 0.035960 -0.374016,
        -0.108133 0.029785 -0.374016,
        -0.111793 0.023014 -0.374016,
        -0.084700 0.045011 -0.374016,
        -0.093913 0.041776 -0.374016,
        -0.102483 0.036032 -0.374016,
        -0.131764 -0.032514 -0.374016,
        -0.139281 -0.010428 -0.374016,
        -0.171809 -0.010428 -0.374016,
        -0.113907 0.015256 -0.374016,
        -0.114480 0.007847 -0.374016,
        -0.113375 -0.002691 -0.374016,
        -0.160572 0.046226 -0.373622,
        -0.191299 -0.032514 -0.373622,
        -0.179776 -0.032514 -0.373622,
        -0.171809 -0.010428 -0.373622,
        -0.139281 -0.010428 -0.373622,
        -0.131764 -0.032514 -0.373622,
        -0.120241 -0.032514 -0.373622,
        -0.150009 0.046226 -0.373622,
        -0.141937 -0.001786 -0.373622,
        -0.168269 -0.001786 -0.373622,
        -0.153685 0.031103 -0.373622,
        -0.154443 0.033833 -0.373622,
        -0.154945 0.036624 -0.373622,
        -0.155200 0.036624 -0.373622,
        -0.155714 0.033842 -0.373622,
        -0.156415 0.031103 -0.373622,
        -0.141937 -0.001786 -0.374016,
        -0.168269 -0.001786 -0.374016,
        -0.153685 0.031103 -0.374016,
        -0.154443 0.033833 -0.374016,
        -0.154945 0.036624 -0.374016,
        -0.155200 0.036624 -0.374016,
        -0.155714 0.033842 -0.374016,
        -0.156415 0.031103 -0.374016,
        -0.072514 -0.032514 -0.373622,
        -0.051104 -0.032514 -0.373622,
        -0.051104 0.046226 -0.373622,
        -0.073324 0.046226 -0.373622,
        -0.114480 0.007847 -0.373622,
        -0.113907 0.015256 -0.373622,
        -0.111793 0.023014 -0.373622,
        -0.108133 0.029785 -0.373622,
        -0.102565 0.035960 -0.373622,
        -0.102483 0.036032 -0.373622,
        -0.093913 0.041776 -0.373622,
        -0.084700 0.045011 -0.373622,
        -0.082257 -0.031663 -0.373622,
        -0.091330 -0.028959 -0.373622,
        -0.099551 -0.024181 -0.373622,
        -0.106032 -0.017976 -0.373622,
        -0.110548 -0.010933 -0.373622,
        -0.113375 -0.002691 -0.373622,
        -0.098674 0.026543 -0.373622,
        -0.094850 0.030604 -0.373622,
        -0.089098 0.034319 -0.373622,
        -0.082599 0.036594 -0.373622,
        -0.073279 0.037584 -0.373622,
        -0.061666 0.037584 -0.373622,
        -0.061666 -0.023871 -0.373622,
        -0.072844 -0.023871 -0.373622,
        -0.081151 -0.023098 -0.373622,
        -0.087777 -0.021030 -0.373622,
        -0.093147 -0.017841 -0.373622,
        -0.097563 -0.013479 -0.373622,
        -0.100885 -0.008050 -0.373622,
        -0.103194 -0.000648 -0.373622,
        -0.103917 0.007622 -0.373622,
        -0.103248 0.015458 -0.373622,
        -0.101410 0.021686 -0.373622,
        -0.073279 0.037584 -0.374016,
        -0.061666 0.037584 -0.374016,
        -0.082599 0.036594 -0.374016,
        -0.089098 0.034319 -0.374016,
        -0.094850 0.030604 -0.374016,
        -0.098674 0.026543 -0.374016,
        -0.101410 0.021686 -0.374016,
        -0.103248 0.015458 -0.374016,
        -0.103917 0.007622 -0.374016,
        -0.103194 -0.000648 -0.374016,
        -0.100885 -0.008050 -0.374016,
        -0.097563 -0.013479 -0.374016,
        -0.093147 -0.017841 -0.374016,
        -0.087777 -0.021030 -0.374016,
        -0.081151 -0.023098 -0.374016,
        -0.072844 -0.023871 -0.374016,
        -0.061666 -0.023871 -0.374016,
        -0.035739 -0.023871 -0.373622,
        -0.035739 -0.032514 -0.373622,
        0.006511 -0.032514 -0.373622,
        0.006511 0.046226 -0.373622,
        -0.033819 0.046226 -0.373622,
        -0.033819 0.037584 -0.373622,
        -0.004052 0.037584 -0.373622,
        -0.004052 0.011658 -0.373622,
        -0.031898 0.011658 -0.373622,
        -0.031898 0.003015 -0.373622,
        -0.004052 0.003015 -0.373622,
        -0.004052 -0.023871 -0.373622,
        0.021875 -0.019790 -0.373622,
        0.021875 -0.028433 -0.373622,
        0.030269 -0.031879 -0.373622,
        0.043541 -0.033474 -0.373622,
        0.041388 -0.033437 -0.373622,
        0.053244 -0.032468 -0.373622,
        0.060876 -0.029841 -0.373622,
        0.067210 -0.025796 -0.373622,
        0.073124 -0.019570 -0.373622,
        0.077319 -0.012083 -0.373622,
        0.079689 -0.003748 -0.373622,
        0.080450 0.005371 -0.373622,
        0.040405 0.047187 -0.373622,
        0.048314 0.046541 -0.373622,
        0.057092 0.043991 -0.373622,
        0.064570 0.039686 -0.373622,
        0.071680 0.032849 -0.373622,
        0.076294 0.025487 -0.373622,
        0.079318 0.016566 -0.373622,
        0.021875 0.044066 -0.373622,
        0.030979 0.046536 -0.373622,
        0.021875 0.033503 -0.373622,
        0.040315 0.038544 -0.373622,
        0.030744 0.037301 -0.373622,
        0.069887 0.006016 -0.373622,
        0.069512 0.012143 -0.373622,
        0.067413 0.020572 -0.373622,
        0.064167 0.026652 -0.373622,
        0.059412 0.031901 -0.373622,
        0.053962 0.035547 -0.373622,
        0.048069 0.037674 -0.373622,
        0.042085 -0.024831 -0.373622,
        0.049430 -0.024008 -0.373622,
        0.055167 -0.021896 -0.373622,
        0.060000 -0.018639 -0.373622,
        0.063694 -0.014741 -0.373622,
        0.066951 -0.009281 -0.373622,
        0.069090 -0.002508 -0.373622,
        0.023287 -0.020572 -0.373622,
        0.031633 -0.023672 -0.373622,
        0.087172 -0.023871 -0.373622,
        0.087172 -0.032514 -0.373622,
        0.127502 -0.032514 -0.373622,
        0.127502 0.046226 -0.373622,
        0.116939 0.046226 -0.373622,
        0.116939 -0.023871 -0.373622,
      ]
    }
    coordIndex [
      86, 87, 64, -1,
      64, 87, 63, -1,
      87, 88, 63, -1,
      63, 88, 66, -1,
      88, 89, 66, -1,
      66, 89, 82, -1,
      89, 90, 82, -1,
      82, 90, 81, -1,
      90, 91, 81, -1,
      81, 91, 80, -1,
      91, 92, 80, -1,
      80, 92, 60, -1,
      92, 93, 60, -1,
      60, 93, 65, -1,
      93, 86, 65, -1,
      65, 86, 64, -1,
      94, 90, 95, -1,
      95, 90, 89, -1,
      96, 93, 94, -1,
      94, 93, 92, -1,
      94, 92, 90, -1,
      90, 92, 91, -1,
      96, 97, 93, -1,
      93, 97, 98, -1,
      93, 98, 86, -1,
      86, 98, 99, -1,
      86, 99, 100, -1,
      100, 101, 86, -1,
      86, 101, 95, -1,
      86, 95, 87, -1,
      87, 95, 89, -1,
      87, 89, 88, -1,
      94, 95, 102, -1,
      102, 95, 103, -1,
      96, 94, 104, -1,
      104, 94, 102, -1,
      96, 104, 105, -1,
      96, 105, 97, -1,
      97, 105, 106, -1,
      97, 106, 98, -1,
      99, 98, 107, -1,
      107, 98, 106, -1,
      99, 107, 108, -1,
      99, 108, 100, -1,
      100, 108, 109, -1,
      100, 109, 101, -1,
      95, 101, 103, -1,
      103, 101, 109, -1,
      110, 111, 70, -1,
      70, 111, 71, -1,
      111, 112, 71, -1,
      71, 112, 72, -1,
      112, 113, 72, -1,
      72, 113, 73, -1,
      114, 84, 83, -1,
      114, 83, 115, -1,
      115, 83, 76, -1,
      115, 76, 116, -1,
      116, 76, 75, -1,
      116, 75, 117, -1,
      117, 75, 74, -1,
      117, 74, 118, -1,
      118, 74, 79, -1,
      118, 79, 119, -1,
      119, 79, 78, -1,
      119, 78, 120, -1,
      120, 78, 77, -1,
      120, 77, 121, -1,
      121, 77, 73, -1,
      121, 73, 113, -1,
      110, 70, 69, -1,
      110, 69, 122, -1,
      122, 69, 68, -1,
      122, 68, 123, -1,
      123, 68, 67, -1,
      123, 67, 124, -1,
      124, 67, 62, -1,
      124, 62, 125, -1,
      125, 62, 61, -1,
      125, 61, 126, -1,
      126, 61, 85, -1,
      126, 85, 127, -1,
      127, 85, 84, -1,
      127, 84, 114, -1,
      116, 117, 128, -1,
      128, 117, 118, -1,
      128, 118, 129, -1,
      129, 118, 119, -1,
      129, 119, 130, -1,
      130, 119, 120, -1,
      130, 120, 131, -1,
      131, 120, 121, -1,
      131, 121, 132, -1,
      132, 121, 113, -1,
      132, 113, 133, -1,
      133, 113, 112, -1,
      133, 112, 134, -1,
      134, 112, 111, -1,
      134, 111, 135, -1,
      135, 111, 110, -1,
      135, 110, 136, -1,
      136, 110, 122, -1,
      136, 122, 137, -1,
      137, 122, 123, -1,
      137, 123, 138, -1,
      138, 123, 124, -1,
      138, 124, 139, -1,
      139, 124, 125, -1,
      139, 125, 140, -1,
      140, 125, 126, -1,
      140, 126, 141, -1,
      141, 126, 127, -1,
      141, 127, 142, -1,
      142, 127, 114, -1,
      142, 114, 143, -1,
      143, 114, 115, -1,
      143, 115, 144, -1,
      144, 115, 116, -1,
      144, 116, 128, -1,
      132, 133, 145, -1,
      145, 133, 146, -1,
      132, 145, 147, -1,
      132, 147, 131, -1,
      131, 147, 148, -1,
      131, 148, 130, -1,
      130, 148, 149, -1,
      130, 149, 129, -1,
      129, 149, 150, -1,
      129, 150, 128, -1,
      128, 150, 151, -1,
      128, 151, 144, -1,
      144, 151, 152, -1,
      144, 152, 143, -1,
      143, 152, 153, -1,
      143, 153, 142, -1,
      142, 153, 154, -1,
      142, 154, 141, -1,
      141, 154, 155, -1,
      141, 155, 140, -1,
      140, 155, 156, -1,
      140, 156, 139, -1,
      139, 156, 157, -1,
      139, 157, 138, -1,
      138, 157, 158, -1,
      138, 158, 137, -1,
      137, 158, 159, -1,
      137, 159, 136, -1,
      136, 159, 160, -1,
      136, 160, 135, -1,
      134, 135, 161, -1,
      161, 135, 160, -1,
      133, 134, 146, -1,
      146, 134, 161, -1,
      162, 163, 0, -1,
      0, 163, 1, -1,
      163, 164, 1, -1,
      1, 164, 2, -1,
      164, 165, 2, -1,
      2, 165, 8, -1,
      165, 166, 8, -1,
      8, 166, 19, -1,
      166, 167, 19, -1,
      19, 167, 3, -1,
      167, 168, 3, -1,
      3, 168, 4, -1,
      168, 169, 4, -1,
      4, 169, 5, -1,
      169, 170, 5, -1,
      5, 170, 14, -1,
      170, 171, 14, -1,
      14, 171, 13, -1,
      171, 172, 13, -1,
      13, 172, 11, -1,
      172, 173, 11, -1,
      11, 173, 12, -1,
      173, 162, 12, -1,
      12, 162, 0, -1,
      164, 163, 162, -1,
      162, 173, 164, -1,
      164, 173, 172, -1,
      164, 172, 165, -1,
      167, 166, 168, -1,
      168, 166, 165, -1,
      168, 165, 169, -1,
      169, 165, 172, -1,
      169, 172, 170, -1,
      170, 172, 171, -1,
      174, 175, 7, -1,
      7, 175, 6, -1,
      6, 175, 176, -1,
      177, 59, 58, -1,
      177, 58, 178, -1,
      178, 58, 10, -1,
      178, 10, 176, -1,
      176, 10, 9, -1,
      176, 9, 6, -1,
      59, 177, 18, -1,
      18, 177, 179, -1,
      18, 179, 17, -1,
      17, 179, 180, -1,
      17, 180, 15, -1,
      15, 180, 181, -1,
      15, 181, 42, -1,
      42, 181, 182, -1,
      42, 182, 43, -1,
      43, 182, 183, -1,
      43, 183, 45, -1,
      45, 183, 184, -1,
      45, 184, 47, -1,
      47, 184, 185, -1,
      47, 185, 48, -1,
      186, 52, 51, -1,
      186, 51, 187, -1,
      187, 51, 50, -1,
      187, 50, 188, -1,
      188, 50, 39, -1,
      188, 39, 189, -1,
      189, 39, 21, -1,
      189, 21, 190, -1,
      190, 21, 20, -1,
      190, 20, 191, -1,
      191, 20, 49, -1,
      191, 49, 192, -1,
      192, 49, 48, -1,
      192, 48, 185, -1,
      193, 54, 53, -1,
      193, 53, 194, -1,
      194, 53, 52, -1,
      194, 52, 186, -1,
      193, 195, 54, -1,
      54, 195, 55, -1,
      196, 57, 56, -1,
      196, 56, 197, -1,
      197, 56, 55, -1,
      197, 55, 195, -1,
      198, 28, 38, -1,
      198, 38, 199, -1,
      199, 38, 37, -1,
      199, 37, 200, -1,
      200, 37, 27, -1,
      200, 27, 201, -1,
      201, 27, 26, -1,
      201, 26, 202, -1,
      202, 26, 24, -1,
      202, 24, 203, -1,
      203, 24, 23, -1,
      203, 23, 204, -1,
      204, 23, 57, -1,
      204, 57, 196, -1,
      205, 32, 31, -1,
      205, 31, 206, -1,
      206, 31, 33, -1,
      206, 33, 207, -1,
      207, 33, 34, -1,
      207, 34, 208, -1,
      208, 34, 35, -1,
      208, 35, 209, -1,
      209, 35, 30, -1,
      209, 30, 210, -1,
      210, 30, 29, -1,
      210, 29, 211, -1,
      211, 29, 28, -1,
      211, 28, 198, -1,
      174, 7, 25, -1,
      174, 25, 212, -1,
      212, 25, 36, -1,
      212, 36, 213, -1,
      213, 36, 32, -1,
      213, 32, 205, -1,
      206, 177, 205, -1,
      205, 177, 178, -1,
      205, 178, 213, -1,
      213, 178, 176, -1,
      213, 176, 212, -1,
      212, 176, 175, -1,
      212, 175, 174, -1,
      195, 193, 197, -1,
      197, 193, 194, -1,
      197, 194, 196, -1,
      196, 194, 186, -1,
      196, 186, 204, -1,
      204, 186, 187, -1,
      204, 187, 203, -1,
      203, 187, 188, -1,
      203, 188, 202, -1,
      202, 188, 189, -1,
      202, 189, 201, -1,
      201, 189, 190, -1,
      201, 190, 200, -1,
      200, 190, 191, -1,
      200, 191, 199, -1,
      199, 191, 192, -1,
      199, 192, 198, -1,
      198, 192, 185, -1,
      198, 185, 211, -1,
      211, 185, 184, -1,
      211, 184, 210, -1,
      210, 184, 183, -1,
      210, 183, 209, -1,
      209, 183, 182, -1,
      209, 182, 208, -1,
      208, 182, 181, -1,
      208, 181, 207, -1,
      207, 181, 180, -1,
      207, 180, 206, -1,
      206, 180, 179, -1,
      206, 179, 177, -1,
      214, 215, 44, -1,
      44, 215, 16, -1,
      215, 216, 16, -1,
      16, 216, 41, -1,
      216, 217, 41, -1,
      41, 217, 40, -1,
      217, 218, 40, -1,
      40, 218, 22, -1,
      218, 219, 22, -1,
      22, 219, 46, -1,
      219, 214, 46, -1,
      46, 214, 44, -1,
      218, 217, 219, -1,
      219, 217, 216, -1,
      219, 216, 214, -1,
      214, 216, 215, -1,
    ]
  }
}

Shape {
  appearance Appearance {
    material Material {
      diffuseColor 1.0000 1.0000 1.0000
      specularColor 0.5020 0.5020 0.5020
      ambientIntensity 0.2
      transparency 0.0000
      shininess 0.5
    }
  }
  geometry IndexedFaceSet {
    ccw TRUE
    solid FALSE
    coord DEF co Coordinate {
      point [
        0.472441 0.000000 0.374016,
        0.361911 0.303679 0.374016,
        0.082039 0.465263 0.374016,
        -0.236220 0.409146 0.374016,
        -0.443949 0.161584 0.374016,
        -0.443949 -0.161584 0.374016,
        -0.236220 -0.409146 0.374016,
        0.082039 -0.465263 0.374016,
        0.361911 -0.303679 0.374016,
        -0.226755 -0.290233 -0.216535,
        -0.184156 -0.318967 -0.216535,
        0.336469 0.149806 -0.216535,
        0.312345 0.195175 -0.216535,
        0.282143 -0.236746 -0.216535,
        0.312345 -0.195175 -0.216535,
        0.364726 -0.051259 -0.216535,
        0.368311 -0.000000 -0.216535,
        0.364726 0.051259 -0.216535,
        0.354043 0.101520 -0.216535,
        0.113814 -0.350284 -0.216535,
        0.161457 -0.331035 -0.216535,
        0.282143 0.236746 -0.216535,
        0.246448 0.273708 -0.216535,
        0.205957 0.305344 -0.216535,
        0.336469 -0.149806 -0.216535,
        0.354043 -0.101520 -0.216535,
        -0.038499 -0.366293 -0.216535,
        0.012854 -0.368087 -0.216535,
        0.063957 -0.362715 -0.216535,
        0.205957 -0.305344 -0.216535,
        0.246448 -0.273708 -0.216535,
        -0.297970 0.216488 -0.216535,
        -0.325199 0.172911 -0.216535,
        -0.346099 0.125970 -0.216535,
        -0.360262 0.076576 -0.216535,
        -0.346099 -0.125970 -0.216535,
        -0.325199 -0.172911 -0.216535,
        0.161457 0.331035 -0.216535,
        0.113814 0.350284 -0.216535,
        0.063957 0.362715 -0.216535,
        -0.137972 -0.341492 -0.216535,
        -0.089102 -0.357370 -0.216535,
        -0.297970 -0.216488 -0.216535,
        -0.264941 -0.255850 -0.216535,
        -0.137972 0.341492 -0.216535,
        -0.184156 0.318967 -0.216535,
        -0.367414 0.025692 -0.216535,
        -0.367414 -0.025692 -0.216535,
        -0.360262 -0.076576 -0.216535,
        0.012854 0.368087 -0.216535,
        -0.038499 0.366293 -0.216535,
        -0.089102 0.357370 -0.216535,
        -0.226755 0.290233 -0.216535,
        -0.264941 0.255850 -0.216535,
        0.207104 -0.424627 0.374016,
        0.145992 -0.449318 0.374016,
        -0.462117 -0.098226 0.374016,
        0.264185 -0.391671 0.374016,
        -0.114294 -0.458407 0.374016,
        -0.176980 -0.438040 0.374016,
        0.431596 -0.192159 0.374016,
        0.454139 -0.130222 0.374016,
        0.467843 -0.065751 0.374016,
        0.400653 -0.250356 0.374016,
        0.316125 -0.351092 0.374016,
        -0.471290 -0.032956 0.374016,
        -0.471290 0.032956 0.374016,
        -0.462117 0.098226 0.374016,
        0.145992 0.449318 0.374016,
        0.207104 0.424627 0.374016,
        0.016488 -0.472153 0.374016,
        -0.049383 -0.469853 0.374016,
        -0.176980 0.438040 0.374016,
        -0.114294 0.458407 0.374016,
        0.431596 0.192159 0.374016,
        0.454139 0.130222 0.374016,
        0.467843 0.065751 0.374016,
        -0.382213 -0.277694 0.374016,
        -0.417141 -0.221798 0.374016,
        -0.290864 -0.372289 0.374016,
        -0.339846 -0.328185 0.374016,
        -0.049383 0.469853 0.374016,
        0.016488 0.472153 0.374016,
        -0.339846 0.328185 0.374016,
        -0.290864 0.372289 0.374016,
        -0.417141 0.221798 0.374016,
        -0.382213 0.277694 0.374016,
        0.264185 0.391671 0.374016,
        0.316125 0.351092 0.374016,
        0.400653 0.250356 0.374016,
        -0.141937 -0.001786 -0.374016,
        -0.168269 -0.001786 -0.374016,
        -0.153685 0.031103 -0.374016,
        -0.154443 0.033833 -0.374016,
        -0.154945 0.036624 -0.374016,
        -0.155200 0.036624 -0.374016,
        -0.155714 0.033842 -0.374016,
        -0.156415 0.031103 -0.374016,
        -0.073279 0.037584 -0.374016,
        -0.061666 0.037584 -0.374016,
        -0.082599 0.036594 -0.374016,
        -0.089098 0.034319 -0.374016,
        -0.094850 0.030604 -0.374016,
        -0.098674 0.026543 -0.374016,
        -0.101410 0.021686 -0.374016,
        -0.103248 0.015458 -0.374016,
        -0.103917 0.007622 -0.374016,
        -0.103194 -0.000648 -0.374016,
        -0.100885 -0.008050 -0.374016,
        -0.097563 -0.013479 -0.374016,
        -0.093147 -0.017841 -0.374016,
        -0.087777 -0.021030 -0.374016,
        -0.081151 -0.023098 -0.374016,
        -0.072844 -0.023871 -0.374016,
        -0.061666 -0.023871 -0.374016,
      ]
    }
    coordIndex [
      90, 91, 92, -1,
      92, 91, 97, -1,
      92, 97, 93, -1,
      93, 97, 96, -1,
      93, 96, 94, -1,
      94, 96, 95, -1,
      99, 114, 98, -1,
      98, 114, 113, -1,
      98, 113, 112, -1,
      106, 105, 98, -1,
      98, 105, 104, -1,
      98, 104, 100, -1,
      112, 111, 98, -1,
      98, 111, 110, -1,
      98, 110, 109, -1,
      109, 108, 98, -1,
      98, 108, 107, -1,
      98, 107, 106, -1,
      103, 102, 104, -1,
      104, 102, 101, -1,
      104, 101, 100, -1,
      17, 76, 18, -1,
      18, 76, 75, -1,
      18, 75, 11, -1,
      11, 75, 74, -1,
      11, 74, 12, -1,
      12, 74, 89, -1,
      12, 89, 21, -1,
      21, 89, 1, -1,
      21, 1, 22, -1,
      22, 1, 88, -1,
      22, 88, 23, -1,
      23, 88, 87, -1,
      23, 87, 37, -1,
      37, 87, 69, -1,
      37, 69, 38, -1,
      38, 69, 68, -1,
      38, 68, 39, -1,
      39, 68, 2, -1,
      39, 2, 49, -1,
      49, 2, 82, -1,
      49, 82, 50, -1,
      50, 82, 81, -1,
      50, 81, 51, -1,
      51, 81, 73, -1,
      51, 73, 44, -1,
      44, 73, 72, -1,
      44, 72, 45, -1,
      45, 72, 3, -1,
      45, 3, 52, -1,
      52, 3, 84, -1,
      52, 84, 53, -1,
      53, 84, 83, -1,
      53, 83, 31, -1,
      31, 83, 86, -1,
      31, 86, 32, -1,
      32, 86, 85, -1,
      32, 85, 33, -1,
      33, 85, 4, -1,
      33, 4, 34, -1,
      34, 4, 67, -1,
      34, 67, 46, -1,
      46, 67, 66, -1,
      46, 66, 47, -1,
      47, 66, 65, -1,
      47, 65, 48, -1,
      48, 65, 56, -1,
      48, 56, 35, -1,
      35, 56, 5, -1,
      35, 5, 36, -1,
      36, 5, 78, -1,
      36, 78, 42, -1,
      42, 78, 77, -1,
      42, 77, 43, -1,
      43, 77, 80, -1,
      43, 80, 9, -1,
      9, 80, 79, -1,
      9, 79, 10, -1,
      10, 79, 6, -1,
      10, 6, 40, -1,
      40, 6, 59, -1,
      40, 59, 41, -1,
      41, 59, 58, -1,
      41, 58, 26, -1,
      26, 58, 71, -1,
      26, 71, 27, -1,
      27, 71, 70, -1,
      27, 70, 28, -1,
      28, 70, 7, -1,
      28, 7, 19, -1,
      19, 7, 55, -1,
      19, 55, 20, -1,
      20, 55, 54, -1,
      20, 54, 29, -1,
      29, 54, 57, -1,
      29, 57, 30, -1,
      30, 57, 64, -1,
      30, 64, 13, -1,
      13, 64, 8, -1,
      13, 8, 14, -1,
      14, 8, 63, -1,
      14, 63, 24, -1,
      24, 63, 60, -1,
      24, 60, 25, -1,
      25, 60, 61, -1,
      25, 61, 15, -1,
      15, 61, 62, -1,
      15, 62, 16, -1,
      16, 62, 0, -1,
      16, 0, 17, -1,
      17, 0, 76, -1,
    ]
  }
}

Shape {
  appearance Appearance {
    material Material {
      diffuseColor 0.2510 0.2510 0.2510
      specularColor 0.1255 0.1255 0.1255
      ambientIntensity 0.2
      transparency 0.0000
      shininess 0.5
    }
  }
  geometry IndexedFaceSet {
    ccw TRUE
    solid FALSE
    coord DEF co Coordinate {
      point [
        -0.059804 -0.058095 -0.216535,
        0.059804 0.058095 -0.216535,
        0.059804 -0.058095 -0.216535,
        -0.059804 0.058095 -0.216535,
        0.059804 0.058095 -0.177165,
        0.059804 -0.058095 -0.177165,
        -0.059804 0.058095 -0.177165,
        -0.059804 -0.058095 -0.177165,
      ]
    }
    coordIndex [
      4, 5, 1, -1,
      1, 5, 2, -1,
      6, 4, 3, -1,
      3, 4, 1, -1,
      7, 6, 0, -1,
      0, 6, 3, -1,
      5, 7, 2, -1,
      2, 7, 0, -1,
      6, 7, 4, -1,
      4, 7, 5, -1,
    ]
  }
}
