#VRML V2.0 utf8

Shape {
  appearance Appearance {
    material Material {
      diffuseColor 0.1490 0.1490 0.1490
      specularColor 0.0745 0.0745 0.0745
      ambientIntensity 0.2
      transparency 0.0000
      shininess 0.5
    }
  }
  geometry IndexedFaceSet {
    ccw TRUE
    solid FALSE
    coord DEF co Coordinate {
      point [
        0.068127 -0.107863 0.196850,
        0.068127 0.049617 0.196850,
        0.084279 0.089820 0.196850,
        -0.048974 -0.107863 0.196850,
        -0.048974 0.049617 0.196850,
        -0.034841 0.089820 0.196850,
        2.000000 0.089820 0.196850,
        2.029528 0.255906 0.196850,
        2.374016 0.089820 0.196850,
        2.068898 0.255906 0.196850,
        2.374016 0.125984 0.196850,
        2.157480 0.374016 0.196850,
        2.625984 0.125984 0.196850,
        2.940945 0.374016 0.196850,
        2.950787 0.360893 0.196850,
        2.625984 0.089820 0.196850,
        2.950787 0.089820 0.196850,
        2.625984 -0.125984 0.196850,
        2.950787 -0.360893 0.196850,
        2.940945 -0.374016 0.196850,
        2.374016 -0.125984 0.196850,
        2.157480 -0.374016 0.196850,
        2.068898 -0.255906 0.196850,
        2.029528 -0.255906 0.196850,
        2.000000 -0.295276 0.196850,
        1.625984 0.089820 0.196850,
        1.625984 0.125984 0.196850,
        2.000000 0.295276 0.196850,
        1.000000 0.089820 0.196850,
        1.029528 0.255906 0.196850,
        1.374016 0.089820 0.196850,
        1.068898 0.255906 0.196850,
        1.374016 0.125984 0.196850,
        1.157480 0.374016 0.196850,
        1.940945 0.374016 0.196850,
        1.029528 -0.255906 0.196850,
        1.000000 -0.295276 0.196850,
        1.068898 -0.255906 0.196850,
        1.157480 -0.374016 0.196850,
        1.374016 -0.125984 0.196850,
        1.940945 -0.374016 0.196850,
        1.625984 -0.125984 0.196850,
        0.625984 0.089820 0.196850,
        0.625984 0.125984 0.196850,
        1.000000 0.295276 0.196850,
        0.374016 0.125984 0.196850,
        0.360381 0.374016 0.196850,
        0.940945 0.374016 0.196850,
        0.374016 0.089820 0.196850,
        0.360381 0.089820 0.196850,
        0.374016 -0.125984 0.196850,
        0.360381 -0.374016 0.196850,
        0.940945 -0.374016 0.196850,
        0.625984 -0.125984 0.196850,
        -0.374016 -0.125984 0.196850,
        -0.374016 0.089820 0.196850,
        -0.360899 0.089820 0.196850,
        -0.374016 0.125984 0.196850,
        -0.360899 -0.374016 0.196850,
        -0.842520 -0.374016 0.196850,
        -0.625984 -0.125984 0.196850,
        -0.625984 0.089820 0.196850,
        -0.931102 -0.255906 0.196850,
        -1.000000 0.089820 0.196850,
        -2.000000 0.089820 0.196850,
        -1.970472 0.255906 0.196850,
        -1.625984 0.089820 0.196850,
        -1.931102 0.255906 0.196850,
        -1.625984 0.125984 0.196850,
        -1.842520 0.374016 0.196850,
        -1.374016 0.125984 0.196850,
        -1.059055 0.374016 0.196850,
        -1.000000 0.295276 0.196850,
        -0.970472 -0.255906 0.196850,
        -1.000000 -0.295276 0.196850,
        -1.374016 0.089820 0.196850,
        -1.374016 -0.125984 0.196850,
        -1.059055 -0.374016 0.196850,
        -1.625984 -0.125984 0.196850,
        -1.842520 -0.374016 0.196850,
        -1.931102 -0.255906 0.196850,
        -1.970472 -0.255906 0.196850,
        -2.000000 -0.295276 0.196850,
        -2.374016 0.125984 0.196850,
        -2.059055 0.374016 0.196850,
        -2.000000 0.295276 0.196850,
        -2.374016 0.089820 0.196850,
        -2.788386 0.374016 0.196850,
        -2.625984 0.125984 0.196850,
        -2.788386 0.089820 0.196850,
        -2.625984 0.089820 0.196850,
        -2.788386 -0.374016 0.196850,
        -2.625984 -0.125984 0.196850,
        -2.059055 -0.374016 0.196850,
        -2.374016 -0.125984 0.196850,
        0.029528 0.255906 0.196850,
        0.068898 0.255906 0.196850,
        0.084279 0.276414 0.196850,
        0.262959 0.089820 0.196850,
        -0.034841 0.341730 0.196850,
        -0.059055 0.374016 0.196850,
        -0.360899 0.374016 0.196850,
        -0.842520 0.374016 0.196850,
        -0.625984 0.125984 0.196850,
        -0.931102 0.255906 0.196850,
        -0.970472 0.255906 0.196850,
        -2.842520 0.374016 0.196850,
        -2.931102 0.255906 0.196850,
        -2.950787 0.255906 0.196850,
        -2.950787 0.089820 0.196850,
        -2.950787 -0.255906 0.196850,
        -2.931102 -0.255906 0.196850,
        -2.842520 -0.374016 0.196850,
        -0.273080 0.049617 0.196850,
        -0.275099 0.049617 0.196850,
        -0.059055 -0.374016 0.196850,
        -0.347782 -0.107863 0.196850,
        -0.169813 -0.069717 0.196850,
        -0.159075 -0.085912 0.196850,
        -0.198378 -0.107863 0.196850,
        -0.309138 -0.057389 0.196850,
        -0.237748 -0.057389 0.196850,
        -0.332419 -0.107863 0.196850,
        -0.213804 -0.107863 0.196850,
        -0.080772 0.049617 0.196850,
        -0.105999 0.048654 0.196850,
        -0.130742 0.043939 0.196850,
        -0.146678 0.035889 0.196850,
        -0.147287 -0.096318 0.196850,
        -0.034841 -0.341730 0.196850,
        -0.135438 -0.102429 0.196850,
        -0.116226 -0.106826 0.196850,
        -0.097776 -0.107863 0.196850,
        -0.158180 0.025895 0.196850,
        -0.168219 0.011681 0.196850,
        -0.174802 -0.004745 0.196850,
        -0.177964 -0.023812 0.196850,
        -0.178188 -0.031110 0.196850,
        -0.175972 -0.052167 0.196850,
        0.029528 -0.255906 0.196850,
        -0.020708 -0.107863 0.196850,
        -0.020708 0.049617 0.196850,
        -0.020708 0.033465 0.196850,
        -0.020708 -0.031142 0.196850,
        0.053994 -0.031142 0.196850,
        0.053994 -0.091711 0.196850,
        -0.020708 -0.091711 0.196850,
        -0.020708 -0.014990 0.196850,
        0.053994 -0.014990 0.196850,
        0.053994 0.033465 0.196850,
        0.068898 -0.255906 0.196850,
        0.084279 -0.276414 0.196850,
        0.100431 -0.078872 0.196850,
        0.114333 -0.093440 0.196850,
        0.114709 0.035694 0.196850,
        0.131867 0.046094 0.196850,
        0.146220 0.051019 0.196850,
        0.112797 -0.069502 0.196850,
        0.100431 0.020721 0.196850,
        0.105061 0.026524 0.196850,
        0.239384 -0.021884 0.196850,
        0.239741 -0.029281 0.196850,
        0.170022 0.037504 0.196850,
        0.236014 -0.006586 0.196850,
        0.212371 -0.101842 0.196850,
        0.227592 -0.090918 0.196850,
        0.262959 -0.374016 0.196850,
        0.233904 -0.084361 0.196850,
        0.217632 0.039872 0.196850,
        0.200948 0.048341 0.196850,
        0.181722 0.052904 0.196850,
        0.169139 0.053655 0.196850,
        0.224200 -0.072040 0.196850,
        0.212818 -0.082450 0.196850,
        0.251270 -0.006697 0.196850,
        0.244845 0.009995 0.196850,
        0.234035 0.025498 0.196850,
        0.112797 0.011257 0.196850,
        0.125426 0.023480 0.196850,
        0.121514 -0.078302 0.196850,
        0.140234 0.031844 0.196850,
        0.135441 -0.087841 0.196850,
        0.150602 -0.093570 0.196850,
        0.188642 0.035214 0.196850,
        0.204717 0.028984 0.196850,
        0.237661 -0.046633 0.196850,
        0.232685 -0.059707 0.196850,
        0.147136 0.034294 0.196850,
        0.164530 0.037314 0.196850,
        0.181569 -0.094891 0.196850,
        0.197570 -0.090765 0.196850,
        0.157480 -0.374016 0.196850,
        0.168950 -0.111901 0.196850,
        0.193526 -0.109088 0.196850,
        0.245343 -0.067100 0.196850,
        0.251663 -0.048995 0.196850,
        0.253873 -0.028208 0.196850,
        0.169044 -0.095749 0.196850,
        0.219212 0.018799 0.196850,
        0.228994 0.007378 0.196850,
        0.130637 -0.103724 0.196850,
        0.148544 -0.109806 0.196850,
        0.161083 -0.111615 0.196850,
        0.332613 0.049617 0.196850,
        0.332613 -0.091711 0.196850,
        0.272044 -0.091711 0.196850,
        0.272044 -0.107863 0.196850,
        0.346746 0.049617 0.196850,
        0.346746 -0.107863 0.196850,
        0.262959 0.374016 0.196850,
        0.157480 0.374016 0.196850,
        0.157480 0.374016 0.000000,
        0.246063 0.492126 0.000000,
        0.940945 0.374016 0.000000,
        0.852362 0.492126 0.000000,
        1.852362 0.492126 0.000000,
        1.940945 0.374016 0.000000,
        1.246063 0.492126 0.000000,
        1.157480 0.374016 0.000000,
        -1.842520 0.374016 0.000000,
        -1.753937 0.492126 0.000000,
        -1.059055 0.374016 0.000000,
        -1.147638 0.492126 0.000000,
        -0.147638 0.492126 0.000000,
        -0.059055 0.374016 0.000000,
        -0.753937 0.492126 0.000000,
        -0.842520 0.374016 0.000000,
        0.246063 -0.492126 0.000000,
        0.157480 -0.374016 0.000000,
        0.852362 -0.492126 0.000000,
        0.940945 -0.374016 0.000000,
        1.940945 -0.374016 0.000000,
        1.852362 -0.492126 0.000000,
        1.157480 -0.374016 0.000000,
        1.246063 -0.492126 0.000000,
        -1.059055 -0.374016 0.000000,
        -1.147638 -0.492126 0.000000,
        -1.842520 -0.374016 0.000000,
        -1.753937 -0.492126 0.000000,
        -0.059055 -0.374016 0.000000,
        -0.147638 -0.492126 0.000000,
        -0.842520 -0.374016 0.000000,
        -0.753937 -0.492126 0.000000,
        0.852362 -0.492126 0.984252,
        0.246063 -0.492126 0.984252,
        1.246063 -0.492126 0.984252,
        1.852362 -0.492126 0.984252,
        -1.753937 -0.492126 0.984252,
        -1.147638 -0.492126 0.984252,
        -0.753937 -0.492126 0.984252,
        -0.147638 -0.492126 0.984252,
        0.852362 0.492126 0.984252,
        0.246063 0.492126 0.984252,
        1.246063 0.492126 0.984252,
        1.852362 0.492126 0.984252,
        -1.147638 0.492126 0.984252,
        -1.753937 0.492126 0.984252,
        -0.753937 0.492126 0.984252,
        -0.147638 0.492126 0.984252,
        -2.753937 0.492126 0.000000,
        -2.147638 0.492126 0.000000,
        -2.842520 0.374016 0.000000,
        -2.059055 0.374016 0.000000,
        2.852362 0.492126 0.000000,
        2.940945 0.374016 0.000000,
        2.246063 0.492126 0.000000,
        2.157480 0.374016 0.000000,
        2.940945 -0.374016 0.000000,
        2.852362 -0.492126 0.000000,
        2.157480 -0.374016 0.000000,
        2.246063 -0.492126 0.000000,
        -2.147638 0.492126 0.984252,
        -2.753937 0.492126 0.984252,
        2.246063 -0.492126 0.984252,
        2.788386 -0.492126 0.984252,
        2.852362 -0.492126 0.984252,
        2.950787 -0.360893 0.984252,
        2.950787 -0.309055 0.984252,
        2.950787 0.250000 0.196850,
        2.950787 0.360893 0.984252,
        2.852362 0.492126 0.984252,
        2.788386 0.492126 0.984252,
        2.246063 0.492126 0.984252,
        -2.950787 -0.255906 0.984252,
        -2.950787 0.250000 0.196850,
        -2.950787 0.255906 0.984252,
        -2.753937 -0.492126 0.000000,
        -2.147638 -0.492126 0.000000,
        -2.753937 -0.492126 0.984252,
        -2.147638 -0.492126 0.984252,
        1.625984 0.125984 0.984252,
        1.625984 -0.125984 0.984252,
        1.989665 -0.309055 0.984252,
        -2.374016 0.125984 0.984252,
        -2.374016 -0.125984 0.984252,
        -2.010335 -0.309055 0.984252,
        -1.374016 0.125984 0.984252,
        -1.374016 -0.125984 0.984252,
        -1.010335 -0.309055 0.984252,
        -0.374016 0.125984 0.984252,
        -0.374016 -0.125984 0.984252,
        -0.010335 -0.309055 0.984252,
        0.625984 0.125984 0.984252,
        0.625984 -0.125984 0.984252,
        0.989665 -0.309055 0.984252,
        0.108760 -0.309055 0.984252,
        1.000000 -0.295276 0.984252,
        1.000000 0.295276 0.984252,
        0.374016 -0.125984 0.984252,
        0.068898 -0.255906 0.984252,
        0.374016 0.125984 0.984252,
        0.029528 -0.255906 0.984252,
        0.068898 0.255906 0.984252,
        0.000000 -0.295276 0.984252,
        -0.625984 -0.125984 0.984252,
        -0.891240 -0.309055 0.984252,
        0.029528 0.255906 0.984252,
        0.000000 0.295276 0.984252,
        -0.931102 -0.255906 0.984252,
        -0.625984 0.125984 0.984252,
        -0.970472 -0.255906 0.984252,
        -0.931102 0.255906 0.984252,
        -1.000000 -0.295276 0.984252,
        -1.625984 -0.125984 0.984252,
        -1.891240 -0.309055 0.984252,
        -0.970472 0.255906 0.984252,
        -1.000000 0.295276 0.984252,
        -1.931102 -0.255906 0.984252,
        -1.625984 0.125984 0.984252,
        -1.970472 -0.255906 0.984252,
        -1.931102 0.255906 0.984252,
        -2.000000 -0.295276 0.984252,
        -2.625984 -0.125984 0.984252,
        -2.891240 -0.309055 0.984252,
        -1.970472 0.255906 0.984252,
        -2.000000 0.295276 0.984252,
        -2.625984 0.125984 0.984252,
        -2.931102 0.255906 0.984252,
        -2.931102 -0.255906 0.984252,
        1.374016 -0.125984 0.984252,
        1.108760 -0.309055 0.984252,
        2.000000 -0.295276 0.984252,
        2.000000 0.295276 0.984252,
        1.068898 -0.255906 0.984252,
        1.374016 0.125984 0.984252,
        1.029528 -0.255906 0.984252,
        1.068898 0.255906 0.984252,
        1.029528 0.255906 0.984252,
        2.625984 -0.125984 0.984252,
        2.374016 -0.125984 0.984252,
        2.108760 -0.309055 0.984252,
        2.068898 -0.255906 0.984252,
        2.374016 0.125984 0.984252,
        2.029528 -0.255906 0.984252,
        2.788386 -0.309055 0.984252,
        2.625984 0.125984 0.984252,
        2.068898 0.255906 0.984252,
        2.029528 0.255906 0.984252,
        -2.059055 -0.374016 0.000000,
        -2.842520 -0.374016 0.000000,
      ]
    }
    coordIndex [
      0, 1, 2, -1,
      3, 4, 5, -1,
      6, 7, 8, -1,
      8, 7, 9, -1,
      8, 9, 10, -1,
      10, 9, 11, -1,
      10, 11, 12, -1,
      11, 13, 12, -1,
      12, 13, 14, -1,
      12, 14, 15, -1,
      15, 14, 16, -1,
      15, 16, 17, -1,
      16, 18, 17, -1,
      17, 18, 19, -1,
      17, 19, 20, -1,
      20, 19, 21, -1,
      20, 21, 8, -1,
      8, 21, 22, -1,
      8, 22, 6, -1,
      6, 22, 23, -1,
      6, 23, 24, -1,
      25, 26, 27, -1,
      28, 29, 30, -1,
      30, 29, 31, -1,
      30, 31, 32, -1,
      32, 31, 33, -1,
      32, 33, 26, -1,
      26, 33, 34, -1,
      26, 34, 27, -1,
      35, 36, 28, -1,
      35, 28, 37, -1,
      37, 28, 30, -1,
      37, 30, 38, -1,
      38, 30, 39, -1,
      38, 39, 40, -1,
      40, 39, 41, -1,
      40, 41, 24, -1,
      24, 41, 25, -1,
      24, 25, 6, -1,
      6, 25, 27, -1,
      6, 27, 7, -1,
      42, 43, 44, -1,
      45, 46, 43, -1,
      43, 46, 47, -1,
      43, 47, 44, -1,
      45, 48, 49, -1,
      49, 48, 50, -1,
      49, 50, 51, -1,
      51, 50, 52, -1,
      52, 50, 53, -1,
      52, 53, 36, -1,
      36, 53, 42, -1,
      36, 42, 28, -1,
      28, 42, 44, -1,
      28, 44, 29, -1,
      54, 55, 56, -1,
      56, 55, 57, -1,
      58, 59, 60, -1,
      60, 59, 61, -1,
      61, 59, 62, -1,
      61, 62, 63, -1,
      64, 65, 66, -1,
      66, 65, 67, -1,
      66, 67, 68, -1,
      68, 67, 69, -1,
      68, 69, 70, -1,
      70, 69, 71, -1,
      70, 71, 72, -1,
      62, 73, 63, -1,
      63, 73, 74, -1,
      63, 74, 75, -1,
      75, 74, 76, -1,
      76, 74, 77, -1,
      76, 77, 78, -1,
      78, 77, 79, -1,
      78, 79, 66, -1,
      66, 79, 80, -1,
      66, 80, 64, -1,
      64, 80, 81, -1,
      64, 81, 82, -1,
      83, 84, 85, -1,
      83, 85, 86, -1,
      84, 83, 87, -1,
      87, 83, 88, -1,
      87, 88, 89, -1,
      89, 88, 90, -1,
      89, 90, 91, -1,
      91, 90, 92, -1,
      91, 92, 93, -1,
      93, 92, 94, -1,
      93, 94, 82, -1,
      82, 94, 86, -1,
      82, 86, 64, -1,
      64, 86, 85, -1,
      64, 85, 65, -1,
      95, 96, 2, -1,
      2, 96, 97, -1,
      2, 97, 98, -1,
      5, 99, 95, -1,
      100, 56, 101, -1,
      101, 56, 57, -1,
      101, 57, 102, -1,
      102, 57, 103, -1,
      102, 103, 104, -1,
      104, 103, 61, -1,
      104, 61, 105, -1,
      105, 61, 63, -1,
      105, 63, 72, -1,
      72, 63, 75, -1,
      72, 75, 70, -1,
      106, 87, 107, -1,
      107, 87, 89, -1,
      107, 89, 108, -1,
      108, 89, 109, -1,
      110, 109, 111, -1,
      111, 109, 89, -1,
      111, 89, 112, -1,
      112, 89, 91, -1,
      113, 114, 56, -1,
      115, 58, 116, -1,
      60, 54, 58, -1,
      58, 54, 56, -1,
      58, 56, 116, -1,
      116, 56, 114, -1,
      117, 118, 119, -1,
      120, 121, 122, -1,
      122, 121, 123, -1,
      4, 124, 5, -1,
      5, 124, 125, -1,
      5, 125, 126, -1,
      100, 99, 56, -1,
      56, 99, 5, -1,
      56, 5, 113, -1,
      113, 5, 126, -1,
      113, 126, 127, -1,
      118, 128, 119, -1,
      119, 128, 129, -1,
      119, 129, 123, -1,
      123, 129, 115, -1,
      123, 115, 122, -1,
      122, 115, 116, -1,
      128, 130, 129, -1,
      129, 130, 131, -1,
      129, 131, 132, -1,
      127, 133, 113, -1,
      113, 133, 134, -1,
      113, 134, 135, -1,
      135, 136, 113, -1,
      113, 136, 137, -1,
      113, 137, 119, -1,
      119, 137, 138, -1,
      119, 138, 117, -1,
      139, 129, 140, -1,
      95, 2, 5, -1,
      5, 2, 1, -1,
      5, 1, 141, -1,
      132, 3, 129, -1,
      129, 3, 5, -1,
      129, 5, 142, -1,
      142, 5, 141, -1,
      143, 144, 145, -1,
      140, 129, 146, -1,
      145, 146, 143, -1,
      143, 146, 129, -1,
      143, 129, 147, -1,
      147, 129, 142, -1,
      147, 142, 148, -1,
      148, 142, 149, -1,
      139, 140, 150, -1,
      150, 140, 0, -1,
      150, 0, 151, -1,
      0, 2, 151, -1,
      151, 2, 152, -1,
      151, 152, 153, -1,
      154, 2, 155, -1,
      155, 2, 156, -1,
      157, 152, 158, -1,
      158, 152, 2, -1,
      158, 2, 159, -1,
      159, 2, 154, -1,
      160, 161, 162, -1,
      160, 162, 163, -1,
      164, 165, 166, -1,
      166, 165, 167, -1,
      168, 169, 98, -1,
      98, 169, 170, -1,
      98, 170, 2, -1,
      2, 170, 171, -1,
      2, 171, 156, -1,
      162, 172, 173, -1,
      174, 175, 98, -1,
      98, 175, 176, -1,
      98, 176, 168, -1,
      158, 177, 157, -1,
      157, 177, 178, -1,
      157, 178, 179, -1,
      179, 178, 180, -1,
      179, 180, 181, -1,
      181, 180, 182, -1,
      162, 183, 184, -1,
      161, 185, 162, -1,
      162, 185, 186, -1,
      162, 186, 172, -1,
      187, 188, 189, -1,
      189, 188, 162, -1,
      189, 162, 190, -1,
      190, 162, 173, -1,
      191, 192, 166, -1,
      166, 192, 193, -1,
      166, 193, 164, -1,
      167, 194, 166, -1,
      166, 194, 195, -1,
      166, 195, 196, -1,
      187, 189, 180, -1,
      180, 189, 197, -1,
      180, 197, 182, -1,
      184, 198, 162, -1,
      162, 198, 199, -1,
      162, 199, 163, -1,
      153, 200, 151, -1,
      151, 200, 201, -1,
      151, 201, 191, -1,
      191, 201, 202, -1,
      191, 202, 192, -1,
      203, 204, 98, -1,
      98, 204, 205, -1,
      98, 205, 206, -1,
      203, 98, 207, -1,
      207, 98, 49, -1,
      207, 49, 208, -1,
      208, 49, 51, -1,
      208, 51, 206, -1,
      206, 51, 166, -1,
      206, 166, 98, -1,
      98, 166, 196, -1,
      98, 196, 174, -1,
      45, 49, 46, -1,
      46, 49, 98, -1,
      46, 98, 209, -1,
      209, 98, 97, -1,
      209, 97, 210, -1,
      211, 212, 213, -1,
      213, 212, 214, -1,
      215, 216, 217, -1,
      217, 216, 218, -1,
      219, 220, 221, -1,
      221, 220, 222, -1,
      223, 224, 225, -1,
      225, 224, 226, -1,
      227, 228, 229, -1,
      229, 228, 230, -1,
      231, 232, 233, -1,
      233, 232, 234, -1,
      235, 236, 237, -1,
      237, 236, 238, -1,
      239, 240, 241, -1,
      241, 240, 242, -1,
      243, 244, 229, -1,
      229, 244, 227, -1,
      234, 232, 245, -1,
      245, 232, 246, -1,
      238, 236, 247, -1,
      247, 236, 248, -1,
      242, 240, 249, -1,
      249, 240, 250, -1,
      214, 212, 251, -1,
      251, 212, 252, -1,
      253, 254, 217, -1,
      217, 254, 215, -1,
      222, 220, 255, -1,
      255, 220, 256, -1,
      257, 258, 225, -1,
      225, 258, 223, -1,
      47, 210, 213, -1,
      213, 210, 211, -1,
      218, 216, 33, -1,
      33, 216, 34, -1,
      71, 69, 221, -1,
      221, 69, 219, -1,
      226, 224, 102, -1,
      102, 224, 100, -1,
      230, 228, 52, -1,
      52, 228, 191, -1,
      38, 40, 233, -1,
      233, 40, 231, -1,
      79, 77, 237, -1,
      237, 77, 235, -1,
      59, 115, 241, -1,
      241, 115, 239, -1,
      259, 260, 261, -1,
      261, 260, 262, -1,
      263, 264, 265, -1,
      265, 264, 266, -1,
      267, 268, 269, -1,
      269, 268, 270, -1,
      260, 259, 271, -1,
      271, 259, 272, -1,
      273, 270, 274, -1,
      274, 270, 268, -1,
      274, 268, 275, -1,
      276, 18, 277, -1,
      277, 18, 278, -1,
      277, 278, 279, -1,
      279, 278, 14, -1,
      280, 263, 281, -1,
      281, 263, 265, -1,
      281, 265, 282, -1,
      110, 283, 284, -1,
      284, 283, 285, -1,
      284, 285, 108, -1,
      286, 287, 288, -1,
      288, 287, 289, -1,
      290, 291, 292, -1,
      293, 294, 295, -1,
      296, 297, 298, -1,
      299, 300, 301, -1,
      302, 303, 304, -1,
      243, 304, 244, -1,
      244, 304, 305, -1,
      306, 307, 251, -1,
      304, 303, 305, -1,
      305, 303, 308, -1,
      305, 308, 309, -1,
      309, 308, 310, -1,
      309, 310, 311, -1,
      304, 306, 302, -1,
      302, 306, 251, -1,
      302, 251, 310, -1,
      310, 251, 252, -1,
      310, 252, 311, -1,
      311, 252, 312, -1,
      311, 312, 313, -1,
      300, 314, 315, -1,
      312, 316, 313, -1,
      313, 316, 317, -1,
      313, 317, 258, -1,
      315, 314, 318, -1,
      318, 314, 319, -1,
      318, 319, 320, -1,
      301, 313, 299, -1,
      299, 313, 258, -1,
      299, 258, 319, -1,
      319, 258, 257, -1,
      319, 257, 320, -1,
      320, 257, 321, -1,
      320, 321, 322, -1,
      300, 315, 301, -1,
      301, 315, 249, -1,
      301, 249, 250, -1,
      297, 323, 324, -1,
      321, 325, 322, -1,
      322, 325, 326, -1,
      322, 326, 255, -1,
      324, 323, 327, -1,
      327, 323, 328, -1,
      327, 328, 329, -1,
      298, 322, 296, -1,
      296, 322, 255, -1,
      296, 255, 328, -1,
      328, 255, 256, -1,
      328, 256, 329, -1,
      329, 256, 330, -1,
      329, 330, 331, -1,
      297, 324, 298, -1,
      298, 324, 247, -1,
      298, 247, 248, -1,
      294, 332, 333, -1,
      330, 334, 331, -1,
      331, 334, 335, -1,
      331, 335, 271, -1,
      295, 331, 293, -1,
      293, 331, 271, -1,
      293, 271, 336, -1,
      336, 271, 272, -1,
      336, 272, 337, -1,
      333, 332, 338, -1,
      338, 332, 336, -1,
      338, 336, 283, -1,
      283, 336, 337, -1,
      283, 337, 285, -1,
      294, 333, 295, -1,
      295, 333, 288, -1,
      295, 288, 289, -1,
      291, 339, 340, -1,
      341, 342, 254, -1,
      340, 339, 343, -1,
      343, 339, 344, -1,
      343, 344, 345, -1,
      292, 341, 290, -1,
      290, 341, 254, -1,
      290, 254, 344, -1,
      344, 254, 253, -1,
      344, 253, 345, -1,
      345, 253, 346, -1,
      345, 346, 306, -1,
      306, 346, 347, -1,
      306, 347, 307, -1,
      348, 349, 350, -1,
      350, 349, 351, -1,
      351, 349, 352, -1,
      351, 352, 353, -1,
      348, 354, 355, -1,
      355, 354, 281, -1,
      355, 281, 352, -1,
      352, 281, 282, -1,
      352, 282, 353, -1,
      353, 282, 356, -1,
      353, 356, 341, -1,
      341, 356, 357, -1,
      341, 357, 342, -1,
      354, 274, 275, -1,
      275, 276, 354, -1,
      354, 276, 277, -1,
      354, 277, 281, -1,
      281, 277, 279, -1,
      281, 279, 280, -1,
      348, 350, 354, -1,
      354, 350, 273, -1,
      354, 273, 274, -1,
      291, 340, 292, -1,
      292, 340, 245, -1,
      292, 245, 246, -1,
      287, 286, 358, -1,
      358, 286, 359, -1,
      259, 261, 106, -1,
      107, 337, 106, -1,
      106, 337, 272, -1,
      106, 272, 259, -1,
      108, 285, 107, -1,
      107, 285, 337, -1,
      334, 65, 335, -1,
      335, 65, 85, -1,
      335, 85, 271, -1,
      271, 85, 84, -1,
      271, 84, 260, -1,
      260, 84, 262, -1,
      67, 65, 330, -1,
      330, 65, 334, -1,
      80, 327, 81, -1,
      81, 327, 329, -1,
      82, 81, 329, -1,
      287, 358, 93, -1,
      329, 331, 82, -1,
      82, 331, 295, -1,
      82, 295, 93, -1,
      93, 295, 289, -1,
      93, 289, 287, -1,
      112, 359, 286, -1,
      338, 111, 333, -1,
      333, 111, 112, -1,
      333, 112, 288, -1,
      288, 112, 286, -1,
      111, 338, 110, -1,
      110, 338, 283, -1,
      106, 261, 87, -1,
      87, 261, 262, -1,
      87, 262, 84, -1,
      266, 264, 11, -1,
      11, 264, 13, -1,
      21, 19, 269, -1,
      269, 19, 267, -1,
      93, 358, 91, -1,
      91, 358, 359, -1,
      91, 359, 112, -1,
    ]
  }
}

Shape {
  appearance Appearance {
    material Material {
      diffuseColor 0.7529 0.7529 0.7529
      specularColor 0.3765 0.3765 0.3765
      ambientIntensity 0.2
      transparency 0.0000
      shininess 0.5
    }
  }
  geometry IndexedFaceSet {
    ccw TRUE
    solid FALSE
    coord DEF co Coordinate {
      point [
        -2.374016 0.125984 0.196850,
        -2.625984 0.125984 0.196850,
        -2.625984 -0.125984 0.196850,
        -2.374016 -0.125984 0.196850,
        -2.374016 0.125984 0.984252,
        -2.374016 -0.125984 0.984252,
        -2.625984 -0.125984 0.984252,
        -2.625984 0.125984 0.984252,
        -2.625984 0.047244 -1.181102,
        -2.625984 0.125984 -1.102362,
        -2.374016 0.047244 -1.181102,
        -2.374016 0.125984 -1.102362,
        -2.625984 -0.047244 -1.181102,
        -2.374016 -0.047244 -1.181102,
        -2.625984 -0.125984 -1.102362,
        -2.374016 -0.125984 -1.102362,
        -2.374016 -0.125984 3.307087,
        -2.625984 -0.125984 3.307087,
        -2.625984 0.125984 3.307087,
        -2.374016 0.125984 3.307087,
        -2.625984 -0.047244 3.385827,
        -2.625984 0.047244 3.385827,
        -2.374016 -0.047244 3.385827,
        -2.374016 0.047244 3.385827,
      ]
    }
    coordIndex [
      8, 9, 10, -1,
      10, 9, 11, -1,
      12, 8, 13, -1,
      13, 8, 10, -1,
      14, 12, 15, -1,
      15, 12, 13, -1,
      0, 3, 11, -1,
      11, 3, 15, -1,
      11, 15, 10, -1,
      10, 15, 13, -1,
      8, 12, 9, -1,
      9, 12, 14, -1,
      9, 14, 1, -1,
      1, 14, 2, -1,
      0, 11, 1, -1,
      1, 11, 9, -1,
      2, 14, 3, -1,
      3, 14, 15, -1,
      5, 16, 6, -1,
      6, 16, 17, -1,
      7, 18, 4, -1,
      4, 18, 19, -1,
      20, 21, 17, -1,
      17, 21, 18, -1,
      17, 18, 6, -1,
      6, 18, 7, -1,
      5, 4, 16, -1,
      16, 4, 19, -1,
      16, 19, 22, -1,
      22, 19, 23, -1,
      20, 17, 22, -1,
      22, 17, 16, -1,
      21, 20, 23, -1,
      23, 20, 22, -1,
      18, 21, 19, -1,
      19, 21, 23, -1,
    ]
  }
}

Shape {
  appearance Appearance {
    material Material {
      diffuseColor 0.1490 0.1490 0.1490
      specularColor 0.0745 0.0745 0.0745
      ambientIntensity 0.2
      transparency 0.0000
      shininess 0.5
    }
  }
  geometry IndexedFaceSet {
    ccw TRUE
    solid FALSE
    coord DEF co Coordinate {
      point [
        2.029528 0.255906 0.196850,
        2.068898 0.255906 0.196850,
        2.157480 0.374016 0.196850,
        2.940945 0.374016 0.196850,
        2.950787 0.360893 0.196850,
        2.950787 -0.360893 0.196850,
        2.940945 -0.374016 0.196850,
        2.157480 -0.374016 0.196850,
        2.068898 -0.255906 0.196850,
        2.029528 -0.255906 0.196850,
        2.000000 -0.295276 0.196850,
        2.000000 0.295276 0.196850,
        1.029528 0.255906 0.196850,
        1.068898 0.255906 0.196850,
        1.157480 0.374016 0.196850,
        1.940945 0.374016 0.196850,
        1.029528 -0.255906 0.196850,
        1.000000 -0.295276 0.196850,
        1.068898 -0.255906 0.196850,
        1.157480 -0.374016 0.196850,
        1.940945 -0.374016 0.196850,
        1.000000 0.295276 0.196850,
        0.940945 0.374016 0.196850,
        0.940945 -0.374016 0.196850,
        -0.842520 -0.374016 0.196850,
        -0.931102 -0.255906 0.196850,
        -1.931102 0.255906 0.196850,
        -1.842520 0.374016 0.196850,
        -1.059055 0.374016 0.196850,
        -1.000000 0.295276 0.196850,
        -0.970472 -0.255906 0.196850,
        -1.000000 -0.295276 0.196850,
        -1.059055 -0.374016 0.196850,
        -1.842520 -0.374016 0.196850,
        -1.931102 -0.255906 0.196850,
        0.029528 0.255906 0.196850,
        0.068898 0.255906 0.196850,
        -0.059055 0.374016 0.196850,
        -0.842520 0.374016 0.196850,
        -0.931102 0.255906 0.196850,
        -0.970472 0.255906 0.196850,
        -0.059055 -0.374016 0.196850,
        0.029528 -0.255906 0.196850,
        0.068898 -0.255906 0.196850,
        0.157480 -0.374016 0.196850,
        0.157480 0.374016 0.196850,
        0.157480 0.374016 0.000000,
        0.246063 0.492126 0.000000,
        0.940945 0.374016 0.000000,
        0.852362 0.492126 0.000000,
        1.852362 0.492126 0.000000,
        1.940945 0.374016 0.000000,
        1.246063 0.492126 0.000000,
        1.157480 0.374016 0.000000,
        -1.842520 0.374016 0.000000,
        -1.753937 0.492126 0.000000,
        -1.059055 0.374016 0.000000,
        -1.147638 0.492126 0.000000,
        -0.147638 0.492126 0.000000,
        -0.059055 0.374016 0.000000,
        -0.753937 0.492126 0.000000,
        -0.842520 0.374016 0.000000,
        0.246063 -0.492126 0.000000,
        0.157480 -0.374016 0.000000,
        0.852362 -0.492126 0.000000,
        0.940945 -0.374016 0.000000,
        1.940945 -0.374016 0.000000,
        1.852362 -0.492126 0.000000,
        1.157480 -0.374016 0.000000,
        1.246063 -0.492126 0.000000,
        -1.059055 -0.374016 0.000000,
        -1.147638 -0.492126 0.000000,
        -1.842520 -0.374016 0.000000,
        -1.753937 -0.492126 0.000000,
        -0.059055 -0.374016 0.000000,
        -0.147638 -0.492126 0.000000,
        -0.842520 -0.374016 0.000000,
        -0.753937 -0.492126 0.000000,
        0.852362 -0.492126 0.984252,
        0.246063 -0.492126 0.984252,
        1.246063 -0.492126 0.984252,
        1.852362 -0.492126 0.984252,
        -1.753937 -0.492126 0.984252,
        -1.147638 -0.492126 0.984252,
        -0.753937 -0.492126 0.984252,
        -0.147638 -0.492126 0.984252,
        0.852362 0.492126 0.984252,
        0.246063 0.492126 0.984252,
        1.246063 0.492126 0.984252,
        1.852362 0.492126 0.984252,
        -1.147638 0.492126 0.984252,
        -1.753937 0.492126 0.984252,
        -0.753937 0.492126 0.984252,
        -0.147638 0.492126 0.984252,
        2.852362 0.492126 0.000000,
        2.940945 0.374016 0.000000,
        2.246063 0.492126 0.000000,
        2.157480 0.374016 0.000000,
        2.940945 -0.374016 0.000000,
        2.852362 -0.492126 0.000000,
        2.157480 -0.374016 0.000000,
        2.246063 -0.492126 0.000000,
        2.246063 -0.492126 0.984252,
        2.852362 -0.492126 0.984252,
        2.950787 -0.360893 0.984252,
        2.950787 0.360893 0.984252,
        2.852362 0.492126 0.984252,
        2.246063 0.492126 0.984252,
        1.989665 -0.309055 0.984252,
        -1.010335 -0.309055 0.984252,
        -0.010335 -0.309055 0.984252,
        0.989665 -0.309055 0.984252,
        0.108760 -0.309055 0.984252,
        1.000000 -0.295276 0.984252,
        1.000000 0.295276 0.984252,
        0.068898 -0.255906 0.984252,
        0.029528 -0.255906 0.984252,
        0.068898 0.255906 0.984252,
        0.000000 -0.295276 0.984252,
        -0.891240 -0.309055 0.984252,
        0.029528 0.255906 0.984252,
        0.000000 0.295276 0.984252,
        -0.931102 -0.255906 0.984252,
        -0.970472 -0.255906 0.984252,
        -0.931102 0.255906 0.984252,
        -1.000000 -0.295276 0.984252,
        -1.891240 -0.309055 0.984252,
        -0.970472 0.255906 0.984252,
        -1.000000 0.295276 0.984252,
        -1.931102 -0.255906 0.984252,
        -1.931102 0.255906 0.984252,
        1.108760 -0.309055 0.984252,
        2.000000 -0.295276 0.984252,
        2.000000 0.295276 0.984252,
        1.068898 -0.255906 0.984252,
        1.029528 -0.255906 0.984252,
        1.068898 0.255906 0.984252,
        1.029528 0.255906 0.984252,
        2.108760 -0.309055 0.984252,
        2.068898 -0.255906 0.984252,
        2.029528 -0.255906 0.984252,
        2.068898 0.255906 0.984252,
        2.029528 0.255906 0.984252,
        0.000000 0.295276 0.196850,
        0.000000 -0.295276 0.196850,
      ]
    }
    coordIndex [
      55, 54, 27, -1,
      26, 130, 27, -1,
      27, 130, 91, -1,
      27, 91, 55, -1,
      99, 98, 6, -1,
      5, 104, 6, -1,
      6, 104, 103, -1,
      6, 103, 99, -1,
      95, 94, 3, -1,
      3, 94, 106, -1,
      3, 106, 4, -1,
      4, 106, 105, -1,
      120, 35, 121, -1,
      121, 35, 143, -1,
      121, 143, 93, -1,
      93, 143, 37, -1,
      93, 37, 58, -1,
      58, 37, 59, -1,
      117, 36, 120, -1,
      120, 36, 35, -1,
      47, 46, 45, -1,
      36, 117, 45, -1,
      45, 117, 87, -1,
      45, 87, 47, -1,
      116, 42, 115, -1,
      115, 42, 43, -1,
      144, 42, 116, -1,
      75, 74, 41, -1,
      116, 118, 144, -1,
      144, 118, 110, -1,
      144, 110, 41, -1,
      41, 110, 85, -1,
      41, 85, 75, -1,
      44, 63, 62, -1,
      115, 43, 112, -1,
      112, 43, 44, -1,
      112, 44, 79, -1,
      79, 44, 62, -1,
      127, 40, 128, -1,
      128, 40, 29, -1,
      128, 29, 90, -1,
      90, 29, 28, -1,
      90, 28, 57, -1,
      57, 28, 56, -1,
      124, 39, 127, -1,
      127, 39, 40, -1,
      60, 61, 38, -1,
      39, 124, 38, -1,
      38, 124, 92, -1,
      38, 92, 60, -1,
      123, 30, 122, -1,
      122, 30, 25, -1,
      31, 30, 123, -1,
      71, 70, 32, -1,
      123, 125, 31, -1,
      31, 125, 109, -1,
      31, 109, 32, -1,
      32, 109, 83, -1,
      32, 83, 71, -1,
      24, 76, 77, -1,
      122, 25, 119, -1,
      119, 25, 24, -1,
      119, 24, 84, -1,
      84, 24, 77, -1,
      33, 72, 73, -1,
      129, 34, 126, -1,
      126, 34, 33, -1,
      126, 33, 82, -1,
      82, 33, 73, -1,
      142, 0, 133, -1,
      133, 0, 11, -1,
      133, 11, 89, -1,
      89, 11, 15, -1,
      89, 15, 50, -1,
      50, 15, 51, -1,
      141, 1, 142, -1,
      142, 1, 0, -1,
      96, 97, 2, -1,
      1, 141, 2, -1,
      2, 141, 107, -1,
      2, 107, 96, -1,
      140, 9, 139, -1,
      139, 9, 8, -1,
      10, 9, 140, -1,
      67, 66, 20, -1,
      140, 132, 10, -1,
      10, 132, 108, -1,
      10, 108, 20, -1,
      20, 108, 81, -1,
      20, 81, 67, -1,
      7, 100, 101, -1,
      139, 8, 138, -1,
      138, 8, 7, -1,
      138, 7, 102, -1,
      102, 7, 101, -1,
      137, 12, 114, -1,
      114, 12, 21, -1,
      114, 21, 86, -1,
      86, 21, 22, -1,
      86, 22, 49, -1,
      49, 22, 48, -1,
      136, 13, 137, -1,
      137, 13, 12, -1,
      52, 53, 14, -1,
      13, 136, 14, -1,
      14, 136, 88, -1,
      14, 88, 52, -1,
      135, 16, 134, -1,
      134, 16, 18, -1,
      17, 16, 135, -1,
      64, 65, 23, -1,
      135, 113, 17, -1,
      17, 113, 111, -1,
      17, 111, 23, -1,
      23, 111, 78, -1,
      23, 78, 64, -1,
      19, 68, 69, -1,
      134, 18, 131, -1,
      131, 18, 19, -1,
      131, 19, 80, -1,
      80, 19, 69, -1,
    ]
  }
}

Shape {
  appearance Appearance {
    material Material {
      diffuseColor 0.7529 0.7529 0.7529
      specularColor 0.3765 0.3765 0.3765
      ambientIntensity 0.2
      transparency 0.0000
      shininess 0.5
    }
  }
  geometry IndexedFaceSet {
    ccw TRUE
    solid FALSE
    coord DEF co Coordinate {
      point [
        2.374016 0.125984 0.196850,
        2.625984 0.125984 0.196850,
        2.625984 -0.125984 0.196850,
        2.374016 -0.125984 0.196850,
        1.625984 0.125984 0.196850,
        1.374016 0.125984 0.196850,
        1.374016 -0.125984 0.196850,
        1.625984 -0.125984 0.196850,
        0.625984 0.125984 0.196850,
        0.374016 0.125984 0.196850,
        0.374016 -0.125984 0.196850,
        0.625984 -0.125984 0.196850,
        -0.374016 -0.125984 0.196850,
        -0.374016 0.125984 0.196850,
        -0.625984 -0.125984 0.196850,
        -1.625984 0.125984 0.196850,
        -1.374016 0.125984 0.196850,
        -1.374016 -0.125984 0.196850,
        -1.625984 -0.125984 0.196850,
        -0.625984 0.125984 0.196850,
        1.625984 0.125984 0.984252,
        1.625984 -0.125984 0.984252,
        -1.374016 0.125984 0.984252,
        -1.374016 -0.125984 0.984252,
        -0.374016 0.125984 0.984252,
        -0.374016 -0.125984 0.984252,
        0.625984 0.125984 0.984252,
        0.625984 -0.125984 0.984252,
        0.374016 -0.125984 0.984252,
        0.374016 0.125984 0.984252,
        -0.625984 -0.125984 0.984252,
        -0.625984 0.125984 0.984252,
        -1.625984 -0.125984 0.984252,
        -1.625984 0.125984 0.984252,
        1.374016 -0.125984 0.984252,
        1.374016 0.125984 0.984252,
        2.625984 -0.125984 0.984252,
        2.374016 -0.125984 0.984252,
        2.374016 0.125984 0.984252,
        2.625984 0.125984 0.984252,
        -1.625984 0.047244 -1.181102,
        -1.625984 0.125984 -1.102362,
        -1.374016 0.047244 -1.181102,
        -1.374016 0.125984 -1.102362,
        -1.625984 -0.047244 -1.181102,
        -1.374016 -0.047244 -1.181102,
        -1.625984 -0.125984 -1.102362,
        -1.374016 -0.125984 -1.102362,
        -1.374016 -0.125984 3.307087,
        -1.625984 -0.125984 3.307087,
        -1.625984 0.125984 3.307087,
        -1.374016 0.125984 3.307087,
        -1.625984 -0.047244 3.385827,
        -1.625984 0.047244 3.385827,
        -1.374016 -0.047244 3.385827,
        -1.374016 0.047244 3.385827,
        -0.625984 0.047244 -1.181102,
        -0.625984 0.125984 -1.102362,
        -0.374016 0.047244 -1.181102,
        -0.374016 0.125984 -1.102362,
        -0.625984 -0.047244 -1.181102,
        -0.374016 -0.047244 -1.181102,
        -0.625984 -0.125984 -1.102362,
        -0.374016 -0.125984 -1.102362,
        -0.374016 -0.125984 3.307087,
        -0.625984 -0.125984 3.307087,
        -0.625984 0.125984 3.307087,
        -0.374016 0.125984 3.307087,
        -0.625984 -0.047244 3.385827,
        -0.625984 0.047244 3.385827,
        -0.374016 -0.047244 3.385827,
        -0.374016 0.047244 3.385827,
        0.374016 0.047244 -1.181102,
        0.374016 0.125984 -1.102362,
        0.625984 0.047244 -1.181102,
        0.625984 0.125984 -1.102362,
        0.374016 -0.047244 -1.181102,
        0.625984 -0.047244 -1.181102,
        0.374016 -0.125984 -1.102362,
        0.625984 -0.125984 -1.102362,
        0.625984 -0.125984 3.307087,
        0.374016 -0.125984 3.307087,
        0.374016 0.125984 3.307087,
        0.625984 0.125984 3.307087,
        0.374016 -0.047244 3.385827,
        0.374016 0.047244 3.385827,
        0.625984 -0.047244 3.385827,
        0.625984 0.047244 3.385827,
        1.374016 0.047244 -1.181102,
        1.374016 0.125984 -1.102362,
        1.625984 0.047244 -1.181102,
        1.625984 0.125984 -1.102362,
        1.374016 -0.047244 -1.181102,
        1.625984 -0.047244 -1.181102,
        1.374016 -0.125984 -1.102362,
        1.625984 -0.125984 -1.102362,
        1.625984 -0.125984 3.307087,
        1.374016 -0.125984 3.307087,
        1.374016 0.125984 3.307087,
        1.625984 0.125984 3.307087,
        1.374016 -0.047244 3.385827,
        1.374016 0.047244 3.385827,
        1.625984 -0.047244 3.385827,
        1.625984 0.047244 3.385827,
        2.374016 0.047244 -1.181102,
        2.374016 0.125984 -1.102362,
        2.625984 0.047244 -1.181102,
        2.625984 0.125984 -1.102362,
        2.374016 -0.047244 -1.181102,
        2.625984 -0.047244 -1.181102,
        2.374016 -0.125984 -1.102362,
        2.625984 -0.125984 -1.102362,
        2.625984 -0.125984 3.307087,
        2.374016 -0.125984 3.307087,
        2.374016 0.125984 3.307087,
        2.625984 0.125984 3.307087,
        2.374016 -0.047244 3.385827,
        2.374016 0.047244 3.385827,
        2.625984 -0.047244 3.385827,
        2.625984 0.047244 3.385827,
      ]
    }
    coordIndex [
      40, 41, 42, -1,
      42, 41, 43, -1,
      44, 40, 45, -1,
      45, 40, 42, -1,
      46, 44, 47, -1,
      47, 44, 45, -1,
      16, 17, 43, -1,
      43, 17, 47, -1,
      43, 47, 42, -1,
      42, 47, 45, -1,
      40, 44, 41, -1,
      41, 44, 46, -1,
      41, 46, 15, -1,
      15, 46, 18, -1,
      16, 43, 15, -1,
      15, 43, 41, -1,
      18, 46, 17, -1,
      17, 46, 47, -1,
      23, 48, 32, -1,
      32, 48, 49, -1,
      33, 50, 22, -1,
      22, 50, 51, -1,
      52, 53, 49, -1,
      49, 53, 50, -1,
      49, 50, 32, -1,
      32, 50, 33, -1,
      23, 22, 48, -1,
      48, 22, 51, -1,
      48, 51, 54, -1,
      54, 51, 55, -1,
      52, 49, 54, -1,
      54, 49, 48, -1,
      53, 52, 55, -1,
      55, 52, 54, -1,
      50, 53, 51, -1,
      51, 53, 55, -1,
      56, 57, 58, -1,
      58, 57, 59, -1,
      60, 56, 61, -1,
      61, 56, 58, -1,
      62, 60, 63, -1,
      63, 60, 61, -1,
      13, 12, 59, -1,
      59, 12, 63, -1,
      59, 63, 58, -1,
      58, 63, 61, -1,
      56, 60, 57, -1,
      57, 60, 62, -1,
      57, 62, 19, -1,
      19, 62, 14, -1,
      13, 59, 19, -1,
      19, 59, 57, -1,
      14, 62, 12, -1,
      12, 62, 63, -1,
      25, 64, 30, -1,
      30, 64, 65, -1,
      31, 66, 24, -1,
      24, 66, 67, -1,
      68, 69, 65, -1,
      65, 69, 66, -1,
      65, 66, 30, -1,
      30, 66, 31, -1,
      25, 24, 64, -1,
      64, 24, 67, -1,
      64, 67, 70, -1,
      70, 67, 71, -1,
      68, 65, 70, -1,
      70, 65, 64, -1,
      69, 68, 71, -1,
      71, 68, 70, -1,
      66, 69, 67, -1,
      67, 69, 71, -1,
      72, 73, 74, -1,
      74, 73, 75, -1,
      76, 72, 77, -1,
      77, 72, 74, -1,
      78, 76, 79, -1,
      79, 76, 77, -1,
      8, 11, 75, -1,
      75, 11, 79, -1,
      75, 79, 74, -1,
      74, 79, 77, -1,
      72, 76, 73, -1,
      73, 76, 78, -1,
      73, 78, 9, -1,
      9, 78, 10, -1,
      8, 75, 9, -1,
      9, 75, 73, -1,
      10, 78, 11, -1,
      11, 78, 79, -1,
      27, 80, 28, -1,
      28, 80, 81, -1,
      29, 82, 26, -1,
      26, 82, 83, -1,
      84, 85, 81, -1,
      81, 85, 82, -1,
      81, 82, 28, -1,
      28, 82, 29, -1,
      27, 26, 80, -1,
      80, 26, 83, -1,
      80, 83, 86, -1,
      86, 83, 87, -1,
      84, 81, 86, -1,
      86, 81, 80, -1,
      85, 84, 87, -1,
      87, 84, 86, -1,
      82, 85, 83, -1,
      83, 85, 87, -1,
      88, 89, 90, -1,
      90, 89, 91, -1,
      92, 88, 93, -1,
      93, 88, 90, -1,
      94, 92, 95, -1,
      95, 92, 93, -1,
      4, 7, 91, -1,
      91, 7, 95, -1,
      91, 95, 90, -1,
      90, 95, 93, -1,
      88, 92, 89, -1,
      89, 92, 94, -1,
      89, 94, 5, -1,
      5, 94, 6, -1,
      4, 91, 5, -1,
      5, 91, 89, -1,
      6, 94, 7, -1,
      7, 94, 95, -1,
      21, 96, 34, -1,
      34, 96, 97, -1,
      35, 98, 20, -1,
      20, 98, 99, -1,
      100, 101, 97, -1,
      97, 101, 98, -1,
      97, 98, 34, -1,
      34, 98, 35, -1,
      21, 20, 96, -1,
      96, 20, 99, -1,
      96, 99, 102, -1,
      102, 99, 103, -1,
      100, 97, 102, -1,
      102, 97, 96, -1,
      101, 100, 103, -1,
      103, 100, 102, -1,
      98, 101, 99, -1,
      99, 101, 103, -1,
      104, 105, 106, -1,
      106, 105, 107, -1,
      108, 104, 109, -1,
      109, 104, 106, -1,
      110, 108, 111, -1,
      111, 108, 109, -1,
      1, 2, 107, -1,
      107, 2, 111, -1,
      107, 111, 106, -1,
      106, 111, 109, -1,
      104, 108, 105, -1,
      105, 108, 110, -1,
      105, 110, 0, -1,
      0, 110, 3, -1,
      1, 107, 0, -1,
      0, 107, 105, -1,
      3, 110, 2, -1,
      2, 110, 111, -1,
      36, 112, 37, -1,
      37, 112, 113, -1,
      38, 114, 39, -1,
      39, 114, 115, -1,
      116, 117, 113, -1,
      113, 117, 114, -1,
      113, 114, 37, -1,
      37, 114, 38, -1,
      36, 39, 112, -1,
      112, 39, 115, -1,
      112, 115, 118, -1,
      118, 115, 119, -1,
      116, 113, 118, -1,
      118, 113, 112, -1,
      117, 116, 119, -1,
      119, 116, 118, -1,
      114, 117, 115, -1,
      115, 117, 119, -1,
    ]
  }
}

Shape {
  appearance Appearance {
    material Material {
      diffuseColor 0.1490 0.1490 0.1490
      specularColor 0.0745 0.0745 0.0745
      ambientIntensity 0.2
      transparency 0.0000
      shininess 0.5
    }
  }
  geometry IndexedFaceSet {
    ccw TRUE
    solid FALSE
    coord DEF co Coordinate {
      point [
        -0.273080 0.049617 0.196850,
        -0.275099 0.049617 0.196850,
        -0.347782 -0.107863 0.196850,
        -0.198378 -0.107863 0.196850,
        -0.309138 -0.057389 0.196850,
        -0.237748 -0.057389 0.196850,
        -0.332419 -0.107863 0.196850,
        -0.213804 -0.107863 0.196850,
        -0.273080 0.049617 0.236220,
        -0.275099 0.049617 0.236220,
        -0.347782 -0.107863 0.236220,
        -0.332419 -0.107863 0.236220,
        -0.309138 -0.057389 0.236220,
        -0.237748 -0.057389 0.236220,
        -0.213804 -0.107863 0.236220,
        -0.198378 -0.107863 0.236220,
      ]
    }
    coordIndex [
      8, 9, 0, -1,
      0, 9, 1, -1,
      9, 10, 1, -1,
      1, 10, 2, -1,
      10, 11, 2, -1,
      2, 11, 6, -1,
      11, 12, 6, -1,
      6, 12, 4, -1,
      12, 13, 4, -1,
      4, 13, 5, -1,
      13, 14, 5, -1,
      5, 14, 7, -1,
      14, 15, 7, -1,
      7, 15, 3, -1,
      15, 8, 3, -1,
      3, 8, 0, -1,
    ]
  }
}

Shape {
  appearance Appearance {
    material Material {
      diffuseColor 0.7529 0.7529 0.7529
      specularColor 0.3765 0.3765 0.3765
      ambientIntensity 0.2
      transparency 0.0000
      shininess 0.5
    }
  }
  geometry IndexedFaceSet {
    ccw TRUE
    solid FALSE
    coord DEF co Coordinate {
      point [
        -0.273080 0.049617 0.236220,
        -0.275099 0.049617 0.236220,
        -0.347782 -0.107863 0.236220,
        -0.332419 -0.107863 0.236220,
        -0.309138 -0.057389 0.236220,
        -0.237748 -0.057389 0.236220,
        -0.213804 -0.107863 0.236220,
        -0.198378 -0.107863 0.236220,
        -0.301693 -0.041237 0.236220,
        -0.245414 -0.041237 0.236220,
        -0.273932 0.018922 0.236220,
      ]
    }
    coordIndex [
      8, 2, 1, -1,
      0, 9, 1, -1,
      1, 9, 10, -1,
      1, 10, 8, -1,
      7, 6, 5, -1,
      3, 2, 4, -1,
      4, 2, 8, -1,
      4, 8, 5, -1,
      5, 8, 9, -1,
      5, 9, 7, -1,
      7, 9, 0, -1,
    ]
  }
}

Shape {
  appearance Appearance {
    material Material {
      diffuseColor 0.1490 0.1490 0.1490
      specularColor 0.0745 0.0745 0.0745
      ambientIntensity 0.2
      transparency 0.0000
      shininess 0.5
    }
  }
  geometry IndexedFaceSet {
    ccw TRUE
    solid FALSE
    coord DEF co Coordinate {
      point [
        -0.048974 -0.107863 0.196850,
        -0.097776 -0.107863 0.196850,
        -0.301693 -0.041237 0.236220,
        -0.245414 -0.041237 0.236220,
        -0.273932 0.018922 0.236220,
        -0.301693 -0.041237 0.196850,
        -0.273932 0.018922 0.196850,
        -0.245414 -0.041237 0.196850,
        -0.097776 -0.107863 0.236220,
        -0.048974 -0.107863 0.236220,
      ]
    }
    coordIndex [
      2, 4, 5, -1,
      5, 4, 6, -1,
      3, 2, 7, -1,
      7, 2, 5, -1,
      4, 3, 6, -1,
      6, 3, 7, -1,
      8, 9, 1, -1,
      1, 9, 0, -1,
    ]
  }
}

Shape {
  appearance Appearance {
    material Material {
      diffuseColor 0.7529 0.7529 0.7529
      specularColor 0.3765 0.3765 0.3765
      ambientIntensity 0.2
      transparency 0.0000
      shininess 0.5
    }
  }
  geometry IndexedFaceSet {
    ccw TRUE
    solid FALSE
    coord DEF co Coordinate {
      point [
        -0.048974 -0.107863 0.196850,
        -0.048974 0.049617 0.196850,
        -0.048974 -0.107863 0.236220,
        -0.048974 0.049617 0.236220,
      ]
    }
    coordIndex [
      2, 3, 0, -1,
      0, 3, 1, -1,
    ]
  }
}

Shape {
  appearance Appearance {
    material Material {
      diffuseColor 0.1490 0.1490 0.1490
      specularColor 0.0745 0.0745 0.0745
      ambientIntensity 0.2
      transparency 0.0000
      shininess 0.5
    }
  }
  geometry IndexedFaceSet {
    ccw TRUE
    solid FALSE
    coord DEF co Coordinate {
      point [
        -0.048974 0.049617 0.196850,
        -0.080772 0.049617 0.196850,
        -0.048974 0.049617 0.236220,
        -0.080772 0.049617 0.236220,
      ]
    }
    coordIndex [
      2, 3, 0, -1,
      0, 3, 1, -1,
    ]
  }
}

Shape {
  appearance Appearance {
    material Material {
      diffuseColor 0.7529 0.7529 0.7529
      specularColor 0.3765 0.3765 0.3765
      ambientIntensity 0.2
      transparency 0.0000
      shininess 0.5
    }
  }
  geometry IndexedFaceSet {
    ccw TRUE
    solid FALSE
    coord DEF co Coordinate {
      point [
        -0.169813 -0.069717 0.196850,
        -0.159075 -0.085912 0.196850,
        -0.080772 0.049617 0.196850,
        -0.105999 0.048654 0.196850,
        -0.130742 0.043939 0.196850,
        -0.146678 0.035889 0.196850,
        -0.147287 -0.096318 0.196850,
        -0.135438 -0.102429 0.196850,
        -0.116226 -0.106826 0.196850,
        -0.097776 -0.107863 0.196850,
        -0.158180 0.025895 0.196850,
        -0.168219 0.011681 0.196850,
        -0.174802 -0.004745 0.196850,
        -0.177964 -0.023812 0.196850,
        -0.178188 -0.031110 0.196850,
        -0.175972 -0.052167 0.196850,
        -0.097776 -0.107863 0.236220,
        -0.048974 -0.107863 0.236220,
        -0.048974 0.049617 0.236220,
        -0.080772 0.049617 0.236220,
        -0.130742 0.043939 0.236220,
        -0.105999 0.048654 0.236220,
        -0.178188 -0.031110 0.236220,
        -0.177964 -0.023812 0.236220,
        -0.174802 -0.004745 0.236220,
        -0.168219 0.011681 0.236220,
        -0.158180 0.025895 0.236220,
        -0.146678 0.035889 0.236220,
        -0.116226 -0.106826 0.236220,
        -0.135438 -0.102429 0.236220,
        -0.147287 -0.096318 0.236220,
        -0.159075 -0.085912 0.236220,
        -0.169813 -0.069717 0.236220,
        -0.175972 -0.052167 0.236220,
        -0.098529 0.032724 0.236220,
        -0.122572 0.029049 0.236220,
        -0.129637 0.026478 0.236220,
        -0.141403 0.019597 0.236220,
        -0.150504 0.010701 0.236220,
        -0.157736 -0.000820 0.236220,
        -0.162341 -0.014380 0.236220,
        -0.164055 -0.031079 0.236220,
        -0.163941 -0.035465 0.236220,
        -0.161153 -0.052104 0.236220,
        -0.155942 -0.064031 0.236220,
        -0.148121 -0.074341 0.236220,
        -0.138753 -0.081919 0.236220,
        -0.126199 -0.087705 0.236220,
        -0.103835 -0.091074 0.236220,
        -0.081183 -0.091711 0.236220,
        -0.063106 -0.091711 0.236220,
        -0.063106 0.033465 0.236220,
        -0.074179 0.033465 0.236220,
        -0.063106 0.033465 0.196850,
        -0.063106 -0.091711 0.196850,
      ]
    }
    coordIndex [
      20, 4, 3, -1,
      20, 3, 21, -1,
      21, 3, 2, -1,
      21, 2, 19, -1,
      22, 14, 13, -1,
      22, 13, 23, -1,
      23, 13, 12, -1,
      23, 12, 24, -1,
      24, 12, 11, -1,
      24, 11, 25, -1,
      25, 11, 10, -1,
      25, 10, 26, -1,
      26, 10, 5, -1,
      26, 5, 27, -1,
      27, 5, 4, -1,
      27, 4, 20, -1,
      16, 9, 8, -1,
      16, 8, 28, -1,
      28, 8, 7, -1,
      28, 7, 29, -1,
      29, 7, 6, -1,
      29, 6, 30, -1,
      30, 6, 1, -1,
      30, 1, 31, -1,
      31, 1, 0, -1,
      31, 0, 32, -1,
      32, 0, 15, -1,
      32, 15, 33, -1,
      33, 15, 14, -1,
      33, 14, 22, -1,
      34, 35, 20, -1,
      20, 35, 36, -1,
      20, 36, 27, -1,
      27, 36, 37, -1,
      27, 37, 26, -1,
      26, 37, 38, -1,
      26, 38, 25, -1,
      25, 38, 39, -1,
      25, 39, 24, -1,
      24, 39, 40, -1,
      24, 40, 23, -1,
      23, 40, 41, -1,
      23, 41, 22, -1,
      22, 41, 42, -1,
      22, 42, 33, -1,
      33, 42, 43, -1,
      33, 43, 32, -1,
      32, 43, 44, -1,
      32, 44, 31, -1,
      31, 44, 45, -1,
      31, 45, 30, -1,
      30, 45, 46, -1,
      30, 46, 29, -1,
      29, 46, 47, -1,
      29, 47, 28, -1,
      28, 47, 48, -1,
      28, 48, 16, -1,
      16, 48, 49, -1,
      16, 49, 17, -1,
      17, 49, 50, -1,
      17, 50, 18, -1,
      18, 50, 51, -1,
      18, 51, 19, -1,
      19, 51, 52, -1,
      19, 52, 21, -1,
      21, 52, 34, -1,
      21, 34, 20, -1,
      51, 50, 53, -1,
      53, 50, 54, -1,
    ]
  }
}

Shape {
  appearance Appearance {
    material Material {
      diffuseColor 0.1490 0.1490 0.1490
      specularColor 0.0745 0.0745 0.0745
      ambientIntensity 0.2
      transparency 0.0000
      shininess 0.5
    }
  }
  geometry IndexedFaceSet {
    ccw TRUE
    solid FALSE
    coord DEF co Coordinate {
      point [
        -0.063106 0.033465 0.236220,
        -0.074179 0.033465 0.236220,
        -0.063106 0.033465 0.196850,
        -0.074179 0.033465 0.196850,
      ]
    }
    coordIndex [
      1, 0, 3, -1,
      3, 0, 2, -1,
    ]
  }
}

Shape {
  appearance Appearance {
    material Material {
      diffuseColor 0.7529 0.7529 0.7529
      specularColor 0.3765 0.3765 0.3765
      ambientIntensity 0.2
      transparency 0.0000
      shininess 0.5
    }
  }
  geometry IndexedFaceSet {
    ccw TRUE
    solid FALSE
    coord DEF co Coordinate {
      point [
        -0.098529 0.032724 0.236220,
        -0.122572 0.029049 0.236220,
        -0.129637 0.026478 0.236220,
        -0.141403 0.019597 0.236220,
        -0.150504 0.010701 0.236220,
        -0.157736 -0.000820 0.236220,
        -0.162341 -0.014380 0.236220,
        -0.164055 -0.031079 0.236220,
        -0.163941 -0.035465 0.236220,
        -0.161153 -0.052104 0.236220,
        -0.155942 -0.064031 0.236220,
        -0.148121 -0.074341 0.236220,
        -0.138753 -0.081919 0.236220,
        -0.126199 -0.087705 0.236220,
        -0.103835 -0.091074 0.236220,
        -0.081183 -0.091711 0.236220,
        -0.074179 0.033465 0.236220,
        -0.074179 0.033465 0.196850,
        -0.098529 0.032724 0.196850,
        -0.122572 0.029049 0.196850,
        -0.129637 0.026478 0.196850,
        -0.141403 0.019597 0.196850,
        -0.150504 0.010701 0.196850,
        -0.157736 -0.000820 0.196850,
        -0.162341 -0.014380 0.196850,
        -0.164055 -0.031079 0.196850,
        -0.163941 -0.035465 0.196850,
        -0.161153 -0.052104 0.196850,
        -0.155942 -0.064031 0.196850,
        -0.148121 -0.074341 0.196850,
        -0.138753 -0.081919 0.196850,
        -0.126199 -0.087705 0.196850,
        -0.103835 -0.091074 0.196850,
        -0.081183 -0.091711 0.196850,
      ]
    }
    coordIndex [
      16, 17, 18, -1,
      16, 18, 0, -1,
      0, 18, 19, -1,
      0, 19, 1, -1,
      1, 19, 20, -1,
      1, 20, 2, -1,
      2, 20, 21, -1,
      2, 21, 3, -1,
      3, 21, 22, -1,
      3, 22, 4, -1,
      4, 22, 23, -1,
      4, 23, 5, -1,
      5, 23, 24, -1,
      5, 24, 6, -1,
      6, 24, 25, -1,
      6, 25, 7, -1,
      7, 25, 26, -1,
      7, 26, 8, -1,
      8, 26, 27, -1,
      8, 27, 9, -1,
      9, 27, 28, -1,
      9, 28, 10, -1,
      10, 28, 29, -1,
      10, 29, 11, -1,
      11, 29, 30, -1,
      11, 30, 12, -1,
      12, 30, 31, -1,
      12, 31, 13, -1,
      13, 31, 32, -1,
      13, 32, 14, -1,
      14, 32, 33, -1,
      14, 33, 15, -1,
    ]
  }
}

Shape {
  appearance Appearance {
    material Material {
      diffuseColor 0.1490 0.1490 0.1490
      specularColor 0.0745 0.0745 0.0745
      ambientIntensity 0.2
      transparency 0.0000
      shininess 0.5
    }
  }
  geometry IndexedFaceSet {
    ccw TRUE
    solid FALSE
    coord DEF co Coordinate {
      point [
        -0.081183 -0.091711 0.236220,
        -0.063106 -0.091711 0.236220,
        -0.063106 -0.091711 0.196850,
        -0.081183 -0.091711 0.196850,
      ]
    }
    coordIndex [
      1, 0, 2, -1,
      2, 0, 3, -1,
    ]
  }
}

Shape {
  appearance Appearance {
    material Material {
      diffuseColor 0.7529 0.7529 0.7529
      specularColor 0.3765 0.3765 0.3765
      ambientIntensity 0.2
      transparency 0.0000
      shininess 0.5
    }
  }
  geometry IndexedFaceSet {
    ccw TRUE
    solid FALSE
    coord DEF co Coordinate {
      point [
        0.068127 -0.107863 0.196850,
        0.068127 0.049617 0.196850,
        0.068127 -0.107863 0.236220,
        0.068127 0.049617 0.236220,
      ]
    }
    coordIndex [
      2, 3, 0, -1,
      0, 3, 1, -1,
    ]
  }
}

Shape {
  appearance Appearance {
    material Material {
      diffuseColor 0.1490 0.1490 0.1490
      specularColor 0.0745 0.0745 0.0745
      ambientIntensity 0.2
      transparency 0.0000
      shininess 0.5
    }
  }
  geometry IndexedFaceSet {
    ccw TRUE
    solid FALSE
    coord DEF co Coordinate {
      point [
        0.068127 0.049617 0.196850,
        -0.020708 0.049617 0.196850,
        0.068127 0.049617 0.236220,
        -0.020708 0.049617 0.236220,
      ]
    }
    coordIndex [
      2, 3, 0, -1,
      0, 3, 1, -1,
    ]
  }
}

Shape {
  appearance Appearance {
    material Material {
      diffuseColor 0.7529 0.7529 0.7529
      specularColor 0.3765 0.3765 0.3765
      ambientIntensity 0.2
      transparency 0.0000
      shininess 0.5
    }
  }
  geometry IndexedFaceSet {
    ccw TRUE
    solid FALSE
    coord DEF co Coordinate {
      point [
        -0.020708 0.049617 0.196850,
        -0.020708 0.033465 0.196850,
        -0.020708 0.049617 0.236220,
        -0.020708 0.033465 0.236220,
      ]
    }
    coordIndex [
      2, 3, 0, -1,
      0, 3, 1, -1,
    ]
  }
}

Shape {
  appearance Appearance {
    material Material {
      diffuseColor 0.1490 0.1490 0.1490
      specularColor 0.0745 0.0745 0.0745
      ambientIntensity 0.2
      transparency 0.0000
      shininess 0.5
    }
  }
  geometry IndexedFaceSet {
    ccw TRUE
    solid FALSE
    coord DEF co Coordinate {
      point [
        -0.020708 0.033465 0.196850,
        0.053994 0.033465 0.196850,
        -0.020708 0.033465 0.236220,
        0.053994 0.033465 0.236220,
      ]
    }
    coordIndex [
      2, 3, 0, -1,
      0, 3, 1, -1,
    ]
  }
}

Shape {
  appearance Appearance {
    material Material {
      diffuseColor 0.7529 0.7529 0.7529
      specularColor 0.3765 0.3765 0.3765
      ambientIntensity 0.2
      transparency 0.0000
      shininess 0.5
    }
  }
  geometry IndexedFaceSet {
    ccw TRUE
    solid FALSE
    coord DEF co Coordinate {
      point [
        0.053994 -0.014990 0.196850,
        0.053994 0.033465 0.196850,
        0.053994 0.033465 0.236220,
        0.053994 -0.014990 0.236220,
      ]
    }
    coordIndex [
      2, 3, 1, -1,
      1, 3, 0, -1,
    ]
  }
}

Shape {
  appearance Appearance {
    material Material {
      diffuseColor 0.1490 0.1490 0.1490
      specularColor 0.0745 0.0745 0.0745
      ambientIntensity 0.2
      transparency 0.0000
      shininess 0.5
    }
  }
  geometry IndexedFaceSet {
    ccw TRUE
    solid FALSE
    coord DEF co Coordinate {
      point [
        -0.020708 -0.014990 0.196850,
        0.053994 -0.014990 0.196850,
        0.053994 -0.014990 0.236220,
        -0.020708 -0.014990 0.236220,
      ]
    }
    coordIndex [
      2, 3, 1, -1,
      1, 3, 0, -1,
    ]
  }
}

Shape {
  appearance Appearance {
    material Material {
      diffuseColor 0.7529 0.7529 0.7529
      specularColor 0.3765 0.3765 0.3765
      ambientIntensity 0.2
      transparency 0.0000
      shininess 0.5
    }
  }
  geometry IndexedFaceSet {
    ccw TRUE
    solid FALSE
    coord DEF co Coordinate {
      point [
        -0.020708 -0.031142 0.196850,
        -0.020708 -0.014990 0.196850,
        -0.020708 -0.014990 0.236220,
        -0.020708 -0.031142 0.236220,
      ]
    }
    coordIndex [
      2, 3, 1, -1,
      1, 3, 0, -1,
    ]
  }
}

Shape {
  appearance Appearance {
    material Material {
      diffuseColor 0.1490 0.1490 0.1490
      specularColor 0.0745 0.0745 0.0745
      ambientIntensity 0.2
      transparency 0.0000
      shininess 0.5
    }
  }
  geometry IndexedFaceSet {
    ccw TRUE
    solid FALSE
    coord DEF co Coordinate {
      point [
        -0.020708 -0.031142 0.196850,
        0.053994 -0.031142 0.196850,
        -0.020708 -0.031142 0.236220,
        0.053994 -0.031142 0.236220,
      ]
    }
    coordIndex [
      2, 3, 0, -1,
      0, 3, 1, -1,
    ]
  }
}

Shape {
  appearance Appearance {
    material Material {
      diffuseColor 0.7529 0.7529 0.7529
      specularColor 0.3765 0.3765 0.3765
      ambientIntensity 0.2
      transparency 0.0000
      shininess 0.5
    }
  }
  geometry IndexedFaceSet {
    ccw TRUE
    solid FALSE
    coord DEF co Coordinate {
      point [
        0.053994 -0.031142 0.196850,
        0.053994 -0.091711 0.196850,
        0.053994 -0.031142 0.236220,
        0.053994 -0.091711 0.236220,
      ]
    }
    coordIndex [
      2, 3, 0, -1,
      0, 3, 1, -1,
    ]
  }
}

Shape {
  appearance Appearance {
    material Material {
      diffuseColor 0.1490 0.1490 0.1490
      specularColor 0.0745 0.0745 0.0745
      ambientIntensity 0.2
      transparency 0.0000
      shininess 0.5
    }
  }
  geometry IndexedFaceSet {
    ccw TRUE
    solid FALSE
    coord DEF co Coordinate {
      point [
        0.053994 -0.091711 0.196850,
        -0.020708 -0.091711 0.196850,
        0.053994 -0.091711 0.236220,
        -0.020708 -0.091711 0.236220,
      ]
    }
    coordIndex [
      2, 3, 0, -1,
      0, 3, 1, -1,
    ]
  }
}

Shape {
  appearance Appearance {
    material Material {
      diffuseColor 0.7529 0.7529 0.7529
      specularColor 0.3765 0.3765 0.3765
      ambientIntensity 0.2
      transparency 0.0000
      shininess 0.5
    }
  }
  geometry IndexedFaceSet {
    ccw TRUE
    solid FALSE
    coord DEF co Coordinate {
      point [
        -0.020708 -0.107863 0.196850,
        -0.020708 -0.091711 0.196850,
        -0.020708 -0.091711 0.236220,
        -0.020708 -0.107863 0.236220,
      ]
    }
    coordIndex [
      2, 3, 1, -1,
      1, 3, 0, -1,
    ]
  }
}

Shape {
  appearance Appearance {
    material Material {
      diffuseColor 0.1490 0.1490 0.1490
      specularColor 0.0745 0.0745 0.0745
      ambientIntensity 0.2
      transparency 0.0000
      shininess 0.5
    }
  }
  geometry IndexedFaceSet {
    ccw TRUE
    solid FALSE
    coord DEF co Coordinate {
      point [
        0.068127 -0.107863 0.196850,
        -0.020708 -0.107863 0.196850,
        0.068127 -0.107863 0.236220,
        -0.020708 -0.107863 0.236220,
      ]
    }
    coordIndex [
      3, 2, 1, -1,
      1, 2, 0, -1,
    ]
  }
}

Shape {
  appearance Appearance {
    material Material {
      diffuseColor 0.7529 0.7529 0.7529
      specularColor 0.3765 0.3765 0.3765
      ambientIntensity 0.2
      transparency 0.0000
      shininess 0.5
    }
  }
  geometry IndexedFaceSet {
    ccw TRUE
    solid FALSE
    coord DEF co Coordinate {
      point [
        0.114709 0.035694 0.196850,
        0.131867 0.046094 0.196850,
        0.146220 0.051019 0.196850,
        0.100431 0.020721 0.196850,
        0.105061 0.026524 0.196850,
        0.169139 0.053655 0.196850,
        0.068127 -0.107863 0.236220,
        0.068127 0.049617 0.236220,
        -0.020708 0.049617 0.236220,
        -0.020708 0.033465 0.236220,
        0.053994 0.033465 0.236220,
        0.053994 -0.014990 0.236220,
        -0.020708 -0.014990 0.236220,
        -0.020708 -0.031142 0.236220,
        0.053994 -0.031142 0.236220,
        0.053994 -0.091711 0.236220,
        -0.020708 -0.091711 0.236220,
        -0.020708 -0.107863 0.236220,
        0.100431 0.020721 0.236220,
        0.105061 0.026524 0.236220,
        0.114709 0.035694 0.236220,
        0.131867 0.046094 0.236220,
        0.146220 0.051019 0.236220,
        0.169139 0.053655 0.236220,
      ]
    }
    coordIndex [
      6, 17, 16, -1,
      16, 15, 6, -1,
      6, 15, 14, -1,
      6, 14, 7, -1,
      9, 8, 10, -1,
      10, 8, 7, -1,
      10, 7, 11, -1,
      11, 7, 14, -1,
      11, 14, 12, -1,
      12, 14, 13, -1,
      18, 3, 4, -1,
      18, 4, 19, -1,
      19, 4, 0, -1,
      19, 0, 20, -1,
      20, 0, 1, -1,
      20, 1, 21, -1,
      21, 1, 2, -1,
      21, 2, 22, -1,
      22, 2, 5, -1,
      22, 5, 23, -1,
    ]
  }
}

Shape {
  appearance Appearance {
    material Material {
      diffuseColor 0.1490 0.1490 0.1490
      specularColor 0.0745 0.0745 0.0745
      ambientIntensity 0.2
      transparency 0.0000
      shininess 0.5
    }
  }
  geometry IndexedFaceSet {
    ccw TRUE
    solid FALSE
    coord DEF co Coordinate {
      point [
        0.100431 0.020721 0.196850,
        0.112797 0.011257 0.196850,
        0.100431 0.020721 0.236220,
        0.112797 0.011257 0.236220,
      ]
    }
    coordIndex [
      2, 3, 0, -1,
      0, 3, 1, -1,
    ]
  }
}

Shape {
  appearance Appearance {
    material Material {
      diffuseColor 0.7529 0.7529 0.7529
      specularColor 0.3765 0.3765 0.3765
      ambientIntensity 0.2
      transparency 0.0000
      shininess 0.5
    }
  }
  geometry IndexedFaceSet {
    ccw TRUE
    solid FALSE
    coord DEF co Coordinate {
      point [
        0.112797 -0.069502 0.196850,
        0.239384 -0.021884 0.196850,
        0.239741 -0.029281 0.196850,
        0.170022 0.037504 0.196850,
        0.236014 -0.006586 0.196850,
        0.224200 -0.072040 0.196850,
        0.212818 -0.082450 0.196850,
        0.112797 0.011257 0.196850,
        0.125426 0.023480 0.196850,
        0.121514 -0.078302 0.196850,
        0.140234 0.031844 0.196850,
        0.135441 -0.087841 0.196850,
        0.150602 -0.093570 0.196850,
        0.188642 0.035214 0.196850,
        0.204717 0.028984 0.196850,
        0.237661 -0.046633 0.196850,
        0.232685 -0.059707 0.196850,
        0.147136 0.034294 0.196850,
        0.164530 0.037314 0.196850,
        0.181569 -0.094891 0.196850,
        0.197570 -0.090765 0.196850,
        0.169044 -0.095749 0.196850,
        0.219212 0.018799 0.196850,
        0.228994 0.007378 0.196850,
        0.112797 0.011257 0.236220,
        0.170022 0.037504 0.236220,
        0.164530 0.037314 0.236220,
        0.147136 0.034294 0.236220,
        0.140234 0.031844 0.236220,
        0.125426 0.023480 0.236220,
        0.239741 -0.029281 0.236220,
        0.239384 -0.021884 0.236220,
        0.236014 -0.006586 0.236220,
        0.228994 0.007378 0.236220,
        0.219212 0.018799 0.236220,
        0.204717 0.028984 0.236220,
        0.188642 0.035214 0.236220,
        0.169044 -0.095749 0.236220,
        0.181569 -0.094891 0.236220,
        0.197570 -0.090765 0.236220,
        0.212818 -0.082450 0.236220,
        0.224200 -0.072040 0.236220,
        0.232685 -0.059707 0.236220,
        0.237661 -0.046633 0.236220,
        0.112797 -0.069502 0.236220,
        0.121514 -0.078302 0.236220,
        0.135441 -0.087841 0.236220,
        0.150602 -0.093570 0.236220,
      ]
    }
    coordIndex [
      25, 3, 18, -1,
      25, 18, 26, -1,
      26, 18, 17, -1,
      26, 17, 27, -1,
      27, 17, 10, -1,
      27, 10, 28, -1,
      28, 10, 8, -1,
      28, 8, 29, -1,
      29, 8, 7, -1,
      29, 7, 24, -1,
      30, 2, 1, -1,
      30, 1, 31, -1,
      31, 1, 4, -1,
      31, 4, 32, -1,
      32, 4, 23, -1,
      32, 23, 33, -1,
      33, 23, 22, -1,
      33, 22, 34, -1,
      34, 22, 14, -1,
      34, 14, 35, -1,
      35, 14, 13, -1,
      35, 13, 36, -1,
      36, 13, 3, -1,
      36, 3, 25, -1,
      37, 21, 19, -1,
      37, 19, 38, -1,
      38, 19, 20, -1,
      38, 20, 39, -1,
      39, 20, 6, -1,
      39, 6, 40, -1,
      40, 6, 5, -1,
      40, 5, 41, -1,
      41, 5, 16, -1,
      41, 16, 42, -1,
      42, 16, 15, -1,
      42, 15, 43, -1,
      43, 15, 2, -1,
      43, 2, 30, -1,
      44, 0, 9, -1,
      44, 9, 45, -1,
      45, 9, 11, -1,
      45, 11, 46, -1,
      46, 11, 12, -1,
      46, 12, 47, -1,
      47, 12, 21, -1,
      47, 21, 37, -1,
    ]
  }
}

Shape {
  appearance Appearance {
    material Material {
      diffuseColor 0.1490 0.1490 0.1490
      specularColor 0.0745 0.0745 0.0745
      ambientIntensity 0.2
      transparency 0.0000
      shininess 0.5
    }
  }
  geometry IndexedFaceSet {
    ccw TRUE
    solid FALSE
    coord DEF co Coordinate {
      point [
        0.100431 -0.078872 0.196850,
        0.112797 -0.069502 0.196850,
        0.112797 -0.069502 0.236220,
        0.100431 -0.078872 0.236220,
      ]
    }
    coordIndex [
      2, 3, 1, -1,
      1, 3, 0, -1,
    ]
  }
}

Shape {
  appearance Appearance {
    material Material {
      diffuseColor 0.7529 0.7529 0.7529
      specularColor 0.3765 0.3765 0.3765
      ambientIntensity 0.2
      transparency 0.0000
      shininess 0.5
    }
  }
  geometry IndexedFaceSet {
    ccw TRUE
    solid FALSE
    coord DEF co Coordinate {
      point [
        0.100431 -0.078872 0.196850,
        0.114333 -0.093440 0.196850,
        0.212371 -0.101842 0.196850,
        0.227592 -0.090918 0.196850,
        0.233904 -0.084361 0.196850,
        0.217632 0.039872 0.196850,
        0.200948 0.048341 0.196850,
        0.181722 0.052904 0.196850,
        0.169139 0.053655 0.196850,
        0.251270 -0.006697 0.196850,
        0.244845 0.009995 0.196850,
        0.234035 0.025498 0.196850,
        0.168950 -0.111901 0.196850,
        0.193526 -0.109088 0.196850,
        0.245343 -0.067100 0.196850,
        0.251663 -0.048995 0.196850,
        0.253873 -0.028208 0.196850,
        0.130637 -0.103724 0.196850,
        0.148544 -0.109806 0.196850,
        0.161083 -0.111615 0.196850,
        0.346746 0.049617 0.196850,
        0.346746 -0.107863 0.196850,
        0.100431 0.020721 0.236220,
        0.105061 0.026524 0.236220,
        0.114709 0.035694 0.236220,
        0.131867 0.046094 0.236220,
        0.146220 0.051019 0.236220,
        0.169139 0.053655 0.236220,
        0.112797 0.011257 0.236220,
        0.170022 0.037504 0.236220,
        0.164530 0.037314 0.236220,
        0.147136 0.034294 0.236220,
        0.140234 0.031844 0.236220,
        0.125426 0.023480 0.236220,
        0.239741 -0.029281 0.236220,
        0.239384 -0.021884 0.236220,
        0.236014 -0.006586 0.236220,
        0.228994 0.007378 0.236220,
        0.219212 0.018799 0.236220,
        0.204717 0.028984 0.236220,
        0.188642 0.035214 0.236220,
        0.169044 -0.095749 0.236220,
        0.181569 -0.094891 0.236220,
        0.197570 -0.090765 0.236220,
        0.212818 -0.082450 0.236220,
        0.224200 -0.072040 0.236220,
        0.232685 -0.059707 0.236220,
        0.237661 -0.046633 0.236220,
        0.112797 -0.069502 0.236220,
        0.121514 -0.078302 0.236220,
        0.135441 -0.087841 0.236220,
        0.150602 -0.093570 0.236220,
        0.100431 -0.078872 0.236220,
        0.168950 -0.111901 0.236220,
        0.161083 -0.111615 0.236220,
        0.148544 -0.109806 0.236220,
        0.130637 -0.103724 0.236220,
        0.114333 -0.093440 0.236220,
        0.233904 -0.084361 0.236220,
        0.227592 -0.090918 0.236220,
        0.212371 -0.101842 0.236220,
        0.193526 -0.109088 0.236220,
        0.253873 -0.028208 0.236220,
        0.251663 -0.048995 0.236220,
        0.245343 -0.067100 0.236220,
        0.181722 0.052904 0.236220,
        0.200948 0.048341 0.236220,
        0.217632 0.039872 0.236220,
        0.234035 0.025498 0.236220,
        0.244845 0.009995 0.236220,
        0.251270 -0.006697 0.236220,
        0.346746 -0.107863 0.236220,
        0.346746 0.049617 0.236220,
      ]
    }
    coordIndex [
      53, 12, 19, -1,
      53, 19, 54, -1,
      54, 19, 18, -1,
      54, 18, 55, -1,
      55, 18, 17, -1,
      55, 17, 56, -1,
      56, 17, 1, -1,
      56, 1, 57, -1,
      57, 1, 0, -1,
      57, 0, 52, -1,
      58, 4, 3, -1,
      58, 3, 59, -1,
      59, 3, 2, -1,
      59, 2, 60, -1,
      60, 2, 13, -1,
      60, 13, 61, -1,
      61, 13, 12, -1,
      61, 12, 53, -1,
      62, 16, 15, -1,
      62, 15, 63, -1,
      63, 15, 14, -1,
      63, 14, 64, -1,
      64, 14, 4, -1,
      64, 4, 58, -1,
      27, 8, 7, -1,
      27, 7, 65, -1,
      65, 7, 6, -1,
      65, 6, 66, -1,
      66, 6, 5, -1,
      66, 5, 67, -1,
      67, 5, 11, -1,
      67, 11, 68, -1,
      68, 11, 10, -1,
      68, 10, 69, -1,
      69, 10, 9, -1,
      69, 9, 70, -1,
      70, 9, 16, -1,
      70, 16, 62, -1,
      28, 22, 23, -1,
      52, 48, 57, -1,
      57, 48, 49, -1,
      57, 49, 56, -1,
      56, 49, 50, -1,
      56, 50, 55, -1,
      55, 50, 51, -1,
      55, 51, 54, -1,
      54, 51, 41, -1,
      28, 23, 33, -1,
      33, 23, 24, -1,
      33, 24, 32, -1,
      32, 24, 25, -1,
      32, 25, 31, -1,
      31, 25, 26, -1,
      31, 26, 30, -1,
      30, 26, 27, -1,
      30, 27, 29, -1,
      29, 27, 65, -1,
      29, 65, 40, -1,
      40, 65, 66, -1,
      40, 66, 39, -1,
      39, 66, 67, -1,
      39, 67, 38, -1,
      38, 67, 68, -1,
      38, 68, 37, -1,
      37, 68, 69, -1,
      37, 69, 36, -1,
      36, 69, 70, -1,
      36, 70, 35, -1,
      35, 70, 62, -1,
      35, 62, 34, -1,
      34, 62, 47, -1,
      47, 62, 63, -1,
      47, 63, 46, -1,
      46, 63, 64, -1,
      46, 64, 45, -1,
      45, 64, 58, -1,
      45, 58, 44, -1,
      44, 58, 59, -1,
      44, 59, 43, -1,
      43, 59, 60, -1,
      43, 60, 42, -1,
      42, 60, 61, -1,
      42, 61, 41, -1,
      41, 61, 53, -1,
      41, 53, 54, -1,
      71, 72, 21, -1,
      21, 72, 20, -1,
    ]
  }
}

Shape {
  appearance Appearance {
    material Material {
      diffuseColor 0.1490 0.1490 0.1490
      specularColor 0.0745 0.0745 0.0745
      ambientIntensity 0.2
      transparency 0.0000
      shininess 0.5
    }
  }
  geometry IndexedFaceSet {
    ccw TRUE
    solid FALSE
    coord DEF co Coordinate {
      point [
        0.332613 0.049617 0.196850,
        0.346746 0.049617 0.196850,
        0.346746 0.049617 0.236220,
        0.332613 0.049617 0.236220,
      ]
    }
    coordIndex [
      2, 3, 1, -1,
      1, 3, 0, -1,
    ]
  }
}

Shape {
  appearance Appearance {
    material Material {
      diffuseColor 0.7529 0.7529 0.7529
      specularColor 0.3765 0.3765 0.3765
      ambientIntensity 0.2
      transparency 0.0000
      shininess 0.5
    }
  }
  geometry IndexedFaceSet {
    ccw TRUE
    solid FALSE
    coord DEF co Coordinate {
      point [
        0.332613 0.049617 0.196850,
        0.332613 -0.091711 0.196850,
        0.332613 0.049617 0.236220,
        0.332613 -0.091711 0.236220,
      ]
    }
    coordIndex [
      2, 3, 0, -1,
      0, 3, 1, -1,
    ]
  }
}

Shape {
  appearance Appearance {
    material Material {
      diffuseColor 0.1490 0.1490 0.1490
      specularColor 0.0745 0.0745 0.0745
      ambientIntensity 0.2
      transparency 0.0000
      shininess 0.5
    }
  }
  geometry IndexedFaceSet {
    ccw TRUE
    solid FALSE
    coord DEF co Coordinate {
      point [
        0.332613 -0.091711 0.196850,
        0.272044 -0.091711 0.196850,
        0.332613 -0.091711 0.236220,
        0.272044 -0.091711 0.236220,
      ]
    }
    coordIndex [
      2, 3, 0, -1,
      0, 3, 1, -1,
    ]
  }
}

Shape {
  appearance Appearance {
    material Material {
      diffuseColor 0.7529 0.7529 0.7529
      specularColor 0.3765 0.3765 0.3765
      ambientIntensity 0.2
      transparency 0.0000
      shininess 0.5
    }
  }
  geometry IndexedFaceSet {
    ccw TRUE
    solid FALSE
    coord DEF co Coordinate {
      point [
        0.272044 -0.091711 0.196850,
        0.272044 -0.107863 0.196850,
        0.272044 -0.091711 0.236220,
        0.272044 -0.107863 0.236220,
      ]
    }
    coordIndex [
      2, 3, 0, -1,
      0, 3, 1, -1,
    ]
  }
}

Shape {
  appearance Appearance {
    material Material {
      diffuseColor 0.1490 0.1490 0.1490
      specularColor 0.0745 0.0745 0.0745
      ambientIntensity 0.2
      transparency 0.0000
      shininess 0.5
    }
  }
  geometry IndexedFaceSet {
    ccw TRUE
    solid FALSE
    coord DEF co Coordinate {
      point [
        0.272044 -0.107863 0.196850,
        0.346746 -0.107863 0.196850,
        0.346746 -0.107863 0.236220,
        0.272044 -0.107863 0.236220,
      ]
    }
    coordIndex [
      3, 2, 0, -1,
      0, 2, 1, -1,
    ]
  }
}

Shape {
  appearance Appearance {
    material Material {
      diffuseColor 0.7529 0.7529 0.7529
      specularColor 0.3765 0.3765 0.3765
      ambientIntensity 0.2
      transparency 0.0000
      shininess 0.5
    }
  }
  geometry IndexedFaceSet {
    ccw TRUE
    solid FALSE
    coord DEF co Coordinate {
      point [
        0.346746 -0.107863 0.236220,
        0.346746 0.049617 0.236220,
        0.332613 0.049617 0.236220,
        0.332613 -0.091711 0.236220,
        0.272044 -0.091711 0.236220,
        0.272044 -0.107863 0.236220,
      ]
    }
    coordIndex [
      2, 1, 3, -1,
      3, 1, 0, -1,
      3, 0, 4, -1,
      4, 0, 5, -1,
    ]
  }
}

Shape {
  appearance Appearance {
    material Material {
      diffuseColor 0.1490 0.1490 0.1490
      specularColor 0.0745 0.0745 0.0745
      ambientIntensity 0.2
      transparency 0.0000
      shininess 0.5
    }
  }
  geometry IndexedFaceSet {
    ccw TRUE
    solid FALSE
    coord DEF co Coordinate {
      point [
        -0.301693 -0.041237 0.196850,
        -0.273932 0.018922 0.196850,
        -0.245414 -0.041237 0.196850,
        -0.063106 0.033465 0.196850,
        -0.063106 -0.091711 0.196850,
        -0.074179 0.033465 0.196850,
        -0.098529 0.032724 0.196850,
        -0.122572 0.029049 0.196850,
        -0.129637 0.026478 0.196850,
        -0.141403 0.019597 0.196850,
        -0.150504 0.010701 0.196850,
        -0.157736 -0.000820 0.196850,
        -0.162341 -0.014380 0.196850,
        -0.164055 -0.031079 0.196850,
        -0.163941 -0.035465 0.196850,
        -0.161153 -0.052104 0.196850,
        -0.155942 -0.064031 0.196850,
        -0.148121 -0.074341 0.196850,
        -0.138753 -0.081919 0.196850,
        -0.126199 -0.087705 0.196850,
        -0.103835 -0.091074 0.196850,
        -0.081183 -0.091711 0.196850,
      ]
    }
    coordIndex [
      1, 2, 0, -1,
      3, 4, 5, -1,
      5, 4, 21, -1,
      5, 21, 6, -1,
      6, 21, 20, -1,
      6, 20, 7, -1,
      16, 15, 20, -1,
      20, 15, 14, -1,
      20, 14, 13, -1,
      19, 18, 20, -1,
      20, 18, 17, -1,
      20, 17, 16, -1,
      13, 12, 20, -1,
      20, 12, 11, -1,
      20, 11, 10, -1,
      10, 9, 20, -1,
      20, 9, 8, -1,
      20, 8, 7, -1,
    ]
  }
}
